M48
; DRILL file {KiCad (5.1.5)-3} date 2020/09/17 21:04:59
; FORMAT={-:-/ absolute / inch / decimal}
; #@! TF.CreationDate,2020-09-17T21:04:59+09:00
; #@! TF.GenerationSoftware,Kicad,Pcbnew,(5.1.5)-3
; #@! TF.FileFunction,Plated,1,2,PTH
FMAT,2
INCH
T1C0.0157
T2C0.0276
T3C0.0315
T4C0.0394
T5C0.0400
%
G90
G05
T1
X2.325Y-2.4125
X2.325Y-2.8875
X2.4625Y-3.475
X2.475Y-3.3625
X2.5Y-3.7
X2.55Y-3.675
X2.6375Y-2.3
X2.6375Y-2.775
X2.7875Y-3.7125
X2.8375Y-2.1875
X2.8375Y-2.6625
X2.8375Y-3.1375
X2.875Y-3.3625
X3.1518Y-2.4125
X3.1518Y-2.8875
X3.2625Y-3.8
X3.4125Y-3.4375
X3.4125Y-3.675
X3.4643Y-2.3
X3.4643Y-2.775
X3.525Y-3.275
X3.525Y-3.4
X3.6125Y-3.75
X3.6573Y-3.75
X3.6643Y-2.1875
X3.6643Y-2.6625
X3.6643Y-3.1375
X3.8Y-3.4875
X3.9Y-3.275
X3.9Y-3.4
X4.0573Y-2.4125
X4.0573Y-2.8875
X4.125Y-3.575
X4.2625Y-3.4375
X4.3125Y-3.7561
X4.3125Y-3.825
X4.3698Y-2.3
X4.3698Y-2.775
X4.4125Y-3.525
X4.5Y-3.65
X4.5698Y-2.1875
X4.5698Y-2.6625
X4.5698Y-3.1375
X4.7625Y-3.475
X4.775Y-3.8375
X4.8841Y-2.4125
X4.8841Y-2.8875
X4.8875Y-3.8875
X4.9125Y-3.55
X4.9834Y-3.5442
X5.0Y-3.6
X5.025Y-3.65
X5.1Y-3.6375
X5.1966Y-2.3
X5.1966Y-2.775
X5.2375Y-3.3875
X5.2375Y-3.45
X5.2375Y-3.5125
X5.2375Y-3.575
X5.2375Y-3.8625
X5.3966Y-2.1875
X5.3966Y-2.6625
X5.3966Y-3.1375
X5.7896Y-2.4125
X5.7896Y-2.8875
X5.975Y-3.575
X6.1021Y-2.3
X6.1021Y-2.775
X6.3021Y-2.1875
X6.3021Y-2.6625
X6.3021Y-3.1375
X6.375Y-3.575
X6.6163Y-2.4125
X6.6163Y-2.8875
X6.775Y-3.575
X6.9288Y-2.3
X6.9288Y-2.775
X7.125Y-3.0625
X7.1288Y-2.1875
X7.1288Y-2.6625
X7.1288Y-3.1375
X7.175Y-3.575
T2
X2.3028Y-3.568
X2.3028Y-3.631
X2.35Y-3.5365
X2.35Y-3.5995
X2.35Y-3.6625
T4
X3.9Y-3.525
X3.9Y-3.6234
T5
X5.5625Y-3.675
X5.5625Y-3.775
X5.6625Y-3.675
X5.6625Y-3.775
X5.7625Y-3.675
X5.7625Y-3.775
T3
G00X2.1059Y-3.4223
M15
G01X2.1492Y-3.4223
M16
G05
G00X2.1059Y-3.7767
M15
G01X2.1492Y-3.7767
M16
G05
G00X2.2929Y-3.4223
M15
G01X2.3362Y-3.4223
M16
G05
G00X2.2929Y-3.7767
M15
G01X2.3362Y-3.7767
M16
G05
T0
M30
