G04 #@! TF.GenerationSoftware,KiCad,Pcbnew,(5.1.5)-3*
G04 #@! TF.CreationDate,2020-09-17T21:05:18+09:00*
G04 #@! TF.ProjectId,acrylic_nixie_clock,61637279-6c69-4635-9f6e-697869655f63,rev?*
G04 #@! TF.SameCoordinates,Original*
G04 #@! TF.FileFunction,Copper,L2,Bot*
G04 #@! TF.FilePolarity,Positive*
%FSLAX46Y46*%
G04 Gerber Fmt 4.6, Leading zero omitted, Abs format (unit mm)*
G04 Created by KiCad (PCBNEW (5.1.5)-3) date 2020-09-17 21:05:18*
%MOMM*%
%LPD*%
G04 APERTURE LIST*
%ADD10O,2.400000X1.300000*%
%ADD11C,1.200000*%
%ADD12C,0.100000*%
%ADD13O,2.000000X1.700000*%
%ADD14R,1.727200X1.727200*%
%ADD15O,1.727200X1.727200*%
%ADD16R,2.540000X3.510000*%
%ADD17C,0.800000*%
%ADD18C,0.250000*%
%ADD19C,0.254000*%
G04 APERTURE END LIST*
D10*
X54040000Y-95927500D03*
X58790000Y-95927500D03*
X54040000Y-86927500D03*
X58790000Y-86927500D03*
D11*
X59690000Y-89827500D03*
X59690000Y-91427500D03*
X59690000Y-93027500D03*
X58490000Y-92227500D03*
X58490000Y-90627500D03*
G04 #@! TA.AperFunction,ComponentPad*
D12*
G36*
X99834504Y-88686204D02*
G01*
X99858773Y-88689804D01*
X99882571Y-88695765D01*
X99905671Y-88704030D01*
X99927849Y-88714520D01*
X99948893Y-88727133D01*
X99968598Y-88741747D01*
X99986777Y-88758223D01*
X100003253Y-88776402D01*
X100017867Y-88796107D01*
X100030480Y-88817151D01*
X100040970Y-88839329D01*
X100049235Y-88862429D01*
X100055196Y-88886227D01*
X100058796Y-88910496D01*
X100060000Y-88935000D01*
X100060000Y-90135000D01*
X100058796Y-90159504D01*
X100055196Y-90183773D01*
X100049235Y-90207571D01*
X100040970Y-90230671D01*
X100030480Y-90252849D01*
X100017867Y-90273893D01*
X100003253Y-90293598D01*
X99986777Y-90311777D01*
X99968598Y-90328253D01*
X99948893Y-90342867D01*
X99927849Y-90355480D01*
X99905671Y-90365970D01*
X99882571Y-90374235D01*
X99858773Y-90380196D01*
X99834504Y-90383796D01*
X99810000Y-90385000D01*
X98310000Y-90385000D01*
X98285496Y-90383796D01*
X98261227Y-90380196D01*
X98237429Y-90374235D01*
X98214329Y-90365970D01*
X98192151Y-90355480D01*
X98171107Y-90342867D01*
X98151402Y-90328253D01*
X98133223Y-90311777D01*
X98116747Y-90293598D01*
X98102133Y-90273893D01*
X98089520Y-90252849D01*
X98079030Y-90230671D01*
X98070765Y-90207571D01*
X98064804Y-90183773D01*
X98061204Y-90159504D01*
X98060000Y-90135000D01*
X98060000Y-88935000D01*
X98061204Y-88910496D01*
X98064804Y-88886227D01*
X98070765Y-88862429D01*
X98079030Y-88839329D01*
X98089520Y-88817151D01*
X98102133Y-88796107D01*
X98116747Y-88776402D01*
X98133223Y-88758223D01*
X98151402Y-88741747D01*
X98171107Y-88727133D01*
X98192151Y-88714520D01*
X98214329Y-88704030D01*
X98237429Y-88695765D01*
X98261227Y-88689804D01*
X98285496Y-88686204D01*
X98310000Y-88685000D01*
X99810000Y-88685000D01*
X99834504Y-88686204D01*
G37*
G04 #@! TD.AperFunction*
D13*
X99060000Y-92035000D03*
D14*
X146367500Y-95885000D03*
D15*
X146367500Y-93345000D03*
X143827500Y-95885000D03*
X143827500Y-93345000D03*
X141287500Y-95885000D03*
X141287500Y-93345000D03*
D16*
X132680000Y-65000000D03*
X103320000Y-65000000D03*
D17*
X73025000Y-85407500D03*
X62865000Y-85407500D03*
X93072500Y-55562500D03*
X87992500Y-58420000D03*
X93072500Y-79692500D03*
X93072500Y-67627500D03*
X80055000Y-73342500D03*
X80055000Y-61277500D03*
X87992500Y-70485000D03*
X116072500Y-55562500D03*
X110992500Y-58420000D03*
X116072500Y-79692500D03*
X116072500Y-67627500D03*
X103055000Y-73342500D03*
X103055000Y-61277500D03*
X110992500Y-70485000D03*
X137072500Y-55562500D03*
X131992500Y-58420000D03*
X137072500Y-79692500D03*
X137072500Y-67627500D03*
X124055000Y-73342500D03*
X124055000Y-61277500D03*
X131992500Y-70485000D03*
X160072500Y-55562500D03*
X154992500Y-58420000D03*
X160072500Y-79692500D03*
X160072500Y-67627500D03*
X147055000Y-73342500D03*
X147055000Y-61277500D03*
X154992500Y-70485000D03*
X181072500Y-55562500D03*
X175992500Y-58420000D03*
X181072500Y-79692500D03*
X181072500Y-67627500D03*
X168055000Y-73342500D03*
X168055000Y-61277500D03*
X175992500Y-70485000D03*
X104775000Y-90805000D03*
X96520000Y-88582500D03*
X129540000Y-92392500D03*
X108267500Y-87312500D03*
X82867500Y-96520000D03*
X121285000Y-97472500D03*
X120967500Y-88265000D03*
X86677500Y-87312500D03*
X91757500Y-95250000D03*
X72072500Y-55562500D03*
X72072500Y-67627500D03*
X72072500Y-79692500D03*
X66992500Y-70485000D03*
X66992500Y-58420000D03*
X59055000Y-73342500D03*
X59055000Y-61277500D03*
X89535000Y-86360000D03*
X89535000Y-83185000D03*
X99060000Y-86360000D03*
X99060000Y-83185000D03*
X180975000Y-77787500D03*
X124777500Y-90170000D03*
X62547500Y-88265000D03*
X124142500Y-98742500D03*
X133032500Y-98107500D03*
X126577800Y-90022500D03*
X92895000Y-95250000D03*
X133032500Y-90805000D03*
X151765000Y-90805000D03*
X133032500Y-89217500D03*
X161925000Y-90805000D03*
X133032500Y-87630000D03*
X172085000Y-90805000D03*
X133032500Y-86042500D03*
X182245000Y-90805000D03*
X109537500Y-95406200D03*
X109537500Y-97155000D03*
X127000000Y-91440000D03*
X114300000Y-92710000D03*
X127635000Y-92710000D03*
X112077500Y-89535000D03*
X63500000Y-93980000D03*
X70802500Y-94297500D03*
X86677500Y-93345000D03*
X64770000Y-93345000D03*
D18*
X89535000Y-86360000D02*
X89535000Y-83185000D01*
X99060000Y-86360000D02*
X99060000Y-83185000D01*
X180409315Y-77787500D02*
X180975000Y-77787500D01*
X136594315Y-77787500D02*
X180409315Y-77787500D01*
X124777500Y-89604315D02*
X136594315Y-77787500D01*
X124777500Y-90170000D02*
X124777500Y-89604315D01*
X62547500Y-88265000D02*
X62547500Y-94932500D01*
X62547500Y-94932500D02*
X66357500Y-98742500D01*
X66357500Y-98742500D02*
X124142500Y-98742500D01*
X58790000Y-86927500D02*
X54040000Y-86927500D01*
X54040000Y-87827500D02*
X54040000Y-95927500D01*
X54040000Y-86927500D02*
X54040000Y-87827500D01*
X54040000Y-95927500D02*
X58790000Y-95927500D01*
X142963901Y-94208599D02*
X143827500Y-93345000D01*
X142638899Y-96438601D02*
X142638899Y-94533601D01*
X142638899Y-94533601D02*
X142963901Y-94208599D01*
X140970000Y-98107500D02*
X142638899Y-96438601D01*
X133032500Y-98107500D02*
X140970000Y-98107500D01*
X141287500Y-95885000D02*
X135890000Y-95885000D01*
X130027500Y-90022500D02*
X126577800Y-90022500D01*
X135890000Y-95885000D02*
X130027500Y-90022500D01*
X126177801Y-90422499D02*
X126577800Y-90022500D01*
X125705299Y-90895001D02*
X126177801Y-90422499D01*
X107274602Y-95250000D02*
X111629601Y-90895001D01*
X111629601Y-90895001D02*
X125705299Y-90895001D01*
X92895000Y-95250000D02*
X107274602Y-95250000D01*
X133032500Y-90805000D02*
X151765000Y-90805000D01*
X133032500Y-89217500D02*
X160337500Y-89217500D01*
X160337500Y-89217500D02*
X161925000Y-90805000D01*
X133032500Y-87630000D02*
X168910000Y-87630000D01*
X168910000Y-87630000D02*
X172085000Y-90805000D01*
X133032500Y-86042500D02*
X177482500Y-86042500D01*
X177482500Y-86042500D02*
X182245000Y-90805000D01*
X109537500Y-97155000D02*
X109537500Y-95406200D01*
X113503700Y-91440000D02*
X109537500Y-95406200D01*
X127000000Y-91440000D02*
X113503700Y-91440000D01*
X114300000Y-92710000D02*
X127635000Y-92710000D01*
X132680000Y-65000000D02*
X128992500Y-65000000D01*
X128992500Y-65000000D02*
X112077500Y-81915000D01*
X112077500Y-81915000D02*
X112077500Y-89535000D01*
X70720001Y-94379999D02*
X70802500Y-94297500D01*
X63500000Y-93980000D02*
X63899999Y-94379999D01*
X63899999Y-94379999D02*
X70720001Y-94379999D01*
X86677500Y-93345000D02*
X64770000Y-93345000D01*
D19*
G36*
X188813246Y-50480194D02*
G01*
X189600773Y-50695638D01*
X190337716Y-51047141D01*
X191000760Y-51523587D01*
X191568956Y-52109919D01*
X192024338Y-52787600D01*
X192352519Y-53535216D01*
X192543870Y-54332251D01*
X192594000Y-55014892D01*
X192594001Y-94981904D01*
X192519806Y-95813246D01*
X192304362Y-96600774D01*
X191952859Y-97337716D01*
X191476413Y-98000760D01*
X190890081Y-98568956D01*
X190212400Y-99024338D01*
X189464784Y-99352519D01*
X188667749Y-99543870D01*
X187985108Y-99594000D01*
X55018085Y-99594000D01*
X54186754Y-99519806D01*
X53399226Y-99304362D01*
X52662284Y-98952859D01*
X51999240Y-98476413D01*
X51431044Y-97890081D01*
X50975662Y-97212400D01*
X50647481Y-96464784D01*
X50456130Y-95667749D01*
X50406000Y-94985108D01*
X50406000Y-86927500D01*
X52454012Y-86927500D01*
X52473918Y-87129611D01*
X52532872Y-87323955D01*
X52628607Y-87503064D01*
X52757446Y-87660054D01*
X52914436Y-87788893D01*
X53093545Y-87884628D01*
X53287889Y-87943582D01*
X53439355Y-87958500D01*
X53534000Y-87958500D01*
X53534001Y-94896500D01*
X53439355Y-94896500D01*
X53287889Y-94911418D01*
X53093545Y-94970372D01*
X52914436Y-95066107D01*
X52757446Y-95194946D01*
X52628607Y-95351936D01*
X52532872Y-95531045D01*
X52473918Y-95725389D01*
X52454012Y-95927500D01*
X52473918Y-96129611D01*
X52532872Y-96323955D01*
X52628607Y-96503064D01*
X52757446Y-96660054D01*
X52914436Y-96788893D01*
X53093545Y-96884628D01*
X53287889Y-96943582D01*
X53439355Y-96958500D01*
X54640645Y-96958500D01*
X54792111Y-96943582D01*
X54986455Y-96884628D01*
X55165564Y-96788893D01*
X55322554Y-96660054D01*
X55451393Y-96503064D01*
X55488575Y-96433500D01*
X57341425Y-96433500D01*
X57378607Y-96503064D01*
X57507446Y-96660054D01*
X57664436Y-96788893D01*
X57843545Y-96884628D01*
X58037889Y-96943582D01*
X58189355Y-96958500D01*
X59390645Y-96958500D01*
X59542111Y-96943582D01*
X59736455Y-96884628D01*
X59915564Y-96788893D01*
X60072554Y-96660054D01*
X60201393Y-96503064D01*
X60297128Y-96323955D01*
X60356082Y-96129611D01*
X60375988Y-95927500D01*
X60356082Y-95725389D01*
X60297128Y-95531045D01*
X60201393Y-95351936D01*
X60072554Y-95194946D01*
X59915564Y-95066107D01*
X59736455Y-94970372D01*
X59542111Y-94911418D01*
X59390645Y-94896500D01*
X58189355Y-94896500D01*
X58037889Y-94911418D01*
X57843545Y-94970372D01*
X57664436Y-95066107D01*
X57507446Y-95194946D01*
X57378607Y-95351936D01*
X57341425Y-95421500D01*
X55488575Y-95421500D01*
X55451393Y-95351936D01*
X55322554Y-95194946D01*
X55165564Y-95066107D01*
X54986455Y-94970372D01*
X54792111Y-94911418D01*
X54640645Y-94896500D01*
X54546000Y-94896500D01*
X54546000Y-90530880D01*
X57509000Y-90530880D01*
X57509000Y-90724120D01*
X57546699Y-90913647D01*
X57620649Y-91092178D01*
X57728007Y-91252851D01*
X57864649Y-91389493D01*
X57921531Y-91427500D01*
X57864649Y-91465507D01*
X57728007Y-91602149D01*
X57620649Y-91762822D01*
X57546699Y-91941353D01*
X57509000Y-92130880D01*
X57509000Y-92324120D01*
X57546699Y-92513647D01*
X57620649Y-92692178D01*
X57728007Y-92852851D01*
X57864649Y-92989493D01*
X58025322Y-93096851D01*
X58203853Y-93170801D01*
X58393380Y-93208500D01*
X58586620Y-93208500D01*
X58776147Y-93170801D01*
X58954678Y-93096851D01*
X59115351Y-92989493D01*
X59251993Y-92852851D01*
X59359351Y-92692178D01*
X59433301Y-92513647D01*
X59459512Y-92381872D01*
X59593380Y-92408500D01*
X59786620Y-92408500D01*
X59976147Y-92370801D01*
X60154678Y-92296851D01*
X60315351Y-92189493D01*
X60451993Y-92052851D01*
X60559351Y-91892178D01*
X60633301Y-91713647D01*
X60671000Y-91524120D01*
X60671000Y-91330880D01*
X60633301Y-91141353D01*
X60559351Y-90962822D01*
X60451993Y-90802149D01*
X60315351Y-90665507D01*
X60258469Y-90627500D01*
X60315351Y-90589493D01*
X60451993Y-90452851D01*
X60559351Y-90292178D01*
X60633301Y-90113647D01*
X60671000Y-89924120D01*
X60671000Y-89730880D01*
X60633301Y-89541353D01*
X60559351Y-89362822D01*
X60451993Y-89202149D01*
X60315351Y-89065507D01*
X60154678Y-88958149D01*
X59976147Y-88884199D01*
X59786620Y-88846500D01*
X59593380Y-88846500D01*
X59403853Y-88884199D01*
X59225322Y-88958149D01*
X59064649Y-89065507D01*
X58928007Y-89202149D01*
X58820649Y-89362822D01*
X58746699Y-89541353D01*
X58720488Y-89673128D01*
X58586620Y-89646500D01*
X58393380Y-89646500D01*
X58203853Y-89684199D01*
X58025322Y-89758149D01*
X57864649Y-89865507D01*
X57728007Y-90002149D01*
X57620649Y-90162822D01*
X57546699Y-90341353D01*
X57509000Y-90530880D01*
X54546000Y-90530880D01*
X54546000Y-88188078D01*
X61766500Y-88188078D01*
X61766500Y-88341922D01*
X61796513Y-88492809D01*
X61855387Y-88634942D01*
X61940858Y-88762859D01*
X62041500Y-88863501D01*
X62041501Y-94907644D01*
X62039053Y-94932500D01*
X62048822Y-95031692D01*
X62077755Y-95127074D01*
X62099627Y-95167992D01*
X62124742Y-95214979D01*
X62187974Y-95292027D01*
X62207281Y-95307872D01*
X65982128Y-99082720D01*
X65997973Y-99102027D01*
X66075021Y-99165259D01*
X66152637Y-99206746D01*
X66162925Y-99212245D01*
X66258307Y-99241178D01*
X66357500Y-99250948D01*
X66382354Y-99248500D01*
X123543999Y-99248500D01*
X123644641Y-99349142D01*
X123772558Y-99434613D01*
X123914691Y-99493487D01*
X124065578Y-99523500D01*
X124219422Y-99523500D01*
X124370309Y-99493487D01*
X124512442Y-99434613D01*
X124640359Y-99349142D01*
X124749142Y-99240359D01*
X124834613Y-99112442D01*
X124893487Y-98970309D01*
X124923500Y-98819422D01*
X124923500Y-98665578D01*
X124893487Y-98514691D01*
X124834613Y-98372558D01*
X124749142Y-98244641D01*
X124640359Y-98135858D01*
X124512442Y-98050387D01*
X124370309Y-97991513D01*
X124219422Y-97961500D01*
X124065578Y-97961500D01*
X123914691Y-97991513D01*
X123772558Y-98050387D01*
X123644641Y-98135858D01*
X123543999Y-98236500D01*
X66567092Y-98236500D01*
X63503670Y-95173078D01*
X92114000Y-95173078D01*
X92114000Y-95326922D01*
X92144013Y-95477809D01*
X92202887Y-95619942D01*
X92288358Y-95747859D01*
X92397141Y-95856642D01*
X92525058Y-95942113D01*
X92667191Y-96000987D01*
X92818078Y-96031000D01*
X92971922Y-96031000D01*
X93122809Y-96000987D01*
X93264942Y-95942113D01*
X93392859Y-95856642D01*
X93493501Y-95756000D01*
X107249756Y-95756000D01*
X107274602Y-95758447D01*
X107299448Y-95756000D01*
X107299456Y-95756000D01*
X107373795Y-95748678D01*
X107469177Y-95719745D01*
X107557081Y-95672759D01*
X107634129Y-95609527D01*
X107649978Y-95590215D01*
X111839193Y-91401001D01*
X112827107Y-91401001D01*
X109602909Y-94625200D01*
X109460578Y-94625200D01*
X109309691Y-94655213D01*
X109167558Y-94714087D01*
X109039641Y-94799558D01*
X108930858Y-94908341D01*
X108845387Y-95036258D01*
X108786513Y-95178391D01*
X108756500Y-95329278D01*
X108756500Y-95483122D01*
X108786513Y-95634009D01*
X108845387Y-95776142D01*
X108930858Y-95904059D01*
X109031501Y-96004702D01*
X109031500Y-96556499D01*
X108930858Y-96657141D01*
X108845387Y-96785058D01*
X108786513Y-96927191D01*
X108756500Y-97078078D01*
X108756500Y-97231922D01*
X108786513Y-97382809D01*
X108845387Y-97524942D01*
X108930858Y-97652859D01*
X109039641Y-97761642D01*
X109167558Y-97847113D01*
X109309691Y-97905987D01*
X109460578Y-97936000D01*
X109614422Y-97936000D01*
X109765309Y-97905987D01*
X109907442Y-97847113D01*
X110035359Y-97761642D01*
X110144142Y-97652859D01*
X110229613Y-97524942D01*
X110288487Y-97382809D01*
X110318500Y-97231922D01*
X110318500Y-97078078D01*
X110288487Y-96927191D01*
X110229613Y-96785058D01*
X110144142Y-96657141D01*
X110043500Y-96556499D01*
X110043500Y-96004701D01*
X110144142Y-95904059D01*
X110229613Y-95776142D01*
X110288487Y-95634009D01*
X110318500Y-95483122D01*
X110318500Y-95340791D01*
X113713292Y-91946000D01*
X114137612Y-91946000D01*
X114072191Y-91959013D01*
X113930058Y-92017887D01*
X113802141Y-92103358D01*
X113693358Y-92212141D01*
X113607887Y-92340058D01*
X113549013Y-92482191D01*
X113519000Y-92633078D01*
X113519000Y-92786922D01*
X113549013Y-92937809D01*
X113607887Y-93079942D01*
X113693358Y-93207859D01*
X113802141Y-93316642D01*
X113930058Y-93402113D01*
X114072191Y-93460987D01*
X114223078Y-93491000D01*
X114376922Y-93491000D01*
X114527809Y-93460987D01*
X114669942Y-93402113D01*
X114797859Y-93316642D01*
X114898501Y-93216000D01*
X127036499Y-93216000D01*
X127137141Y-93316642D01*
X127265058Y-93402113D01*
X127407191Y-93460987D01*
X127558078Y-93491000D01*
X127711922Y-93491000D01*
X127862809Y-93460987D01*
X128004942Y-93402113D01*
X128132859Y-93316642D01*
X128241642Y-93207859D01*
X128327113Y-93079942D01*
X128385987Y-92937809D01*
X128416000Y-92786922D01*
X128416000Y-92633078D01*
X128385987Y-92482191D01*
X128327113Y-92340058D01*
X128241642Y-92212141D01*
X128132859Y-92103358D01*
X128004942Y-92017887D01*
X127862809Y-91959013D01*
X127711922Y-91929000D01*
X127612561Y-91929000D01*
X127692113Y-91809942D01*
X127750987Y-91667809D01*
X127781000Y-91516922D01*
X127781000Y-91363078D01*
X127750987Y-91212191D01*
X127692113Y-91070058D01*
X127606642Y-90942141D01*
X127497859Y-90833358D01*
X127369942Y-90747887D01*
X127227809Y-90689013D01*
X127076922Y-90659000D01*
X127030973Y-90659000D01*
X127075659Y-90629142D01*
X127176301Y-90528500D01*
X129817909Y-90528500D01*
X135514628Y-96225220D01*
X135530473Y-96244527D01*
X135607521Y-96307759D01*
X135695425Y-96354745D01*
X135790807Y-96383678D01*
X135865146Y-96391000D01*
X135865153Y-96391000D01*
X135889999Y-96393447D01*
X135914845Y-96391000D01*
X140149947Y-96391000D01*
X140184550Y-96474539D01*
X140320756Y-96678386D01*
X140494114Y-96851744D01*
X140697961Y-96987950D01*
X140924464Y-97081771D01*
X141164918Y-97129600D01*
X141232309Y-97129600D01*
X140760409Y-97601500D01*
X133631001Y-97601500D01*
X133530359Y-97500858D01*
X133402442Y-97415387D01*
X133260309Y-97356513D01*
X133109422Y-97326500D01*
X132955578Y-97326500D01*
X132804691Y-97356513D01*
X132662558Y-97415387D01*
X132534641Y-97500858D01*
X132425858Y-97609641D01*
X132340387Y-97737558D01*
X132281513Y-97879691D01*
X132251500Y-98030578D01*
X132251500Y-98184422D01*
X132281513Y-98335309D01*
X132340387Y-98477442D01*
X132425858Y-98605359D01*
X132534641Y-98714142D01*
X132662558Y-98799613D01*
X132804691Y-98858487D01*
X132955578Y-98888500D01*
X133109422Y-98888500D01*
X133260309Y-98858487D01*
X133402442Y-98799613D01*
X133530359Y-98714142D01*
X133631001Y-98613500D01*
X140945154Y-98613500D01*
X140970000Y-98615947D01*
X140994846Y-98613500D01*
X140994854Y-98613500D01*
X141069193Y-98606178D01*
X141164575Y-98577245D01*
X141252479Y-98530259D01*
X141329527Y-98467027D01*
X141345376Y-98447715D01*
X142979119Y-96813973D01*
X142988579Y-96806209D01*
X143034114Y-96851744D01*
X143237961Y-96987950D01*
X143464464Y-97081771D01*
X143704918Y-97129600D01*
X143950082Y-97129600D01*
X144190536Y-97081771D01*
X144417039Y-96987950D01*
X144620886Y-96851744D01*
X144794244Y-96678386D01*
X144930450Y-96474539D01*
X145024271Y-96248036D01*
X145072100Y-96007582D01*
X145072100Y-95762418D01*
X145024271Y-95521964D01*
X144930450Y-95295461D01*
X144794244Y-95091614D01*
X144724030Y-95021400D01*
X145121057Y-95021400D01*
X145121057Y-96748600D01*
X145128413Y-96823289D01*
X145150199Y-96895108D01*
X145185578Y-96961296D01*
X145233189Y-97019311D01*
X145291204Y-97066922D01*
X145357392Y-97102301D01*
X145429211Y-97124087D01*
X145503900Y-97131443D01*
X147231100Y-97131443D01*
X147305789Y-97124087D01*
X147377608Y-97102301D01*
X147443796Y-97066922D01*
X147501811Y-97019311D01*
X147549422Y-96961296D01*
X147584801Y-96895108D01*
X147606587Y-96823289D01*
X147613943Y-96748600D01*
X147613943Y-95021400D01*
X147606587Y-94946711D01*
X147584801Y-94874892D01*
X147549422Y-94808704D01*
X147501811Y-94750689D01*
X147443796Y-94703078D01*
X147377608Y-94667699D01*
X147305789Y-94645913D01*
X147231100Y-94638557D01*
X145503900Y-94638557D01*
X145429211Y-94645913D01*
X145357392Y-94667699D01*
X145291204Y-94703078D01*
X145233189Y-94750689D01*
X145185578Y-94808704D01*
X145150199Y-94874892D01*
X145128413Y-94946711D01*
X145121057Y-95021400D01*
X144724030Y-95021400D01*
X144620886Y-94918256D01*
X144417039Y-94782050D01*
X144190536Y-94688229D01*
X143950082Y-94640400D01*
X143704918Y-94640400D01*
X143464464Y-94688229D01*
X143237961Y-94782050D01*
X143144899Y-94844232D01*
X143144899Y-94743192D01*
X143380924Y-94507167D01*
X143464464Y-94541771D01*
X143704918Y-94589600D01*
X143950082Y-94589600D01*
X144190536Y-94541771D01*
X144417039Y-94447950D01*
X144620886Y-94311744D01*
X144794244Y-94138386D01*
X144930450Y-93934539D01*
X145024271Y-93708036D01*
X145072100Y-93467582D01*
X145072100Y-93222418D01*
X145122900Y-93222418D01*
X145122900Y-93467582D01*
X145170729Y-93708036D01*
X145264550Y-93934539D01*
X145400756Y-94138386D01*
X145574114Y-94311744D01*
X145777961Y-94447950D01*
X146004464Y-94541771D01*
X146244918Y-94589600D01*
X146490082Y-94589600D01*
X146730536Y-94541771D01*
X146957039Y-94447950D01*
X147160886Y-94311744D01*
X147334244Y-94138386D01*
X147470450Y-93934539D01*
X147564271Y-93708036D01*
X147612100Y-93467582D01*
X147612100Y-93222418D01*
X147564271Y-92981964D01*
X147470450Y-92755461D01*
X147334244Y-92551614D01*
X147160886Y-92378256D01*
X146957039Y-92242050D01*
X146730536Y-92148229D01*
X146490082Y-92100400D01*
X146244918Y-92100400D01*
X146004464Y-92148229D01*
X145777961Y-92242050D01*
X145574114Y-92378256D01*
X145400756Y-92551614D01*
X145264550Y-92755461D01*
X145170729Y-92981964D01*
X145122900Y-93222418D01*
X145072100Y-93222418D01*
X145024271Y-92981964D01*
X144930450Y-92755461D01*
X144794244Y-92551614D01*
X144620886Y-92378256D01*
X144417039Y-92242050D01*
X144190536Y-92148229D01*
X143950082Y-92100400D01*
X143704918Y-92100400D01*
X143464464Y-92148229D01*
X143237961Y-92242050D01*
X143034114Y-92378256D01*
X142860756Y-92551614D01*
X142724550Y-92755461D01*
X142630729Y-92981964D01*
X142582900Y-93222418D01*
X142582900Y-93467582D01*
X142630729Y-93708036D01*
X142665333Y-93791576D01*
X142298680Y-94158229D01*
X142279373Y-94174074D01*
X142216141Y-94251122D01*
X142200274Y-94280807D01*
X142169154Y-94339027D01*
X142140221Y-94434409D01*
X142130452Y-94533601D01*
X142132900Y-94558457D01*
X142132900Y-94970270D01*
X142080886Y-94918256D01*
X141877039Y-94782050D01*
X141650536Y-94688229D01*
X141410082Y-94640400D01*
X141164918Y-94640400D01*
X140924464Y-94688229D01*
X140697961Y-94782050D01*
X140494114Y-94918256D01*
X140320756Y-95091614D01*
X140184550Y-95295461D01*
X140149947Y-95379000D01*
X136099592Y-95379000D01*
X131448670Y-90728078D01*
X132251500Y-90728078D01*
X132251500Y-90881922D01*
X132281513Y-91032809D01*
X132340387Y-91174942D01*
X132425858Y-91302859D01*
X132534641Y-91411642D01*
X132662558Y-91497113D01*
X132804691Y-91555987D01*
X132955578Y-91586000D01*
X133109422Y-91586000D01*
X133260309Y-91555987D01*
X133402442Y-91497113D01*
X133530359Y-91411642D01*
X133631001Y-91311000D01*
X151166499Y-91311000D01*
X151267141Y-91411642D01*
X151395058Y-91497113D01*
X151537191Y-91555987D01*
X151688078Y-91586000D01*
X151841922Y-91586000D01*
X151992809Y-91555987D01*
X152134942Y-91497113D01*
X152262859Y-91411642D01*
X152371642Y-91302859D01*
X152457113Y-91174942D01*
X152515987Y-91032809D01*
X152546000Y-90881922D01*
X152546000Y-90728078D01*
X152515987Y-90577191D01*
X152457113Y-90435058D01*
X152371642Y-90307141D01*
X152262859Y-90198358D01*
X152134942Y-90112887D01*
X151992809Y-90054013D01*
X151841922Y-90024000D01*
X151688078Y-90024000D01*
X151537191Y-90054013D01*
X151395058Y-90112887D01*
X151267141Y-90198358D01*
X151166499Y-90299000D01*
X133631001Y-90299000D01*
X133530359Y-90198358D01*
X133402442Y-90112887D01*
X133260309Y-90054013D01*
X133109422Y-90024000D01*
X132955578Y-90024000D01*
X132804691Y-90054013D01*
X132662558Y-90112887D01*
X132534641Y-90198358D01*
X132425858Y-90307141D01*
X132340387Y-90435058D01*
X132281513Y-90577191D01*
X132251500Y-90728078D01*
X131448670Y-90728078D01*
X130402876Y-89682285D01*
X130387027Y-89662973D01*
X130309979Y-89599741D01*
X130222075Y-89552755D01*
X130126693Y-89523822D01*
X130052354Y-89516500D01*
X130052346Y-89516500D01*
X130027500Y-89514053D01*
X130002654Y-89516500D01*
X127176301Y-89516500D01*
X127075659Y-89415858D01*
X126947742Y-89330387D01*
X126805609Y-89271513D01*
X126654722Y-89241500D01*
X126500878Y-89241500D01*
X126349991Y-89271513D01*
X126207858Y-89330387D01*
X126079941Y-89415858D01*
X125971158Y-89524641D01*
X125885687Y-89652558D01*
X125826813Y-89794691D01*
X125796800Y-89945578D01*
X125796800Y-90087908D01*
X125538813Y-90345895D01*
X125558500Y-90246922D01*
X125558500Y-90093078D01*
X125528487Y-89942191D01*
X125469613Y-89800058D01*
X125400614Y-89696792D01*
X125956828Y-89140578D01*
X132251500Y-89140578D01*
X132251500Y-89294422D01*
X132281513Y-89445309D01*
X132340387Y-89587442D01*
X132425858Y-89715359D01*
X132534641Y-89824142D01*
X132662558Y-89909613D01*
X132804691Y-89968487D01*
X132955578Y-89998500D01*
X133109422Y-89998500D01*
X133260309Y-89968487D01*
X133402442Y-89909613D01*
X133530359Y-89824142D01*
X133631001Y-89723500D01*
X160127909Y-89723500D01*
X161144000Y-90739592D01*
X161144000Y-90881922D01*
X161174013Y-91032809D01*
X161232887Y-91174942D01*
X161318358Y-91302859D01*
X161427141Y-91411642D01*
X161555058Y-91497113D01*
X161697191Y-91555987D01*
X161848078Y-91586000D01*
X162001922Y-91586000D01*
X162152809Y-91555987D01*
X162294942Y-91497113D01*
X162422859Y-91411642D01*
X162531642Y-91302859D01*
X162617113Y-91174942D01*
X162675987Y-91032809D01*
X162706000Y-90881922D01*
X162706000Y-90728078D01*
X162675987Y-90577191D01*
X162617113Y-90435058D01*
X162531642Y-90307141D01*
X162422859Y-90198358D01*
X162294942Y-90112887D01*
X162152809Y-90054013D01*
X162001922Y-90024000D01*
X161859592Y-90024000D01*
X160712876Y-88877285D01*
X160697027Y-88857973D01*
X160619979Y-88794741D01*
X160532075Y-88747755D01*
X160436693Y-88718822D01*
X160362354Y-88711500D01*
X160362346Y-88711500D01*
X160337500Y-88709053D01*
X160312654Y-88711500D01*
X133631001Y-88711500D01*
X133530359Y-88610858D01*
X133402442Y-88525387D01*
X133260309Y-88466513D01*
X133109422Y-88436500D01*
X132955578Y-88436500D01*
X132804691Y-88466513D01*
X132662558Y-88525387D01*
X132534641Y-88610858D01*
X132425858Y-88719641D01*
X132340387Y-88847558D01*
X132281513Y-88989691D01*
X132251500Y-89140578D01*
X125956828Y-89140578D01*
X127544328Y-87553078D01*
X132251500Y-87553078D01*
X132251500Y-87706922D01*
X132281513Y-87857809D01*
X132340387Y-87999942D01*
X132425858Y-88127859D01*
X132534641Y-88236642D01*
X132662558Y-88322113D01*
X132804691Y-88380987D01*
X132955578Y-88411000D01*
X133109422Y-88411000D01*
X133260309Y-88380987D01*
X133402442Y-88322113D01*
X133530359Y-88236642D01*
X133631001Y-88136000D01*
X168700409Y-88136000D01*
X171304000Y-90739592D01*
X171304000Y-90881922D01*
X171334013Y-91032809D01*
X171392887Y-91174942D01*
X171478358Y-91302859D01*
X171587141Y-91411642D01*
X171715058Y-91497113D01*
X171857191Y-91555987D01*
X172008078Y-91586000D01*
X172161922Y-91586000D01*
X172312809Y-91555987D01*
X172454942Y-91497113D01*
X172582859Y-91411642D01*
X172691642Y-91302859D01*
X172777113Y-91174942D01*
X172835987Y-91032809D01*
X172866000Y-90881922D01*
X172866000Y-90728078D01*
X172835987Y-90577191D01*
X172777113Y-90435058D01*
X172691642Y-90307141D01*
X172582859Y-90198358D01*
X172454942Y-90112887D01*
X172312809Y-90054013D01*
X172161922Y-90024000D01*
X172019592Y-90024000D01*
X169285376Y-87289785D01*
X169269527Y-87270473D01*
X169192479Y-87207241D01*
X169104575Y-87160255D01*
X169009193Y-87131322D01*
X168934854Y-87124000D01*
X168934846Y-87124000D01*
X168910000Y-87121553D01*
X168885154Y-87124000D01*
X133631001Y-87124000D01*
X133530359Y-87023358D01*
X133402442Y-86937887D01*
X133260309Y-86879013D01*
X133109422Y-86849000D01*
X132955578Y-86849000D01*
X132804691Y-86879013D01*
X132662558Y-86937887D01*
X132534641Y-87023358D01*
X132425858Y-87132141D01*
X132340387Y-87260058D01*
X132281513Y-87402191D01*
X132251500Y-87553078D01*
X127544328Y-87553078D01*
X129131828Y-85965578D01*
X132251500Y-85965578D01*
X132251500Y-86119422D01*
X132281513Y-86270309D01*
X132340387Y-86412442D01*
X132425858Y-86540359D01*
X132534641Y-86649142D01*
X132662558Y-86734613D01*
X132804691Y-86793487D01*
X132955578Y-86823500D01*
X133109422Y-86823500D01*
X133260309Y-86793487D01*
X133402442Y-86734613D01*
X133530359Y-86649142D01*
X133631001Y-86548500D01*
X177272909Y-86548500D01*
X181464000Y-90739592D01*
X181464000Y-90881922D01*
X181494013Y-91032809D01*
X181552887Y-91174942D01*
X181638358Y-91302859D01*
X181747141Y-91411642D01*
X181875058Y-91497113D01*
X182017191Y-91555987D01*
X182168078Y-91586000D01*
X182321922Y-91586000D01*
X182472809Y-91555987D01*
X182614942Y-91497113D01*
X182742859Y-91411642D01*
X182851642Y-91302859D01*
X182937113Y-91174942D01*
X182995987Y-91032809D01*
X183026000Y-90881922D01*
X183026000Y-90728078D01*
X182995987Y-90577191D01*
X182937113Y-90435058D01*
X182851642Y-90307141D01*
X182742859Y-90198358D01*
X182614942Y-90112887D01*
X182472809Y-90054013D01*
X182321922Y-90024000D01*
X182179592Y-90024000D01*
X177857876Y-85702285D01*
X177842027Y-85682973D01*
X177764979Y-85619741D01*
X177677075Y-85572755D01*
X177581693Y-85543822D01*
X177507354Y-85536500D01*
X177507346Y-85536500D01*
X177482500Y-85534053D01*
X177457654Y-85536500D01*
X133631001Y-85536500D01*
X133530359Y-85435858D01*
X133402442Y-85350387D01*
X133260309Y-85291513D01*
X133109422Y-85261500D01*
X132955578Y-85261500D01*
X132804691Y-85291513D01*
X132662558Y-85350387D01*
X132534641Y-85435858D01*
X132425858Y-85544641D01*
X132340387Y-85672558D01*
X132281513Y-85814691D01*
X132251500Y-85965578D01*
X129131828Y-85965578D01*
X136803907Y-78293500D01*
X180376499Y-78293500D01*
X180477141Y-78394142D01*
X180605058Y-78479613D01*
X180747191Y-78538487D01*
X180898078Y-78568500D01*
X181051922Y-78568500D01*
X181202809Y-78538487D01*
X181344942Y-78479613D01*
X181472859Y-78394142D01*
X181581642Y-78285359D01*
X181667113Y-78157442D01*
X181725987Y-78015309D01*
X181756000Y-77864422D01*
X181756000Y-77710578D01*
X181725987Y-77559691D01*
X181667113Y-77417558D01*
X181581642Y-77289641D01*
X181472859Y-77180858D01*
X181344942Y-77095387D01*
X181202809Y-77036513D01*
X181051922Y-77006500D01*
X180898078Y-77006500D01*
X180747191Y-77036513D01*
X180605058Y-77095387D01*
X180477141Y-77180858D01*
X180376499Y-77281500D01*
X136619160Y-77281500D01*
X136594314Y-77279053D01*
X136569468Y-77281500D01*
X136569461Y-77281500D01*
X136495122Y-77288822D01*
X136399740Y-77317755D01*
X136311836Y-77364741D01*
X136234788Y-77427973D01*
X136218943Y-77447280D01*
X124437281Y-89228943D01*
X124417974Y-89244788D01*
X124354742Y-89321836D01*
X124332834Y-89362822D01*
X124307755Y-89409741D01*
X124278822Y-89505123D01*
X124272371Y-89570628D01*
X124170858Y-89672141D01*
X124085387Y-89800058D01*
X124026513Y-89942191D01*
X123996500Y-90093078D01*
X123996500Y-90246922D01*
X124024761Y-90389001D01*
X111654455Y-90389001D01*
X111629601Y-90386553D01*
X111604747Y-90389001D01*
X111530408Y-90396323D01*
X111435026Y-90425256D01*
X111347122Y-90472242D01*
X111270074Y-90535474D01*
X111254230Y-90554780D01*
X107065011Y-94744000D01*
X93493501Y-94744000D01*
X93392859Y-94643358D01*
X93264942Y-94557887D01*
X93122809Y-94499013D01*
X92971922Y-94469000D01*
X92818078Y-94469000D01*
X92667191Y-94499013D01*
X92525058Y-94557887D01*
X92397141Y-94643358D01*
X92288358Y-94752141D01*
X92202887Y-94880058D01*
X92144013Y-95022191D01*
X92114000Y-95173078D01*
X63503670Y-95173078D01*
X63053500Y-94722909D01*
X63053500Y-94620959D01*
X63130058Y-94672113D01*
X63272191Y-94730987D01*
X63423078Y-94761000D01*
X63566638Y-94761000D01*
X63617520Y-94802758D01*
X63705424Y-94849744D01*
X63800806Y-94878677D01*
X63875145Y-94885999D01*
X63875152Y-94885999D01*
X63899998Y-94888446D01*
X63924844Y-94885999D01*
X70286498Y-94885999D01*
X70304641Y-94904142D01*
X70432558Y-94989613D01*
X70574691Y-95048487D01*
X70725578Y-95078500D01*
X70879422Y-95078500D01*
X71030309Y-95048487D01*
X71172442Y-94989613D01*
X71300359Y-94904142D01*
X71409142Y-94795359D01*
X71494613Y-94667442D01*
X71553487Y-94525309D01*
X71583500Y-94374422D01*
X71583500Y-94220578D01*
X71553487Y-94069691D01*
X71494613Y-93927558D01*
X71443459Y-93851000D01*
X86078999Y-93851000D01*
X86179641Y-93951642D01*
X86307558Y-94037113D01*
X86449691Y-94095987D01*
X86600578Y-94126000D01*
X86754422Y-94126000D01*
X86905309Y-94095987D01*
X87047442Y-94037113D01*
X87175359Y-93951642D01*
X87284142Y-93842859D01*
X87369613Y-93714942D01*
X87428487Y-93572809D01*
X87458500Y-93421922D01*
X87458500Y-93268078D01*
X87428487Y-93117191D01*
X87369613Y-92975058D01*
X87284142Y-92847141D01*
X87175359Y-92738358D01*
X87047442Y-92652887D01*
X86905309Y-92594013D01*
X86754422Y-92564000D01*
X86600578Y-92564000D01*
X86449691Y-92594013D01*
X86307558Y-92652887D01*
X86179641Y-92738358D01*
X86078999Y-92839000D01*
X65368501Y-92839000D01*
X65267859Y-92738358D01*
X65139942Y-92652887D01*
X64997809Y-92594013D01*
X64846922Y-92564000D01*
X64693078Y-92564000D01*
X64542191Y-92594013D01*
X64400058Y-92652887D01*
X64272141Y-92738358D01*
X64163358Y-92847141D01*
X64077887Y-92975058D01*
X64019013Y-93117191D01*
X63989000Y-93268078D01*
X63989000Y-93367439D01*
X63869942Y-93287887D01*
X63727809Y-93229013D01*
X63576922Y-93199000D01*
X63423078Y-93199000D01*
X63272191Y-93229013D01*
X63130058Y-93287887D01*
X63053500Y-93339041D01*
X63053500Y-92035000D01*
X97673044Y-92035000D01*
X97696812Y-92276318D01*
X97767202Y-92508363D01*
X97881509Y-92722216D01*
X98035340Y-92909660D01*
X98222784Y-93063491D01*
X98436637Y-93177798D01*
X98668682Y-93248188D01*
X98849528Y-93266000D01*
X99270472Y-93266000D01*
X99451318Y-93248188D01*
X99683363Y-93177798D01*
X99897216Y-93063491D01*
X100084660Y-92909660D01*
X100238491Y-92722216D01*
X100352798Y-92508363D01*
X100423188Y-92276318D01*
X100446956Y-92035000D01*
X100423188Y-91793682D01*
X100352798Y-91561637D01*
X100238491Y-91347784D01*
X100084660Y-91160340D01*
X99897216Y-91006509D01*
X99683363Y-90892202D01*
X99451318Y-90821812D01*
X99270472Y-90804000D01*
X98849528Y-90804000D01*
X98668682Y-90821812D01*
X98436637Y-90892202D01*
X98222784Y-91006509D01*
X98035340Y-91160340D01*
X97881509Y-91347784D01*
X97767202Y-91561637D01*
X97696812Y-91793682D01*
X97673044Y-92035000D01*
X63053500Y-92035000D01*
X63053500Y-88935000D01*
X97677157Y-88935000D01*
X97677157Y-90135000D01*
X97689317Y-90258462D01*
X97725329Y-90377179D01*
X97783810Y-90486589D01*
X97862512Y-90582488D01*
X97958411Y-90661190D01*
X98067821Y-90719671D01*
X98186538Y-90755683D01*
X98310000Y-90767843D01*
X99810000Y-90767843D01*
X99933462Y-90755683D01*
X100052179Y-90719671D01*
X100161589Y-90661190D01*
X100257488Y-90582488D01*
X100336190Y-90486589D01*
X100394671Y-90377179D01*
X100430683Y-90258462D01*
X100442843Y-90135000D01*
X100442843Y-89458078D01*
X111296500Y-89458078D01*
X111296500Y-89611922D01*
X111326513Y-89762809D01*
X111385387Y-89904942D01*
X111470858Y-90032859D01*
X111579641Y-90141642D01*
X111707558Y-90227113D01*
X111849691Y-90285987D01*
X112000578Y-90316000D01*
X112154422Y-90316000D01*
X112305309Y-90285987D01*
X112447442Y-90227113D01*
X112575359Y-90141642D01*
X112684142Y-90032859D01*
X112769613Y-89904942D01*
X112828487Y-89762809D01*
X112858500Y-89611922D01*
X112858500Y-89458078D01*
X112828487Y-89307191D01*
X112769613Y-89165058D01*
X112684142Y-89037141D01*
X112583500Y-88936499D01*
X112583500Y-82124591D01*
X127406674Y-67301417D01*
X187483756Y-67301417D01*
X187483756Y-67698583D01*
X187561239Y-68088117D01*
X187713228Y-68455050D01*
X187933881Y-68785281D01*
X188214719Y-69066119D01*
X188544950Y-69286772D01*
X188911883Y-69438761D01*
X189301417Y-69516244D01*
X189698583Y-69516244D01*
X190088117Y-69438761D01*
X190455050Y-69286772D01*
X190785281Y-69066119D01*
X191066119Y-68785281D01*
X191286772Y-68455050D01*
X191438761Y-68088117D01*
X191516244Y-67698583D01*
X191516244Y-67301417D01*
X191438761Y-66911883D01*
X191286772Y-66544950D01*
X191066119Y-66214719D01*
X190785281Y-65933881D01*
X190455050Y-65713228D01*
X190088117Y-65561239D01*
X189698583Y-65483756D01*
X189301417Y-65483756D01*
X188911883Y-65561239D01*
X188544950Y-65713228D01*
X188214719Y-65933881D01*
X187933881Y-66214719D01*
X187713228Y-66544950D01*
X187561239Y-66911883D01*
X187483756Y-67301417D01*
X127406674Y-67301417D01*
X129202092Y-65506000D01*
X131027157Y-65506000D01*
X131027157Y-66755000D01*
X131034513Y-66829689D01*
X131056299Y-66901508D01*
X131091678Y-66967696D01*
X131139289Y-67025711D01*
X131197304Y-67073322D01*
X131263492Y-67108701D01*
X131335311Y-67130487D01*
X131410000Y-67137843D01*
X133950000Y-67137843D01*
X134024689Y-67130487D01*
X134096508Y-67108701D01*
X134162696Y-67073322D01*
X134220711Y-67025711D01*
X134268322Y-66967696D01*
X134303701Y-66901508D01*
X134325487Y-66829689D01*
X134332843Y-66755000D01*
X134332843Y-63245000D01*
X134325487Y-63170311D01*
X134303701Y-63098492D01*
X134268322Y-63032304D01*
X134220711Y-62974289D01*
X134162696Y-62926678D01*
X134096508Y-62891299D01*
X134024689Y-62869513D01*
X133950000Y-62862157D01*
X131410000Y-62862157D01*
X131335311Y-62869513D01*
X131263492Y-62891299D01*
X131197304Y-62926678D01*
X131139289Y-62974289D01*
X131091678Y-63032304D01*
X131056299Y-63098492D01*
X131034513Y-63170311D01*
X131027157Y-63245000D01*
X131027157Y-64494000D01*
X129017345Y-64494000D01*
X128992499Y-64491553D01*
X128967653Y-64494000D01*
X128967646Y-64494000D01*
X128903194Y-64500348D01*
X128893306Y-64501322D01*
X128871107Y-64508056D01*
X128797925Y-64530255D01*
X128710021Y-64577241D01*
X128632973Y-64640473D01*
X128617128Y-64659780D01*
X111737285Y-81539624D01*
X111717973Y-81555473D01*
X111654741Y-81632521D01*
X111607755Y-81720426D01*
X111578822Y-81815808D01*
X111571500Y-81890147D01*
X111571500Y-81890154D01*
X111569053Y-81915000D01*
X111571500Y-81939846D01*
X111571501Y-88936498D01*
X111470858Y-89037141D01*
X111385387Y-89165058D01*
X111326513Y-89307191D01*
X111296500Y-89458078D01*
X100442843Y-89458078D01*
X100442843Y-88935000D01*
X100430683Y-88811538D01*
X100394671Y-88692821D01*
X100336190Y-88583411D01*
X100257488Y-88487512D01*
X100161589Y-88408810D01*
X100052179Y-88350329D01*
X99933462Y-88314317D01*
X99810000Y-88302157D01*
X98310000Y-88302157D01*
X98186538Y-88314317D01*
X98067821Y-88350329D01*
X97958411Y-88408810D01*
X97862512Y-88487512D01*
X97783810Y-88583411D01*
X97725329Y-88692821D01*
X97689317Y-88811538D01*
X97677157Y-88935000D01*
X63053500Y-88935000D01*
X63053500Y-88863501D01*
X63154142Y-88762859D01*
X63239613Y-88634942D01*
X63298487Y-88492809D01*
X63328500Y-88341922D01*
X63328500Y-88188078D01*
X63298487Y-88037191D01*
X63239613Y-87895058D01*
X63154142Y-87767141D01*
X63045359Y-87658358D01*
X62917442Y-87572887D01*
X62775309Y-87514013D01*
X62624422Y-87484000D01*
X62470578Y-87484000D01*
X62319691Y-87514013D01*
X62177558Y-87572887D01*
X62049641Y-87658358D01*
X61940858Y-87767141D01*
X61855387Y-87895058D01*
X61796513Y-88037191D01*
X61766500Y-88188078D01*
X54546000Y-88188078D01*
X54546000Y-87958500D01*
X54640645Y-87958500D01*
X54792111Y-87943582D01*
X54986455Y-87884628D01*
X55165564Y-87788893D01*
X55322554Y-87660054D01*
X55451393Y-87503064D01*
X55488575Y-87433500D01*
X57341425Y-87433500D01*
X57378607Y-87503064D01*
X57507446Y-87660054D01*
X57664436Y-87788893D01*
X57843545Y-87884628D01*
X58037889Y-87943582D01*
X58189355Y-87958500D01*
X59390645Y-87958500D01*
X59542111Y-87943582D01*
X59736455Y-87884628D01*
X59915564Y-87788893D01*
X60072554Y-87660054D01*
X60201393Y-87503064D01*
X60297128Y-87323955D01*
X60356082Y-87129611D01*
X60375988Y-86927500D01*
X60356082Y-86725389D01*
X60297128Y-86531045D01*
X60201393Y-86351936D01*
X60072554Y-86194946D01*
X59915564Y-86066107D01*
X59736455Y-85970372D01*
X59542111Y-85911418D01*
X59390645Y-85896500D01*
X58189355Y-85896500D01*
X58037889Y-85911418D01*
X57843545Y-85970372D01*
X57664436Y-86066107D01*
X57507446Y-86194946D01*
X57378607Y-86351936D01*
X57341425Y-86421500D01*
X55488575Y-86421500D01*
X55451393Y-86351936D01*
X55322554Y-86194946D01*
X55165564Y-86066107D01*
X54986455Y-85970372D01*
X54792111Y-85911418D01*
X54640645Y-85896500D01*
X53439355Y-85896500D01*
X53287889Y-85911418D01*
X53093545Y-85970372D01*
X52914436Y-86066107D01*
X52757446Y-86194946D01*
X52628607Y-86351936D01*
X52532872Y-86531045D01*
X52473918Y-86725389D01*
X52454012Y-86927500D01*
X50406000Y-86927500D01*
X50406000Y-83108078D01*
X88754000Y-83108078D01*
X88754000Y-83261922D01*
X88784013Y-83412809D01*
X88842887Y-83554942D01*
X88928358Y-83682859D01*
X89029001Y-83783502D01*
X89029000Y-85761499D01*
X88928358Y-85862141D01*
X88842887Y-85990058D01*
X88784013Y-86132191D01*
X88754000Y-86283078D01*
X88754000Y-86436922D01*
X88784013Y-86587809D01*
X88842887Y-86729942D01*
X88928358Y-86857859D01*
X89037141Y-86966642D01*
X89165058Y-87052113D01*
X89307191Y-87110987D01*
X89458078Y-87141000D01*
X89611922Y-87141000D01*
X89762809Y-87110987D01*
X89904942Y-87052113D01*
X90032859Y-86966642D01*
X90141642Y-86857859D01*
X90227113Y-86729942D01*
X90285987Y-86587809D01*
X90316000Y-86436922D01*
X90316000Y-86283078D01*
X90285987Y-86132191D01*
X90227113Y-85990058D01*
X90141642Y-85862141D01*
X90041000Y-85761499D01*
X90041000Y-83783501D01*
X90141642Y-83682859D01*
X90227113Y-83554942D01*
X90285987Y-83412809D01*
X90316000Y-83261922D01*
X90316000Y-83108078D01*
X98279000Y-83108078D01*
X98279000Y-83261922D01*
X98309013Y-83412809D01*
X98367887Y-83554942D01*
X98453358Y-83682859D01*
X98554001Y-83783502D01*
X98554000Y-85761499D01*
X98453358Y-85862141D01*
X98367887Y-85990058D01*
X98309013Y-86132191D01*
X98279000Y-86283078D01*
X98279000Y-86436922D01*
X98309013Y-86587809D01*
X98367887Y-86729942D01*
X98453358Y-86857859D01*
X98562141Y-86966642D01*
X98690058Y-87052113D01*
X98832191Y-87110987D01*
X98983078Y-87141000D01*
X99136922Y-87141000D01*
X99287809Y-87110987D01*
X99429942Y-87052113D01*
X99557859Y-86966642D01*
X99666642Y-86857859D01*
X99752113Y-86729942D01*
X99810987Y-86587809D01*
X99841000Y-86436922D01*
X99841000Y-86283078D01*
X99810987Y-86132191D01*
X99752113Y-85990058D01*
X99666642Y-85862141D01*
X99566000Y-85761499D01*
X99566000Y-83783501D01*
X99666642Y-83682859D01*
X99752113Y-83554942D01*
X99810987Y-83412809D01*
X99841000Y-83261922D01*
X99841000Y-83108078D01*
X99810987Y-82957191D01*
X99752113Y-82815058D01*
X99666642Y-82687141D01*
X99557859Y-82578358D01*
X99429942Y-82492887D01*
X99287809Y-82434013D01*
X99136922Y-82404000D01*
X98983078Y-82404000D01*
X98832191Y-82434013D01*
X98690058Y-82492887D01*
X98562141Y-82578358D01*
X98453358Y-82687141D01*
X98367887Y-82815058D01*
X98309013Y-82957191D01*
X98279000Y-83108078D01*
X90316000Y-83108078D01*
X90285987Y-82957191D01*
X90227113Y-82815058D01*
X90141642Y-82687141D01*
X90032859Y-82578358D01*
X89904942Y-82492887D01*
X89762809Y-82434013D01*
X89611922Y-82404000D01*
X89458078Y-82404000D01*
X89307191Y-82434013D01*
X89165058Y-82492887D01*
X89037141Y-82578358D01*
X88928358Y-82687141D01*
X88842887Y-82815058D01*
X88784013Y-82957191D01*
X88754000Y-83108078D01*
X50406000Y-83108078D01*
X50406000Y-67301417D01*
X51483756Y-67301417D01*
X51483756Y-67698583D01*
X51561239Y-68088117D01*
X51713228Y-68455050D01*
X51933881Y-68785281D01*
X52214719Y-69066119D01*
X52544950Y-69286772D01*
X52911883Y-69438761D01*
X53301417Y-69516244D01*
X53698583Y-69516244D01*
X54088117Y-69438761D01*
X54455050Y-69286772D01*
X54785281Y-69066119D01*
X55066119Y-68785281D01*
X55286772Y-68455050D01*
X55438761Y-68088117D01*
X55516244Y-67698583D01*
X55516244Y-67301417D01*
X55438761Y-66911883D01*
X55286772Y-66544950D01*
X55066119Y-66214719D01*
X54785281Y-65933881D01*
X54455050Y-65713228D01*
X54088117Y-65561239D01*
X53698583Y-65483756D01*
X53301417Y-65483756D01*
X52911883Y-65561239D01*
X52544950Y-65713228D01*
X52214719Y-65933881D01*
X51933881Y-66214719D01*
X51713228Y-66544950D01*
X51561239Y-66911883D01*
X51483756Y-67301417D01*
X50406000Y-67301417D01*
X50406000Y-55018085D01*
X50480194Y-54186754D01*
X50695638Y-53399227D01*
X51047141Y-52662284D01*
X51523587Y-51999240D01*
X52109919Y-51431044D01*
X52787600Y-50975662D01*
X53535216Y-50647481D01*
X54332251Y-50456130D01*
X55014892Y-50406000D01*
X187981915Y-50406000D01*
X188813246Y-50480194D01*
G37*
X188813246Y-50480194D02*
X189600773Y-50695638D01*
X190337716Y-51047141D01*
X191000760Y-51523587D01*
X191568956Y-52109919D01*
X192024338Y-52787600D01*
X192352519Y-53535216D01*
X192543870Y-54332251D01*
X192594000Y-55014892D01*
X192594001Y-94981904D01*
X192519806Y-95813246D01*
X192304362Y-96600774D01*
X191952859Y-97337716D01*
X191476413Y-98000760D01*
X190890081Y-98568956D01*
X190212400Y-99024338D01*
X189464784Y-99352519D01*
X188667749Y-99543870D01*
X187985108Y-99594000D01*
X55018085Y-99594000D01*
X54186754Y-99519806D01*
X53399226Y-99304362D01*
X52662284Y-98952859D01*
X51999240Y-98476413D01*
X51431044Y-97890081D01*
X50975662Y-97212400D01*
X50647481Y-96464784D01*
X50456130Y-95667749D01*
X50406000Y-94985108D01*
X50406000Y-86927500D01*
X52454012Y-86927500D01*
X52473918Y-87129611D01*
X52532872Y-87323955D01*
X52628607Y-87503064D01*
X52757446Y-87660054D01*
X52914436Y-87788893D01*
X53093545Y-87884628D01*
X53287889Y-87943582D01*
X53439355Y-87958500D01*
X53534000Y-87958500D01*
X53534001Y-94896500D01*
X53439355Y-94896500D01*
X53287889Y-94911418D01*
X53093545Y-94970372D01*
X52914436Y-95066107D01*
X52757446Y-95194946D01*
X52628607Y-95351936D01*
X52532872Y-95531045D01*
X52473918Y-95725389D01*
X52454012Y-95927500D01*
X52473918Y-96129611D01*
X52532872Y-96323955D01*
X52628607Y-96503064D01*
X52757446Y-96660054D01*
X52914436Y-96788893D01*
X53093545Y-96884628D01*
X53287889Y-96943582D01*
X53439355Y-96958500D01*
X54640645Y-96958500D01*
X54792111Y-96943582D01*
X54986455Y-96884628D01*
X55165564Y-96788893D01*
X55322554Y-96660054D01*
X55451393Y-96503064D01*
X55488575Y-96433500D01*
X57341425Y-96433500D01*
X57378607Y-96503064D01*
X57507446Y-96660054D01*
X57664436Y-96788893D01*
X57843545Y-96884628D01*
X58037889Y-96943582D01*
X58189355Y-96958500D01*
X59390645Y-96958500D01*
X59542111Y-96943582D01*
X59736455Y-96884628D01*
X59915564Y-96788893D01*
X60072554Y-96660054D01*
X60201393Y-96503064D01*
X60297128Y-96323955D01*
X60356082Y-96129611D01*
X60375988Y-95927500D01*
X60356082Y-95725389D01*
X60297128Y-95531045D01*
X60201393Y-95351936D01*
X60072554Y-95194946D01*
X59915564Y-95066107D01*
X59736455Y-94970372D01*
X59542111Y-94911418D01*
X59390645Y-94896500D01*
X58189355Y-94896500D01*
X58037889Y-94911418D01*
X57843545Y-94970372D01*
X57664436Y-95066107D01*
X57507446Y-95194946D01*
X57378607Y-95351936D01*
X57341425Y-95421500D01*
X55488575Y-95421500D01*
X55451393Y-95351936D01*
X55322554Y-95194946D01*
X55165564Y-95066107D01*
X54986455Y-94970372D01*
X54792111Y-94911418D01*
X54640645Y-94896500D01*
X54546000Y-94896500D01*
X54546000Y-90530880D01*
X57509000Y-90530880D01*
X57509000Y-90724120D01*
X57546699Y-90913647D01*
X57620649Y-91092178D01*
X57728007Y-91252851D01*
X57864649Y-91389493D01*
X57921531Y-91427500D01*
X57864649Y-91465507D01*
X57728007Y-91602149D01*
X57620649Y-91762822D01*
X57546699Y-91941353D01*
X57509000Y-92130880D01*
X57509000Y-92324120D01*
X57546699Y-92513647D01*
X57620649Y-92692178D01*
X57728007Y-92852851D01*
X57864649Y-92989493D01*
X58025322Y-93096851D01*
X58203853Y-93170801D01*
X58393380Y-93208500D01*
X58586620Y-93208500D01*
X58776147Y-93170801D01*
X58954678Y-93096851D01*
X59115351Y-92989493D01*
X59251993Y-92852851D01*
X59359351Y-92692178D01*
X59433301Y-92513647D01*
X59459512Y-92381872D01*
X59593380Y-92408500D01*
X59786620Y-92408500D01*
X59976147Y-92370801D01*
X60154678Y-92296851D01*
X60315351Y-92189493D01*
X60451993Y-92052851D01*
X60559351Y-91892178D01*
X60633301Y-91713647D01*
X60671000Y-91524120D01*
X60671000Y-91330880D01*
X60633301Y-91141353D01*
X60559351Y-90962822D01*
X60451993Y-90802149D01*
X60315351Y-90665507D01*
X60258469Y-90627500D01*
X60315351Y-90589493D01*
X60451993Y-90452851D01*
X60559351Y-90292178D01*
X60633301Y-90113647D01*
X60671000Y-89924120D01*
X60671000Y-89730880D01*
X60633301Y-89541353D01*
X60559351Y-89362822D01*
X60451993Y-89202149D01*
X60315351Y-89065507D01*
X60154678Y-88958149D01*
X59976147Y-88884199D01*
X59786620Y-88846500D01*
X59593380Y-88846500D01*
X59403853Y-88884199D01*
X59225322Y-88958149D01*
X59064649Y-89065507D01*
X58928007Y-89202149D01*
X58820649Y-89362822D01*
X58746699Y-89541353D01*
X58720488Y-89673128D01*
X58586620Y-89646500D01*
X58393380Y-89646500D01*
X58203853Y-89684199D01*
X58025322Y-89758149D01*
X57864649Y-89865507D01*
X57728007Y-90002149D01*
X57620649Y-90162822D01*
X57546699Y-90341353D01*
X57509000Y-90530880D01*
X54546000Y-90530880D01*
X54546000Y-88188078D01*
X61766500Y-88188078D01*
X61766500Y-88341922D01*
X61796513Y-88492809D01*
X61855387Y-88634942D01*
X61940858Y-88762859D01*
X62041500Y-88863501D01*
X62041501Y-94907644D01*
X62039053Y-94932500D01*
X62048822Y-95031692D01*
X62077755Y-95127074D01*
X62099627Y-95167992D01*
X62124742Y-95214979D01*
X62187974Y-95292027D01*
X62207281Y-95307872D01*
X65982128Y-99082720D01*
X65997973Y-99102027D01*
X66075021Y-99165259D01*
X66152637Y-99206746D01*
X66162925Y-99212245D01*
X66258307Y-99241178D01*
X66357500Y-99250948D01*
X66382354Y-99248500D01*
X123543999Y-99248500D01*
X123644641Y-99349142D01*
X123772558Y-99434613D01*
X123914691Y-99493487D01*
X124065578Y-99523500D01*
X124219422Y-99523500D01*
X124370309Y-99493487D01*
X124512442Y-99434613D01*
X124640359Y-99349142D01*
X124749142Y-99240359D01*
X124834613Y-99112442D01*
X124893487Y-98970309D01*
X124923500Y-98819422D01*
X124923500Y-98665578D01*
X124893487Y-98514691D01*
X124834613Y-98372558D01*
X124749142Y-98244641D01*
X124640359Y-98135858D01*
X124512442Y-98050387D01*
X124370309Y-97991513D01*
X124219422Y-97961500D01*
X124065578Y-97961500D01*
X123914691Y-97991513D01*
X123772558Y-98050387D01*
X123644641Y-98135858D01*
X123543999Y-98236500D01*
X66567092Y-98236500D01*
X63503670Y-95173078D01*
X92114000Y-95173078D01*
X92114000Y-95326922D01*
X92144013Y-95477809D01*
X92202887Y-95619942D01*
X92288358Y-95747859D01*
X92397141Y-95856642D01*
X92525058Y-95942113D01*
X92667191Y-96000987D01*
X92818078Y-96031000D01*
X92971922Y-96031000D01*
X93122809Y-96000987D01*
X93264942Y-95942113D01*
X93392859Y-95856642D01*
X93493501Y-95756000D01*
X107249756Y-95756000D01*
X107274602Y-95758447D01*
X107299448Y-95756000D01*
X107299456Y-95756000D01*
X107373795Y-95748678D01*
X107469177Y-95719745D01*
X107557081Y-95672759D01*
X107634129Y-95609527D01*
X107649978Y-95590215D01*
X111839193Y-91401001D01*
X112827107Y-91401001D01*
X109602909Y-94625200D01*
X109460578Y-94625200D01*
X109309691Y-94655213D01*
X109167558Y-94714087D01*
X109039641Y-94799558D01*
X108930858Y-94908341D01*
X108845387Y-95036258D01*
X108786513Y-95178391D01*
X108756500Y-95329278D01*
X108756500Y-95483122D01*
X108786513Y-95634009D01*
X108845387Y-95776142D01*
X108930858Y-95904059D01*
X109031501Y-96004702D01*
X109031500Y-96556499D01*
X108930858Y-96657141D01*
X108845387Y-96785058D01*
X108786513Y-96927191D01*
X108756500Y-97078078D01*
X108756500Y-97231922D01*
X108786513Y-97382809D01*
X108845387Y-97524942D01*
X108930858Y-97652859D01*
X109039641Y-97761642D01*
X109167558Y-97847113D01*
X109309691Y-97905987D01*
X109460578Y-97936000D01*
X109614422Y-97936000D01*
X109765309Y-97905987D01*
X109907442Y-97847113D01*
X110035359Y-97761642D01*
X110144142Y-97652859D01*
X110229613Y-97524942D01*
X110288487Y-97382809D01*
X110318500Y-97231922D01*
X110318500Y-97078078D01*
X110288487Y-96927191D01*
X110229613Y-96785058D01*
X110144142Y-96657141D01*
X110043500Y-96556499D01*
X110043500Y-96004701D01*
X110144142Y-95904059D01*
X110229613Y-95776142D01*
X110288487Y-95634009D01*
X110318500Y-95483122D01*
X110318500Y-95340791D01*
X113713292Y-91946000D01*
X114137612Y-91946000D01*
X114072191Y-91959013D01*
X113930058Y-92017887D01*
X113802141Y-92103358D01*
X113693358Y-92212141D01*
X113607887Y-92340058D01*
X113549013Y-92482191D01*
X113519000Y-92633078D01*
X113519000Y-92786922D01*
X113549013Y-92937809D01*
X113607887Y-93079942D01*
X113693358Y-93207859D01*
X113802141Y-93316642D01*
X113930058Y-93402113D01*
X114072191Y-93460987D01*
X114223078Y-93491000D01*
X114376922Y-93491000D01*
X114527809Y-93460987D01*
X114669942Y-93402113D01*
X114797859Y-93316642D01*
X114898501Y-93216000D01*
X127036499Y-93216000D01*
X127137141Y-93316642D01*
X127265058Y-93402113D01*
X127407191Y-93460987D01*
X127558078Y-93491000D01*
X127711922Y-93491000D01*
X127862809Y-93460987D01*
X128004942Y-93402113D01*
X128132859Y-93316642D01*
X128241642Y-93207859D01*
X128327113Y-93079942D01*
X128385987Y-92937809D01*
X128416000Y-92786922D01*
X128416000Y-92633078D01*
X128385987Y-92482191D01*
X128327113Y-92340058D01*
X128241642Y-92212141D01*
X128132859Y-92103358D01*
X128004942Y-92017887D01*
X127862809Y-91959013D01*
X127711922Y-91929000D01*
X127612561Y-91929000D01*
X127692113Y-91809942D01*
X127750987Y-91667809D01*
X127781000Y-91516922D01*
X127781000Y-91363078D01*
X127750987Y-91212191D01*
X127692113Y-91070058D01*
X127606642Y-90942141D01*
X127497859Y-90833358D01*
X127369942Y-90747887D01*
X127227809Y-90689013D01*
X127076922Y-90659000D01*
X127030973Y-90659000D01*
X127075659Y-90629142D01*
X127176301Y-90528500D01*
X129817909Y-90528500D01*
X135514628Y-96225220D01*
X135530473Y-96244527D01*
X135607521Y-96307759D01*
X135695425Y-96354745D01*
X135790807Y-96383678D01*
X135865146Y-96391000D01*
X135865153Y-96391000D01*
X135889999Y-96393447D01*
X135914845Y-96391000D01*
X140149947Y-96391000D01*
X140184550Y-96474539D01*
X140320756Y-96678386D01*
X140494114Y-96851744D01*
X140697961Y-96987950D01*
X140924464Y-97081771D01*
X141164918Y-97129600D01*
X141232309Y-97129600D01*
X140760409Y-97601500D01*
X133631001Y-97601500D01*
X133530359Y-97500858D01*
X133402442Y-97415387D01*
X133260309Y-97356513D01*
X133109422Y-97326500D01*
X132955578Y-97326500D01*
X132804691Y-97356513D01*
X132662558Y-97415387D01*
X132534641Y-97500858D01*
X132425858Y-97609641D01*
X132340387Y-97737558D01*
X132281513Y-97879691D01*
X132251500Y-98030578D01*
X132251500Y-98184422D01*
X132281513Y-98335309D01*
X132340387Y-98477442D01*
X132425858Y-98605359D01*
X132534641Y-98714142D01*
X132662558Y-98799613D01*
X132804691Y-98858487D01*
X132955578Y-98888500D01*
X133109422Y-98888500D01*
X133260309Y-98858487D01*
X133402442Y-98799613D01*
X133530359Y-98714142D01*
X133631001Y-98613500D01*
X140945154Y-98613500D01*
X140970000Y-98615947D01*
X140994846Y-98613500D01*
X140994854Y-98613500D01*
X141069193Y-98606178D01*
X141164575Y-98577245D01*
X141252479Y-98530259D01*
X141329527Y-98467027D01*
X141345376Y-98447715D01*
X142979119Y-96813973D01*
X142988579Y-96806209D01*
X143034114Y-96851744D01*
X143237961Y-96987950D01*
X143464464Y-97081771D01*
X143704918Y-97129600D01*
X143950082Y-97129600D01*
X144190536Y-97081771D01*
X144417039Y-96987950D01*
X144620886Y-96851744D01*
X144794244Y-96678386D01*
X144930450Y-96474539D01*
X145024271Y-96248036D01*
X145072100Y-96007582D01*
X145072100Y-95762418D01*
X145024271Y-95521964D01*
X144930450Y-95295461D01*
X144794244Y-95091614D01*
X144724030Y-95021400D01*
X145121057Y-95021400D01*
X145121057Y-96748600D01*
X145128413Y-96823289D01*
X145150199Y-96895108D01*
X145185578Y-96961296D01*
X145233189Y-97019311D01*
X145291204Y-97066922D01*
X145357392Y-97102301D01*
X145429211Y-97124087D01*
X145503900Y-97131443D01*
X147231100Y-97131443D01*
X147305789Y-97124087D01*
X147377608Y-97102301D01*
X147443796Y-97066922D01*
X147501811Y-97019311D01*
X147549422Y-96961296D01*
X147584801Y-96895108D01*
X147606587Y-96823289D01*
X147613943Y-96748600D01*
X147613943Y-95021400D01*
X147606587Y-94946711D01*
X147584801Y-94874892D01*
X147549422Y-94808704D01*
X147501811Y-94750689D01*
X147443796Y-94703078D01*
X147377608Y-94667699D01*
X147305789Y-94645913D01*
X147231100Y-94638557D01*
X145503900Y-94638557D01*
X145429211Y-94645913D01*
X145357392Y-94667699D01*
X145291204Y-94703078D01*
X145233189Y-94750689D01*
X145185578Y-94808704D01*
X145150199Y-94874892D01*
X145128413Y-94946711D01*
X145121057Y-95021400D01*
X144724030Y-95021400D01*
X144620886Y-94918256D01*
X144417039Y-94782050D01*
X144190536Y-94688229D01*
X143950082Y-94640400D01*
X143704918Y-94640400D01*
X143464464Y-94688229D01*
X143237961Y-94782050D01*
X143144899Y-94844232D01*
X143144899Y-94743192D01*
X143380924Y-94507167D01*
X143464464Y-94541771D01*
X143704918Y-94589600D01*
X143950082Y-94589600D01*
X144190536Y-94541771D01*
X144417039Y-94447950D01*
X144620886Y-94311744D01*
X144794244Y-94138386D01*
X144930450Y-93934539D01*
X145024271Y-93708036D01*
X145072100Y-93467582D01*
X145072100Y-93222418D01*
X145122900Y-93222418D01*
X145122900Y-93467582D01*
X145170729Y-93708036D01*
X145264550Y-93934539D01*
X145400756Y-94138386D01*
X145574114Y-94311744D01*
X145777961Y-94447950D01*
X146004464Y-94541771D01*
X146244918Y-94589600D01*
X146490082Y-94589600D01*
X146730536Y-94541771D01*
X146957039Y-94447950D01*
X147160886Y-94311744D01*
X147334244Y-94138386D01*
X147470450Y-93934539D01*
X147564271Y-93708036D01*
X147612100Y-93467582D01*
X147612100Y-93222418D01*
X147564271Y-92981964D01*
X147470450Y-92755461D01*
X147334244Y-92551614D01*
X147160886Y-92378256D01*
X146957039Y-92242050D01*
X146730536Y-92148229D01*
X146490082Y-92100400D01*
X146244918Y-92100400D01*
X146004464Y-92148229D01*
X145777961Y-92242050D01*
X145574114Y-92378256D01*
X145400756Y-92551614D01*
X145264550Y-92755461D01*
X145170729Y-92981964D01*
X145122900Y-93222418D01*
X145072100Y-93222418D01*
X145024271Y-92981964D01*
X144930450Y-92755461D01*
X144794244Y-92551614D01*
X144620886Y-92378256D01*
X144417039Y-92242050D01*
X144190536Y-92148229D01*
X143950082Y-92100400D01*
X143704918Y-92100400D01*
X143464464Y-92148229D01*
X143237961Y-92242050D01*
X143034114Y-92378256D01*
X142860756Y-92551614D01*
X142724550Y-92755461D01*
X142630729Y-92981964D01*
X142582900Y-93222418D01*
X142582900Y-93467582D01*
X142630729Y-93708036D01*
X142665333Y-93791576D01*
X142298680Y-94158229D01*
X142279373Y-94174074D01*
X142216141Y-94251122D01*
X142200274Y-94280807D01*
X142169154Y-94339027D01*
X142140221Y-94434409D01*
X142130452Y-94533601D01*
X142132900Y-94558457D01*
X142132900Y-94970270D01*
X142080886Y-94918256D01*
X141877039Y-94782050D01*
X141650536Y-94688229D01*
X141410082Y-94640400D01*
X141164918Y-94640400D01*
X140924464Y-94688229D01*
X140697961Y-94782050D01*
X140494114Y-94918256D01*
X140320756Y-95091614D01*
X140184550Y-95295461D01*
X140149947Y-95379000D01*
X136099592Y-95379000D01*
X131448670Y-90728078D01*
X132251500Y-90728078D01*
X132251500Y-90881922D01*
X132281513Y-91032809D01*
X132340387Y-91174942D01*
X132425858Y-91302859D01*
X132534641Y-91411642D01*
X132662558Y-91497113D01*
X132804691Y-91555987D01*
X132955578Y-91586000D01*
X133109422Y-91586000D01*
X133260309Y-91555987D01*
X133402442Y-91497113D01*
X133530359Y-91411642D01*
X133631001Y-91311000D01*
X151166499Y-91311000D01*
X151267141Y-91411642D01*
X151395058Y-91497113D01*
X151537191Y-91555987D01*
X151688078Y-91586000D01*
X151841922Y-91586000D01*
X151992809Y-91555987D01*
X152134942Y-91497113D01*
X152262859Y-91411642D01*
X152371642Y-91302859D01*
X152457113Y-91174942D01*
X152515987Y-91032809D01*
X152546000Y-90881922D01*
X152546000Y-90728078D01*
X152515987Y-90577191D01*
X152457113Y-90435058D01*
X152371642Y-90307141D01*
X152262859Y-90198358D01*
X152134942Y-90112887D01*
X151992809Y-90054013D01*
X151841922Y-90024000D01*
X151688078Y-90024000D01*
X151537191Y-90054013D01*
X151395058Y-90112887D01*
X151267141Y-90198358D01*
X151166499Y-90299000D01*
X133631001Y-90299000D01*
X133530359Y-90198358D01*
X133402442Y-90112887D01*
X133260309Y-90054013D01*
X133109422Y-90024000D01*
X132955578Y-90024000D01*
X132804691Y-90054013D01*
X132662558Y-90112887D01*
X132534641Y-90198358D01*
X132425858Y-90307141D01*
X132340387Y-90435058D01*
X132281513Y-90577191D01*
X132251500Y-90728078D01*
X131448670Y-90728078D01*
X130402876Y-89682285D01*
X130387027Y-89662973D01*
X130309979Y-89599741D01*
X130222075Y-89552755D01*
X130126693Y-89523822D01*
X130052354Y-89516500D01*
X130052346Y-89516500D01*
X130027500Y-89514053D01*
X130002654Y-89516500D01*
X127176301Y-89516500D01*
X127075659Y-89415858D01*
X126947742Y-89330387D01*
X126805609Y-89271513D01*
X126654722Y-89241500D01*
X126500878Y-89241500D01*
X126349991Y-89271513D01*
X126207858Y-89330387D01*
X126079941Y-89415858D01*
X125971158Y-89524641D01*
X125885687Y-89652558D01*
X125826813Y-89794691D01*
X125796800Y-89945578D01*
X125796800Y-90087908D01*
X125538813Y-90345895D01*
X125558500Y-90246922D01*
X125558500Y-90093078D01*
X125528487Y-89942191D01*
X125469613Y-89800058D01*
X125400614Y-89696792D01*
X125956828Y-89140578D01*
X132251500Y-89140578D01*
X132251500Y-89294422D01*
X132281513Y-89445309D01*
X132340387Y-89587442D01*
X132425858Y-89715359D01*
X132534641Y-89824142D01*
X132662558Y-89909613D01*
X132804691Y-89968487D01*
X132955578Y-89998500D01*
X133109422Y-89998500D01*
X133260309Y-89968487D01*
X133402442Y-89909613D01*
X133530359Y-89824142D01*
X133631001Y-89723500D01*
X160127909Y-89723500D01*
X161144000Y-90739592D01*
X161144000Y-90881922D01*
X161174013Y-91032809D01*
X161232887Y-91174942D01*
X161318358Y-91302859D01*
X161427141Y-91411642D01*
X161555058Y-91497113D01*
X161697191Y-91555987D01*
X161848078Y-91586000D01*
X162001922Y-91586000D01*
X162152809Y-91555987D01*
X162294942Y-91497113D01*
X162422859Y-91411642D01*
X162531642Y-91302859D01*
X162617113Y-91174942D01*
X162675987Y-91032809D01*
X162706000Y-90881922D01*
X162706000Y-90728078D01*
X162675987Y-90577191D01*
X162617113Y-90435058D01*
X162531642Y-90307141D01*
X162422859Y-90198358D01*
X162294942Y-90112887D01*
X162152809Y-90054013D01*
X162001922Y-90024000D01*
X161859592Y-90024000D01*
X160712876Y-88877285D01*
X160697027Y-88857973D01*
X160619979Y-88794741D01*
X160532075Y-88747755D01*
X160436693Y-88718822D01*
X160362354Y-88711500D01*
X160362346Y-88711500D01*
X160337500Y-88709053D01*
X160312654Y-88711500D01*
X133631001Y-88711500D01*
X133530359Y-88610858D01*
X133402442Y-88525387D01*
X133260309Y-88466513D01*
X133109422Y-88436500D01*
X132955578Y-88436500D01*
X132804691Y-88466513D01*
X132662558Y-88525387D01*
X132534641Y-88610858D01*
X132425858Y-88719641D01*
X132340387Y-88847558D01*
X132281513Y-88989691D01*
X132251500Y-89140578D01*
X125956828Y-89140578D01*
X127544328Y-87553078D01*
X132251500Y-87553078D01*
X132251500Y-87706922D01*
X132281513Y-87857809D01*
X132340387Y-87999942D01*
X132425858Y-88127859D01*
X132534641Y-88236642D01*
X132662558Y-88322113D01*
X132804691Y-88380987D01*
X132955578Y-88411000D01*
X133109422Y-88411000D01*
X133260309Y-88380987D01*
X133402442Y-88322113D01*
X133530359Y-88236642D01*
X133631001Y-88136000D01*
X168700409Y-88136000D01*
X171304000Y-90739592D01*
X171304000Y-90881922D01*
X171334013Y-91032809D01*
X171392887Y-91174942D01*
X171478358Y-91302859D01*
X171587141Y-91411642D01*
X171715058Y-91497113D01*
X171857191Y-91555987D01*
X172008078Y-91586000D01*
X172161922Y-91586000D01*
X172312809Y-91555987D01*
X172454942Y-91497113D01*
X172582859Y-91411642D01*
X172691642Y-91302859D01*
X172777113Y-91174942D01*
X172835987Y-91032809D01*
X172866000Y-90881922D01*
X172866000Y-90728078D01*
X172835987Y-90577191D01*
X172777113Y-90435058D01*
X172691642Y-90307141D01*
X172582859Y-90198358D01*
X172454942Y-90112887D01*
X172312809Y-90054013D01*
X172161922Y-90024000D01*
X172019592Y-90024000D01*
X169285376Y-87289785D01*
X169269527Y-87270473D01*
X169192479Y-87207241D01*
X169104575Y-87160255D01*
X169009193Y-87131322D01*
X168934854Y-87124000D01*
X168934846Y-87124000D01*
X168910000Y-87121553D01*
X168885154Y-87124000D01*
X133631001Y-87124000D01*
X133530359Y-87023358D01*
X133402442Y-86937887D01*
X133260309Y-86879013D01*
X133109422Y-86849000D01*
X132955578Y-86849000D01*
X132804691Y-86879013D01*
X132662558Y-86937887D01*
X132534641Y-87023358D01*
X132425858Y-87132141D01*
X132340387Y-87260058D01*
X132281513Y-87402191D01*
X132251500Y-87553078D01*
X127544328Y-87553078D01*
X129131828Y-85965578D01*
X132251500Y-85965578D01*
X132251500Y-86119422D01*
X132281513Y-86270309D01*
X132340387Y-86412442D01*
X132425858Y-86540359D01*
X132534641Y-86649142D01*
X132662558Y-86734613D01*
X132804691Y-86793487D01*
X132955578Y-86823500D01*
X133109422Y-86823500D01*
X133260309Y-86793487D01*
X133402442Y-86734613D01*
X133530359Y-86649142D01*
X133631001Y-86548500D01*
X177272909Y-86548500D01*
X181464000Y-90739592D01*
X181464000Y-90881922D01*
X181494013Y-91032809D01*
X181552887Y-91174942D01*
X181638358Y-91302859D01*
X181747141Y-91411642D01*
X181875058Y-91497113D01*
X182017191Y-91555987D01*
X182168078Y-91586000D01*
X182321922Y-91586000D01*
X182472809Y-91555987D01*
X182614942Y-91497113D01*
X182742859Y-91411642D01*
X182851642Y-91302859D01*
X182937113Y-91174942D01*
X182995987Y-91032809D01*
X183026000Y-90881922D01*
X183026000Y-90728078D01*
X182995987Y-90577191D01*
X182937113Y-90435058D01*
X182851642Y-90307141D01*
X182742859Y-90198358D01*
X182614942Y-90112887D01*
X182472809Y-90054013D01*
X182321922Y-90024000D01*
X182179592Y-90024000D01*
X177857876Y-85702285D01*
X177842027Y-85682973D01*
X177764979Y-85619741D01*
X177677075Y-85572755D01*
X177581693Y-85543822D01*
X177507354Y-85536500D01*
X177507346Y-85536500D01*
X177482500Y-85534053D01*
X177457654Y-85536500D01*
X133631001Y-85536500D01*
X133530359Y-85435858D01*
X133402442Y-85350387D01*
X133260309Y-85291513D01*
X133109422Y-85261500D01*
X132955578Y-85261500D01*
X132804691Y-85291513D01*
X132662558Y-85350387D01*
X132534641Y-85435858D01*
X132425858Y-85544641D01*
X132340387Y-85672558D01*
X132281513Y-85814691D01*
X132251500Y-85965578D01*
X129131828Y-85965578D01*
X136803907Y-78293500D01*
X180376499Y-78293500D01*
X180477141Y-78394142D01*
X180605058Y-78479613D01*
X180747191Y-78538487D01*
X180898078Y-78568500D01*
X181051922Y-78568500D01*
X181202809Y-78538487D01*
X181344942Y-78479613D01*
X181472859Y-78394142D01*
X181581642Y-78285359D01*
X181667113Y-78157442D01*
X181725987Y-78015309D01*
X181756000Y-77864422D01*
X181756000Y-77710578D01*
X181725987Y-77559691D01*
X181667113Y-77417558D01*
X181581642Y-77289641D01*
X181472859Y-77180858D01*
X181344942Y-77095387D01*
X181202809Y-77036513D01*
X181051922Y-77006500D01*
X180898078Y-77006500D01*
X180747191Y-77036513D01*
X180605058Y-77095387D01*
X180477141Y-77180858D01*
X180376499Y-77281500D01*
X136619160Y-77281500D01*
X136594314Y-77279053D01*
X136569468Y-77281500D01*
X136569461Y-77281500D01*
X136495122Y-77288822D01*
X136399740Y-77317755D01*
X136311836Y-77364741D01*
X136234788Y-77427973D01*
X136218943Y-77447280D01*
X124437281Y-89228943D01*
X124417974Y-89244788D01*
X124354742Y-89321836D01*
X124332834Y-89362822D01*
X124307755Y-89409741D01*
X124278822Y-89505123D01*
X124272371Y-89570628D01*
X124170858Y-89672141D01*
X124085387Y-89800058D01*
X124026513Y-89942191D01*
X123996500Y-90093078D01*
X123996500Y-90246922D01*
X124024761Y-90389001D01*
X111654455Y-90389001D01*
X111629601Y-90386553D01*
X111604747Y-90389001D01*
X111530408Y-90396323D01*
X111435026Y-90425256D01*
X111347122Y-90472242D01*
X111270074Y-90535474D01*
X111254230Y-90554780D01*
X107065011Y-94744000D01*
X93493501Y-94744000D01*
X93392859Y-94643358D01*
X93264942Y-94557887D01*
X93122809Y-94499013D01*
X92971922Y-94469000D01*
X92818078Y-94469000D01*
X92667191Y-94499013D01*
X92525058Y-94557887D01*
X92397141Y-94643358D01*
X92288358Y-94752141D01*
X92202887Y-94880058D01*
X92144013Y-95022191D01*
X92114000Y-95173078D01*
X63503670Y-95173078D01*
X63053500Y-94722909D01*
X63053500Y-94620959D01*
X63130058Y-94672113D01*
X63272191Y-94730987D01*
X63423078Y-94761000D01*
X63566638Y-94761000D01*
X63617520Y-94802758D01*
X63705424Y-94849744D01*
X63800806Y-94878677D01*
X63875145Y-94885999D01*
X63875152Y-94885999D01*
X63899998Y-94888446D01*
X63924844Y-94885999D01*
X70286498Y-94885999D01*
X70304641Y-94904142D01*
X70432558Y-94989613D01*
X70574691Y-95048487D01*
X70725578Y-95078500D01*
X70879422Y-95078500D01*
X71030309Y-95048487D01*
X71172442Y-94989613D01*
X71300359Y-94904142D01*
X71409142Y-94795359D01*
X71494613Y-94667442D01*
X71553487Y-94525309D01*
X71583500Y-94374422D01*
X71583500Y-94220578D01*
X71553487Y-94069691D01*
X71494613Y-93927558D01*
X71443459Y-93851000D01*
X86078999Y-93851000D01*
X86179641Y-93951642D01*
X86307558Y-94037113D01*
X86449691Y-94095987D01*
X86600578Y-94126000D01*
X86754422Y-94126000D01*
X86905309Y-94095987D01*
X87047442Y-94037113D01*
X87175359Y-93951642D01*
X87284142Y-93842859D01*
X87369613Y-93714942D01*
X87428487Y-93572809D01*
X87458500Y-93421922D01*
X87458500Y-93268078D01*
X87428487Y-93117191D01*
X87369613Y-92975058D01*
X87284142Y-92847141D01*
X87175359Y-92738358D01*
X87047442Y-92652887D01*
X86905309Y-92594013D01*
X86754422Y-92564000D01*
X86600578Y-92564000D01*
X86449691Y-92594013D01*
X86307558Y-92652887D01*
X86179641Y-92738358D01*
X86078999Y-92839000D01*
X65368501Y-92839000D01*
X65267859Y-92738358D01*
X65139942Y-92652887D01*
X64997809Y-92594013D01*
X64846922Y-92564000D01*
X64693078Y-92564000D01*
X64542191Y-92594013D01*
X64400058Y-92652887D01*
X64272141Y-92738358D01*
X64163358Y-92847141D01*
X64077887Y-92975058D01*
X64019013Y-93117191D01*
X63989000Y-93268078D01*
X63989000Y-93367439D01*
X63869942Y-93287887D01*
X63727809Y-93229013D01*
X63576922Y-93199000D01*
X63423078Y-93199000D01*
X63272191Y-93229013D01*
X63130058Y-93287887D01*
X63053500Y-93339041D01*
X63053500Y-92035000D01*
X97673044Y-92035000D01*
X97696812Y-92276318D01*
X97767202Y-92508363D01*
X97881509Y-92722216D01*
X98035340Y-92909660D01*
X98222784Y-93063491D01*
X98436637Y-93177798D01*
X98668682Y-93248188D01*
X98849528Y-93266000D01*
X99270472Y-93266000D01*
X99451318Y-93248188D01*
X99683363Y-93177798D01*
X99897216Y-93063491D01*
X100084660Y-92909660D01*
X100238491Y-92722216D01*
X100352798Y-92508363D01*
X100423188Y-92276318D01*
X100446956Y-92035000D01*
X100423188Y-91793682D01*
X100352798Y-91561637D01*
X100238491Y-91347784D01*
X100084660Y-91160340D01*
X99897216Y-91006509D01*
X99683363Y-90892202D01*
X99451318Y-90821812D01*
X99270472Y-90804000D01*
X98849528Y-90804000D01*
X98668682Y-90821812D01*
X98436637Y-90892202D01*
X98222784Y-91006509D01*
X98035340Y-91160340D01*
X97881509Y-91347784D01*
X97767202Y-91561637D01*
X97696812Y-91793682D01*
X97673044Y-92035000D01*
X63053500Y-92035000D01*
X63053500Y-88935000D01*
X97677157Y-88935000D01*
X97677157Y-90135000D01*
X97689317Y-90258462D01*
X97725329Y-90377179D01*
X97783810Y-90486589D01*
X97862512Y-90582488D01*
X97958411Y-90661190D01*
X98067821Y-90719671D01*
X98186538Y-90755683D01*
X98310000Y-90767843D01*
X99810000Y-90767843D01*
X99933462Y-90755683D01*
X100052179Y-90719671D01*
X100161589Y-90661190D01*
X100257488Y-90582488D01*
X100336190Y-90486589D01*
X100394671Y-90377179D01*
X100430683Y-90258462D01*
X100442843Y-90135000D01*
X100442843Y-89458078D01*
X111296500Y-89458078D01*
X111296500Y-89611922D01*
X111326513Y-89762809D01*
X111385387Y-89904942D01*
X111470858Y-90032859D01*
X111579641Y-90141642D01*
X111707558Y-90227113D01*
X111849691Y-90285987D01*
X112000578Y-90316000D01*
X112154422Y-90316000D01*
X112305309Y-90285987D01*
X112447442Y-90227113D01*
X112575359Y-90141642D01*
X112684142Y-90032859D01*
X112769613Y-89904942D01*
X112828487Y-89762809D01*
X112858500Y-89611922D01*
X112858500Y-89458078D01*
X112828487Y-89307191D01*
X112769613Y-89165058D01*
X112684142Y-89037141D01*
X112583500Y-88936499D01*
X112583500Y-82124591D01*
X127406674Y-67301417D01*
X187483756Y-67301417D01*
X187483756Y-67698583D01*
X187561239Y-68088117D01*
X187713228Y-68455050D01*
X187933881Y-68785281D01*
X188214719Y-69066119D01*
X188544950Y-69286772D01*
X188911883Y-69438761D01*
X189301417Y-69516244D01*
X189698583Y-69516244D01*
X190088117Y-69438761D01*
X190455050Y-69286772D01*
X190785281Y-69066119D01*
X191066119Y-68785281D01*
X191286772Y-68455050D01*
X191438761Y-68088117D01*
X191516244Y-67698583D01*
X191516244Y-67301417D01*
X191438761Y-66911883D01*
X191286772Y-66544950D01*
X191066119Y-66214719D01*
X190785281Y-65933881D01*
X190455050Y-65713228D01*
X190088117Y-65561239D01*
X189698583Y-65483756D01*
X189301417Y-65483756D01*
X188911883Y-65561239D01*
X188544950Y-65713228D01*
X188214719Y-65933881D01*
X187933881Y-66214719D01*
X187713228Y-66544950D01*
X187561239Y-66911883D01*
X187483756Y-67301417D01*
X127406674Y-67301417D01*
X129202092Y-65506000D01*
X131027157Y-65506000D01*
X131027157Y-66755000D01*
X131034513Y-66829689D01*
X131056299Y-66901508D01*
X131091678Y-66967696D01*
X131139289Y-67025711D01*
X131197304Y-67073322D01*
X131263492Y-67108701D01*
X131335311Y-67130487D01*
X131410000Y-67137843D01*
X133950000Y-67137843D01*
X134024689Y-67130487D01*
X134096508Y-67108701D01*
X134162696Y-67073322D01*
X134220711Y-67025711D01*
X134268322Y-66967696D01*
X134303701Y-66901508D01*
X134325487Y-66829689D01*
X134332843Y-66755000D01*
X134332843Y-63245000D01*
X134325487Y-63170311D01*
X134303701Y-63098492D01*
X134268322Y-63032304D01*
X134220711Y-62974289D01*
X134162696Y-62926678D01*
X134096508Y-62891299D01*
X134024689Y-62869513D01*
X133950000Y-62862157D01*
X131410000Y-62862157D01*
X131335311Y-62869513D01*
X131263492Y-62891299D01*
X131197304Y-62926678D01*
X131139289Y-62974289D01*
X131091678Y-63032304D01*
X131056299Y-63098492D01*
X131034513Y-63170311D01*
X131027157Y-63245000D01*
X131027157Y-64494000D01*
X129017345Y-64494000D01*
X128992499Y-64491553D01*
X128967653Y-64494000D01*
X128967646Y-64494000D01*
X128903194Y-64500348D01*
X128893306Y-64501322D01*
X128871107Y-64508056D01*
X128797925Y-64530255D01*
X128710021Y-64577241D01*
X128632973Y-64640473D01*
X128617128Y-64659780D01*
X111737285Y-81539624D01*
X111717973Y-81555473D01*
X111654741Y-81632521D01*
X111607755Y-81720426D01*
X111578822Y-81815808D01*
X111571500Y-81890147D01*
X111571500Y-81890154D01*
X111569053Y-81915000D01*
X111571500Y-81939846D01*
X111571501Y-88936498D01*
X111470858Y-89037141D01*
X111385387Y-89165058D01*
X111326513Y-89307191D01*
X111296500Y-89458078D01*
X100442843Y-89458078D01*
X100442843Y-88935000D01*
X100430683Y-88811538D01*
X100394671Y-88692821D01*
X100336190Y-88583411D01*
X100257488Y-88487512D01*
X100161589Y-88408810D01*
X100052179Y-88350329D01*
X99933462Y-88314317D01*
X99810000Y-88302157D01*
X98310000Y-88302157D01*
X98186538Y-88314317D01*
X98067821Y-88350329D01*
X97958411Y-88408810D01*
X97862512Y-88487512D01*
X97783810Y-88583411D01*
X97725329Y-88692821D01*
X97689317Y-88811538D01*
X97677157Y-88935000D01*
X63053500Y-88935000D01*
X63053500Y-88863501D01*
X63154142Y-88762859D01*
X63239613Y-88634942D01*
X63298487Y-88492809D01*
X63328500Y-88341922D01*
X63328500Y-88188078D01*
X63298487Y-88037191D01*
X63239613Y-87895058D01*
X63154142Y-87767141D01*
X63045359Y-87658358D01*
X62917442Y-87572887D01*
X62775309Y-87514013D01*
X62624422Y-87484000D01*
X62470578Y-87484000D01*
X62319691Y-87514013D01*
X62177558Y-87572887D01*
X62049641Y-87658358D01*
X61940858Y-87767141D01*
X61855387Y-87895058D01*
X61796513Y-88037191D01*
X61766500Y-88188078D01*
X54546000Y-88188078D01*
X54546000Y-87958500D01*
X54640645Y-87958500D01*
X54792111Y-87943582D01*
X54986455Y-87884628D01*
X55165564Y-87788893D01*
X55322554Y-87660054D01*
X55451393Y-87503064D01*
X55488575Y-87433500D01*
X57341425Y-87433500D01*
X57378607Y-87503064D01*
X57507446Y-87660054D01*
X57664436Y-87788893D01*
X57843545Y-87884628D01*
X58037889Y-87943582D01*
X58189355Y-87958500D01*
X59390645Y-87958500D01*
X59542111Y-87943582D01*
X59736455Y-87884628D01*
X59915564Y-87788893D01*
X60072554Y-87660054D01*
X60201393Y-87503064D01*
X60297128Y-87323955D01*
X60356082Y-87129611D01*
X60375988Y-86927500D01*
X60356082Y-86725389D01*
X60297128Y-86531045D01*
X60201393Y-86351936D01*
X60072554Y-86194946D01*
X59915564Y-86066107D01*
X59736455Y-85970372D01*
X59542111Y-85911418D01*
X59390645Y-85896500D01*
X58189355Y-85896500D01*
X58037889Y-85911418D01*
X57843545Y-85970372D01*
X57664436Y-86066107D01*
X57507446Y-86194946D01*
X57378607Y-86351936D01*
X57341425Y-86421500D01*
X55488575Y-86421500D01*
X55451393Y-86351936D01*
X55322554Y-86194946D01*
X55165564Y-86066107D01*
X54986455Y-85970372D01*
X54792111Y-85911418D01*
X54640645Y-85896500D01*
X53439355Y-85896500D01*
X53287889Y-85911418D01*
X53093545Y-85970372D01*
X52914436Y-86066107D01*
X52757446Y-86194946D01*
X52628607Y-86351936D01*
X52532872Y-86531045D01*
X52473918Y-86725389D01*
X52454012Y-86927500D01*
X50406000Y-86927500D01*
X50406000Y-83108078D01*
X88754000Y-83108078D01*
X88754000Y-83261922D01*
X88784013Y-83412809D01*
X88842887Y-83554942D01*
X88928358Y-83682859D01*
X89029001Y-83783502D01*
X89029000Y-85761499D01*
X88928358Y-85862141D01*
X88842887Y-85990058D01*
X88784013Y-86132191D01*
X88754000Y-86283078D01*
X88754000Y-86436922D01*
X88784013Y-86587809D01*
X88842887Y-86729942D01*
X88928358Y-86857859D01*
X89037141Y-86966642D01*
X89165058Y-87052113D01*
X89307191Y-87110987D01*
X89458078Y-87141000D01*
X89611922Y-87141000D01*
X89762809Y-87110987D01*
X89904942Y-87052113D01*
X90032859Y-86966642D01*
X90141642Y-86857859D01*
X90227113Y-86729942D01*
X90285987Y-86587809D01*
X90316000Y-86436922D01*
X90316000Y-86283078D01*
X90285987Y-86132191D01*
X90227113Y-85990058D01*
X90141642Y-85862141D01*
X90041000Y-85761499D01*
X90041000Y-83783501D01*
X90141642Y-83682859D01*
X90227113Y-83554942D01*
X90285987Y-83412809D01*
X90316000Y-83261922D01*
X90316000Y-83108078D01*
X98279000Y-83108078D01*
X98279000Y-83261922D01*
X98309013Y-83412809D01*
X98367887Y-83554942D01*
X98453358Y-83682859D01*
X98554001Y-83783502D01*
X98554000Y-85761499D01*
X98453358Y-85862141D01*
X98367887Y-85990058D01*
X98309013Y-86132191D01*
X98279000Y-86283078D01*
X98279000Y-86436922D01*
X98309013Y-86587809D01*
X98367887Y-86729942D01*
X98453358Y-86857859D01*
X98562141Y-86966642D01*
X98690058Y-87052113D01*
X98832191Y-87110987D01*
X98983078Y-87141000D01*
X99136922Y-87141000D01*
X99287809Y-87110987D01*
X99429942Y-87052113D01*
X99557859Y-86966642D01*
X99666642Y-86857859D01*
X99752113Y-86729942D01*
X99810987Y-86587809D01*
X99841000Y-86436922D01*
X99841000Y-86283078D01*
X99810987Y-86132191D01*
X99752113Y-85990058D01*
X99666642Y-85862141D01*
X99566000Y-85761499D01*
X99566000Y-83783501D01*
X99666642Y-83682859D01*
X99752113Y-83554942D01*
X99810987Y-83412809D01*
X99841000Y-83261922D01*
X99841000Y-83108078D01*
X99810987Y-82957191D01*
X99752113Y-82815058D01*
X99666642Y-82687141D01*
X99557859Y-82578358D01*
X99429942Y-82492887D01*
X99287809Y-82434013D01*
X99136922Y-82404000D01*
X98983078Y-82404000D01*
X98832191Y-82434013D01*
X98690058Y-82492887D01*
X98562141Y-82578358D01*
X98453358Y-82687141D01*
X98367887Y-82815058D01*
X98309013Y-82957191D01*
X98279000Y-83108078D01*
X90316000Y-83108078D01*
X90285987Y-82957191D01*
X90227113Y-82815058D01*
X90141642Y-82687141D01*
X90032859Y-82578358D01*
X89904942Y-82492887D01*
X89762809Y-82434013D01*
X89611922Y-82404000D01*
X89458078Y-82404000D01*
X89307191Y-82434013D01*
X89165058Y-82492887D01*
X89037141Y-82578358D01*
X88928358Y-82687141D01*
X88842887Y-82815058D01*
X88784013Y-82957191D01*
X88754000Y-83108078D01*
X50406000Y-83108078D01*
X50406000Y-67301417D01*
X51483756Y-67301417D01*
X51483756Y-67698583D01*
X51561239Y-68088117D01*
X51713228Y-68455050D01*
X51933881Y-68785281D01*
X52214719Y-69066119D01*
X52544950Y-69286772D01*
X52911883Y-69438761D01*
X53301417Y-69516244D01*
X53698583Y-69516244D01*
X54088117Y-69438761D01*
X54455050Y-69286772D01*
X54785281Y-69066119D01*
X55066119Y-68785281D01*
X55286772Y-68455050D01*
X55438761Y-68088117D01*
X55516244Y-67698583D01*
X55516244Y-67301417D01*
X55438761Y-66911883D01*
X55286772Y-66544950D01*
X55066119Y-66214719D01*
X54785281Y-65933881D01*
X54455050Y-65713228D01*
X54088117Y-65561239D01*
X53698583Y-65483756D01*
X53301417Y-65483756D01*
X52911883Y-65561239D01*
X52544950Y-65713228D01*
X52214719Y-65933881D01*
X51933881Y-66214719D01*
X51713228Y-66544950D01*
X51561239Y-66911883D01*
X51483756Y-67301417D01*
X50406000Y-67301417D01*
X50406000Y-55018085D01*
X50480194Y-54186754D01*
X50695638Y-53399227D01*
X51047141Y-52662284D01*
X51523587Y-51999240D01*
X52109919Y-51431044D01*
X52787600Y-50975662D01*
X53535216Y-50647481D01*
X54332251Y-50456130D01*
X55014892Y-50406000D01*
X187981915Y-50406000D01*
X188813246Y-50480194D01*
M02*
