G04 #@! TF.GenerationSoftware,KiCad,Pcbnew,(5.1.5)-3*
G04 #@! TF.CreationDate,2020-09-17T21:05:18+09:00*
G04 #@! TF.ProjectId,acrylic_nixie_clock,61637279-6c69-4635-9f6e-697869655f63,rev?*
G04 #@! TF.SameCoordinates,Original*
G04 #@! TF.FileFunction,Legend,Top*
G04 #@! TF.FilePolarity,Positive*
%FSLAX46Y46*%
G04 Gerber Fmt 4.6, Leading zero omitted, Abs format (unit mm)*
G04 Created by KiCad (PCBNEW (5.1.5)-3) date 2020-09-17 21:05:18*
%MOMM*%
%LPD*%
G04 APERTURE LIST*
%ADD10C,0.120000*%
%ADD11C,0.200000*%
%ADD12C,0.127000*%
%ADD13C,0.150000*%
%ADD14C,0.151600*%
G04 APERTURE END LIST*
D10*
X104882000Y-87162500D02*
X102932000Y-87162500D01*
X104882000Y-87162500D02*
X106832000Y-87162500D01*
X104882000Y-96032500D02*
X102932000Y-96032500D01*
X104882000Y-96032500D02*
X108332000Y-96032500D01*
D11*
X60395000Y-96822500D02*
G75*
G03X60395000Y-96822500I-100000J0D01*
G01*
D12*
X61230000Y-96373500D02*
X63230000Y-96373500D01*
X61230000Y-98571500D02*
X63230000Y-98571500D01*
D10*
X86995000Y-97135000D02*
X88945000Y-97135000D01*
X86995000Y-97135000D02*
X85045000Y-97135000D01*
X86995000Y-87015000D02*
X88945000Y-87015000D01*
X86995000Y-87015000D02*
X83545000Y-87015000D01*
X176350000Y-75250000D02*
X183650000Y-75250000D01*
X176350000Y-80750000D02*
X183650000Y-80750000D01*
X183650000Y-80750000D02*
X183650000Y-79600000D01*
X168350000Y-78250000D02*
X175650000Y-78250000D01*
X168350000Y-83750000D02*
X175650000Y-83750000D01*
X175650000Y-83750000D02*
X175650000Y-82600000D01*
X168350000Y-72250000D02*
X168350000Y-73400000D01*
X175650000Y-72250000D02*
X168350000Y-72250000D01*
X175650000Y-77750000D02*
X168350000Y-77750000D01*
X183650000Y-74750000D02*
X176350000Y-74750000D01*
X183650000Y-69250000D02*
X176350000Y-69250000D01*
X176350000Y-69250000D02*
X176350000Y-70400000D01*
X183650000Y-68750000D02*
X183650000Y-67600000D01*
X176350000Y-68750000D02*
X183650000Y-68750000D01*
X176350000Y-63250000D02*
X183650000Y-63250000D01*
X168350000Y-66250000D02*
X175650000Y-66250000D01*
X168350000Y-71750000D02*
X175650000Y-71750000D01*
X175650000Y-71750000D02*
X175650000Y-70600000D01*
X168350000Y-60250000D02*
X168350000Y-61400000D01*
X175650000Y-60250000D02*
X168350000Y-60250000D01*
X175650000Y-65750000D02*
X168350000Y-65750000D01*
X183650000Y-62750000D02*
X176350000Y-62750000D01*
X183650000Y-57250000D02*
X176350000Y-57250000D01*
X176350000Y-57250000D02*
X176350000Y-58400000D01*
X183650000Y-56750000D02*
X183650000Y-55600000D01*
X176350000Y-56750000D02*
X183650000Y-56750000D01*
X176350000Y-51250000D02*
X183650000Y-51250000D01*
X168350000Y-54250000D02*
X175650000Y-54250000D01*
X168350000Y-59750000D02*
X175650000Y-59750000D01*
X175650000Y-59750000D02*
X175650000Y-58600000D01*
X155350000Y-51250000D02*
X162650000Y-51250000D01*
X155350000Y-56750000D02*
X162650000Y-56750000D01*
X162650000Y-56750000D02*
X162650000Y-55600000D01*
X147350000Y-54250000D02*
X154650000Y-54250000D01*
X147350000Y-59750000D02*
X154650000Y-59750000D01*
X154650000Y-59750000D02*
X154650000Y-58600000D01*
X147350000Y-60250000D02*
X147350000Y-61400000D01*
X154650000Y-60250000D02*
X147350000Y-60250000D01*
X154650000Y-65750000D02*
X147350000Y-65750000D01*
X155350000Y-57250000D02*
X155350000Y-58400000D01*
X162650000Y-57250000D02*
X155350000Y-57250000D01*
X162650000Y-62750000D02*
X155350000Y-62750000D01*
X155350000Y-63250000D02*
X162650000Y-63250000D01*
X155350000Y-68750000D02*
X162650000Y-68750000D01*
X162650000Y-68750000D02*
X162650000Y-67600000D01*
X147350000Y-66250000D02*
X154650000Y-66250000D01*
X147350000Y-71750000D02*
X154650000Y-71750000D01*
X154650000Y-71750000D02*
X154650000Y-70600000D01*
X154650000Y-77750000D02*
X147350000Y-77750000D01*
X154650000Y-72250000D02*
X147350000Y-72250000D01*
X147350000Y-72250000D02*
X147350000Y-73400000D01*
X155350000Y-69250000D02*
X155350000Y-70400000D01*
X162650000Y-69250000D02*
X155350000Y-69250000D01*
X162650000Y-74750000D02*
X155350000Y-74750000D01*
X162650000Y-80750000D02*
X162650000Y-79600000D01*
X155350000Y-80750000D02*
X162650000Y-80750000D01*
X155350000Y-75250000D02*
X162650000Y-75250000D01*
X147350000Y-78250000D02*
X154650000Y-78250000D01*
X147350000Y-83750000D02*
X154650000Y-83750000D01*
X154650000Y-83750000D02*
X154650000Y-82600000D01*
X139650000Y-80750000D02*
X139650000Y-79600000D01*
X132350000Y-80750000D02*
X139650000Y-80750000D01*
X132350000Y-75250000D02*
X139650000Y-75250000D01*
X124350000Y-78250000D02*
X131650000Y-78250000D01*
X124350000Y-83750000D02*
X131650000Y-83750000D01*
X131650000Y-83750000D02*
X131650000Y-82600000D01*
X131650000Y-77750000D02*
X124350000Y-77750000D01*
X131650000Y-72250000D02*
X124350000Y-72250000D01*
X124350000Y-72250000D02*
X124350000Y-73400000D01*
X139650000Y-74750000D02*
X132350000Y-74750000D01*
X139650000Y-69250000D02*
X132350000Y-69250000D01*
X132350000Y-69250000D02*
X132350000Y-70400000D01*
X132350000Y-63250000D02*
X139650000Y-63250000D01*
X132350000Y-68750000D02*
X139650000Y-68750000D01*
X139650000Y-68750000D02*
X139650000Y-67600000D01*
X124350000Y-66250000D02*
X131650000Y-66250000D01*
X124350000Y-71750000D02*
X131650000Y-71750000D01*
X131650000Y-71750000D02*
X131650000Y-70600000D01*
X131650000Y-65750000D02*
X124350000Y-65750000D01*
X131650000Y-60250000D02*
X124350000Y-60250000D01*
X124350000Y-60250000D02*
X124350000Y-61400000D01*
X132350000Y-57250000D02*
X132350000Y-58400000D01*
X139650000Y-57250000D02*
X132350000Y-57250000D01*
X139650000Y-62750000D02*
X132350000Y-62750000D01*
X132350000Y-51250000D02*
X139650000Y-51250000D01*
X132350000Y-56750000D02*
X139650000Y-56750000D01*
X139650000Y-56750000D02*
X139650000Y-55600000D01*
X124350000Y-54250000D02*
X131650000Y-54250000D01*
X124350000Y-59750000D02*
X131650000Y-59750000D01*
X131650000Y-59750000D02*
X131650000Y-58600000D01*
X111350000Y-51250000D02*
X118650000Y-51250000D01*
X111350000Y-56750000D02*
X118650000Y-56750000D01*
X118650000Y-56750000D02*
X118650000Y-55600000D01*
X110650000Y-59750000D02*
X110650000Y-58600000D01*
X103350000Y-59750000D02*
X110650000Y-59750000D01*
X103350000Y-54250000D02*
X110650000Y-54250000D01*
X103350000Y-60250000D02*
X103350000Y-61400000D01*
X110650000Y-60250000D02*
X103350000Y-60250000D01*
X110650000Y-65750000D02*
X103350000Y-65750000D01*
X118650000Y-62750000D02*
X111350000Y-62750000D01*
X118650000Y-57250000D02*
X111350000Y-57250000D01*
X111350000Y-57250000D02*
X111350000Y-58400000D01*
X118650000Y-68750000D02*
X118650000Y-67600000D01*
X111350000Y-68750000D02*
X118650000Y-68750000D01*
X111350000Y-63250000D02*
X118650000Y-63250000D01*
X103350000Y-66250000D02*
X110650000Y-66250000D01*
X103350000Y-71750000D02*
X110650000Y-71750000D01*
X110650000Y-71750000D02*
X110650000Y-70600000D01*
X103350000Y-72250000D02*
X103350000Y-73400000D01*
X110650000Y-72250000D02*
X103350000Y-72250000D01*
X110650000Y-77750000D02*
X103350000Y-77750000D01*
X111350000Y-69250000D02*
X111350000Y-70400000D01*
X118650000Y-69250000D02*
X111350000Y-69250000D01*
X118650000Y-74750000D02*
X111350000Y-74750000D01*
X118650000Y-80750000D02*
X118650000Y-79600000D01*
X111350000Y-80750000D02*
X118650000Y-80750000D01*
X111350000Y-75250000D02*
X118650000Y-75250000D01*
X103350000Y-78250000D02*
X110650000Y-78250000D01*
X103350000Y-83750000D02*
X110650000Y-83750000D01*
X110650000Y-83750000D02*
X110650000Y-82600000D01*
X88350000Y-75250000D02*
X95650000Y-75250000D01*
X88350000Y-80750000D02*
X95650000Y-80750000D01*
X95650000Y-80750000D02*
X95650000Y-79600000D01*
X87650000Y-83750000D02*
X87650000Y-82600000D01*
X80350000Y-83750000D02*
X87650000Y-83750000D01*
X80350000Y-78250000D02*
X87650000Y-78250000D01*
X80350000Y-72250000D02*
X80350000Y-73400000D01*
X87650000Y-72250000D02*
X80350000Y-72250000D01*
X87650000Y-77750000D02*
X80350000Y-77750000D01*
X95650000Y-74750000D02*
X88350000Y-74750000D01*
X95650000Y-69250000D02*
X88350000Y-69250000D01*
X88350000Y-69250000D02*
X88350000Y-70400000D01*
X95650000Y-68750000D02*
X95650000Y-67600000D01*
X88350000Y-68750000D02*
X95650000Y-68750000D01*
X88350000Y-63250000D02*
X95650000Y-63250000D01*
X87650000Y-71750000D02*
X87650000Y-70600000D01*
X80350000Y-71750000D02*
X87650000Y-71750000D01*
X80350000Y-66250000D02*
X87650000Y-66250000D01*
X80350000Y-60250000D02*
X80350000Y-61400000D01*
X87650000Y-60250000D02*
X80350000Y-60250000D01*
X87650000Y-65750000D02*
X80350000Y-65750000D01*
X95650000Y-62750000D02*
X88350000Y-62750000D01*
X95650000Y-57250000D02*
X88350000Y-57250000D01*
X88350000Y-57250000D02*
X88350000Y-58400000D01*
X95650000Y-56750000D02*
X95650000Y-55600000D01*
X88350000Y-56750000D02*
X95650000Y-56750000D01*
X88350000Y-51250000D02*
X95650000Y-51250000D01*
X87650000Y-59750000D02*
X87650000Y-58600000D01*
X80350000Y-59750000D02*
X87650000Y-59750000D01*
X80350000Y-54250000D02*
X87650000Y-54250000D01*
X67350000Y-51250000D02*
X74650000Y-51250000D01*
X67350000Y-56750000D02*
X74650000Y-56750000D01*
X74650000Y-56750000D02*
X74650000Y-55600000D01*
X66650000Y-59750000D02*
X66650000Y-58600000D01*
X59350000Y-59750000D02*
X66650000Y-59750000D01*
X59350000Y-54250000D02*
X66650000Y-54250000D01*
X59350000Y-60250000D02*
X59350000Y-61400000D01*
X66650000Y-60250000D02*
X59350000Y-60250000D01*
X66650000Y-65750000D02*
X59350000Y-65750000D01*
X74650000Y-62750000D02*
X67350000Y-62750000D01*
X74650000Y-57250000D02*
X67350000Y-57250000D01*
X67350000Y-57250000D02*
X67350000Y-58400000D01*
X67350000Y-63250000D02*
X74650000Y-63250000D01*
X67350000Y-68750000D02*
X74650000Y-68750000D01*
X74650000Y-68750000D02*
X74650000Y-67600000D01*
X66650000Y-71750000D02*
X66650000Y-70600000D01*
X59350000Y-71750000D02*
X66650000Y-71750000D01*
X59350000Y-66250000D02*
X66650000Y-66250000D01*
X59350000Y-72250000D02*
X59350000Y-73400000D01*
X66650000Y-72250000D02*
X59350000Y-72250000D01*
X66650000Y-77750000D02*
X59350000Y-77750000D01*
X74650000Y-74750000D02*
X67350000Y-74750000D01*
X74650000Y-69250000D02*
X67350000Y-69250000D01*
X67350000Y-69250000D02*
X67350000Y-70400000D01*
X67350000Y-75250000D02*
X74650000Y-75250000D01*
X67350000Y-80750000D02*
X74650000Y-80750000D01*
X74650000Y-80750000D02*
X74650000Y-79600000D01*
X59350000Y-78250000D02*
X66650000Y-78250000D01*
X59350000Y-83750000D02*
X66650000Y-83750000D01*
X66650000Y-83750000D02*
X66650000Y-82600000D01*
X120325000Y-86552500D02*
X119395000Y-86552500D01*
X117165000Y-86552500D02*
X118095000Y-86552500D01*
X117165000Y-86552500D02*
X117165000Y-88712500D01*
X120325000Y-86552500D02*
X120325000Y-88012500D01*
X66122500Y-95572500D02*
X67382500Y-95572500D01*
X72942500Y-95572500D02*
X71682500Y-95572500D01*
X66122500Y-91812500D02*
X66122500Y-95572500D01*
X72942500Y-89562500D02*
X72942500Y-95572500D01*
D13*
X123375000Y-89085000D02*
X123375000Y-89310000D01*
X130625000Y-89085000D02*
X130625000Y-89410000D01*
X130625000Y-96335000D02*
X130625000Y-96010000D01*
X123375000Y-96335000D02*
X123375000Y-96010000D01*
X123375000Y-89085000D02*
X123700000Y-89085000D01*
X123375000Y-96335000D02*
X123700000Y-96335000D01*
X130625000Y-96335000D02*
X130300000Y-96335000D01*
X130625000Y-89085000D02*
X130300000Y-89085000D01*
X123375000Y-89310000D02*
X121950000Y-89310000D01*
D10*
X111172000Y-87017500D02*
X111172000Y-90867500D01*
X109172000Y-87017500D02*
X109172000Y-90867500D01*
X111172000Y-87017500D02*
X109172000Y-87017500D01*
X113712500Y-87017500D02*
X111712500Y-87017500D01*
X111712500Y-87017500D02*
X111712500Y-90867500D01*
X113712500Y-87017500D02*
X113712500Y-90867500D01*
X120258000Y-97852500D02*
X120258000Y-94552500D01*
X120258000Y-94552500D02*
X116258000Y-94552500D01*
X82645000Y-95947500D02*
X82645000Y-92647500D01*
X82645000Y-92647500D02*
X78645000Y-92647500D01*
X152737000Y-94087500D02*
X155237000Y-94087500D01*
X151237000Y-95837500D02*
X151237000Y-97837500D01*
X152737000Y-99587500D02*
X155237000Y-99587500D01*
X156737000Y-95837500D02*
X156737000Y-97837500D01*
X152287000Y-94537500D02*
X152737000Y-94087500D01*
X155687000Y-94537500D02*
X155237000Y-94087500D01*
X155687000Y-99137500D02*
X155237000Y-99587500D01*
X152287000Y-99137500D02*
X152737000Y-99587500D01*
X162447000Y-99137500D02*
X162897000Y-99587500D01*
X165847000Y-99137500D02*
X165397000Y-99587500D01*
X165847000Y-94537500D02*
X165397000Y-94087500D01*
X162447000Y-94537500D02*
X162897000Y-94087500D01*
X166897000Y-95837500D02*
X166897000Y-97837500D01*
X162897000Y-99587500D02*
X165397000Y-99587500D01*
X161397000Y-95837500D02*
X161397000Y-97837500D01*
X162897000Y-94087500D02*
X165397000Y-94087500D01*
X173057000Y-94087500D02*
X175557000Y-94087500D01*
X171557000Y-95837500D02*
X171557000Y-97837500D01*
X173057000Y-99587500D02*
X175557000Y-99587500D01*
X177057000Y-95837500D02*
X177057000Y-97837500D01*
X172607000Y-94537500D02*
X173057000Y-94087500D01*
X176007000Y-94537500D02*
X175557000Y-94087500D01*
X176007000Y-99137500D02*
X175557000Y-99587500D01*
X172607000Y-99137500D02*
X173057000Y-99587500D01*
X182767000Y-99137500D02*
X183217000Y-99587500D01*
X186167000Y-99137500D02*
X185717000Y-99587500D01*
X186167000Y-94537500D02*
X185717000Y-94087500D01*
X182767000Y-94537500D02*
X183217000Y-94087500D01*
X187217000Y-95837500D02*
X187217000Y-97837500D01*
X183217000Y-99587500D02*
X185717000Y-99587500D01*
X181717000Y-95837500D02*
X181717000Y-97837500D01*
X183217000Y-94087500D02*
X185717000Y-94087500D01*
X134774721Y-90295000D02*
X135100279Y-90295000D01*
X134774721Y-91315000D02*
X135100279Y-91315000D01*
X134774721Y-89727500D02*
X135100279Y-89727500D01*
X134774721Y-88707500D02*
X135100279Y-88707500D01*
X134774721Y-87120000D02*
X135100279Y-87120000D01*
X134774721Y-88140000D02*
X135100279Y-88140000D01*
X134774721Y-86552500D02*
X135100279Y-86552500D01*
X134774721Y-85532500D02*
X135100279Y-85532500D01*
X154158767Y-91315000D02*
X153816233Y-91315000D01*
X154158767Y-90295000D02*
X153816233Y-90295000D01*
X164318767Y-90295000D02*
X163976233Y-90295000D01*
X164318767Y-91315000D02*
X163976233Y-91315000D01*
X174478767Y-91315000D02*
X174136233Y-91315000D01*
X174478767Y-90295000D02*
X174136233Y-90295000D01*
X184638767Y-91315000D02*
X184296233Y-91315000D01*
X184638767Y-90295000D02*
X184296233Y-90295000D01*
X118429221Y-91565000D02*
X118754779Y-91565000D01*
X118429221Y-92585000D02*
X118754779Y-92585000D01*
X118754779Y-94172500D02*
X118429221Y-94172500D01*
X118754779Y-93152500D02*
X118429221Y-93152500D01*
X118590779Y-99252500D02*
X118265221Y-99252500D01*
X118590779Y-98232500D02*
X118265221Y-98232500D01*
X66520279Y-87755000D02*
X66194721Y-87755000D01*
X66520279Y-88775000D02*
X66194721Y-88775000D01*
X70012779Y-87755000D02*
X69687221Y-87755000D01*
X70012779Y-88775000D02*
X69687221Y-88775000D01*
X81125279Y-92267500D02*
X80799721Y-92267500D01*
X81125279Y-91247500D02*
X80799721Y-91247500D01*
X80799721Y-97347500D02*
X81125279Y-97347500D01*
X80799721Y-96327500D02*
X81125279Y-96327500D01*
X92547221Y-88140000D02*
X92872779Y-88140000D01*
X92547221Y-87120000D02*
X92872779Y-87120000D01*
X92547221Y-88707500D02*
X92872779Y-88707500D01*
X92547221Y-89727500D02*
X92872779Y-89727500D01*
X92547221Y-91315000D02*
X92872779Y-91315000D01*
X92547221Y-90295000D02*
X92872779Y-90295000D01*
X92881267Y-92902500D02*
X92538733Y-92902500D01*
X92881267Y-91882500D02*
X92538733Y-91882500D01*
X110661267Y-93787500D02*
X110318733Y-93787500D01*
X110661267Y-94807500D02*
X110318733Y-94807500D01*
X110318733Y-93220000D02*
X110661267Y-93220000D01*
X110318733Y-92200000D02*
X110661267Y-92200000D01*
X118839267Y-90362500D02*
X118496733Y-90362500D01*
X118839267Y-89342500D02*
X118496733Y-89342500D01*
X80816267Y-88140000D02*
X80473733Y-88140000D01*
X80816267Y-87120000D02*
X80473733Y-87120000D01*
X80816267Y-88707500D02*
X80473733Y-88707500D01*
X80816267Y-89727500D02*
X80473733Y-89727500D01*
X92707779Y-93470000D02*
X92382221Y-93470000D01*
X92707779Y-94490000D02*
X92382221Y-94490000D01*
D13*
X103060595Y-85812380D02*
X103060595Y-86621904D01*
X103108214Y-86717142D01*
X103155833Y-86764761D01*
X103251071Y-86812380D01*
X103441547Y-86812380D01*
X103536785Y-86764761D01*
X103584404Y-86717142D01*
X103632023Y-86621904D01*
X103632023Y-85812380D01*
X104012976Y-85812380D02*
X104632023Y-85812380D01*
X104298690Y-86193333D01*
X104441547Y-86193333D01*
X104536785Y-86240952D01*
X104584404Y-86288571D01*
X104632023Y-86383809D01*
X104632023Y-86621904D01*
X104584404Y-86717142D01*
X104536785Y-86764761D01*
X104441547Y-86812380D01*
X104155833Y-86812380D01*
X104060595Y-86764761D01*
X104012976Y-86717142D01*
D14*
X61449047Y-95929404D02*
X61449047Y-95129404D01*
X62287142Y-95853214D02*
X62249047Y-95891309D01*
X62134761Y-95929404D01*
X62058571Y-95929404D01*
X61944285Y-95891309D01*
X61868095Y-95815119D01*
X61830000Y-95738928D01*
X61791904Y-95586547D01*
X61791904Y-95472261D01*
X61830000Y-95319880D01*
X61868095Y-95243690D01*
X61944285Y-95167500D01*
X62058571Y-95129404D01*
X62134761Y-95129404D01*
X62249047Y-95167500D01*
X62287142Y-95205595D01*
X63049047Y-95929404D02*
X62591904Y-95929404D01*
X62820476Y-95929404D02*
X62820476Y-95129404D01*
X62744285Y-95243690D01*
X62668095Y-95319880D01*
X62591904Y-95357976D01*
D13*
X83693095Y-85627380D02*
X83693095Y-86436904D01*
X83740714Y-86532142D01*
X83788333Y-86579761D01*
X83883571Y-86627380D01*
X84074047Y-86627380D01*
X84169285Y-86579761D01*
X84216904Y-86532142D01*
X84264523Y-86436904D01*
X84264523Y-85627380D01*
X85169285Y-85960714D02*
X85169285Y-86627380D01*
X84931190Y-85579761D02*
X84693095Y-86294047D01*
X85312142Y-86294047D01*
X183683214Y-78302380D02*
X183683214Y-77302380D01*
X183921309Y-77302380D01*
X184064166Y-77350000D01*
X184159404Y-77445238D01*
X184207023Y-77540476D01*
X184254642Y-77730952D01*
X184254642Y-77873809D01*
X184207023Y-78064285D01*
X184159404Y-78159523D01*
X184064166Y-78254761D01*
X183921309Y-78302380D01*
X183683214Y-78302380D01*
X185159404Y-77302380D02*
X184683214Y-77302380D01*
X184635595Y-77778571D01*
X184683214Y-77730952D01*
X184778452Y-77683333D01*
X185016547Y-77683333D01*
X185111785Y-77730952D01*
X185159404Y-77778571D01*
X185207023Y-77873809D01*
X185207023Y-78111904D01*
X185159404Y-78207142D01*
X185111785Y-78254761D01*
X185016547Y-78302380D01*
X184778452Y-78302380D01*
X184683214Y-78254761D01*
X184635595Y-78207142D01*
X185540357Y-77302380D02*
X186159404Y-77302380D01*
X185826071Y-77683333D01*
X185968928Y-77683333D01*
X186064166Y-77730952D01*
X186111785Y-77778571D01*
X186159404Y-77873809D01*
X186159404Y-78111904D01*
X186111785Y-78207142D01*
X186064166Y-78254761D01*
X185968928Y-78302380D01*
X185683214Y-78302380D01*
X185587976Y-78254761D01*
X185540357Y-78207142D01*
X176293214Y-77667380D02*
X175721785Y-77667380D01*
X176007500Y-77667380D02*
X176007500Y-76667380D01*
X175912261Y-76810238D01*
X175817023Y-76905476D01*
X175721785Y-76953095D01*
X165903214Y-81477380D02*
X165903214Y-80477380D01*
X166141309Y-80477380D01*
X166284166Y-80525000D01*
X166379404Y-80620238D01*
X166427023Y-80715476D01*
X166474642Y-80905952D01*
X166474642Y-81048809D01*
X166427023Y-81239285D01*
X166379404Y-81334523D01*
X166284166Y-81429761D01*
X166141309Y-81477380D01*
X165903214Y-81477380D01*
X167379404Y-80477380D02*
X166903214Y-80477380D01*
X166855595Y-80953571D01*
X166903214Y-80905952D01*
X166998452Y-80858333D01*
X167236547Y-80858333D01*
X167331785Y-80905952D01*
X167379404Y-80953571D01*
X167427023Y-81048809D01*
X167427023Y-81286904D01*
X167379404Y-81382142D01*
X167331785Y-81429761D01*
X167236547Y-81477380D01*
X166998452Y-81477380D01*
X166903214Y-81429761D01*
X166855595Y-81382142D01*
X168284166Y-80810714D02*
X168284166Y-81477380D01*
X168046071Y-80429761D02*
X167807976Y-81144047D01*
X168427023Y-81144047D01*
X168135714Y-79852380D02*
X167564285Y-79852380D01*
X167850000Y-79852380D02*
X167850000Y-78852380D01*
X167754761Y-78995238D01*
X167659523Y-79090476D01*
X167564285Y-79138095D01*
X165903214Y-75444880D02*
X165903214Y-74444880D01*
X166141309Y-74444880D01*
X166284166Y-74492500D01*
X166379404Y-74587738D01*
X166427023Y-74682976D01*
X166474642Y-74873452D01*
X166474642Y-75016309D01*
X166427023Y-75206785D01*
X166379404Y-75302023D01*
X166284166Y-75397261D01*
X166141309Y-75444880D01*
X165903214Y-75444880D01*
X167379404Y-74444880D02*
X166903214Y-74444880D01*
X166855595Y-74921071D01*
X166903214Y-74873452D01*
X166998452Y-74825833D01*
X167236547Y-74825833D01*
X167331785Y-74873452D01*
X167379404Y-74921071D01*
X167427023Y-75016309D01*
X167427023Y-75254404D01*
X167379404Y-75349642D01*
X167331785Y-75397261D01*
X167236547Y-75444880D01*
X166998452Y-75444880D01*
X166903214Y-75397261D01*
X166855595Y-75349642D01*
X168331785Y-74444880D02*
X167855595Y-74444880D01*
X167807976Y-74921071D01*
X167855595Y-74873452D01*
X167950833Y-74825833D01*
X168188928Y-74825833D01*
X168284166Y-74873452D01*
X168331785Y-74921071D01*
X168379404Y-75016309D01*
X168379404Y-75254404D01*
X168331785Y-75349642D01*
X168284166Y-75397261D01*
X168188928Y-75444880D01*
X167950833Y-75444880D01*
X167855595Y-75397261D01*
X167807976Y-75349642D01*
X175975714Y-75444880D02*
X175404285Y-75444880D01*
X175690000Y-75444880D02*
X175690000Y-74444880D01*
X175594761Y-74587738D01*
X175499523Y-74682976D01*
X175404285Y-74730595D01*
X183683214Y-72269880D02*
X183683214Y-71269880D01*
X183921309Y-71269880D01*
X184064166Y-71317500D01*
X184159404Y-71412738D01*
X184207023Y-71507976D01*
X184254642Y-71698452D01*
X184254642Y-71841309D01*
X184207023Y-72031785D01*
X184159404Y-72127023D01*
X184064166Y-72222261D01*
X183921309Y-72269880D01*
X183683214Y-72269880D01*
X185159404Y-71269880D02*
X184683214Y-71269880D01*
X184635595Y-71746071D01*
X184683214Y-71698452D01*
X184778452Y-71650833D01*
X185016547Y-71650833D01*
X185111785Y-71698452D01*
X185159404Y-71746071D01*
X185207023Y-71841309D01*
X185207023Y-72079404D01*
X185159404Y-72174642D01*
X185111785Y-72222261D01*
X185016547Y-72269880D01*
X184778452Y-72269880D01*
X184683214Y-72222261D01*
X184635595Y-72174642D01*
X186064166Y-71269880D02*
X185873690Y-71269880D01*
X185778452Y-71317500D01*
X185730833Y-71365119D01*
X185635595Y-71507976D01*
X185587976Y-71698452D01*
X185587976Y-72079404D01*
X185635595Y-72174642D01*
X185683214Y-72222261D01*
X185778452Y-72269880D01*
X185968928Y-72269880D01*
X186064166Y-72222261D01*
X186111785Y-72174642D01*
X186159404Y-72079404D01*
X186159404Y-71841309D01*
X186111785Y-71746071D01*
X186064166Y-71698452D01*
X185968928Y-71650833D01*
X185778452Y-71650833D01*
X185683214Y-71698452D01*
X185635595Y-71746071D01*
X185587976Y-71841309D01*
X184435714Y-74052380D02*
X183864285Y-74052380D01*
X184150000Y-74052380D02*
X184150000Y-73052380D01*
X184054761Y-73195238D01*
X183959523Y-73290476D01*
X183864285Y-73338095D01*
X183683214Y-66554880D02*
X183683214Y-65554880D01*
X183921309Y-65554880D01*
X184064166Y-65602500D01*
X184159404Y-65697738D01*
X184207023Y-65792976D01*
X184254642Y-65983452D01*
X184254642Y-66126309D01*
X184207023Y-66316785D01*
X184159404Y-66412023D01*
X184064166Y-66507261D01*
X183921309Y-66554880D01*
X183683214Y-66554880D01*
X185159404Y-65554880D02*
X184683214Y-65554880D01*
X184635595Y-66031071D01*
X184683214Y-65983452D01*
X184778452Y-65935833D01*
X185016547Y-65935833D01*
X185111785Y-65983452D01*
X185159404Y-66031071D01*
X185207023Y-66126309D01*
X185207023Y-66364404D01*
X185159404Y-66459642D01*
X185111785Y-66507261D01*
X185016547Y-66554880D01*
X184778452Y-66554880D01*
X184683214Y-66507261D01*
X184635595Y-66459642D01*
X185540357Y-65554880D02*
X186207023Y-65554880D01*
X185778452Y-66554880D01*
X176293214Y-65919880D02*
X175721785Y-65919880D01*
X176007500Y-65919880D02*
X176007500Y-64919880D01*
X175912261Y-65062738D01*
X175817023Y-65157976D01*
X175721785Y-65205595D01*
X165903214Y-69412380D02*
X165903214Y-68412380D01*
X166141309Y-68412380D01*
X166284166Y-68460000D01*
X166379404Y-68555238D01*
X166427023Y-68650476D01*
X166474642Y-68840952D01*
X166474642Y-68983809D01*
X166427023Y-69174285D01*
X166379404Y-69269523D01*
X166284166Y-69364761D01*
X166141309Y-69412380D01*
X165903214Y-69412380D01*
X167379404Y-68412380D02*
X166903214Y-68412380D01*
X166855595Y-68888571D01*
X166903214Y-68840952D01*
X166998452Y-68793333D01*
X167236547Y-68793333D01*
X167331785Y-68840952D01*
X167379404Y-68888571D01*
X167427023Y-68983809D01*
X167427023Y-69221904D01*
X167379404Y-69317142D01*
X167331785Y-69364761D01*
X167236547Y-69412380D01*
X166998452Y-69412380D01*
X166903214Y-69364761D01*
X166855595Y-69317142D01*
X167998452Y-68840952D02*
X167903214Y-68793333D01*
X167855595Y-68745714D01*
X167807976Y-68650476D01*
X167807976Y-68602857D01*
X167855595Y-68507619D01*
X167903214Y-68460000D01*
X167998452Y-68412380D01*
X168188928Y-68412380D01*
X168284166Y-68460000D01*
X168331785Y-68507619D01*
X168379404Y-68602857D01*
X168379404Y-68650476D01*
X168331785Y-68745714D01*
X168284166Y-68793333D01*
X168188928Y-68840952D01*
X167998452Y-68840952D01*
X167903214Y-68888571D01*
X167855595Y-68936190D01*
X167807976Y-69031428D01*
X167807976Y-69221904D01*
X167855595Y-69317142D01*
X167903214Y-69364761D01*
X167998452Y-69412380D01*
X168188928Y-69412380D01*
X168284166Y-69364761D01*
X168331785Y-69317142D01*
X168379404Y-69221904D01*
X168379404Y-69031428D01*
X168331785Y-68936190D01*
X168284166Y-68888571D01*
X168188928Y-68840952D01*
X168135714Y-67852380D02*
X167564285Y-67852380D01*
X167850000Y-67852380D02*
X167850000Y-66852380D01*
X167754761Y-66995238D01*
X167659523Y-67090476D01*
X167564285Y-67138095D01*
X165903214Y-63379880D02*
X165903214Y-62379880D01*
X166141309Y-62379880D01*
X166284166Y-62427500D01*
X166379404Y-62522738D01*
X166427023Y-62617976D01*
X166474642Y-62808452D01*
X166474642Y-62951309D01*
X166427023Y-63141785D01*
X166379404Y-63237023D01*
X166284166Y-63332261D01*
X166141309Y-63379880D01*
X165903214Y-63379880D01*
X167379404Y-62379880D02*
X166903214Y-62379880D01*
X166855595Y-62856071D01*
X166903214Y-62808452D01*
X166998452Y-62760833D01*
X167236547Y-62760833D01*
X167331785Y-62808452D01*
X167379404Y-62856071D01*
X167427023Y-62951309D01*
X167427023Y-63189404D01*
X167379404Y-63284642D01*
X167331785Y-63332261D01*
X167236547Y-63379880D01*
X166998452Y-63379880D01*
X166903214Y-63332261D01*
X166855595Y-63284642D01*
X167903214Y-63379880D02*
X168093690Y-63379880D01*
X168188928Y-63332261D01*
X168236547Y-63284642D01*
X168331785Y-63141785D01*
X168379404Y-62951309D01*
X168379404Y-62570357D01*
X168331785Y-62475119D01*
X168284166Y-62427500D01*
X168188928Y-62379880D01*
X167998452Y-62379880D01*
X167903214Y-62427500D01*
X167855595Y-62475119D01*
X167807976Y-62570357D01*
X167807976Y-62808452D01*
X167855595Y-62903690D01*
X167903214Y-62951309D01*
X167998452Y-62998928D01*
X168188928Y-62998928D01*
X168284166Y-62951309D01*
X168331785Y-62903690D01*
X168379404Y-62808452D01*
X175975714Y-64014880D02*
X175404285Y-64014880D01*
X175690000Y-64014880D02*
X175690000Y-63014880D01*
X175594761Y-63157738D01*
X175499523Y-63252976D01*
X175404285Y-63300595D01*
X183683214Y-60522380D02*
X183683214Y-59522380D01*
X183921309Y-59522380D01*
X184064166Y-59570000D01*
X184159404Y-59665238D01*
X184207023Y-59760476D01*
X184254642Y-59950952D01*
X184254642Y-60093809D01*
X184207023Y-60284285D01*
X184159404Y-60379523D01*
X184064166Y-60474761D01*
X183921309Y-60522380D01*
X183683214Y-60522380D01*
X185111785Y-59522380D02*
X184921309Y-59522380D01*
X184826071Y-59570000D01*
X184778452Y-59617619D01*
X184683214Y-59760476D01*
X184635595Y-59950952D01*
X184635595Y-60331904D01*
X184683214Y-60427142D01*
X184730833Y-60474761D01*
X184826071Y-60522380D01*
X185016547Y-60522380D01*
X185111785Y-60474761D01*
X185159404Y-60427142D01*
X185207023Y-60331904D01*
X185207023Y-60093809D01*
X185159404Y-59998571D01*
X185111785Y-59950952D01*
X185016547Y-59903333D01*
X184826071Y-59903333D01*
X184730833Y-59950952D01*
X184683214Y-59998571D01*
X184635595Y-60093809D01*
X185826071Y-59522380D02*
X185921309Y-59522380D01*
X186016547Y-59570000D01*
X186064166Y-59617619D01*
X186111785Y-59712857D01*
X186159404Y-59903333D01*
X186159404Y-60141428D01*
X186111785Y-60331904D01*
X186064166Y-60427142D01*
X186016547Y-60474761D01*
X185921309Y-60522380D01*
X185826071Y-60522380D01*
X185730833Y-60474761D01*
X185683214Y-60427142D01*
X185635595Y-60331904D01*
X185587976Y-60141428D01*
X185587976Y-59903333D01*
X185635595Y-59712857D01*
X185683214Y-59617619D01*
X185730833Y-59570000D01*
X185826071Y-59522380D01*
X184435714Y-62052380D02*
X183864285Y-62052380D01*
X184150000Y-62052380D02*
X184150000Y-61052380D01*
X184054761Y-61195238D01*
X183959523Y-61290476D01*
X183864285Y-61338095D01*
X183683214Y-54489880D02*
X183683214Y-53489880D01*
X183921309Y-53489880D01*
X184064166Y-53537500D01*
X184159404Y-53632738D01*
X184207023Y-53727976D01*
X184254642Y-53918452D01*
X184254642Y-54061309D01*
X184207023Y-54251785D01*
X184159404Y-54347023D01*
X184064166Y-54442261D01*
X183921309Y-54489880D01*
X183683214Y-54489880D01*
X185111785Y-53489880D02*
X184921309Y-53489880D01*
X184826071Y-53537500D01*
X184778452Y-53585119D01*
X184683214Y-53727976D01*
X184635595Y-53918452D01*
X184635595Y-54299404D01*
X184683214Y-54394642D01*
X184730833Y-54442261D01*
X184826071Y-54489880D01*
X185016547Y-54489880D01*
X185111785Y-54442261D01*
X185159404Y-54394642D01*
X185207023Y-54299404D01*
X185207023Y-54061309D01*
X185159404Y-53966071D01*
X185111785Y-53918452D01*
X185016547Y-53870833D01*
X184826071Y-53870833D01*
X184730833Y-53918452D01*
X184683214Y-53966071D01*
X184635595Y-54061309D01*
X186159404Y-54489880D02*
X185587976Y-54489880D01*
X185873690Y-54489880D02*
X185873690Y-53489880D01*
X185778452Y-53632738D01*
X185683214Y-53727976D01*
X185587976Y-53775595D01*
X176135714Y-52852380D02*
X175564285Y-52852380D01*
X175850000Y-52852380D02*
X175850000Y-51852380D01*
X175754761Y-51995238D01*
X175659523Y-52090476D01*
X175564285Y-52138095D01*
X165903214Y-57347380D02*
X165903214Y-56347380D01*
X166141309Y-56347380D01*
X166284166Y-56395000D01*
X166379404Y-56490238D01*
X166427023Y-56585476D01*
X166474642Y-56775952D01*
X166474642Y-56918809D01*
X166427023Y-57109285D01*
X166379404Y-57204523D01*
X166284166Y-57299761D01*
X166141309Y-57347380D01*
X165903214Y-57347380D01*
X167331785Y-56347380D02*
X167141309Y-56347380D01*
X167046071Y-56395000D01*
X166998452Y-56442619D01*
X166903214Y-56585476D01*
X166855595Y-56775952D01*
X166855595Y-57156904D01*
X166903214Y-57252142D01*
X166950833Y-57299761D01*
X167046071Y-57347380D01*
X167236547Y-57347380D01*
X167331785Y-57299761D01*
X167379404Y-57252142D01*
X167427023Y-57156904D01*
X167427023Y-56918809D01*
X167379404Y-56823571D01*
X167331785Y-56775952D01*
X167236547Y-56728333D01*
X167046071Y-56728333D01*
X166950833Y-56775952D01*
X166903214Y-56823571D01*
X166855595Y-56918809D01*
X167807976Y-56442619D02*
X167855595Y-56395000D01*
X167950833Y-56347380D01*
X168188928Y-56347380D01*
X168284166Y-56395000D01*
X168331785Y-56442619D01*
X168379404Y-56537857D01*
X168379404Y-56633095D01*
X168331785Y-56775952D01*
X167760357Y-57347380D01*
X168379404Y-57347380D01*
X168135714Y-55852380D02*
X167564285Y-55852380D01*
X167850000Y-55852380D02*
X167850000Y-54852380D01*
X167754761Y-54995238D01*
X167659523Y-55090476D01*
X167564285Y-55138095D01*
X162728214Y-54489880D02*
X162728214Y-53489880D01*
X162966309Y-53489880D01*
X163109166Y-53537500D01*
X163204404Y-53632738D01*
X163252023Y-53727976D01*
X163299642Y-53918452D01*
X163299642Y-54061309D01*
X163252023Y-54251785D01*
X163204404Y-54347023D01*
X163109166Y-54442261D01*
X162966309Y-54489880D01*
X162728214Y-54489880D01*
X164156785Y-53823214D02*
X164156785Y-54489880D01*
X163918690Y-53442261D02*
X163680595Y-54156547D01*
X164299642Y-54156547D01*
X164585357Y-53489880D02*
X165204404Y-53489880D01*
X164871071Y-53870833D01*
X165013928Y-53870833D01*
X165109166Y-53918452D01*
X165156785Y-53966071D01*
X165204404Y-54061309D01*
X165204404Y-54299404D01*
X165156785Y-54394642D01*
X165109166Y-54442261D01*
X165013928Y-54489880D01*
X164728214Y-54489880D01*
X164632976Y-54442261D01*
X164585357Y-54394642D01*
X155135714Y-52852380D02*
X154564285Y-52852380D01*
X154850000Y-52852380D02*
X154850000Y-51852380D01*
X154754761Y-51995238D01*
X154659523Y-52090476D01*
X154564285Y-52138095D01*
X144630714Y-57347380D02*
X144630714Y-56347380D01*
X144868809Y-56347380D01*
X145011666Y-56395000D01*
X145106904Y-56490238D01*
X145154523Y-56585476D01*
X145202142Y-56775952D01*
X145202142Y-56918809D01*
X145154523Y-57109285D01*
X145106904Y-57204523D01*
X145011666Y-57299761D01*
X144868809Y-57347380D01*
X144630714Y-57347380D01*
X146059285Y-56680714D02*
X146059285Y-57347380D01*
X145821190Y-56299761D02*
X145583095Y-57014047D01*
X146202142Y-57014047D01*
X147011666Y-56680714D02*
X147011666Y-57347380D01*
X146773571Y-56299761D02*
X146535476Y-57014047D01*
X147154523Y-57014047D01*
X147135714Y-55852380D02*
X146564285Y-55852380D01*
X146850000Y-55852380D02*
X146850000Y-54852380D01*
X146754761Y-54995238D01*
X146659523Y-55090476D01*
X146564285Y-55138095D01*
X144630714Y-63379880D02*
X144630714Y-62379880D01*
X144868809Y-62379880D01*
X145011666Y-62427500D01*
X145106904Y-62522738D01*
X145154523Y-62617976D01*
X145202142Y-62808452D01*
X145202142Y-62951309D01*
X145154523Y-63141785D01*
X145106904Y-63237023D01*
X145011666Y-63332261D01*
X144868809Y-63379880D01*
X144630714Y-63379880D01*
X146059285Y-62713214D02*
X146059285Y-63379880D01*
X145821190Y-62332261D02*
X145583095Y-63046547D01*
X146202142Y-63046547D01*
X147059285Y-62379880D02*
X146583095Y-62379880D01*
X146535476Y-62856071D01*
X146583095Y-62808452D01*
X146678333Y-62760833D01*
X146916428Y-62760833D01*
X147011666Y-62808452D01*
X147059285Y-62856071D01*
X147106904Y-62951309D01*
X147106904Y-63189404D01*
X147059285Y-63284642D01*
X147011666Y-63332261D01*
X146916428Y-63379880D01*
X146678333Y-63379880D01*
X146583095Y-63332261D01*
X146535476Y-63284642D01*
X155435714Y-66237380D02*
X154864285Y-66237380D01*
X155150000Y-66237380D02*
X155150000Y-65237380D01*
X155054761Y-65380238D01*
X154959523Y-65475476D01*
X154864285Y-65523095D01*
X162728214Y-60522380D02*
X162728214Y-59522380D01*
X162966309Y-59522380D01*
X163109166Y-59570000D01*
X163204404Y-59665238D01*
X163252023Y-59760476D01*
X163299642Y-59950952D01*
X163299642Y-60093809D01*
X163252023Y-60284285D01*
X163204404Y-60379523D01*
X163109166Y-60474761D01*
X162966309Y-60522380D01*
X162728214Y-60522380D01*
X164156785Y-59855714D02*
X164156785Y-60522380D01*
X163918690Y-59474761D02*
X163680595Y-60189047D01*
X164299642Y-60189047D01*
X165109166Y-59522380D02*
X164918690Y-59522380D01*
X164823452Y-59570000D01*
X164775833Y-59617619D01*
X164680595Y-59760476D01*
X164632976Y-59950952D01*
X164632976Y-60331904D01*
X164680595Y-60427142D01*
X164728214Y-60474761D01*
X164823452Y-60522380D01*
X165013928Y-60522380D01*
X165109166Y-60474761D01*
X165156785Y-60427142D01*
X165204404Y-60331904D01*
X165204404Y-60093809D01*
X165156785Y-59998571D01*
X165109166Y-59950952D01*
X165013928Y-59903333D01*
X164823452Y-59903333D01*
X164728214Y-59950952D01*
X164680595Y-59998571D01*
X164632976Y-60093809D01*
X163435714Y-62052380D02*
X162864285Y-62052380D01*
X163150000Y-62052380D02*
X163150000Y-61052380D01*
X163054761Y-61195238D01*
X162959523Y-61290476D01*
X162864285Y-61338095D01*
X162728214Y-66554880D02*
X162728214Y-65554880D01*
X162966309Y-65554880D01*
X163109166Y-65602500D01*
X163204404Y-65697738D01*
X163252023Y-65792976D01*
X163299642Y-65983452D01*
X163299642Y-66126309D01*
X163252023Y-66316785D01*
X163204404Y-66412023D01*
X163109166Y-66507261D01*
X162966309Y-66554880D01*
X162728214Y-66554880D01*
X164156785Y-65888214D02*
X164156785Y-66554880D01*
X163918690Y-65507261D02*
X163680595Y-66221547D01*
X164299642Y-66221547D01*
X164585357Y-65554880D02*
X165252023Y-65554880D01*
X164823452Y-66554880D01*
X155135714Y-64852380D02*
X154564285Y-64852380D01*
X154850000Y-64852380D02*
X154850000Y-63852380D01*
X154754761Y-63995238D01*
X154659523Y-64090476D01*
X154564285Y-64138095D01*
X144630714Y-69412380D02*
X144630714Y-68412380D01*
X144868809Y-68412380D01*
X145011666Y-68460000D01*
X145106904Y-68555238D01*
X145154523Y-68650476D01*
X145202142Y-68840952D01*
X145202142Y-68983809D01*
X145154523Y-69174285D01*
X145106904Y-69269523D01*
X145011666Y-69364761D01*
X144868809Y-69412380D01*
X144630714Y-69412380D01*
X146059285Y-68745714D02*
X146059285Y-69412380D01*
X145821190Y-68364761D02*
X145583095Y-69079047D01*
X146202142Y-69079047D01*
X146725952Y-68840952D02*
X146630714Y-68793333D01*
X146583095Y-68745714D01*
X146535476Y-68650476D01*
X146535476Y-68602857D01*
X146583095Y-68507619D01*
X146630714Y-68460000D01*
X146725952Y-68412380D01*
X146916428Y-68412380D01*
X147011666Y-68460000D01*
X147059285Y-68507619D01*
X147106904Y-68602857D01*
X147106904Y-68650476D01*
X147059285Y-68745714D01*
X147011666Y-68793333D01*
X146916428Y-68840952D01*
X146725952Y-68840952D01*
X146630714Y-68888571D01*
X146583095Y-68936190D01*
X146535476Y-69031428D01*
X146535476Y-69221904D01*
X146583095Y-69317142D01*
X146630714Y-69364761D01*
X146725952Y-69412380D01*
X146916428Y-69412380D01*
X147011666Y-69364761D01*
X147059285Y-69317142D01*
X147106904Y-69221904D01*
X147106904Y-69031428D01*
X147059285Y-68936190D01*
X147011666Y-68888571D01*
X146916428Y-68840952D01*
X147135714Y-67852380D02*
X146564285Y-67852380D01*
X146850000Y-67852380D02*
X146850000Y-66852380D01*
X146754761Y-66995238D01*
X146659523Y-67090476D01*
X146564285Y-67138095D01*
X144630714Y-75444880D02*
X144630714Y-74444880D01*
X144868809Y-74444880D01*
X145011666Y-74492500D01*
X145106904Y-74587738D01*
X145154523Y-74682976D01*
X145202142Y-74873452D01*
X145202142Y-75016309D01*
X145154523Y-75206785D01*
X145106904Y-75302023D01*
X145011666Y-75397261D01*
X144868809Y-75444880D01*
X144630714Y-75444880D01*
X146059285Y-74778214D02*
X146059285Y-75444880D01*
X145821190Y-74397261D02*
X145583095Y-75111547D01*
X146202142Y-75111547D01*
X146630714Y-75444880D02*
X146821190Y-75444880D01*
X146916428Y-75397261D01*
X146964047Y-75349642D01*
X147059285Y-75206785D01*
X147106904Y-75016309D01*
X147106904Y-74635357D01*
X147059285Y-74540119D01*
X147011666Y-74492500D01*
X146916428Y-74444880D01*
X146725952Y-74444880D01*
X146630714Y-74492500D01*
X146583095Y-74540119D01*
X146535476Y-74635357D01*
X146535476Y-74873452D01*
X146583095Y-74968690D01*
X146630714Y-75016309D01*
X146725952Y-75063928D01*
X146916428Y-75063928D01*
X147011666Y-75016309D01*
X147059285Y-74968690D01*
X147106904Y-74873452D01*
X155020714Y-76079880D02*
X154449285Y-76079880D01*
X154735000Y-76079880D02*
X154735000Y-75079880D01*
X154639761Y-75222738D01*
X154544523Y-75317976D01*
X154449285Y-75365595D01*
X162728214Y-72587380D02*
X162728214Y-71587380D01*
X162966309Y-71587380D01*
X163109166Y-71635000D01*
X163204404Y-71730238D01*
X163252023Y-71825476D01*
X163299642Y-72015952D01*
X163299642Y-72158809D01*
X163252023Y-72349285D01*
X163204404Y-72444523D01*
X163109166Y-72539761D01*
X162966309Y-72587380D01*
X162728214Y-72587380D01*
X164204404Y-71587380D02*
X163728214Y-71587380D01*
X163680595Y-72063571D01*
X163728214Y-72015952D01*
X163823452Y-71968333D01*
X164061547Y-71968333D01*
X164156785Y-72015952D01*
X164204404Y-72063571D01*
X164252023Y-72158809D01*
X164252023Y-72396904D01*
X164204404Y-72492142D01*
X164156785Y-72539761D01*
X164061547Y-72587380D01*
X163823452Y-72587380D01*
X163728214Y-72539761D01*
X163680595Y-72492142D01*
X164871071Y-71587380D02*
X164966309Y-71587380D01*
X165061547Y-71635000D01*
X165109166Y-71682619D01*
X165156785Y-71777857D01*
X165204404Y-71968333D01*
X165204404Y-72206428D01*
X165156785Y-72396904D01*
X165109166Y-72492142D01*
X165061547Y-72539761D01*
X164966309Y-72587380D01*
X164871071Y-72587380D01*
X164775833Y-72539761D01*
X164728214Y-72492142D01*
X164680595Y-72396904D01*
X164632976Y-72206428D01*
X164632976Y-71968333D01*
X164680595Y-71777857D01*
X164728214Y-71682619D01*
X164775833Y-71635000D01*
X164871071Y-71587380D01*
X163435714Y-74052380D02*
X162864285Y-74052380D01*
X163150000Y-74052380D02*
X163150000Y-73052380D01*
X163054761Y-73195238D01*
X162959523Y-73290476D01*
X162864285Y-73338095D01*
X162728214Y-78302380D02*
X162728214Y-77302380D01*
X162966309Y-77302380D01*
X163109166Y-77350000D01*
X163204404Y-77445238D01*
X163252023Y-77540476D01*
X163299642Y-77730952D01*
X163299642Y-77873809D01*
X163252023Y-78064285D01*
X163204404Y-78159523D01*
X163109166Y-78254761D01*
X162966309Y-78302380D01*
X162728214Y-78302380D01*
X164204404Y-77302380D02*
X163728214Y-77302380D01*
X163680595Y-77778571D01*
X163728214Y-77730952D01*
X163823452Y-77683333D01*
X164061547Y-77683333D01*
X164156785Y-77730952D01*
X164204404Y-77778571D01*
X164252023Y-77873809D01*
X164252023Y-78111904D01*
X164204404Y-78207142D01*
X164156785Y-78254761D01*
X164061547Y-78302380D01*
X163823452Y-78302380D01*
X163728214Y-78254761D01*
X163680595Y-78207142D01*
X165204404Y-78302380D02*
X164632976Y-78302380D01*
X164918690Y-78302380D02*
X164918690Y-77302380D01*
X164823452Y-77445238D01*
X164728214Y-77540476D01*
X164632976Y-77588095D01*
X155338214Y-77349880D02*
X154766785Y-77349880D01*
X155052500Y-77349880D02*
X155052500Y-76349880D01*
X154957261Y-76492738D01*
X154862023Y-76587976D01*
X154766785Y-76635595D01*
X144630714Y-81477380D02*
X144630714Y-80477380D01*
X144868809Y-80477380D01*
X145011666Y-80525000D01*
X145106904Y-80620238D01*
X145154523Y-80715476D01*
X145202142Y-80905952D01*
X145202142Y-81048809D01*
X145154523Y-81239285D01*
X145106904Y-81334523D01*
X145011666Y-81429761D01*
X144868809Y-81477380D01*
X144630714Y-81477380D01*
X146106904Y-80477380D02*
X145630714Y-80477380D01*
X145583095Y-80953571D01*
X145630714Y-80905952D01*
X145725952Y-80858333D01*
X145964047Y-80858333D01*
X146059285Y-80905952D01*
X146106904Y-80953571D01*
X146154523Y-81048809D01*
X146154523Y-81286904D01*
X146106904Y-81382142D01*
X146059285Y-81429761D01*
X145964047Y-81477380D01*
X145725952Y-81477380D01*
X145630714Y-81429761D01*
X145583095Y-81382142D01*
X146535476Y-80572619D02*
X146583095Y-80525000D01*
X146678333Y-80477380D01*
X146916428Y-80477380D01*
X147011666Y-80525000D01*
X147059285Y-80572619D01*
X147106904Y-80667857D01*
X147106904Y-80763095D01*
X147059285Y-80905952D01*
X146487857Y-81477380D01*
X147106904Y-81477380D01*
X147135714Y-79852380D02*
X146564285Y-79852380D01*
X146850000Y-79852380D02*
X146850000Y-78852380D01*
X146754761Y-78995238D01*
X146659523Y-79090476D01*
X146564285Y-79138095D01*
X139868214Y-78302380D02*
X139868214Y-77302380D01*
X140106309Y-77302380D01*
X140249166Y-77350000D01*
X140344404Y-77445238D01*
X140392023Y-77540476D01*
X140439642Y-77730952D01*
X140439642Y-77873809D01*
X140392023Y-78064285D01*
X140344404Y-78159523D01*
X140249166Y-78254761D01*
X140106309Y-78302380D01*
X139868214Y-78302380D01*
X140772976Y-77302380D02*
X141392023Y-77302380D01*
X141058690Y-77683333D01*
X141201547Y-77683333D01*
X141296785Y-77730952D01*
X141344404Y-77778571D01*
X141392023Y-77873809D01*
X141392023Y-78111904D01*
X141344404Y-78207142D01*
X141296785Y-78254761D01*
X141201547Y-78302380D01*
X140915833Y-78302380D01*
X140820595Y-78254761D01*
X140772976Y-78207142D01*
X141725357Y-77302380D02*
X142344404Y-77302380D01*
X142011071Y-77683333D01*
X142153928Y-77683333D01*
X142249166Y-77730952D01*
X142296785Y-77778571D01*
X142344404Y-77873809D01*
X142344404Y-78111904D01*
X142296785Y-78207142D01*
X142249166Y-78254761D01*
X142153928Y-78302380D01*
X141868214Y-78302380D01*
X141772976Y-78254761D01*
X141725357Y-78207142D01*
X132135714Y-76714880D02*
X131564285Y-76714880D01*
X131850000Y-76714880D02*
X131850000Y-75714880D01*
X131754761Y-75857738D01*
X131659523Y-75952976D01*
X131564285Y-76000595D01*
X121770714Y-81477380D02*
X121770714Y-80477380D01*
X122008809Y-80477380D01*
X122151666Y-80525000D01*
X122246904Y-80620238D01*
X122294523Y-80715476D01*
X122342142Y-80905952D01*
X122342142Y-81048809D01*
X122294523Y-81239285D01*
X122246904Y-81334523D01*
X122151666Y-81429761D01*
X122008809Y-81477380D01*
X121770714Y-81477380D01*
X122675476Y-80477380D02*
X123294523Y-80477380D01*
X122961190Y-80858333D01*
X123104047Y-80858333D01*
X123199285Y-80905952D01*
X123246904Y-80953571D01*
X123294523Y-81048809D01*
X123294523Y-81286904D01*
X123246904Y-81382142D01*
X123199285Y-81429761D01*
X123104047Y-81477380D01*
X122818333Y-81477380D01*
X122723095Y-81429761D01*
X122675476Y-81382142D01*
X124151666Y-80810714D02*
X124151666Y-81477380D01*
X123913571Y-80429761D02*
X123675476Y-81144047D01*
X124294523Y-81144047D01*
X124135714Y-79852380D02*
X123564285Y-79852380D01*
X123850000Y-79852380D02*
X123850000Y-78852380D01*
X123754761Y-78995238D01*
X123659523Y-79090476D01*
X123564285Y-79138095D01*
X121770714Y-75444880D02*
X121770714Y-74444880D01*
X122008809Y-74444880D01*
X122151666Y-74492500D01*
X122246904Y-74587738D01*
X122294523Y-74682976D01*
X122342142Y-74873452D01*
X122342142Y-75016309D01*
X122294523Y-75206785D01*
X122246904Y-75302023D01*
X122151666Y-75397261D01*
X122008809Y-75444880D01*
X121770714Y-75444880D01*
X122675476Y-74444880D02*
X123294523Y-74444880D01*
X122961190Y-74825833D01*
X123104047Y-74825833D01*
X123199285Y-74873452D01*
X123246904Y-74921071D01*
X123294523Y-75016309D01*
X123294523Y-75254404D01*
X123246904Y-75349642D01*
X123199285Y-75397261D01*
X123104047Y-75444880D01*
X122818333Y-75444880D01*
X122723095Y-75397261D01*
X122675476Y-75349642D01*
X124199285Y-74444880D02*
X123723095Y-74444880D01*
X123675476Y-74921071D01*
X123723095Y-74873452D01*
X123818333Y-74825833D01*
X124056428Y-74825833D01*
X124151666Y-74873452D01*
X124199285Y-74921071D01*
X124246904Y-75016309D01*
X124246904Y-75254404D01*
X124199285Y-75349642D01*
X124151666Y-75397261D01*
X124056428Y-75444880D01*
X123818333Y-75444880D01*
X123723095Y-75397261D01*
X123675476Y-75349642D01*
X132435714Y-77984880D02*
X131864285Y-77984880D01*
X132150000Y-77984880D02*
X132150000Y-76984880D01*
X132054761Y-77127738D01*
X131959523Y-77222976D01*
X131864285Y-77270595D01*
X139868214Y-72587380D02*
X139868214Y-71587380D01*
X140106309Y-71587380D01*
X140249166Y-71635000D01*
X140344404Y-71730238D01*
X140392023Y-71825476D01*
X140439642Y-72015952D01*
X140439642Y-72158809D01*
X140392023Y-72349285D01*
X140344404Y-72444523D01*
X140249166Y-72539761D01*
X140106309Y-72587380D01*
X139868214Y-72587380D01*
X140772976Y-71587380D02*
X141392023Y-71587380D01*
X141058690Y-71968333D01*
X141201547Y-71968333D01*
X141296785Y-72015952D01*
X141344404Y-72063571D01*
X141392023Y-72158809D01*
X141392023Y-72396904D01*
X141344404Y-72492142D01*
X141296785Y-72539761D01*
X141201547Y-72587380D01*
X140915833Y-72587380D01*
X140820595Y-72539761D01*
X140772976Y-72492142D01*
X142249166Y-71587380D02*
X142058690Y-71587380D01*
X141963452Y-71635000D01*
X141915833Y-71682619D01*
X141820595Y-71825476D01*
X141772976Y-72015952D01*
X141772976Y-72396904D01*
X141820595Y-72492142D01*
X141868214Y-72539761D01*
X141963452Y-72587380D01*
X142153928Y-72587380D01*
X142249166Y-72539761D01*
X142296785Y-72492142D01*
X142344404Y-72396904D01*
X142344404Y-72158809D01*
X142296785Y-72063571D01*
X142249166Y-72015952D01*
X142153928Y-71968333D01*
X141963452Y-71968333D01*
X141868214Y-72015952D01*
X141820595Y-72063571D01*
X141772976Y-72158809D01*
X140435714Y-74052380D02*
X139864285Y-74052380D01*
X140150000Y-74052380D02*
X140150000Y-73052380D01*
X140054761Y-73195238D01*
X139959523Y-73290476D01*
X139864285Y-73338095D01*
X139868214Y-66554880D02*
X139868214Y-65554880D01*
X140106309Y-65554880D01*
X140249166Y-65602500D01*
X140344404Y-65697738D01*
X140392023Y-65792976D01*
X140439642Y-65983452D01*
X140439642Y-66126309D01*
X140392023Y-66316785D01*
X140344404Y-66412023D01*
X140249166Y-66507261D01*
X140106309Y-66554880D01*
X139868214Y-66554880D01*
X140772976Y-65554880D02*
X141392023Y-65554880D01*
X141058690Y-65935833D01*
X141201547Y-65935833D01*
X141296785Y-65983452D01*
X141344404Y-66031071D01*
X141392023Y-66126309D01*
X141392023Y-66364404D01*
X141344404Y-66459642D01*
X141296785Y-66507261D01*
X141201547Y-66554880D01*
X140915833Y-66554880D01*
X140820595Y-66507261D01*
X140772976Y-66459642D01*
X141725357Y-65554880D02*
X142392023Y-65554880D01*
X141963452Y-66554880D01*
X132160714Y-64649880D02*
X131589285Y-64649880D01*
X131875000Y-64649880D02*
X131875000Y-63649880D01*
X131779761Y-63792738D01*
X131684523Y-63887976D01*
X131589285Y-63935595D01*
X121770714Y-69412380D02*
X121770714Y-68412380D01*
X122008809Y-68412380D01*
X122151666Y-68460000D01*
X122246904Y-68555238D01*
X122294523Y-68650476D01*
X122342142Y-68840952D01*
X122342142Y-68983809D01*
X122294523Y-69174285D01*
X122246904Y-69269523D01*
X122151666Y-69364761D01*
X122008809Y-69412380D01*
X121770714Y-69412380D01*
X122675476Y-68412380D02*
X123294523Y-68412380D01*
X122961190Y-68793333D01*
X123104047Y-68793333D01*
X123199285Y-68840952D01*
X123246904Y-68888571D01*
X123294523Y-68983809D01*
X123294523Y-69221904D01*
X123246904Y-69317142D01*
X123199285Y-69364761D01*
X123104047Y-69412380D01*
X122818333Y-69412380D01*
X122723095Y-69364761D01*
X122675476Y-69317142D01*
X123865952Y-68840952D02*
X123770714Y-68793333D01*
X123723095Y-68745714D01*
X123675476Y-68650476D01*
X123675476Y-68602857D01*
X123723095Y-68507619D01*
X123770714Y-68460000D01*
X123865952Y-68412380D01*
X124056428Y-68412380D01*
X124151666Y-68460000D01*
X124199285Y-68507619D01*
X124246904Y-68602857D01*
X124246904Y-68650476D01*
X124199285Y-68745714D01*
X124151666Y-68793333D01*
X124056428Y-68840952D01*
X123865952Y-68840952D01*
X123770714Y-68888571D01*
X123723095Y-68936190D01*
X123675476Y-69031428D01*
X123675476Y-69221904D01*
X123723095Y-69317142D01*
X123770714Y-69364761D01*
X123865952Y-69412380D01*
X124056428Y-69412380D01*
X124151666Y-69364761D01*
X124199285Y-69317142D01*
X124246904Y-69221904D01*
X124246904Y-69031428D01*
X124199285Y-68936190D01*
X124151666Y-68888571D01*
X124056428Y-68840952D01*
X124135714Y-67852380D02*
X123564285Y-67852380D01*
X123850000Y-67852380D02*
X123850000Y-66852380D01*
X123754761Y-66995238D01*
X123659523Y-67090476D01*
X123564285Y-67138095D01*
X121770714Y-63379880D02*
X121770714Y-62379880D01*
X122008809Y-62379880D01*
X122151666Y-62427500D01*
X122246904Y-62522738D01*
X122294523Y-62617976D01*
X122342142Y-62808452D01*
X122342142Y-62951309D01*
X122294523Y-63141785D01*
X122246904Y-63237023D01*
X122151666Y-63332261D01*
X122008809Y-63379880D01*
X121770714Y-63379880D01*
X122675476Y-62379880D02*
X123294523Y-62379880D01*
X122961190Y-62760833D01*
X123104047Y-62760833D01*
X123199285Y-62808452D01*
X123246904Y-62856071D01*
X123294523Y-62951309D01*
X123294523Y-63189404D01*
X123246904Y-63284642D01*
X123199285Y-63332261D01*
X123104047Y-63379880D01*
X122818333Y-63379880D01*
X122723095Y-63332261D01*
X122675476Y-63284642D01*
X123770714Y-63379880D02*
X123961190Y-63379880D01*
X124056428Y-63332261D01*
X124104047Y-63284642D01*
X124199285Y-63141785D01*
X124246904Y-62951309D01*
X124246904Y-62570357D01*
X124199285Y-62475119D01*
X124151666Y-62427500D01*
X124056428Y-62379880D01*
X123865952Y-62379880D01*
X123770714Y-62427500D01*
X123723095Y-62475119D01*
X123675476Y-62570357D01*
X123675476Y-62808452D01*
X123723095Y-62903690D01*
X123770714Y-62951309D01*
X123865952Y-62998928D01*
X124056428Y-62998928D01*
X124151666Y-62951309D01*
X124199285Y-62903690D01*
X124246904Y-62808452D01*
X132160714Y-66237380D02*
X131589285Y-66237380D01*
X131875000Y-66237380D02*
X131875000Y-65237380D01*
X131779761Y-65380238D01*
X131684523Y-65475476D01*
X131589285Y-65523095D01*
X139868214Y-60522380D02*
X139868214Y-59522380D01*
X140106309Y-59522380D01*
X140249166Y-59570000D01*
X140344404Y-59665238D01*
X140392023Y-59760476D01*
X140439642Y-59950952D01*
X140439642Y-60093809D01*
X140392023Y-60284285D01*
X140344404Y-60379523D01*
X140249166Y-60474761D01*
X140106309Y-60522380D01*
X139868214Y-60522380D01*
X141296785Y-59855714D02*
X141296785Y-60522380D01*
X141058690Y-59474761D02*
X140820595Y-60189047D01*
X141439642Y-60189047D01*
X142011071Y-59522380D02*
X142106309Y-59522380D01*
X142201547Y-59570000D01*
X142249166Y-59617619D01*
X142296785Y-59712857D01*
X142344404Y-59903333D01*
X142344404Y-60141428D01*
X142296785Y-60331904D01*
X142249166Y-60427142D01*
X142201547Y-60474761D01*
X142106309Y-60522380D01*
X142011071Y-60522380D01*
X141915833Y-60474761D01*
X141868214Y-60427142D01*
X141820595Y-60331904D01*
X141772976Y-60141428D01*
X141772976Y-59903333D01*
X141820595Y-59712857D01*
X141868214Y-59617619D01*
X141915833Y-59570000D01*
X142011071Y-59522380D01*
X140435714Y-62052380D02*
X139864285Y-62052380D01*
X140150000Y-62052380D02*
X140150000Y-61052380D01*
X140054761Y-61195238D01*
X139959523Y-61290476D01*
X139864285Y-61338095D01*
X139868214Y-54489880D02*
X139868214Y-53489880D01*
X140106309Y-53489880D01*
X140249166Y-53537500D01*
X140344404Y-53632738D01*
X140392023Y-53727976D01*
X140439642Y-53918452D01*
X140439642Y-54061309D01*
X140392023Y-54251785D01*
X140344404Y-54347023D01*
X140249166Y-54442261D01*
X140106309Y-54489880D01*
X139868214Y-54489880D01*
X141296785Y-53823214D02*
X141296785Y-54489880D01*
X141058690Y-53442261D02*
X140820595Y-54156547D01*
X141439642Y-54156547D01*
X142344404Y-54489880D02*
X141772976Y-54489880D01*
X142058690Y-54489880D02*
X142058690Y-53489880D01*
X141963452Y-53632738D01*
X141868214Y-53727976D01*
X141772976Y-53775595D01*
X132135714Y-52852380D02*
X131564285Y-52852380D01*
X131850000Y-52852380D02*
X131850000Y-51852380D01*
X131754761Y-51995238D01*
X131659523Y-52090476D01*
X131564285Y-52138095D01*
X121770714Y-57347380D02*
X121770714Y-56347380D01*
X122008809Y-56347380D01*
X122151666Y-56395000D01*
X122246904Y-56490238D01*
X122294523Y-56585476D01*
X122342142Y-56775952D01*
X122342142Y-56918809D01*
X122294523Y-57109285D01*
X122246904Y-57204523D01*
X122151666Y-57299761D01*
X122008809Y-57347380D01*
X121770714Y-57347380D01*
X123199285Y-56680714D02*
X123199285Y-57347380D01*
X122961190Y-56299761D02*
X122723095Y-57014047D01*
X123342142Y-57014047D01*
X123675476Y-56442619D02*
X123723095Y-56395000D01*
X123818333Y-56347380D01*
X124056428Y-56347380D01*
X124151666Y-56395000D01*
X124199285Y-56442619D01*
X124246904Y-56537857D01*
X124246904Y-56633095D01*
X124199285Y-56775952D01*
X123627857Y-57347380D01*
X124246904Y-57347380D01*
X124135714Y-55852380D02*
X123564285Y-55852380D01*
X123850000Y-55852380D02*
X123850000Y-54852380D01*
X123754761Y-54995238D01*
X123659523Y-55090476D01*
X123564285Y-55138095D01*
X118913214Y-54489880D02*
X118913214Y-53489880D01*
X119151309Y-53489880D01*
X119294166Y-53537500D01*
X119389404Y-53632738D01*
X119437023Y-53727976D01*
X119484642Y-53918452D01*
X119484642Y-54061309D01*
X119437023Y-54251785D01*
X119389404Y-54347023D01*
X119294166Y-54442261D01*
X119151309Y-54489880D01*
X118913214Y-54489880D01*
X119865595Y-53585119D02*
X119913214Y-53537500D01*
X120008452Y-53489880D01*
X120246547Y-53489880D01*
X120341785Y-53537500D01*
X120389404Y-53585119D01*
X120437023Y-53680357D01*
X120437023Y-53775595D01*
X120389404Y-53918452D01*
X119817976Y-54489880D01*
X120437023Y-54489880D01*
X120770357Y-53489880D02*
X121389404Y-53489880D01*
X121056071Y-53870833D01*
X121198928Y-53870833D01*
X121294166Y-53918452D01*
X121341785Y-53966071D01*
X121389404Y-54061309D01*
X121389404Y-54299404D01*
X121341785Y-54394642D01*
X121294166Y-54442261D01*
X121198928Y-54489880D01*
X120913214Y-54489880D01*
X120817976Y-54442261D01*
X120770357Y-54394642D01*
X111135714Y-52852380D02*
X110564285Y-52852380D01*
X110850000Y-52852380D02*
X110850000Y-51852380D01*
X110754761Y-51995238D01*
X110659523Y-52090476D01*
X110564285Y-52138095D01*
X100815714Y-57664880D02*
X100815714Y-56664880D01*
X101053809Y-56664880D01*
X101196666Y-56712500D01*
X101291904Y-56807738D01*
X101339523Y-56902976D01*
X101387142Y-57093452D01*
X101387142Y-57236309D01*
X101339523Y-57426785D01*
X101291904Y-57522023D01*
X101196666Y-57617261D01*
X101053809Y-57664880D01*
X100815714Y-57664880D01*
X101768095Y-56760119D02*
X101815714Y-56712500D01*
X101910952Y-56664880D01*
X102149047Y-56664880D01*
X102244285Y-56712500D01*
X102291904Y-56760119D01*
X102339523Y-56855357D01*
X102339523Y-56950595D01*
X102291904Y-57093452D01*
X101720476Y-57664880D01*
X102339523Y-57664880D01*
X103196666Y-56998214D02*
X103196666Y-57664880D01*
X102958571Y-56617261D02*
X102720476Y-57331547D01*
X103339523Y-57331547D01*
X103135714Y-55852380D02*
X102564285Y-55852380D01*
X102850000Y-55852380D02*
X102850000Y-54852380D01*
X102754761Y-54995238D01*
X102659523Y-55090476D01*
X102564285Y-55138095D01*
X100815714Y-63379880D02*
X100815714Y-62379880D01*
X101053809Y-62379880D01*
X101196666Y-62427500D01*
X101291904Y-62522738D01*
X101339523Y-62617976D01*
X101387142Y-62808452D01*
X101387142Y-62951309D01*
X101339523Y-63141785D01*
X101291904Y-63237023D01*
X101196666Y-63332261D01*
X101053809Y-63379880D01*
X100815714Y-63379880D01*
X101768095Y-62475119D02*
X101815714Y-62427500D01*
X101910952Y-62379880D01*
X102149047Y-62379880D01*
X102244285Y-62427500D01*
X102291904Y-62475119D01*
X102339523Y-62570357D01*
X102339523Y-62665595D01*
X102291904Y-62808452D01*
X101720476Y-63379880D01*
X102339523Y-63379880D01*
X103244285Y-62379880D02*
X102768095Y-62379880D01*
X102720476Y-62856071D01*
X102768095Y-62808452D01*
X102863333Y-62760833D01*
X103101428Y-62760833D01*
X103196666Y-62808452D01*
X103244285Y-62856071D01*
X103291904Y-62951309D01*
X103291904Y-63189404D01*
X103244285Y-63284642D01*
X103196666Y-63332261D01*
X103101428Y-63379880D01*
X102863333Y-63379880D01*
X102768095Y-63332261D01*
X102720476Y-63284642D01*
X111435714Y-66237380D02*
X110864285Y-66237380D01*
X111150000Y-66237380D02*
X111150000Y-65237380D01*
X111054761Y-65380238D01*
X110959523Y-65475476D01*
X110864285Y-65523095D01*
X118913214Y-60522380D02*
X118913214Y-59522380D01*
X119151309Y-59522380D01*
X119294166Y-59570000D01*
X119389404Y-59665238D01*
X119437023Y-59760476D01*
X119484642Y-59950952D01*
X119484642Y-60093809D01*
X119437023Y-60284285D01*
X119389404Y-60379523D01*
X119294166Y-60474761D01*
X119151309Y-60522380D01*
X118913214Y-60522380D01*
X119865595Y-59617619D02*
X119913214Y-59570000D01*
X120008452Y-59522380D01*
X120246547Y-59522380D01*
X120341785Y-59570000D01*
X120389404Y-59617619D01*
X120437023Y-59712857D01*
X120437023Y-59808095D01*
X120389404Y-59950952D01*
X119817976Y-60522380D01*
X120437023Y-60522380D01*
X121294166Y-59522380D02*
X121103690Y-59522380D01*
X121008452Y-59570000D01*
X120960833Y-59617619D01*
X120865595Y-59760476D01*
X120817976Y-59950952D01*
X120817976Y-60331904D01*
X120865595Y-60427142D01*
X120913214Y-60474761D01*
X121008452Y-60522380D01*
X121198928Y-60522380D01*
X121294166Y-60474761D01*
X121341785Y-60427142D01*
X121389404Y-60331904D01*
X121389404Y-60093809D01*
X121341785Y-59998571D01*
X121294166Y-59950952D01*
X121198928Y-59903333D01*
X121008452Y-59903333D01*
X120913214Y-59950952D01*
X120865595Y-59998571D01*
X120817976Y-60093809D01*
X119435714Y-62052380D02*
X118864285Y-62052380D01*
X119150000Y-62052380D02*
X119150000Y-61052380D01*
X119054761Y-61195238D01*
X118959523Y-61290476D01*
X118864285Y-61338095D01*
X118913214Y-66554880D02*
X118913214Y-65554880D01*
X119151309Y-65554880D01*
X119294166Y-65602500D01*
X119389404Y-65697738D01*
X119437023Y-65792976D01*
X119484642Y-65983452D01*
X119484642Y-66126309D01*
X119437023Y-66316785D01*
X119389404Y-66412023D01*
X119294166Y-66507261D01*
X119151309Y-66554880D01*
X118913214Y-66554880D01*
X119865595Y-65650119D02*
X119913214Y-65602500D01*
X120008452Y-65554880D01*
X120246547Y-65554880D01*
X120341785Y-65602500D01*
X120389404Y-65650119D01*
X120437023Y-65745357D01*
X120437023Y-65840595D01*
X120389404Y-65983452D01*
X119817976Y-66554880D01*
X120437023Y-66554880D01*
X120770357Y-65554880D02*
X121437023Y-65554880D01*
X121008452Y-66554880D01*
X111135714Y-64852380D02*
X110564285Y-64852380D01*
X110850000Y-64852380D02*
X110850000Y-63852380D01*
X110754761Y-63995238D01*
X110659523Y-64090476D01*
X110564285Y-64138095D01*
X100815714Y-69412380D02*
X100815714Y-68412380D01*
X101053809Y-68412380D01*
X101196666Y-68460000D01*
X101291904Y-68555238D01*
X101339523Y-68650476D01*
X101387142Y-68840952D01*
X101387142Y-68983809D01*
X101339523Y-69174285D01*
X101291904Y-69269523D01*
X101196666Y-69364761D01*
X101053809Y-69412380D01*
X100815714Y-69412380D01*
X101768095Y-68507619D02*
X101815714Y-68460000D01*
X101910952Y-68412380D01*
X102149047Y-68412380D01*
X102244285Y-68460000D01*
X102291904Y-68507619D01*
X102339523Y-68602857D01*
X102339523Y-68698095D01*
X102291904Y-68840952D01*
X101720476Y-69412380D01*
X102339523Y-69412380D01*
X102910952Y-68840952D02*
X102815714Y-68793333D01*
X102768095Y-68745714D01*
X102720476Y-68650476D01*
X102720476Y-68602857D01*
X102768095Y-68507619D01*
X102815714Y-68460000D01*
X102910952Y-68412380D01*
X103101428Y-68412380D01*
X103196666Y-68460000D01*
X103244285Y-68507619D01*
X103291904Y-68602857D01*
X103291904Y-68650476D01*
X103244285Y-68745714D01*
X103196666Y-68793333D01*
X103101428Y-68840952D01*
X102910952Y-68840952D01*
X102815714Y-68888571D01*
X102768095Y-68936190D01*
X102720476Y-69031428D01*
X102720476Y-69221904D01*
X102768095Y-69317142D01*
X102815714Y-69364761D01*
X102910952Y-69412380D01*
X103101428Y-69412380D01*
X103196666Y-69364761D01*
X103244285Y-69317142D01*
X103291904Y-69221904D01*
X103291904Y-69031428D01*
X103244285Y-68936190D01*
X103196666Y-68888571D01*
X103101428Y-68840952D01*
X103135714Y-67852380D02*
X102564285Y-67852380D01*
X102850000Y-67852380D02*
X102850000Y-66852380D01*
X102754761Y-66995238D01*
X102659523Y-67090476D01*
X102564285Y-67138095D01*
X100815714Y-75444880D02*
X100815714Y-74444880D01*
X101053809Y-74444880D01*
X101196666Y-74492500D01*
X101291904Y-74587738D01*
X101339523Y-74682976D01*
X101387142Y-74873452D01*
X101387142Y-75016309D01*
X101339523Y-75206785D01*
X101291904Y-75302023D01*
X101196666Y-75397261D01*
X101053809Y-75444880D01*
X100815714Y-75444880D01*
X101768095Y-74540119D02*
X101815714Y-74492500D01*
X101910952Y-74444880D01*
X102149047Y-74444880D01*
X102244285Y-74492500D01*
X102291904Y-74540119D01*
X102339523Y-74635357D01*
X102339523Y-74730595D01*
X102291904Y-74873452D01*
X101720476Y-75444880D01*
X102339523Y-75444880D01*
X102815714Y-75444880D02*
X103006190Y-75444880D01*
X103101428Y-75397261D01*
X103149047Y-75349642D01*
X103244285Y-75206785D01*
X103291904Y-75016309D01*
X103291904Y-74635357D01*
X103244285Y-74540119D01*
X103196666Y-74492500D01*
X103101428Y-74444880D01*
X102910952Y-74444880D01*
X102815714Y-74492500D01*
X102768095Y-74540119D01*
X102720476Y-74635357D01*
X102720476Y-74873452D01*
X102768095Y-74968690D01*
X102815714Y-75016309D01*
X102910952Y-75063928D01*
X103101428Y-75063928D01*
X103196666Y-75016309D01*
X103244285Y-74968690D01*
X103291904Y-74873452D01*
X111435714Y-78302380D02*
X110864285Y-78302380D01*
X111150000Y-78302380D02*
X111150000Y-77302380D01*
X111054761Y-77445238D01*
X110959523Y-77540476D01*
X110864285Y-77588095D01*
X118913214Y-72587380D02*
X118913214Y-71587380D01*
X119151309Y-71587380D01*
X119294166Y-71635000D01*
X119389404Y-71730238D01*
X119437023Y-71825476D01*
X119484642Y-72015952D01*
X119484642Y-72158809D01*
X119437023Y-72349285D01*
X119389404Y-72444523D01*
X119294166Y-72539761D01*
X119151309Y-72587380D01*
X118913214Y-72587380D01*
X119817976Y-71587380D02*
X120437023Y-71587380D01*
X120103690Y-71968333D01*
X120246547Y-71968333D01*
X120341785Y-72015952D01*
X120389404Y-72063571D01*
X120437023Y-72158809D01*
X120437023Y-72396904D01*
X120389404Y-72492142D01*
X120341785Y-72539761D01*
X120246547Y-72587380D01*
X119960833Y-72587380D01*
X119865595Y-72539761D01*
X119817976Y-72492142D01*
X121056071Y-71587380D02*
X121151309Y-71587380D01*
X121246547Y-71635000D01*
X121294166Y-71682619D01*
X121341785Y-71777857D01*
X121389404Y-71968333D01*
X121389404Y-72206428D01*
X121341785Y-72396904D01*
X121294166Y-72492142D01*
X121246547Y-72539761D01*
X121151309Y-72587380D01*
X121056071Y-72587380D01*
X120960833Y-72539761D01*
X120913214Y-72492142D01*
X120865595Y-72396904D01*
X120817976Y-72206428D01*
X120817976Y-71968333D01*
X120865595Y-71777857D01*
X120913214Y-71682619D01*
X120960833Y-71635000D01*
X121056071Y-71587380D01*
X119435714Y-74052380D02*
X118864285Y-74052380D01*
X119150000Y-74052380D02*
X119150000Y-73052380D01*
X119054761Y-73195238D01*
X118959523Y-73290476D01*
X118864285Y-73338095D01*
X118595714Y-78302380D02*
X118595714Y-77302380D01*
X118833809Y-77302380D01*
X118976666Y-77350000D01*
X119071904Y-77445238D01*
X119119523Y-77540476D01*
X119167142Y-77730952D01*
X119167142Y-77873809D01*
X119119523Y-78064285D01*
X119071904Y-78159523D01*
X118976666Y-78254761D01*
X118833809Y-78302380D01*
X118595714Y-78302380D01*
X119500476Y-77302380D02*
X120119523Y-77302380D01*
X119786190Y-77683333D01*
X119929047Y-77683333D01*
X120024285Y-77730952D01*
X120071904Y-77778571D01*
X120119523Y-77873809D01*
X120119523Y-78111904D01*
X120071904Y-78207142D01*
X120024285Y-78254761D01*
X119929047Y-78302380D01*
X119643333Y-78302380D01*
X119548095Y-78254761D01*
X119500476Y-78207142D01*
X121071904Y-78302380D02*
X120500476Y-78302380D01*
X120786190Y-78302380D02*
X120786190Y-77302380D01*
X120690952Y-77445238D01*
X120595714Y-77540476D01*
X120500476Y-77588095D01*
X111135714Y-76852380D02*
X110564285Y-76852380D01*
X110850000Y-76852380D02*
X110850000Y-75852380D01*
X110754761Y-75995238D01*
X110659523Y-76090476D01*
X110564285Y-76138095D01*
X100815714Y-81477380D02*
X100815714Y-80477380D01*
X101053809Y-80477380D01*
X101196666Y-80525000D01*
X101291904Y-80620238D01*
X101339523Y-80715476D01*
X101387142Y-80905952D01*
X101387142Y-81048809D01*
X101339523Y-81239285D01*
X101291904Y-81334523D01*
X101196666Y-81429761D01*
X101053809Y-81477380D01*
X100815714Y-81477380D01*
X101720476Y-80477380D02*
X102339523Y-80477380D01*
X102006190Y-80858333D01*
X102149047Y-80858333D01*
X102244285Y-80905952D01*
X102291904Y-80953571D01*
X102339523Y-81048809D01*
X102339523Y-81286904D01*
X102291904Y-81382142D01*
X102244285Y-81429761D01*
X102149047Y-81477380D01*
X101863333Y-81477380D01*
X101768095Y-81429761D01*
X101720476Y-81382142D01*
X102720476Y-80572619D02*
X102768095Y-80525000D01*
X102863333Y-80477380D01*
X103101428Y-80477380D01*
X103196666Y-80525000D01*
X103244285Y-80572619D01*
X103291904Y-80667857D01*
X103291904Y-80763095D01*
X103244285Y-80905952D01*
X102672857Y-81477380D01*
X103291904Y-81477380D01*
X103135714Y-79852380D02*
X102564285Y-79852380D01*
X102850000Y-79852380D02*
X102850000Y-78852380D01*
X102754761Y-78995238D01*
X102659523Y-79090476D01*
X102564285Y-79138095D01*
X95735714Y-78302380D02*
X95735714Y-77302380D01*
X95973809Y-77302380D01*
X96116666Y-77350000D01*
X96211904Y-77445238D01*
X96259523Y-77540476D01*
X96307142Y-77730952D01*
X96307142Y-77873809D01*
X96259523Y-78064285D01*
X96211904Y-78159523D01*
X96116666Y-78254761D01*
X95973809Y-78302380D01*
X95735714Y-78302380D01*
X97259523Y-78302380D02*
X96688095Y-78302380D01*
X96973809Y-78302380D02*
X96973809Y-77302380D01*
X96878571Y-77445238D01*
X96783333Y-77540476D01*
X96688095Y-77588095D01*
X97592857Y-77302380D02*
X98211904Y-77302380D01*
X97878571Y-77683333D01*
X98021428Y-77683333D01*
X98116666Y-77730952D01*
X98164285Y-77778571D01*
X98211904Y-77873809D01*
X98211904Y-78111904D01*
X98164285Y-78207142D01*
X98116666Y-78254761D01*
X98021428Y-78302380D01*
X97735714Y-78302380D01*
X97640476Y-78254761D01*
X97592857Y-78207142D01*
X88028214Y-75762380D02*
X87456785Y-75762380D01*
X87742500Y-75762380D02*
X87742500Y-74762380D01*
X87647261Y-74905238D01*
X87552023Y-75000476D01*
X87456785Y-75048095D01*
X77955714Y-81477380D02*
X77955714Y-80477380D01*
X78193809Y-80477380D01*
X78336666Y-80525000D01*
X78431904Y-80620238D01*
X78479523Y-80715476D01*
X78527142Y-80905952D01*
X78527142Y-81048809D01*
X78479523Y-81239285D01*
X78431904Y-81334523D01*
X78336666Y-81429761D01*
X78193809Y-81477380D01*
X77955714Y-81477380D01*
X79479523Y-81477380D02*
X78908095Y-81477380D01*
X79193809Y-81477380D02*
X79193809Y-80477380D01*
X79098571Y-80620238D01*
X79003333Y-80715476D01*
X78908095Y-80763095D01*
X80336666Y-80810714D02*
X80336666Y-81477380D01*
X80098571Y-80429761D02*
X79860476Y-81144047D01*
X80479523Y-81144047D01*
X80135714Y-79852380D02*
X79564285Y-79852380D01*
X79850000Y-79852380D02*
X79850000Y-78852380D01*
X79754761Y-78995238D01*
X79659523Y-79090476D01*
X79564285Y-79138095D01*
X77955714Y-75444880D02*
X77955714Y-74444880D01*
X78193809Y-74444880D01*
X78336666Y-74492500D01*
X78431904Y-74587738D01*
X78479523Y-74682976D01*
X78527142Y-74873452D01*
X78527142Y-75016309D01*
X78479523Y-75206785D01*
X78431904Y-75302023D01*
X78336666Y-75397261D01*
X78193809Y-75444880D01*
X77955714Y-75444880D01*
X79479523Y-75444880D02*
X78908095Y-75444880D01*
X79193809Y-75444880D02*
X79193809Y-74444880D01*
X79098571Y-74587738D01*
X79003333Y-74682976D01*
X78908095Y-74730595D01*
X80384285Y-74444880D02*
X79908095Y-74444880D01*
X79860476Y-74921071D01*
X79908095Y-74873452D01*
X80003333Y-74825833D01*
X80241428Y-74825833D01*
X80336666Y-74873452D01*
X80384285Y-74921071D01*
X80431904Y-75016309D01*
X80431904Y-75254404D01*
X80384285Y-75349642D01*
X80336666Y-75397261D01*
X80241428Y-75444880D01*
X80003333Y-75444880D01*
X79908095Y-75397261D01*
X79860476Y-75349642D01*
X88435714Y-77052380D02*
X87864285Y-77052380D01*
X88150000Y-77052380D02*
X88150000Y-76052380D01*
X88054761Y-76195238D01*
X87959523Y-76290476D01*
X87864285Y-76338095D01*
X95735714Y-72587380D02*
X95735714Y-71587380D01*
X95973809Y-71587380D01*
X96116666Y-71635000D01*
X96211904Y-71730238D01*
X96259523Y-71825476D01*
X96307142Y-72015952D01*
X96307142Y-72158809D01*
X96259523Y-72349285D01*
X96211904Y-72444523D01*
X96116666Y-72539761D01*
X95973809Y-72587380D01*
X95735714Y-72587380D01*
X97259523Y-72587380D02*
X96688095Y-72587380D01*
X96973809Y-72587380D02*
X96973809Y-71587380D01*
X96878571Y-71730238D01*
X96783333Y-71825476D01*
X96688095Y-71873095D01*
X98116666Y-71587380D02*
X97926190Y-71587380D01*
X97830952Y-71635000D01*
X97783333Y-71682619D01*
X97688095Y-71825476D01*
X97640476Y-72015952D01*
X97640476Y-72396904D01*
X97688095Y-72492142D01*
X97735714Y-72539761D01*
X97830952Y-72587380D01*
X98021428Y-72587380D01*
X98116666Y-72539761D01*
X98164285Y-72492142D01*
X98211904Y-72396904D01*
X98211904Y-72158809D01*
X98164285Y-72063571D01*
X98116666Y-72015952D01*
X98021428Y-71968333D01*
X97830952Y-71968333D01*
X97735714Y-72015952D01*
X97688095Y-72063571D01*
X97640476Y-72158809D01*
X96435714Y-74052380D02*
X95864285Y-74052380D01*
X96150000Y-74052380D02*
X96150000Y-73052380D01*
X96054761Y-73195238D01*
X95959523Y-73290476D01*
X95864285Y-73338095D01*
X95735714Y-66554880D02*
X95735714Y-65554880D01*
X95973809Y-65554880D01*
X96116666Y-65602500D01*
X96211904Y-65697738D01*
X96259523Y-65792976D01*
X96307142Y-65983452D01*
X96307142Y-66126309D01*
X96259523Y-66316785D01*
X96211904Y-66412023D01*
X96116666Y-66507261D01*
X95973809Y-66554880D01*
X95735714Y-66554880D01*
X97259523Y-66554880D02*
X96688095Y-66554880D01*
X96973809Y-66554880D02*
X96973809Y-65554880D01*
X96878571Y-65697738D01*
X96783333Y-65792976D01*
X96688095Y-65840595D01*
X97592857Y-65554880D02*
X98259523Y-65554880D01*
X97830952Y-66554880D01*
X88028214Y-63697380D02*
X87456785Y-63697380D01*
X87742500Y-63697380D02*
X87742500Y-62697380D01*
X87647261Y-62840238D01*
X87552023Y-62935476D01*
X87456785Y-62983095D01*
X77955714Y-69412380D02*
X77955714Y-68412380D01*
X78193809Y-68412380D01*
X78336666Y-68460000D01*
X78431904Y-68555238D01*
X78479523Y-68650476D01*
X78527142Y-68840952D01*
X78527142Y-68983809D01*
X78479523Y-69174285D01*
X78431904Y-69269523D01*
X78336666Y-69364761D01*
X78193809Y-69412380D01*
X77955714Y-69412380D01*
X79479523Y-69412380D02*
X78908095Y-69412380D01*
X79193809Y-69412380D02*
X79193809Y-68412380D01*
X79098571Y-68555238D01*
X79003333Y-68650476D01*
X78908095Y-68698095D01*
X80050952Y-68840952D02*
X79955714Y-68793333D01*
X79908095Y-68745714D01*
X79860476Y-68650476D01*
X79860476Y-68602857D01*
X79908095Y-68507619D01*
X79955714Y-68460000D01*
X80050952Y-68412380D01*
X80241428Y-68412380D01*
X80336666Y-68460000D01*
X80384285Y-68507619D01*
X80431904Y-68602857D01*
X80431904Y-68650476D01*
X80384285Y-68745714D01*
X80336666Y-68793333D01*
X80241428Y-68840952D01*
X80050952Y-68840952D01*
X79955714Y-68888571D01*
X79908095Y-68936190D01*
X79860476Y-69031428D01*
X79860476Y-69221904D01*
X79908095Y-69317142D01*
X79955714Y-69364761D01*
X80050952Y-69412380D01*
X80241428Y-69412380D01*
X80336666Y-69364761D01*
X80384285Y-69317142D01*
X80431904Y-69221904D01*
X80431904Y-69031428D01*
X80384285Y-68936190D01*
X80336666Y-68888571D01*
X80241428Y-68840952D01*
X80135714Y-67852380D02*
X79564285Y-67852380D01*
X79850000Y-67852380D02*
X79850000Y-66852380D01*
X79754761Y-66995238D01*
X79659523Y-67090476D01*
X79564285Y-67138095D01*
X77955714Y-63379880D02*
X77955714Y-62379880D01*
X78193809Y-62379880D01*
X78336666Y-62427500D01*
X78431904Y-62522738D01*
X78479523Y-62617976D01*
X78527142Y-62808452D01*
X78527142Y-62951309D01*
X78479523Y-63141785D01*
X78431904Y-63237023D01*
X78336666Y-63332261D01*
X78193809Y-63379880D01*
X77955714Y-63379880D01*
X79479523Y-63379880D02*
X78908095Y-63379880D01*
X79193809Y-63379880D02*
X79193809Y-62379880D01*
X79098571Y-62522738D01*
X79003333Y-62617976D01*
X78908095Y-62665595D01*
X79955714Y-63379880D02*
X80146190Y-63379880D01*
X80241428Y-63332261D01*
X80289047Y-63284642D01*
X80384285Y-63141785D01*
X80431904Y-62951309D01*
X80431904Y-62570357D01*
X80384285Y-62475119D01*
X80336666Y-62427500D01*
X80241428Y-62379880D01*
X80050952Y-62379880D01*
X79955714Y-62427500D01*
X79908095Y-62475119D01*
X79860476Y-62570357D01*
X79860476Y-62808452D01*
X79908095Y-62903690D01*
X79955714Y-62951309D01*
X80050952Y-62998928D01*
X80241428Y-62998928D01*
X80336666Y-62951309D01*
X80384285Y-62903690D01*
X80431904Y-62808452D01*
X88435714Y-65052380D02*
X87864285Y-65052380D01*
X88150000Y-65052380D02*
X88150000Y-64052380D01*
X88054761Y-64195238D01*
X87959523Y-64290476D01*
X87864285Y-64338095D01*
X95735714Y-60522380D02*
X95735714Y-59522380D01*
X95973809Y-59522380D01*
X96116666Y-59570000D01*
X96211904Y-59665238D01*
X96259523Y-59760476D01*
X96307142Y-59950952D01*
X96307142Y-60093809D01*
X96259523Y-60284285D01*
X96211904Y-60379523D01*
X96116666Y-60474761D01*
X95973809Y-60522380D01*
X95735714Y-60522380D01*
X96688095Y-59617619D02*
X96735714Y-59570000D01*
X96830952Y-59522380D01*
X97069047Y-59522380D01*
X97164285Y-59570000D01*
X97211904Y-59617619D01*
X97259523Y-59712857D01*
X97259523Y-59808095D01*
X97211904Y-59950952D01*
X96640476Y-60522380D01*
X97259523Y-60522380D01*
X97878571Y-59522380D02*
X97973809Y-59522380D01*
X98069047Y-59570000D01*
X98116666Y-59617619D01*
X98164285Y-59712857D01*
X98211904Y-59903333D01*
X98211904Y-60141428D01*
X98164285Y-60331904D01*
X98116666Y-60427142D01*
X98069047Y-60474761D01*
X97973809Y-60522380D01*
X97878571Y-60522380D01*
X97783333Y-60474761D01*
X97735714Y-60427142D01*
X97688095Y-60331904D01*
X97640476Y-60141428D01*
X97640476Y-59903333D01*
X97688095Y-59712857D01*
X97735714Y-59617619D01*
X97783333Y-59570000D01*
X97878571Y-59522380D01*
X96435714Y-62052380D02*
X95864285Y-62052380D01*
X96150000Y-62052380D02*
X96150000Y-61052380D01*
X96054761Y-61195238D01*
X95959523Y-61290476D01*
X95864285Y-61338095D01*
X95735714Y-54489880D02*
X95735714Y-53489880D01*
X95973809Y-53489880D01*
X96116666Y-53537500D01*
X96211904Y-53632738D01*
X96259523Y-53727976D01*
X96307142Y-53918452D01*
X96307142Y-54061309D01*
X96259523Y-54251785D01*
X96211904Y-54347023D01*
X96116666Y-54442261D01*
X95973809Y-54489880D01*
X95735714Y-54489880D01*
X96688095Y-53585119D02*
X96735714Y-53537500D01*
X96830952Y-53489880D01*
X97069047Y-53489880D01*
X97164285Y-53537500D01*
X97211904Y-53585119D01*
X97259523Y-53680357D01*
X97259523Y-53775595D01*
X97211904Y-53918452D01*
X96640476Y-54489880D01*
X97259523Y-54489880D01*
X98211904Y-54489880D02*
X97640476Y-54489880D01*
X97926190Y-54489880D02*
X97926190Y-53489880D01*
X97830952Y-53632738D01*
X97735714Y-53727976D01*
X97640476Y-53775595D01*
X88135714Y-52852380D02*
X87564285Y-52852380D01*
X87850000Y-52852380D02*
X87850000Y-51852380D01*
X87754761Y-51995238D01*
X87659523Y-52090476D01*
X87564285Y-52138095D01*
X77955714Y-57347380D02*
X77955714Y-56347380D01*
X78193809Y-56347380D01*
X78336666Y-56395000D01*
X78431904Y-56490238D01*
X78479523Y-56585476D01*
X78527142Y-56775952D01*
X78527142Y-56918809D01*
X78479523Y-57109285D01*
X78431904Y-57204523D01*
X78336666Y-57299761D01*
X78193809Y-57347380D01*
X77955714Y-57347380D01*
X78908095Y-56442619D02*
X78955714Y-56395000D01*
X79050952Y-56347380D01*
X79289047Y-56347380D01*
X79384285Y-56395000D01*
X79431904Y-56442619D01*
X79479523Y-56537857D01*
X79479523Y-56633095D01*
X79431904Y-56775952D01*
X78860476Y-57347380D01*
X79479523Y-57347380D01*
X79860476Y-56442619D02*
X79908095Y-56395000D01*
X80003333Y-56347380D01*
X80241428Y-56347380D01*
X80336666Y-56395000D01*
X80384285Y-56442619D01*
X80431904Y-56537857D01*
X80431904Y-56633095D01*
X80384285Y-56775952D01*
X79812857Y-57347380D01*
X80431904Y-57347380D01*
X80135714Y-55852380D02*
X79564285Y-55852380D01*
X79850000Y-55852380D02*
X79850000Y-54852380D01*
X79754761Y-54995238D01*
X79659523Y-55090476D01*
X79564285Y-55138095D01*
X74939404Y-54489880D02*
X74939404Y-53489880D01*
X75177500Y-53489880D01*
X75320357Y-53537500D01*
X75415595Y-53632738D01*
X75463214Y-53727976D01*
X75510833Y-53918452D01*
X75510833Y-54061309D01*
X75463214Y-54251785D01*
X75415595Y-54347023D01*
X75320357Y-54442261D01*
X75177500Y-54489880D01*
X74939404Y-54489880D01*
X75844166Y-53489880D02*
X76463214Y-53489880D01*
X76129880Y-53870833D01*
X76272738Y-53870833D01*
X76367976Y-53918452D01*
X76415595Y-53966071D01*
X76463214Y-54061309D01*
X76463214Y-54299404D01*
X76415595Y-54394642D01*
X76367976Y-54442261D01*
X76272738Y-54489880D01*
X75987023Y-54489880D01*
X75891785Y-54442261D01*
X75844166Y-54394642D01*
X67135714Y-52852380D02*
X66564285Y-52852380D01*
X66850000Y-52852380D02*
X66850000Y-51852380D01*
X66754761Y-51995238D01*
X66659523Y-52090476D01*
X66564285Y-52138095D01*
X57794404Y-57347380D02*
X57794404Y-56347380D01*
X58032500Y-56347380D01*
X58175357Y-56395000D01*
X58270595Y-56490238D01*
X58318214Y-56585476D01*
X58365833Y-56775952D01*
X58365833Y-56918809D01*
X58318214Y-57109285D01*
X58270595Y-57204523D01*
X58175357Y-57299761D01*
X58032500Y-57347380D01*
X57794404Y-57347380D01*
X59222976Y-56680714D02*
X59222976Y-57347380D01*
X58984880Y-56299761D02*
X58746785Y-57014047D01*
X59365833Y-57014047D01*
X59135714Y-55852380D02*
X58564285Y-55852380D01*
X58850000Y-55852380D02*
X58850000Y-54852380D01*
X58754761Y-54995238D01*
X58659523Y-55090476D01*
X58564285Y-55138095D01*
X57794404Y-63379880D02*
X57794404Y-62379880D01*
X58032500Y-62379880D01*
X58175357Y-62427500D01*
X58270595Y-62522738D01*
X58318214Y-62617976D01*
X58365833Y-62808452D01*
X58365833Y-62951309D01*
X58318214Y-63141785D01*
X58270595Y-63237023D01*
X58175357Y-63332261D01*
X58032500Y-63379880D01*
X57794404Y-63379880D01*
X59270595Y-62379880D02*
X58794404Y-62379880D01*
X58746785Y-62856071D01*
X58794404Y-62808452D01*
X58889642Y-62760833D01*
X59127738Y-62760833D01*
X59222976Y-62808452D01*
X59270595Y-62856071D01*
X59318214Y-62951309D01*
X59318214Y-63189404D01*
X59270595Y-63284642D01*
X59222976Y-63332261D01*
X59127738Y-63379880D01*
X58889642Y-63379880D01*
X58794404Y-63332261D01*
X58746785Y-63284642D01*
X67435714Y-65052380D02*
X66864285Y-65052380D01*
X67150000Y-65052380D02*
X67150000Y-64052380D01*
X67054761Y-64195238D01*
X66959523Y-64290476D01*
X66864285Y-64338095D01*
X74939404Y-60522380D02*
X74939404Y-59522380D01*
X75177500Y-59522380D01*
X75320357Y-59570000D01*
X75415595Y-59665238D01*
X75463214Y-59760476D01*
X75510833Y-59950952D01*
X75510833Y-60093809D01*
X75463214Y-60284285D01*
X75415595Y-60379523D01*
X75320357Y-60474761D01*
X75177500Y-60522380D01*
X74939404Y-60522380D01*
X76367976Y-59522380D02*
X76177500Y-59522380D01*
X76082261Y-59570000D01*
X76034642Y-59617619D01*
X75939404Y-59760476D01*
X75891785Y-59950952D01*
X75891785Y-60331904D01*
X75939404Y-60427142D01*
X75987023Y-60474761D01*
X76082261Y-60522380D01*
X76272738Y-60522380D01*
X76367976Y-60474761D01*
X76415595Y-60427142D01*
X76463214Y-60331904D01*
X76463214Y-60093809D01*
X76415595Y-59998571D01*
X76367976Y-59950952D01*
X76272738Y-59903333D01*
X76082261Y-59903333D01*
X75987023Y-59950952D01*
X75939404Y-59998571D01*
X75891785Y-60093809D01*
X75435714Y-62052380D02*
X74864285Y-62052380D01*
X75150000Y-62052380D02*
X75150000Y-61052380D01*
X75054761Y-61195238D01*
X74959523Y-61290476D01*
X74864285Y-61338095D01*
X74939404Y-66237380D02*
X74939404Y-65237380D01*
X75177500Y-65237380D01*
X75320357Y-65285000D01*
X75415595Y-65380238D01*
X75463214Y-65475476D01*
X75510833Y-65665952D01*
X75510833Y-65808809D01*
X75463214Y-65999285D01*
X75415595Y-66094523D01*
X75320357Y-66189761D01*
X75177500Y-66237380D01*
X74939404Y-66237380D01*
X75844166Y-65237380D02*
X76510833Y-65237380D01*
X76082261Y-66237380D01*
X67135714Y-66237380D02*
X66564285Y-66237380D01*
X66850000Y-66237380D02*
X66850000Y-65237380D01*
X66754761Y-65380238D01*
X66659523Y-65475476D01*
X66564285Y-65523095D01*
X57794404Y-69412380D02*
X57794404Y-68412380D01*
X58032500Y-68412380D01*
X58175357Y-68460000D01*
X58270595Y-68555238D01*
X58318214Y-68650476D01*
X58365833Y-68840952D01*
X58365833Y-68983809D01*
X58318214Y-69174285D01*
X58270595Y-69269523D01*
X58175357Y-69364761D01*
X58032500Y-69412380D01*
X57794404Y-69412380D01*
X58937261Y-68840952D02*
X58842023Y-68793333D01*
X58794404Y-68745714D01*
X58746785Y-68650476D01*
X58746785Y-68602857D01*
X58794404Y-68507619D01*
X58842023Y-68460000D01*
X58937261Y-68412380D01*
X59127738Y-68412380D01*
X59222976Y-68460000D01*
X59270595Y-68507619D01*
X59318214Y-68602857D01*
X59318214Y-68650476D01*
X59270595Y-68745714D01*
X59222976Y-68793333D01*
X59127738Y-68840952D01*
X58937261Y-68840952D01*
X58842023Y-68888571D01*
X58794404Y-68936190D01*
X58746785Y-69031428D01*
X58746785Y-69221904D01*
X58794404Y-69317142D01*
X58842023Y-69364761D01*
X58937261Y-69412380D01*
X59127738Y-69412380D01*
X59222976Y-69364761D01*
X59270595Y-69317142D01*
X59318214Y-69221904D01*
X59318214Y-69031428D01*
X59270595Y-68936190D01*
X59222976Y-68888571D01*
X59127738Y-68840952D01*
X59135714Y-67852380D02*
X58564285Y-67852380D01*
X58850000Y-67852380D02*
X58850000Y-66852380D01*
X58754761Y-66995238D01*
X58659523Y-67090476D01*
X58564285Y-67138095D01*
X57794404Y-75444880D02*
X57794404Y-74444880D01*
X58032500Y-74444880D01*
X58175357Y-74492500D01*
X58270595Y-74587738D01*
X58318214Y-74682976D01*
X58365833Y-74873452D01*
X58365833Y-75016309D01*
X58318214Y-75206785D01*
X58270595Y-75302023D01*
X58175357Y-75397261D01*
X58032500Y-75444880D01*
X57794404Y-75444880D01*
X58842023Y-75444880D02*
X59032500Y-75444880D01*
X59127738Y-75397261D01*
X59175357Y-75349642D01*
X59270595Y-75206785D01*
X59318214Y-75016309D01*
X59318214Y-74635357D01*
X59270595Y-74540119D01*
X59222976Y-74492500D01*
X59127738Y-74444880D01*
X58937261Y-74444880D01*
X58842023Y-74492500D01*
X58794404Y-74540119D01*
X58746785Y-74635357D01*
X58746785Y-74873452D01*
X58794404Y-74968690D01*
X58842023Y-75016309D01*
X58937261Y-75063928D01*
X59127738Y-75063928D01*
X59222976Y-75016309D01*
X59270595Y-74968690D01*
X59318214Y-74873452D01*
X67435714Y-78302380D02*
X66864285Y-78302380D01*
X67150000Y-78302380D02*
X67150000Y-77302380D01*
X67054761Y-77445238D01*
X66959523Y-77540476D01*
X66864285Y-77588095D01*
X74780714Y-72587380D02*
X74780714Y-71587380D01*
X75018809Y-71587380D01*
X75161666Y-71635000D01*
X75256904Y-71730238D01*
X75304523Y-71825476D01*
X75352142Y-72015952D01*
X75352142Y-72158809D01*
X75304523Y-72349285D01*
X75256904Y-72444523D01*
X75161666Y-72539761D01*
X75018809Y-72587380D01*
X74780714Y-72587380D01*
X76304523Y-72587380D02*
X75733095Y-72587380D01*
X76018809Y-72587380D02*
X76018809Y-71587380D01*
X75923571Y-71730238D01*
X75828333Y-71825476D01*
X75733095Y-71873095D01*
X76923571Y-71587380D02*
X77018809Y-71587380D01*
X77114047Y-71635000D01*
X77161666Y-71682619D01*
X77209285Y-71777857D01*
X77256904Y-71968333D01*
X77256904Y-72206428D01*
X77209285Y-72396904D01*
X77161666Y-72492142D01*
X77114047Y-72539761D01*
X77018809Y-72587380D01*
X76923571Y-72587380D01*
X76828333Y-72539761D01*
X76780714Y-72492142D01*
X76733095Y-72396904D01*
X76685476Y-72206428D01*
X76685476Y-71968333D01*
X76733095Y-71777857D01*
X76780714Y-71682619D01*
X76828333Y-71635000D01*
X76923571Y-71587380D01*
X75435714Y-74052380D02*
X74864285Y-74052380D01*
X75150000Y-74052380D02*
X75150000Y-73052380D01*
X75054761Y-73195238D01*
X74959523Y-73290476D01*
X74864285Y-73338095D01*
X74780714Y-78619880D02*
X74780714Y-77619880D01*
X75018809Y-77619880D01*
X75161666Y-77667500D01*
X75256904Y-77762738D01*
X75304523Y-77857976D01*
X75352142Y-78048452D01*
X75352142Y-78191309D01*
X75304523Y-78381785D01*
X75256904Y-78477023D01*
X75161666Y-78572261D01*
X75018809Y-78619880D01*
X74780714Y-78619880D01*
X76304523Y-78619880D02*
X75733095Y-78619880D01*
X76018809Y-78619880D02*
X76018809Y-77619880D01*
X75923571Y-77762738D01*
X75828333Y-77857976D01*
X75733095Y-77905595D01*
X77256904Y-78619880D02*
X76685476Y-78619880D01*
X76971190Y-78619880D02*
X76971190Y-77619880D01*
X76875952Y-77762738D01*
X76780714Y-77857976D01*
X76685476Y-77905595D01*
X67135714Y-76852380D02*
X66564285Y-76852380D01*
X66850000Y-76852380D02*
X66850000Y-75852380D01*
X66754761Y-75995238D01*
X66659523Y-76090476D01*
X66564285Y-76138095D01*
X56683214Y-81477380D02*
X56683214Y-80477380D01*
X56921309Y-80477380D01*
X57064166Y-80525000D01*
X57159404Y-80620238D01*
X57207023Y-80715476D01*
X57254642Y-80905952D01*
X57254642Y-81048809D01*
X57207023Y-81239285D01*
X57159404Y-81334523D01*
X57064166Y-81429761D01*
X56921309Y-81477380D01*
X56683214Y-81477380D01*
X58207023Y-81477380D02*
X57635595Y-81477380D01*
X57921309Y-81477380D02*
X57921309Y-80477380D01*
X57826071Y-80620238D01*
X57730833Y-80715476D01*
X57635595Y-80763095D01*
X58587976Y-80572619D02*
X58635595Y-80525000D01*
X58730833Y-80477380D01*
X58968928Y-80477380D01*
X59064166Y-80525000D01*
X59111785Y-80572619D01*
X59159404Y-80667857D01*
X59159404Y-80763095D01*
X59111785Y-80905952D01*
X58540357Y-81477380D01*
X59159404Y-81477380D01*
X59135714Y-79852380D02*
X58564285Y-79852380D01*
X58850000Y-79852380D02*
X58850000Y-78852380D01*
X58754761Y-78995238D01*
X58659523Y-79090476D01*
X58564285Y-79138095D01*
X116792619Y-87407738D02*
X116745000Y-87502976D01*
X116649761Y-87598214D01*
X116506904Y-87741071D01*
X116459285Y-87836309D01*
X116459285Y-87931547D01*
X116697380Y-87883928D02*
X116649761Y-87979166D01*
X116554523Y-88074404D01*
X116364047Y-88122023D01*
X116030714Y-88122023D01*
X115840238Y-88074404D01*
X115745000Y-87979166D01*
X115697380Y-87883928D01*
X115697380Y-87693452D01*
X115745000Y-87598214D01*
X115840238Y-87502976D01*
X116030714Y-87455357D01*
X116364047Y-87455357D01*
X116554523Y-87502976D01*
X116649761Y-87598214D01*
X116697380Y-87693452D01*
X116697380Y-87883928D01*
X116697380Y-86502976D02*
X116697380Y-87074404D01*
X116697380Y-86788690D02*
X115697380Y-86788690D01*
X115840238Y-86883928D01*
X115935476Y-86979166D01*
X115983095Y-87074404D01*
X73484880Y-94424404D02*
X74294404Y-94424404D01*
X74389642Y-94376785D01*
X74437261Y-94329166D01*
X74484880Y-94233928D01*
X74484880Y-94043452D01*
X74437261Y-93948214D01*
X74389642Y-93900595D01*
X74294404Y-93852976D01*
X73484880Y-93852976D01*
X73580119Y-93424404D02*
X73532500Y-93376785D01*
X73484880Y-93281547D01*
X73484880Y-93043452D01*
X73532500Y-92948214D01*
X73580119Y-92900595D01*
X73675357Y-92852976D01*
X73770595Y-92852976D01*
X73913452Y-92900595D01*
X74484880Y-93472023D01*
X74484880Y-92852976D01*
X122428095Y-86129880D02*
X122428095Y-86939404D01*
X122475714Y-87034642D01*
X122523333Y-87082261D01*
X122618571Y-87129880D01*
X122809047Y-87129880D01*
X122904285Y-87082261D01*
X122951904Y-87034642D01*
X122999523Y-86939404D01*
X122999523Y-86129880D01*
X123999523Y-87129880D02*
X123428095Y-87129880D01*
X123713809Y-87129880D02*
X123713809Y-86129880D01*
X123618571Y-86272738D01*
X123523333Y-86367976D01*
X123428095Y-86415595D01*
X109433904Y-86494880D02*
X109433904Y-85494880D01*
X109672000Y-85494880D01*
X109814857Y-85542500D01*
X109910095Y-85637738D01*
X109957714Y-85732976D01*
X110005333Y-85923452D01*
X110005333Y-86066309D01*
X109957714Y-86256785D01*
X109910095Y-86352023D01*
X109814857Y-86447261D01*
X109672000Y-86494880D01*
X109433904Y-86494880D01*
X110957714Y-86494880D02*
X110386285Y-86494880D01*
X110672000Y-86494880D02*
X110672000Y-85494880D01*
X110576761Y-85637738D01*
X110481523Y-85732976D01*
X110386285Y-85780595D01*
X111974404Y-86494880D02*
X111974404Y-85494880D01*
X112212500Y-85494880D01*
X112355357Y-85542500D01*
X112450595Y-85637738D01*
X112498214Y-85732976D01*
X112545833Y-85923452D01*
X112545833Y-86066309D01*
X112498214Y-86256785D01*
X112450595Y-86352023D01*
X112355357Y-86447261D01*
X112212500Y-86494880D01*
X111974404Y-86494880D01*
X112926785Y-85590119D02*
X112974404Y-85542500D01*
X113069642Y-85494880D01*
X113307738Y-85494880D01*
X113402976Y-85542500D01*
X113450595Y-85590119D01*
X113498214Y-85685357D01*
X113498214Y-85780595D01*
X113450595Y-85923452D01*
X112879166Y-86494880D01*
X113498214Y-86494880D01*
X114606809Y-96178690D02*
X114606809Y-96654880D01*
X114273476Y-95654880D02*
X114606809Y-96178690D01*
X114940142Y-95654880D01*
X115797285Y-96654880D02*
X115225857Y-96654880D01*
X115511571Y-96654880D02*
X115511571Y-95654880D01*
X115416333Y-95797738D01*
X115321095Y-95892976D01*
X115225857Y-95940595D01*
X76993809Y-93321190D02*
X76993809Y-93797380D01*
X76660476Y-92797380D02*
X76993809Y-93321190D01*
X77327142Y-92797380D01*
X77612857Y-92892619D02*
X77660476Y-92845000D01*
X77755714Y-92797380D01*
X77993809Y-92797380D01*
X78089047Y-92845000D01*
X78136666Y-92892619D01*
X78184285Y-92987857D01*
X78184285Y-93083095D01*
X78136666Y-93225952D01*
X77565238Y-93797380D01*
X78184285Y-93797380D01*
X154876166Y-93432261D02*
X155019023Y-93479880D01*
X155257119Y-93479880D01*
X155352357Y-93432261D01*
X155399976Y-93384642D01*
X155447595Y-93289404D01*
X155447595Y-93194166D01*
X155399976Y-93098928D01*
X155352357Y-93051309D01*
X155257119Y-93003690D01*
X155066642Y-92956071D01*
X154971404Y-92908452D01*
X154923785Y-92860833D01*
X154876166Y-92765595D01*
X154876166Y-92670357D01*
X154923785Y-92575119D01*
X154971404Y-92527500D01*
X155066642Y-92479880D01*
X155304738Y-92479880D01*
X155447595Y-92527500D01*
X155780928Y-92479880D02*
X156019023Y-93479880D01*
X156209500Y-92765595D01*
X156399976Y-93479880D01*
X156638071Y-92479880D01*
X157542833Y-93479880D02*
X156971404Y-93479880D01*
X157257119Y-93479880D02*
X157257119Y-92479880D01*
X157161880Y-92622738D01*
X157066642Y-92717976D01*
X156971404Y-92765595D01*
X165036166Y-93432261D02*
X165179023Y-93479880D01*
X165417119Y-93479880D01*
X165512357Y-93432261D01*
X165559976Y-93384642D01*
X165607595Y-93289404D01*
X165607595Y-93194166D01*
X165559976Y-93098928D01*
X165512357Y-93051309D01*
X165417119Y-93003690D01*
X165226642Y-92956071D01*
X165131404Y-92908452D01*
X165083785Y-92860833D01*
X165036166Y-92765595D01*
X165036166Y-92670357D01*
X165083785Y-92575119D01*
X165131404Y-92527500D01*
X165226642Y-92479880D01*
X165464738Y-92479880D01*
X165607595Y-92527500D01*
X165940928Y-92479880D02*
X166179023Y-93479880D01*
X166369500Y-92765595D01*
X166559976Y-93479880D01*
X166798071Y-92479880D01*
X167131404Y-92575119D02*
X167179023Y-92527500D01*
X167274261Y-92479880D01*
X167512357Y-92479880D01*
X167607595Y-92527500D01*
X167655214Y-92575119D01*
X167702833Y-92670357D01*
X167702833Y-92765595D01*
X167655214Y-92908452D01*
X167083785Y-93479880D01*
X167702833Y-93479880D01*
X175196166Y-93432261D02*
X175339023Y-93479880D01*
X175577119Y-93479880D01*
X175672357Y-93432261D01*
X175719976Y-93384642D01*
X175767595Y-93289404D01*
X175767595Y-93194166D01*
X175719976Y-93098928D01*
X175672357Y-93051309D01*
X175577119Y-93003690D01*
X175386642Y-92956071D01*
X175291404Y-92908452D01*
X175243785Y-92860833D01*
X175196166Y-92765595D01*
X175196166Y-92670357D01*
X175243785Y-92575119D01*
X175291404Y-92527500D01*
X175386642Y-92479880D01*
X175624738Y-92479880D01*
X175767595Y-92527500D01*
X176100928Y-92479880D02*
X176339023Y-93479880D01*
X176529500Y-92765595D01*
X176719976Y-93479880D01*
X176958071Y-92479880D01*
X177243785Y-92479880D02*
X177862833Y-92479880D01*
X177529500Y-92860833D01*
X177672357Y-92860833D01*
X177767595Y-92908452D01*
X177815214Y-92956071D01*
X177862833Y-93051309D01*
X177862833Y-93289404D01*
X177815214Y-93384642D01*
X177767595Y-93432261D01*
X177672357Y-93479880D01*
X177386642Y-93479880D01*
X177291404Y-93432261D01*
X177243785Y-93384642D01*
X185356166Y-93432261D02*
X185499023Y-93479880D01*
X185737119Y-93479880D01*
X185832357Y-93432261D01*
X185879976Y-93384642D01*
X185927595Y-93289404D01*
X185927595Y-93194166D01*
X185879976Y-93098928D01*
X185832357Y-93051309D01*
X185737119Y-93003690D01*
X185546642Y-92956071D01*
X185451404Y-92908452D01*
X185403785Y-92860833D01*
X185356166Y-92765595D01*
X185356166Y-92670357D01*
X185403785Y-92575119D01*
X185451404Y-92527500D01*
X185546642Y-92479880D01*
X185784738Y-92479880D01*
X185927595Y-92527500D01*
X186260928Y-92479880D02*
X186499023Y-93479880D01*
X186689500Y-92765595D01*
X186879976Y-93479880D01*
X187118071Y-92479880D01*
X187927595Y-92813214D02*
X187927595Y-93479880D01*
X187689500Y-92432261D02*
X187451404Y-93146547D01*
X188070452Y-93146547D01*
X137469642Y-91162142D02*
X137422023Y-91209761D01*
X137279166Y-91257380D01*
X137183928Y-91257380D01*
X137041071Y-91209761D01*
X136945833Y-91114523D01*
X136898214Y-91019285D01*
X136850595Y-90828809D01*
X136850595Y-90685952D01*
X136898214Y-90495476D01*
X136945833Y-90400238D01*
X137041071Y-90305000D01*
X137183928Y-90257380D01*
X137279166Y-90257380D01*
X137422023Y-90305000D01*
X137469642Y-90352619D01*
X138422023Y-91257380D02*
X137850595Y-91257380D01*
X138136309Y-91257380D02*
X138136309Y-90257380D01*
X138041071Y-90400238D01*
X137945833Y-90495476D01*
X137850595Y-90543095D01*
X139374404Y-91257380D02*
X138802976Y-91257380D01*
X139088690Y-91257380D02*
X139088690Y-90257380D01*
X138993452Y-90400238D01*
X138898214Y-90495476D01*
X138802976Y-90543095D01*
X137469642Y-89574642D02*
X137422023Y-89622261D01*
X137279166Y-89669880D01*
X137183928Y-89669880D01*
X137041071Y-89622261D01*
X136945833Y-89527023D01*
X136898214Y-89431785D01*
X136850595Y-89241309D01*
X136850595Y-89098452D01*
X136898214Y-88907976D01*
X136945833Y-88812738D01*
X137041071Y-88717500D01*
X137183928Y-88669880D01*
X137279166Y-88669880D01*
X137422023Y-88717500D01*
X137469642Y-88765119D01*
X138422023Y-89669880D02*
X137850595Y-89669880D01*
X138136309Y-89669880D02*
X138136309Y-88669880D01*
X138041071Y-88812738D01*
X137945833Y-88907976D01*
X137850595Y-88955595D01*
X138802976Y-88765119D02*
X138850595Y-88717500D01*
X138945833Y-88669880D01*
X139183928Y-88669880D01*
X139279166Y-88717500D01*
X139326785Y-88765119D01*
X139374404Y-88860357D01*
X139374404Y-88955595D01*
X139326785Y-89098452D01*
X138755357Y-89669880D01*
X139374404Y-89669880D01*
X137469642Y-87987142D02*
X137422023Y-88034761D01*
X137279166Y-88082380D01*
X137183928Y-88082380D01*
X137041071Y-88034761D01*
X136945833Y-87939523D01*
X136898214Y-87844285D01*
X136850595Y-87653809D01*
X136850595Y-87510952D01*
X136898214Y-87320476D01*
X136945833Y-87225238D01*
X137041071Y-87130000D01*
X137183928Y-87082380D01*
X137279166Y-87082380D01*
X137422023Y-87130000D01*
X137469642Y-87177619D01*
X138422023Y-88082380D02*
X137850595Y-88082380D01*
X138136309Y-88082380D02*
X138136309Y-87082380D01*
X138041071Y-87225238D01*
X137945833Y-87320476D01*
X137850595Y-87368095D01*
X138755357Y-87082380D02*
X139374404Y-87082380D01*
X139041071Y-87463333D01*
X139183928Y-87463333D01*
X139279166Y-87510952D01*
X139326785Y-87558571D01*
X139374404Y-87653809D01*
X139374404Y-87891904D01*
X139326785Y-87987142D01*
X139279166Y-88034761D01*
X139183928Y-88082380D01*
X138898214Y-88082380D01*
X138802976Y-88034761D01*
X138755357Y-87987142D01*
X137469642Y-86399642D02*
X137422023Y-86447261D01*
X137279166Y-86494880D01*
X137183928Y-86494880D01*
X137041071Y-86447261D01*
X136945833Y-86352023D01*
X136898214Y-86256785D01*
X136850595Y-86066309D01*
X136850595Y-85923452D01*
X136898214Y-85732976D01*
X136945833Y-85637738D01*
X137041071Y-85542500D01*
X137183928Y-85494880D01*
X137279166Y-85494880D01*
X137422023Y-85542500D01*
X137469642Y-85590119D01*
X138422023Y-86494880D02*
X137850595Y-86494880D01*
X138136309Y-86494880D02*
X138136309Y-85494880D01*
X138041071Y-85637738D01*
X137945833Y-85732976D01*
X137850595Y-85780595D01*
X139279166Y-85828214D02*
X139279166Y-86494880D01*
X139041071Y-85447261D02*
X138802976Y-86161547D01*
X139422023Y-86161547D01*
X153820833Y-89829880D02*
X153487500Y-89353690D01*
X153249404Y-89829880D02*
X153249404Y-88829880D01*
X153630357Y-88829880D01*
X153725595Y-88877500D01*
X153773214Y-88925119D01*
X153820833Y-89020357D01*
X153820833Y-89163214D01*
X153773214Y-89258452D01*
X153725595Y-89306071D01*
X153630357Y-89353690D01*
X153249404Y-89353690D01*
X154154166Y-88829880D02*
X154820833Y-88829880D01*
X154392261Y-89829880D01*
X163980833Y-89829880D02*
X163647500Y-89353690D01*
X163409404Y-89829880D02*
X163409404Y-88829880D01*
X163790357Y-88829880D01*
X163885595Y-88877500D01*
X163933214Y-88925119D01*
X163980833Y-89020357D01*
X163980833Y-89163214D01*
X163933214Y-89258452D01*
X163885595Y-89306071D01*
X163790357Y-89353690D01*
X163409404Y-89353690D01*
X164552261Y-89258452D02*
X164457023Y-89210833D01*
X164409404Y-89163214D01*
X164361785Y-89067976D01*
X164361785Y-89020357D01*
X164409404Y-88925119D01*
X164457023Y-88877500D01*
X164552261Y-88829880D01*
X164742738Y-88829880D01*
X164837976Y-88877500D01*
X164885595Y-88925119D01*
X164933214Y-89020357D01*
X164933214Y-89067976D01*
X164885595Y-89163214D01*
X164837976Y-89210833D01*
X164742738Y-89258452D01*
X164552261Y-89258452D01*
X164457023Y-89306071D01*
X164409404Y-89353690D01*
X164361785Y-89448928D01*
X164361785Y-89639404D01*
X164409404Y-89734642D01*
X164457023Y-89782261D01*
X164552261Y-89829880D01*
X164742738Y-89829880D01*
X164837976Y-89782261D01*
X164885595Y-89734642D01*
X164933214Y-89639404D01*
X164933214Y-89448928D01*
X164885595Y-89353690D01*
X164837976Y-89306071D01*
X164742738Y-89258452D01*
X174140833Y-89829880D02*
X173807500Y-89353690D01*
X173569404Y-89829880D02*
X173569404Y-88829880D01*
X173950357Y-88829880D01*
X174045595Y-88877500D01*
X174093214Y-88925119D01*
X174140833Y-89020357D01*
X174140833Y-89163214D01*
X174093214Y-89258452D01*
X174045595Y-89306071D01*
X173950357Y-89353690D01*
X173569404Y-89353690D01*
X174617023Y-89829880D02*
X174807500Y-89829880D01*
X174902738Y-89782261D01*
X174950357Y-89734642D01*
X175045595Y-89591785D01*
X175093214Y-89401309D01*
X175093214Y-89020357D01*
X175045595Y-88925119D01*
X174997976Y-88877500D01*
X174902738Y-88829880D01*
X174712261Y-88829880D01*
X174617023Y-88877500D01*
X174569404Y-88925119D01*
X174521785Y-89020357D01*
X174521785Y-89258452D01*
X174569404Y-89353690D01*
X174617023Y-89401309D01*
X174712261Y-89448928D01*
X174902738Y-89448928D01*
X174997976Y-89401309D01*
X175045595Y-89353690D01*
X175093214Y-89258452D01*
X183824642Y-89829880D02*
X183491309Y-89353690D01*
X183253214Y-89829880D02*
X183253214Y-88829880D01*
X183634166Y-88829880D01*
X183729404Y-88877500D01*
X183777023Y-88925119D01*
X183824642Y-89020357D01*
X183824642Y-89163214D01*
X183777023Y-89258452D01*
X183729404Y-89306071D01*
X183634166Y-89353690D01*
X183253214Y-89353690D01*
X184777023Y-89829880D02*
X184205595Y-89829880D01*
X184491309Y-89829880D02*
X184491309Y-88829880D01*
X184396071Y-88972738D01*
X184300833Y-89067976D01*
X184205595Y-89115595D01*
X185396071Y-88829880D02*
X185491309Y-88829880D01*
X185586547Y-88877500D01*
X185634166Y-88925119D01*
X185681785Y-89020357D01*
X185729404Y-89210833D01*
X185729404Y-89448928D01*
X185681785Y-89639404D01*
X185634166Y-89734642D01*
X185586547Y-89782261D01*
X185491309Y-89829880D01*
X185396071Y-89829880D01*
X185300833Y-89782261D01*
X185253214Y-89734642D01*
X185205595Y-89639404D01*
X185157976Y-89448928D01*
X185157976Y-89210833D01*
X185205595Y-89020357D01*
X185253214Y-88925119D01*
X185300833Y-88877500D01*
X185396071Y-88829880D01*
X115720333Y-92432142D02*
X115672714Y-92479761D01*
X115529857Y-92527380D01*
X115434619Y-92527380D01*
X115291761Y-92479761D01*
X115196523Y-92384523D01*
X115148904Y-92289285D01*
X115101285Y-92098809D01*
X115101285Y-91955952D01*
X115148904Y-91765476D01*
X115196523Y-91670238D01*
X115291761Y-91575000D01*
X115434619Y-91527380D01*
X115529857Y-91527380D01*
X115672714Y-91575000D01*
X115720333Y-91622619D01*
X116672714Y-92527380D02*
X116101285Y-92527380D01*
X116387000Y-92527380D02*
X116387000Y-91527380D01*
X116291761Y-91670238D01*
X116196523Y-91765476D01*
X116101285Y-91813095D01*
X115720333Y-94019642D02*
X115672714Y-94067261D01*
X115529857Y-94114880D01*
X115434619Y-94114880D01*
X115291761Y-94067261D01*
X115196523Y-93972023D01*
X115148904Y-93876785D01*
X115101285Y-93686309D01*
X115101285Y-93543452D01*
X115148904Y-93352976D01*
X115196523Y-93257738D01*
X115291761Y-93162500D01*
X115434619Y-93114880D01*
X115529857Y-93114880D01*
X115672714Y-93162500D01*
X115720333Y-93210119D01*
X116101285Y-93210119D02*
X116148904Y-93162500D01*
X116244142Y-93114880D01*
X116482238Y-93114880D01*
X116577476Y-93162500D01*
X116625095Y-93210119D01*
X116672714Y-93305357D01*
X116672714Y-93400595D01*
X116625095Y-93543452D01*
X116053666Y-94114880D01*
X116672714Y-94114880D01*
X115721333Y-99099642D02*
X115673714Y-99147261D01*
X115530857Y-99194880D01*
X115435619Y-99194880D01*
X115292761Y-99147261D01*
X115197523Y-99052023D01*
X115149904Y-98956785D01*
X115102285Y-98766309D01*
X115102285Y-98623452D01*
X115149904Y-98432976D01*
X115197523Y-98337738D01*
X115292761Y-98242500D01*
X115435619Y-98194880D01*
X115530857Y-98194880D01*
X115673714Y-98242500D01*
X115721333Y-98290119D01*
X116054666Y-98194880D02*
X116673714Y-98194880D01*
X116340380Y-98575833D01*
X116483238Y-98575833D01*
X116578476Y-98623452D01*
X116626095Y-98671071D01*
X116673714Y-98766309D01*
X116673714Y-99004404D01*
X116626095Y-99099642D01*
X116578476Y-99147261D01*
X116483238Y-99194880D01*
X116197523Y-99194880D01*
X116102285Y-99147261D01*
X116054666Y-99099642D01*
X66190833Y-87352142D02*
X66143214Y-87399761D01*
X66000357Y-87447380D01*
X65905119Y-87447380D01*
X65762261Y-87399761D01*
X65667023Y-87304523D01*
X65619404Y-87209285D01*
X65571785Y-87018809D01*
X65571785Y-86875952D01*
X65619404Y-86685476D01*
X65667023Y-86590238D01*
X65762261Y-86495000D01*
X65905119Y-86447380D01*
X66000357Y-86447380D01*
X66143214Y-86495000D01*
X66190833Y-86542619D01*
X67047976Y-86780714D02*
X67047976Y-87447380D01*
X66809880Y-86399761D02*
X66571785Y-87114047D01*
X67190833Y-87114047D01*
X69683333Y-87352142D02*
X69635714Y-87399761D01*
X69492857Y-87447380D01*
X69397619Y-87447380D01*
X69254761Y-87399761D01*
X69159523Y-87304523D01*
X69111904Y-87209285D01*
X69064285Y-87018809D01*
X69064285Y-86875952D01*
X69111904Y-86685476D01*
X69159523Y-86590238D01*
X69254761Y-86495000D01*
X69397619Y-86447380D01*
X69492857Y-86447380D01*
X69635714Y-86495000D01*
X69683333Y-86542619D01*
X70588095Y-86447380D02*
X70111904Y-86447380D01*
X70064285Y-86923571D01*
X70111904Y-86875952D01*
X70207142Y-86828333D01*
X70445238Y-86828333D01*
X70540476Y-86875952D01*
X70588095Y-86923571D01*
X70635714Y-87018809D01*
X70635714Y-87256904D01*
X70588095Y-87352142D01*
X70540476Y-87399761D01*
X70445238Y-87447380D01*
X70207142Y-87447380D01*
X70111904Y-87399761D01*
X70064285Y-87352142D01*
X78255833Y-92114642D02*
X78208214Y-92162261D01*
X78065357Y-92209880D01*
X77970119Y-92209880D01*
X77827261Y-92162261D01*
X77732023Y-92067023D01*
X77684404Y-91971785D01*
X77636785Y-91781309D01*
X77636785Y-91638452D01*
X77684404Y-91447976D01*
X77732023Y-91352738D01*
X77827261Y-91257500D01*
X77970119Y-91209880D01*
X78065357Y-91209880D01*
X78208214Y-91257500D01*
X78255833Y-91305119D01*
X79112976Y-91209880D02*
X78922500Y-91209880D01*
X78827261Y-91257500D01*
X78779642Y-91305119D01*
X78684404Y-91447976D01*
X78636785Y-91638452D01*
X78636785Y-92019404D01*
X78684404Y-92114642D01*
X78732023Y-92162261D01*
X78827261Y-92209880D01*
X79017738Y-92209880D01*
X79112976Y-92162261D01*
X79160595Y-92114642D01*
X79208214Y-92019404D01*
X79208214Y-91781309D01*
X79160595Y-91686071D01*
X79112976Y-91638452D01*
X79017738Y-91590833D01*
X78827261Y-91590833D01*
X78732023Y-91638452D01*
X78684404Y-91686071D01*
X78636785Y-91781309D01*
X78255833Y-97194642D02*
X78208214Y-97242261D01*
X78065357Y-97289880D01*
X77970119Y-97289880D01*
X77827261Y-97242261D01*
X77732023Y-97147023D01*
X77684404Y-97051785D01*
X77636785Y-96861309D01*
X77636785Y-96718452D01*
X77684404Y-96527976D01*
X77732023Y-96432738D01*
X77827261Y-96337500D01*
X77970119Y-96289880D01*
X78065357Y-96289880D01*
X78208214Y-96337500D01*
X78255833Y-96385119D01*
X78589166Y-96289880D02*
X79255833Y-96289880D01*
X78827261Y-97289880D01*
X95083333Y-87987142D02*
X95035714Y-88034761D01*
X94892857Y-88082380D01*
X94797619Y-88082380D01*
X94654761Y-88034761D01*
X94559523Y-87939523D01*
X94511904Y-87844285D01*
X94464285Y-87653809D01*
X94464285Y-87510952D01*
X94511904Y-87320476D01*
X94559523Y-87225238D01*
X94654761Y-87130000D01*
X94797619Y-87082380D01*
X94892857Y-87082380D01*
X95035714Y-87130000D01*
X95083333Y-87177619D01*
X95654761Y-87510952D02*
X95559523Y-87463333D01*
X95511904Y-87415714D01*
X95464285Y-87320476D01*
X95464285Y-87272857D01*
X95511904Y-87177619D01*
X95559523Y-87130000D01*
X95654761Y-87082380D01*
X95845238Y-87082380D01*
X95940476Y-87130000D01*
X95988095Y-87177619D01*
X96035714Y-87272857D01*
X96035714Y-87320476D01*
X95988095Y-87415714D01*
X95940476Y-87463333D01*
X95845238Y-87510952D01*
X95654761Y-87510952D01*
X95559523Y-87558571D01*
X95511904Y-87606190D01*
X95464285Y-87701428D01*
X95464285Y-87891904D01*
X95511904Y-87987142D01*
X95559523Y-88034761D01*
X95654761Y-88082380D01*
X95845238Y-88082380D01*
X95940476Y-88034761D01*
X95988095Y-87987142D01*
X96035714Y-87891904D01*
X96035714Y-87701428D01*
X95988095Y-87606190D01*
X95940476Y-87558571D01*
X95845238Y-87510952D01*
X95083333Y-89574642D02*
X95035714Y-89622261D01*
X94892857Y-89669880D01*
X94797619Y-89669880D01*
X94654761Y-89622261D01*
X94559523Y-89527023D01*
X94511904Y-89431785D01*
X94464285Y-89241309D01*
X94464285Y-89098452D01*
X94511904Y-88907976D01*
X94559523Y-88812738D01*
X94654761Y-88717500D01*
X94797619Y-88669880D01*
X94892857Y-88669880D01*
X95035714Y-88717500D01*
X95083333Y-88765119D01*
X95559523Y-89669880D02*
X95750000Y-89669880D01*
X95845238Y-89622261D01*
X95892857Y-89574642D01*
X95988095Y-89431785D01*
X96035714Y-89241309D01*
X96035714Y-88860357D01*
X95988095Y-88765119D01*
X95940476Y-88717500D01*
X95845238Y-88669880D01*
X95654761Y-88669880D01*
X95559523Y-88717500D01*
X95511904Y-88765119D01*
X95464285Y-88860357D01*
X95464285Y-89098452D01*
X95511904Y-89193690D01*
X95559523Y-89241309D01*
X95654761Y-89288928D01*
X95845238Y-89288928D01*
X95940476Y-89241309D01*
X95988095Y-89193690D01*
X96035714Y-89098452D01*
X94924642Y-91162142D02*
X94877023Y-91209761D01*
X94734166Y-91257380D01*
X94638928Y-91257380D01*
X94496071Y-91209761D01*
X94400833Y-91114523D01*
X94353214Y-91019285D01*
X94305595Y-90828809D01*
X94305595Y-90685952D01*
X94353214Y-90495476D01*
X94400833Y-90400238D01*
X94496071Y-90305000D01*
X94638928Y-90257380D01*
X94734166Y-90257380D01*
X94877023Y-90305000D01*
X94924642Y-90352619D01*
X95877023Y-91257380D02*
X95305595Y-91257380D01*
X95591309Y-91257380D02*
X95591309Y-90257380D01*
X95496071Y-90400238D01*
X95400833Y-90495476D01*
X95305595Y-90543095D01*
X96496071Y-90257380D02*
X96591309Y-90257380D01*
X96686547Y-90305000D01*
X96734166Y-90352619D01*
X96781785Y-90447857D01*
X96829404Y-90638333D01*
X96829404Y-90876428D01*
X96781785Y-91066904D01*
X96734166Y-91162142D01*
X96686547Y-91209761D01*
X96591309Y-91257380D01*
X96496071Y-91257380D01*
X96400833Y-91209761D01*
X96353214Y-91162142D01*
X96305595Y-91066904D01*
X96257976Y-90876428D01*
X96257976Y-90638333D01*
X96305595Y-90447857D01*
X96353214Y-90352619D01*
X96400833Y-90305000D01*
X96496071Y-90257380D01*
X95400833Y-92844880D02*
X95067500Y-92368690D01*
X94829404Y-92844880D02*
X94829404Y-91844880D01*
X95210357Y-91844880D01*
X95305595Y-91892500D01*
X95353214Y-91940119D01*
X95400833Y-92035357D01*
X95400833Y-92178214D01*
X95353214Y-92273452D01*
X95305595Y-92321071D01*
X95210357Y-92368690D01*
X94829404Y-92368690D01*
X96353214Y-92844880D02*
X95781785Y-92844880D01*
X96067500Y-92844880D02*
X96067500Y-91844880D01*
X95972261Y-91987738D01*
X95877023Y-92082976D01*
X95781785Y-92130595D01*
X113180833Y-94749880D02*
X112847500Y-94273690D01*
X112609404Y-94749880D02*
X112609404Y-93749880D01*
X112990357Y-93749880D01*
X113085595Y-93797500D01*
X113133214Y-93845119D01*
X113180833Y-93940357D01*
X113180833Y-94083214D01*
X113133214Y-94178452D01*
X113085595Y-94226071D01*
X112990357Y-94273690D01*
X112609404Y-94273690D01*
X113561785Y-93845119D02*
X113609404Y-93797500D01*
X113704642Y-93749880D01*
X113942738Y-93749880D01*
X114037976Y-93797500D01*
X114085595Y-93845119D01*
X114133214Y-93940357D01*
X114133214Y-94035595D01*
X114085595Y-94178452D01*
X113514166Y-94749880D01*
X114133214Y-94749880D01*
X113180833Y-93162380D02*
X112847500Y-92686190D01*
X112609404Y-93162380D02*
X112609404Y-92162380D01*
X112990357Y-92162380D01*
X113085595Y-92210000D01*
X113133214Y-92257619D01*
X113180833Y-92352857D01*
X113180833Y-92495714D01*
X113133214Y-92590952D01*
X113085595Y-92638571D01*
X112990357Y-92686190D01*
X112609404Y-92686190D01*
X113514166Y-92162380D02*
X114133214Y-92162380D01*
X113799880Y-92543333D01*
X113942738Y-92543333D01*
X114037976Y-92590952D01*
X114085595Y-92638571D01*
X114133214Y-92733809D01*
X114133214Y-92971904D01*
X114085595Y-93067142D01*
X114037976Y-93114761D01*
X113942738Y-93162380D01*
X113657023Y-93162380D01*
X113561785Y-93114761D01*
X113514166Y-93067142D01*
X115721333Y-90304880D02*
X115388000Y-89828690D01*
X115149904Y-90304880D02*
X115149904Y-89304880D01*
X115530857Y-89304880D01*
X115626095Y-89352500D01*
X115673714Y-89400119D01*
X115721333Y-89495357D01*
X115721333Y-89638214D01*
X115673714Y-89733452D01*
X115626095Y-89781071D01*
X115530857Y-89828690D01*
X115149904Y-89828690D01*
X116578476Y-89638214D02*
X116578476Y-90304880D01*
X116340380Y-89257261D02*
X116102285Y-89971547D01*
X116721333Y-89971547D01*
X77620833Y-88082380D02*
X77287500Y-87606190D01*
X77049404Y-88082380D02*
X77049404Y-87082380D01*
X77430357Y-87082380D01*
X77525595Y-87130000D01*
X77573214Y-87177619D01*
X77620833Y-87272857D01*
X77620833Y-87415714D01*
X77573214Y-87510952D01*
X77525595Y-87558571D01*
X77430357Y-87606190D01*
X77049404Y-87606190D01*
X78525595Y-87082380D02*
X78049404Y-87082380D01*
X78001785Y-87558571D01*
X78049404Y-87510952D01*
X78144642Y-87463333D01*
X78382738Y-87463333D01*
X78477976Y-87510952D01*
X78525595Y-87558571D01*
X78573214Y-87653809D01*
X78573214Y-87891904D01*
X78525595Y-87987142D01*
X78477976Y-88034761D01*
X78382738Y-88082380D01*
X78144642Y-88082380D01*
X78049404Y-88034761D01*
X78001785Y-87987142D01*
X77698333Y-89669880D02*
X77365000Y-89193690D01*
X77126904Y-89669880D02*
X77126904Y-88669880D01*
X77507857Y-88669880D01*
X77603095Y-88717500D01*
X77650714Y-88765119D01*
X77698333Y-88860357D01*
X77698333Y-89003214D01*
X77650714Y-89098452D01*
X77603095Y-89146071D01*
X77507857Y-89193690D01*
X77126904Y-89193690D01*
X78555476Y-88669880D02*
X78365000Y-88669880D01*
X78269761Y-88717500D01*
X78222142Y-88765119D01*
X78126904Y-88907976D01*
X78079285Y-89098452D01*
X78079285Y-89479404D01*
X78126904Y-89574642D01*
X78174523Y-89622261D01*
X78269761Y-89669880D01*
X78460238Y-89669880D01*
X78555476Y-89622261D01*
X78603095Y-89574642D01*
X78650714Y-89479404D01*
X78650714Y-89241309D01*
X78603095Y-89146071D01*
X78555476Y-89098452D01*
X78460238Y-89050833D01*
X78269761Y-89050833D01*
X78174523Y-89098452D01*
X78126904Y-89146071D01*
X78079285Y-89241309D01*
X95077142Y-94337142D02*
X95029523Y-94384761D01*
X94886666Y-94432380D01*
X94791428Y-94432380D01*
X94648571Y-94384761D01*
X94553333Y-94289523D01*
X94505714Y-94194285D01*
X94458095Y-94003809D01*
X94458095Y-93860952D01*
X94505714Y-93670476D01*
X94553333Y-93575238D01*
X94648571Y-93480000D01*
X94791428Y-93432380D01*
X94886666Y-93432380D01*
X95029523Y-93480000D01*
X95077142Y-93527619D01*
X96029523Y-94432380D02*
X95458095Y-94432380D01*
X95743809Y-94432380D02*
X95743809Y-93432380D01*
X95648571Y-93575238D01*
X95553333Y-93670476D01*
X95458095Y-93718095D01*
X96934285Y-93432380D02*
X96458095Y-93432380D01*
X96410476Y-93908571D01*
X96458095Y-93860952D01*
X96553333Y-93813333D01*
X96791428Y-93813333D01*
X96886666Y-93860952D01*
X96934285Y-93908571D01*
X96981904Y-94003809D01*
X96981904Y-94241904D01*
X96934285Y-94337142D01*
X96886666Y-94384761D01*
X96791428Y-94432380D01*
X96553333Y-94432380D01*
X96458095Y-94384761D01*
X96410476Y-94337142D01*
M02*
