G04 #@! TF.GenerationSoftware,KiCad,Pcbnew,(5.1.5)-3*
G04 #@! TF.CreationDate,2020-09-17T21:05:18+09:00*
G04 #@! TF.ProjectId,acrylic_nixie_clock,61637279-6c69-4635-9f6e-697869655f63,rev?*
G04 #@! TF.SameCoordinates,Original*
G04 #@! TF.FileFunction,Soldermask,Bot*
G04 #@! TF.FilePolarity,Negative*
%FSLAX46Y46*%
G04 Gerber Fmt 4.6, Leading zero omitted, Abs format (unit mm)*
G04 Created by KiCad (PCBNEW (5.1.5)-3) date 2020-09-17 21:05:18*
%MOMM*%
%LPD*%
G04 APERTURE LIST*
%ADD10C,0.100000*%
G04 APERTURE END LIST*
D10*
G36*
X141554278Y-95005547D02*
G01*
X141720724Y-95074491D01*
X141870522Y-95174583D01*
X141997917Y-95301978D01*
X142098009Y-95451776D01*
X142166953Y-95618222D01*
X142202100Y-95794918D01*
X142202100Y-95975082D01*
X142166953Y-96151778D01*
X142098009Y-96318224D01*
X141997917Y-96468022D01*
X141870522Y-96595417D01*
X141720724Y-96695509D01*
X141554278Y-96764453D01*
X141377582Y-96799600D01*
X141197418Y-96799600D01*
X141020722Y-96764453D01*
X140854276Y-96695509D01*
X140704478Y-96595417D01*
X140577083Y-96468022D01*
X140476991Y-96318224D01*
X140408047Y-96151778D01*
X140372900Y-95975082D01*
X140372900Y-95794918D01*
X140408047Y-95618222D01*
X140476991Y-95451776D01*
X140577083Y-95301978D01*
X140704478Y-95174583D01*
X140854276Y-95074491D01*
X141020722Y-95005547D01*
X141197418Y-94970400D01*
X141377582Y-94970400D01*
X141554278Y-95005547D01*
G37*
G36*
X147282100Y-96799600D02*
G01*
X145452900Y-96799600D01*
X145452900Y-94970400D01*
X147282100Y-94970400D01*
X147282100Y-96799600D01*
G37*
G36*
X144094278Y-95005547D02*
G01*
X144260724Y-95074491D01*
X144410522Y-95174583D01*
X144537917Y-95301978D01*
X144638009Y-95451776D01*
X144706953Y-95618222D01*
X144742100Y-95794918D01*
X144742100Y-95975082D01*
X144706953Y-96151778D01*
X144638009Y-96318224D01*
X144537917Y-96468022D01*
X144410522Y-96595417D01*
X144260724Y-96695509D01*
X144094278Y-96764453D01*
X143917582Y-96799600D01*
X143737418Y-96799600D01*
X143560722Y-96764453D01*
X143394276Y-96695509D01*
X143244478Y-96595417D01*
X143117083Y-96468022D01*
X143016991Y-96318224D01*
X142948047Y-96151778D01*
X142912900Y-95975082D01*
X142912900Y-95794918D01*
X142948047Y-95618222D01*
X143016991Y-95451776D01*
X143117083Y-95301978D01*
X143244478Y-95174583D01*
X143394276Y-95074491D01*
X143560722Y-95005547D01*
X143737418Y-94970400D01*
X143917582Y-94970400D01*
X144094278Y-95005547D01*
G37*
G36*
X59477421Y-95236643D02*
G01*
X59609557Y-95276727D01*
X59609559Y-95276728D01*
X59731339Y-95341820D01*
X59731341Y-95341821D01*
X59731340Y-95341821D01*
X59838080Y-95429420D01*
X59925679Y-95536160D01*
X59990773Y-95657943D01*
X60030857Y-95790079D01*
X60044391Y-95927500D01*
X60030857Y-96064921D01*
X60004508Y-96151779D01*
X59990772Y-96197059D01*
X59925680Y-96318839D01*
X59838080Y-96425580D01*
X59731339Y-96513180D01*
X59609559Y-96578272D01*
X59609557Y-96578273D01*
X59477421Y-96618357D01*
X59374432Y-96628500D01*
X58205568Y-96628500D01*
X58102579Y-96618357D01*
X57970443Y-96578273D01*
X57970441Y-96578272D01*
X57848661Y-96513180D01*
X57741920Y-96425580D01*
X57654320Y-96318839D01*
X57589228Y-96197059D01*
X57575492Y-96151779D01*
X57549143Y-96064921D01*
X57535609Y-95927500D01*
X57549143Y-95790079D01*
X57589227Y-95657943D01*
X57654321Y-95536160D01*
X57741920Y-95429420D01*
X57848660Y-95341821D01*
X57848659Y-95341821D01*
X57848661Y-95341820D01*
X57970441Y-95276728D01*
X57970443Y-95276727D01*
X58102579Y-95236643D01*
X58205568Y-95226500D01*
X59374432Y-95226500D01*
X59477421Y-95236643D01*
G37*
G36*
X54727421Y-95236643D02*
G01*
X54859557Y-95276727D01*
X54859559Y-95276728D01*
X54981339Y-95341820D01*
X54981341Y-95341821D01*
X54981340Y-95341821D01*
X55088080Y-95429420D01*
X55175679Y-95536160D01*
X55240773Y-95657943D01*
X55280857Y-95790079D01*
X55294391Y-95927500D01*
X55280857Y-96064921D01*
X55254508Y-96151779D01*
X55240772Y-96197059D01*
X55175680Y-96318839D01*
X55088080Y-96425580D01*
X54981339Y-96513180D01*
X54859559Y-96578272D01*
X54859557Y-96578273D01*
X54727421Y-96618357D01*
X54624432Y-96628500D01*
X53455568Y-96628500D01*
X53352579Y-96618357D01*
X53220443Y-96578273D01*
X53220441Y-96578272D01*
X53098661Y-96513180D01*
X52991920Y-96425580D01*
X52904320Y-96318839D01*
X52839228Y-96197059D01*
X52825492Y-96151779D01*
X52799143Y-96064921D01*
X52785609Y-95927500D01*
X52799143Y-95790079D01*
X52839227Y-95657943D01*
X52904321Y-95536160D01*
X52991920Y-95429420D01*
X53098660Y-95341821D01*
X53098659Y-95341821D01*
X53098661Y-95341820D01*
X53220441Y-95276728D01*
X53220443Y-95276727D01*
X53352579Y-95236643D01*
X53455568Y-95226500D01*
X54624432Y-95226500D01*
X54727421Y-95236643D01*
G37*
G36*
X141554278Y-92465547D02*
G01*
X141720724Y-92534491D01*
X141870522Y-92634583D01*
X141997917Y-92761978D01*
X142098009Y-92911776D01*
X142166953Y-93078222D01*
X142202100Y-93254918D01*
X142202100Y-93435082D01*
X142166953Y-93611778D01*
X142098009Y-93778224D01*
X141997917Y-93928022D01*
X141870522Y-94055417D01*
X141720724Y-94155509D01*
X141554278Y-94224453D01*
X141377582Y-94259600D01*
X141197418Y-94259600D01*
X141020722Y-94224453D01*
X140854276Y-94155509D01*
X140704478Y-94055417D01*
X140577083Y-93928022D01*
X140476991Y-93778224D01*
X140408047Y-93611778D01*
X140372900Y-93435082D01*
X140372900Y-93254918D01*
X140408047Y-93078222D01*
X140476991Y-92911776D01*
X140577083Y-92761978D01*
X140704478Y-92634583D01*
X140854276Y-92534491D01*
X141020722Y-92465547D01*
X141197418Y-92430400D01*
X141377582Y-92430400D01*
X141554278Y-92465547D01*
G37*
G36*
X144094278Y-92465547D02*
G01*
X144260724Y-92534491D01*
X144410522Y-92634583D01*
X144537917Y-92761978D01*
X144638009Y-92911776D01*
X144706953Y-93078222D01*
X144742100Y-93254918D01*
X144742100Y-93435082D01*
X144706953Y-93611778D01*
X144638009Y-93778224D01*
X144537917Y-93928022D01*
X144410522Y-94055417D01*
X144260724Y-94155509D01*
X144094278Y-94224453D01*
X143917582Y-94259600D01*
X143737418Y-94259600D01*
X143560722Y-94224453D01*
X143394276Y-94155509D01*
X143244478Y-94055417D01*
X143117083Y-93928022D01*
X143016991Y-93778224D01*
X142948047Y-93611778D01*
X142912900Y-93435082D01*
X142912900Y-93254918D01*
X142948047Y-93078222D01*
X143016991Y-92911776D01*
X143117083Y-92761978D01*
X143244478Y-92634583D01*
X143394276Y-92534491D01*
X143560722Y-92465547D01*
X143737418Y-92430400D01*
X143917582Y-92430400D01*
X144094278Y-92465547D01*
G37*
G36*
X146634278Y-92465547D02*
G01*
X146800724Y-92534491D01*
X146950522Y-92634583D01*
X147077917Y-92761978D01*
X147178009Y-92911776D01*
X147246953Y-93078222D01*
X147282100Y-93254918D01*
X147282100Y-93435082D01*
X147246953Y-93611778D01*
X147178009Y-93778224D01*
X147077917Y-93928022D01*
X146950522Y-94055417D01*
X146800724Y-94155509D01*
X146634278Y-94224453D01*
X146457582Y-94259600D01*
X146277418Y-94259600D01*
X146100722Y-94224453D01*
X145934276Y-94155509D01*
X145784478Y-94055417D01*
X145657083Y-93928022D01*
X145556991Y-93778224D01*
X145488047Y-93611778D01*
X145452900Y-93435082D01*
X145452900Y-93254918D01*
X145488047Y-93078222D01*
X145556991Y-92911776D01*
X145657083Y-92761978D01*
X145784478Y-92634583D01*
X145934276Y-92534491D01*
X146100722Y-92465547D01*
X146277418Y-92430400D01*
X146457582Y-92430400D01*
X146634278Y-92465547D01*
G37*
G36*
X59879890Y-89201517D02*
G01*
X59998364Y-89250591D01*
X60104988Y-89321835D01*
X60195665Y-89412512D01*
X60266909Y-89519136D01*
X60315983Y-89637610D01*
X60341000Y-89763382D01*
X60341000Y-89891618D01*
X60315983Y-90017390D01*
X60266909Y-90135864D01*
X60195665Y-90242488D01*
X60104988Y-90333165D01*
X59998364Y-90404409D01*
X59998363Y-90404410D01*
X59998362Y-90404410D01*
X59879890Y-90453483D01*
X59754119Y-90478500D01*
X59625881Y-90478500D01*
X59500110Y-90453483D01*
X59381637Y-90404410D01*
X59318563Y-90362265D01*
X59296952Y-90350714D01*
X59273503Y-90343601D01*
X59249117Y-90341199D01*
X59224731Y-90343601D01*
X59201282Y-90350714D01*
X59179671Y-90362265D01*
X59160729Y-90377811D01*
X59145184Y-90396752D01*
X59133633Y-90418363D01*
X59126520Y-90441812D01*
X59124118Y-90466198D01*
X59126520Y-90490584D01*
X59141000Y-90563381D01*
X59141000Y-90691619D01*
X59126520Y-90764416D01*
X59124118Y-90788802D01*
X59126520Y-90813188D01*
X59133633Y-90836637D01*
X59145184Y-90858248D01*
X59160730Y-90877190D01*
X59179672Y-90892735D01*
X59201282Y-90904286D01*
X59224731Y-90911399D01*
X59249117Y-90913801D01*
X59273503Y-90911399D01*
X59296952Y-90904286D01*
X59318563Y-90892735D01*
X59381637Y-90850590D01*
X59500110Y-90801517D01*
X59625881Y-90776500D01*
X59754119Y-90776500D01*
X59879890Y-90801517D01*
X59964677Y-90836637D01*
X59998364Y-90850591D01*
X60009823Y-90858248D01*
X60104988Y-90921835D01*
X60195665Y-91012512D01*
X60266910Y-91119138D01*
X60315983Y-91237610D01*
X60324857Y-91282221D01*
X60341000Y-91363382D01*
X60341000Y-91491618D01*
X60315983Y-91617390D01*
X60266909Y-91735864D01*
X60195665Y-91842488D01*
X60104988Y-91933165D01*
X59998364Y-92004409D01*
X59998363Y-92004410D01*
X59998362Y-92004410D01*
X59879890Y-92053483D01*
X59754119Y-92078500D01*
X59625881Y-92078500D01*
X59500110Y-92053483D01*
X59381637Y-92004410D01*
X59318563Y-91962265D01*
X59296952Y-91950714D01*
X59273503Y-91943601D01*
X59249117Y-91941199D01*
X59224731Y-91943601D01*
X59201282Y-91950714D01*
X59179671Y-91962265D01*
X59160729Y-91977811D01*
X59145184Y-91996752D01*
X59133633Y-92018363D01*
X59126520Y-92041812D01*
X59124118Y-92066198D01*
X59126520Y-92090584D01*
X59141000Y-92163381D01*
X59141000Y-92291619D01*
X59126520Y-92364416D01*
X59124118Y-92388802D01*
X59126520Y-92413188D01*
X59133633Y-92436637D01*
X59145184Y-92458248D01*
X59160730Y-92477190D01*
X59179672Y-92492735D01*
X59201282Y-92504286D01*
X59224731Y-92511399D01*
X59249117Y-92513801D01*
X59273503Y-92511399D01*
X59296952Y-92504286D01*
X59318563Y-92492735D01*
X59381637Y-92450590D01*
X59500110Y-92401517D01*
X59625881Y-92376500D01*
X59754119Y-92376500D01*
X59879890Y-92401517D01*
X59964677Y-92436637D01*
X59998364Y-92450591D01*
X60038172Y-92477190D01*
X60104988Y-92521835D01*
X60195665Y-92612512D01*
X60266910Y-92719138D01*
X60284655Y-92761978D01*
X60315983Y-92837610D01*
X60341000Y-92963382D01*
X60341000Y-93091618D01*
X60315983Y-93217390D01*
X60266909Y-93335864D01*
X60195665Y-93442488D01*
X60104988Y-93533165D01*
X59998364Y-93604409D01*
X59998363Y-93604410D01*
X59998362Y-93604410D01*
X59879890Y-93653483D01*
X59754119Y-93678500D01*
X59625881Y-93678500D01*
X59500110Y-93653483D01*
X59381638Y-93604410D01*
X59381637Y-93604410D01*
X59381636Y-93604409D01*
X59275012Y-93533165D01*
X59184335Y-93442488D01*
X59113091Y-93335864D01*
X59064017Y-93217390D01*
X59039000Y-93091618D01*
X59039000Y-92963382D01*
X59053480Y-92890584D01*
X59055882Y-92866198D01*
X59053480Y-92841812D01*
X59046367Y-92818363D01*
X59034816Y-92796752D01*
X59019270Y-92777810D01*
X59000328Y-92762265D01*
X58978718Y-92750714D01*
X58955269Y-92743601D01*
X58930883Y-92741199D01*
X58906497Y-92743601D01*
X58883048Y-92750714D01*
X58861437Y-92762265D01*
X58798363Y-92804410D01*
X58679890Y-92853483D01*
X58554119Y-92878500D01*
X58425881Y-92878500D01*
X58300110Y-92853483D01*
X58181638Y-92804410D01*
X58181637Y-92804410D01*
X58181636Y-92804409D01*
X58075012Y-92733165D01*
X57984335Y-92642488D01*
X57913091Y-92535864D01*
X57864017Y-92417390D01*
X57839000Y-92291618D01*
X57839000Y-92163382D01*
X57864017Y-92037610D01*
X57913091Y-91919136D01*
X57984335Y-91812512D01*
X58075012Y-91721835D01*
X58181636Y-91650591D01*
X58215324Y-91636637D01*
X58300110Y-91601517D01*
X58425881Y-91576500D01*
X58554119Y-91576500D01*
X58679890Y-91601517D01*
X58798363Y-91650590D01*
X58861437Y-91692735D01*
X58883048Y-91704286D01*
X58906497Y-91711399D01*
X58930883Y-91713801D01*
X58955269Y-91711399D01*
X58978718Y-91704286D01*
X59000329Y-91692735D01*
X59019271Y-91677189D01*
X59034816Y-91658248D01*
X59046367Y-91636637D01*
X59053480Y-91613188D01*
X59055882Y-91588802D01*
X59053480Y-91564416D01*
X59039000Y-91491619D01*
X59039000Y-91363381D01*
X59053480Y-91290584D01*
X59055882Y-91266198D01*
X59053480Y-91241812D01*
X59046367Y-91218363D01*
X59034816Y-91196752D01*
X59019270Y-91177810D01*
X59000328Y-91162265D01*
X58978718Y-91150714D01*
X58955269Y-91143601D01*
X58930883Y-91141199D01*
X58906497Y-91143601D01*
X58883048Y-91150714D01*
X58861437Y-91162265D01*
X58798363Y-91204410D01*
X58679890Y-91253483D01*
X58554119Y-91278500D01*
X58425881Y-91278500D01*
X58300110Y-91253483D01*
X58181638Y-91204410D01*
X58181637Y-91204410D01*
X58181636Y-91204409D01*
X58075012Y-91133165D01*
X57984335Y-91042488D01*
X57913091Y-90935864D01*
X57864017Y-90817390D01*
X57839000Y-90691618D01*
X57839000Y-90563382D01*
X57864017Y-90437610D01*
X57913091Y-90319136D01*
X57984335Y-90212512D01*
X58075012Y-90121835D01*
X58181636Y-90050591D01*
X58215324Y-90036637D01*
X58300110Y-90001517D01*
X58425881Y-89976500D01*
X58554119Y-89976500D01*
X58679890Y-90001517D01*
X58798363Y-90050590D01*
X58861437Y-90092735D01*
X58883048Y-90104286D01*
X58906497Y-90111399D01*
X58930883Y-90113801D01*
X58955269Y-90111399D01*
X58978718Y-90104286D01*
X59000329Y-90092735D01*
X59019271Y-90077189D01*
X59034816Y-90058248D01*
X59046367Y-90036637D01*
X59053480Y-90013188D01*
X59055882Y-89988802D01*
X59053480Y-89964416D01*
X59039000Y-89891619D01*
X59039000Y-89763381D01*
X59064017Y-89637610D01*
X59113090Y-89519138D01*
X59184335Y-89412512D01*
X59275012Y-89321835D01*
X59381636Y-89250591D01*
X59500110Y-89201517D01*
X59625881Y-89176500D01*
X59754119Y-89176500D01*
X59879890Y-89201517D01*
G37*
G36*
X99320443Y-91140519D02*
G01*
X99386627Y-91147037D01*
X99556466Y-91198557D01*
X99712991Y-91282222D01*
X99748729Y-91311552D01*
X99850186Y-91394814D01*
X99929630Y-91491618D01*
X99962778Y-91532009D01*
X100046443Y-91688534D01*
X100097963Y-91858373D01*
X100115359Y-92035000D01*
X100097963Y-92211627D01*
X100046443Y-92381466D01*
X99962778Y-92537991D01*
X99933448Y-92573729D01*
X99850186Y-92675186D01*
X99748729Y-92758448D01*
X99712991Y-92787778D01*
X99556466Y-92871443D01*
X99386627Y-92922963D01*
X99320443Y-92929481D01*
X99254260Y-92936000D01*
X98865740Y-92936000D01*
X98799557Y-92929481D01*
X98733373Y-92922963D01*
X98563534Y-92871443D01*
X98407009Y-92787778D01*
X98371271Y-92758448D01*
X98269814Y-92675186D01*
X98186552Y-92573729D01*
X98157222Y-92537991D01*
X98073557Y-92381466D01*
X98022037Y-92211627D01*
X98004641Y-92035000D01*
X98022037Y-91858373D01*
X98073557Y-91688534D01*
X98157222Y-91532009D01*
X98190370Y-91491618D01*
X98269814Y-91394814D01*
X98371271Y-91311552D01*
X98407009Y-91282222D01*
X98563534Y-91198557D01*
X98733373Y-91147037D01*
X98799557Y-91140519D01*
X98865740Y-91134000D01*
X99254260Y-91134000D01*
X99320443Y-91140519D01*
G37*
G36*
X99968600Y-88637989D02*
G01*
X100001652Y-88648015D01*
X100032103Y-88664292D01*
X100058799Y-88686201D01*
X100080708Y-88712897D01*
X100096985Y-88743348D01*
X100107011Y-88776400D01*
X100111000Y-88816903D01*
X100111000Y-90253097D01*
X100107011Y-90293600D01*
X100096985Y-90326652D01*
X100080708Y-90357103D01*
X100058799Y-90383799D01*
X100032103Y-90405708D01*
X100001652Y-90421985D01*
X99968600Y-90432011D01*
X99928097Y-90436000D01*
X98191903Y-90436000D01*
X98151400Y-90432011D01*
X98118348Y-90421985D01*
X98087897Y-90405708D01*
X98061201Y-90383799D01*
X98039292Y-90357103D01*
X98023015Y-90326652D01*
X98012989Y-90293600D01*
X98009000Y-90253097D01*
X98009000Y-88816903D01*
X98012989Y-88776400D01*
X98023015Y-88743348D01*
X98039292Y-88712897D01*
X98061201Y-88686201D01*
X98087897Y-88664292D01*
X98118348Y-88648015D01*
X98151400Y-88637989D01*
X98191903Y-88634000D01*
X99928097Y-88634000D01*
X99968600Y-88637989D01*
G37*
G36*
X59477421Y-86236643D02*
G01*
X59609557Y-86276727D01*
X59609559Y-86276728D01*
X59731339Y-86341820D01*
X59731341Y-86341821D01*
X59731340Y-86341821D01*
X59838080Y-86429420D01*
X59925679Y-86536160D01*
X59990773Y-86657943D01*
X60030857Y-86790079D01*
X60044391Y-86927500D01*
X60030857Y-87064921D01*
X59990773Y-87197057D01*
X59990772Y-87197059D01*
X59925680Y-87318839D01*
X59838080Y-87425580D01*
X59731339Y-87513180D01*
X59609559Y-87578272D01*
X59609557Y-87578273D01*
X59477421Y-87618357D01*
X59374432Y-87628500D01*
X58205568Y-87628500D01*
X58102579Y-87618357D01*
X57970443Y-87578273D01*
X57970441Y-87578272D01*
X57848661Y-87513180D01*
X57741920Y-87425580D01*
X57654320Y-87318839D01*
X57589228Y-87197059D01*
X57589227Y-87197057D01*
X57549143Y-87064921D01*
X57535609Y-86927500D01*
X57549143Y-86790079D01*
X57589227Y-86657943D01*
X57654321Y-86536160D01*
X57741920Y-86429420D01*
X57848660Y-86341821D01*
X57848659Y-86341821D01*
X57848661Y-86341820D01*
X57970441Y-86276728D01*
X57970443Y-86276727D01*
X58102579Y-86236643D01*
X58205568Y-86226500D01*
X59374432Y-86226500D01*
X59477421Y-86236643D01*
G37*
G36*
X54727421Y-86236643D02*
G01*
X54859557Y-86276727D01*
X54859559Y-86276728D01*
X54981339Y-86341820D01*
X54981341Y-86341821D01*
X54981340Y-86341821D01*
X55088080Y-86429420D01*
X55175679Y-86536160D01*
X55240773Y-86657943D01*
X55280857Y-86790079D01*
X55294391Y-86927500D01*
X55280857Y-87064921D01*
X55240773Y-87197057D01*
X55240772Y-87197059D01*
X55175680Y-87318839D01*
X55088080Y-87425580D01*
X54981339Y-87513180D01*
X54859559Y-87578272D01*
X54859557Y-87578273D01*
X54727421Y-87618357D01*
X54624432Y-87628500D01*
X53455568Y-87628500D01*
X53352579Y-87618357D01*
X53220443Y-87578273D01*
X53220441Y-87578272D01*
X53098661Y-87513180D01*
X52991920Y-87425580D01*
X52904320Y-87318839D01*
X52839228Y-87197059D01*
X52839227Y-87197057D01*
X52799143Y-87064921D01*
X52785609Y-86927500D01*
X52799143Y-86790079D01*
X52839227Y-86657943D01*
X52904321Y-86536160D01*
X52991920Y-86429420D01*
X53098660Y-86341821D01*
X53098659Y-86341821D01*
X53098661Y-86341820D01*
X53220441Y-86276728D01*
X53220443Y-86276727D01*
X53352579Y-86236643D01*
X53455568Y-86226500D01*
X54624432Y-86226500D01*
X54727421Y-86236643D01*
G37*
G36*
X134001000Y-66806000D02*
G01*
X131359000Y-66806000D01*
X131359000Y-63194000D01*
X134001000Y-63194000D01*
X134001000Y-66806000D01*
G37*
G36*
X104641000Y-66806000D02*
G01*
X101999000Y-66806000D01*
X101999000Y-63194000D01*
X104641000Y-63194000D01*
X104641000Y-66806000D01*
G37*
M02*
