G04 #@! TF.GenerationSoftware,KiCad,Pcbnew,(5.1.5)-3*
G04 #@! TF.CreationDate,2020-09-12T22:58:36+09:00*
G04 #@! TF.ProjectId,acrylic_nixie_clock,61637279-6c69-4635-9f6e-697869655f63,rev?*
G04 #@! TF.SameCoordinates,Original*
G04 #@! TF.FileFunction,Copper,L2,Bot*
G04 #@! TF.FilePolarity,Positive*
%FSLAX46Y46*%
G04 Gerber Fmt 4.6, Leading zero omitted, Abs format (unit mm)*
G04 Created by KiCad (PCBNEW (5.1.5)-3) date 2020-09-12 22:58:36*
%MOMM*%
%LPD*%
G04 APERTURE LIST*
%ADD10C,0.100000*%
%ADD11O,2.000000X1.700000*%
%ADD12R,1.727200X1.727200*%
%ADD13O,1.727200X1.727200*%
%ADD14C,2.000000*%
%ADD15R,2.540000X3.510000*%
G04 APERTURE END LIST*
G04 #@! TA.AperFunction,ComponentPad*
D10*
G36*
X82054504Y-89638704D02*
G01*
X82078773Y-89642304D01*
X82102571Y-89648265D01*
X82125671Y-89656530D01*
X82147849Y-89667020D01*
X82168893Y-89679633D01*
X82188598Y-89694247D01*
X82206777Y-89710723D01*
X82223253Y-89728902D01*
X82237867Y-89748607D01*
X82250480Y-89769651D01*
X82260970Y-89791829D01*
X82269235Y-89814929D01*
X82275196Y-89838727D01*
X82278796Y-89862996D01*
X82280000Y-89887500D01*
X82280000Y-91087500D01*
X82278796Y-91112004D01*
X82275196Y-91136273D01*
X82269235Y-91160071D01*
X82260970Y-91183171D01*
X82250480Y-91205349D01*
X82237867Y-91226393D01*
X82223253Y-91246098D01*
X82206777Y-91264277D01*
X82188598Y-91280753D01*
X82168893Y-91295367D01*
X82147849Y-91307980D01*
X82125671Y-91318470D01*
X82102571Y-91326735D01*
X82078773Y-91332696D01*
X82054504Y-91336296D01*
X82030000Y-91337500D01*
X80530000Y-91337500D01*
X80505496Y-91336296D01*
X80481227Y-91332696D01*
X80457429Y-91326735D01*
X80434329Y-91318470D01*
X80412151Y-91307980D01*
X80391107Y-91295367D01*
X80371402Y-91280753D01*
X80353223Y-91264277D01*
X80336747Y-91246098D01*
X80322133Y-91226393D01*
X80309520Y-91205349D01*
X80299030Y-91183171D01*
X80290765Y-91160071D01*
X80284804Y-91136273D01*
X80281204Y-91112004D01*
X80280000Y-91087500D01*
X80280000Y-89887500D01*
X80281204Y-89862996D01*
X80284804Y-89838727D01*
X80290765Y-89814929D01*
X80299030Y-89791829D01*
X80309520Y-89769651D01*
X80322133Y-89748607D01*
X80336747Y-89728902D01*
X80353223Y-89710723D01*
X80371402Y-89694247D01*
X80391107Y-89679633D01*
X80412151Y-89667020D01*
X80434329Y-89656530D01*
X80457429Y-89648265D01*
X80481227Y-89642304D01*
X80505496Y-89638704D01*
X80530000Y-89637500D01*
X82030000Y-89637500D01*
X82054504Y-89638704D01*
G37*
G04 #@! TD.AperFunction*
D11*
X81280000Y-92987500D03*
D12*
X133032500Y-93980000D03*
D13*
X133032500Y-96520000D03*
X135572500Y-93980000D03*
X135572500Y-96520000D03*
X138112500Y-93980000D03*
X138112500Y-96520000D03*
D14*
X154772500Y-92075000D03*
X154772500Y-96575000D03*
X148272500Y-92075000D03*
X148272500Y-96575000D03*
X158115000Y-96575000D03*
X158115000Y-92075000D03*
X164615000Y-96575000D03*
X164615000Y-92075000D03*
X174457500Y-92075000D03*
X174457500Y-96575000D03*
X167957500Y-92075000D03*
X167957500Y-96575000D03*
X177800000Y-96575000D03*
X177800000Y-92075000D03*
X184300000Y-96575000D03*
X184300000Y-92075000D03*
D15*
X146927500Y-64452500D03*
X176287500Y-64452500D03*
M02*
