G04 #@! TF.GenerationSoftware,KiCad,Pcbnew,(5.1.5)-3*
G04 #@! TF.CreationDate,2020-09-12T22:58:36+09:00*
G04 #@! TF.ProjectId,acrylic_nixie_clock,61637279-6c69-4635-9f6e-697869655f63,rev?*
G04 #@! TF.SameCoordinates,Original*
G04 #@! TF.FileFunction,Legend,Top*
G04 #@! TF.FilePolarity,Positive*
%FSLAX46Y46*%
G04 Gerber Fmt 4.6, Leading zero omitted, Abs format (unit mm)*
G04 Created by KiCad (PCBNEW (5.1.5)-3) date 2020-09-12 22:58:36*
%MOMM*%
%LPD*%
G04 APERTURE LIST*
%ADD10C,0.120000*%
%ADD11C,0.150000*%
G04 APERTURE END LIST*
D10*
X67782221Y-88775000D02*
X68107779Y-88775000D01*
X67782221Y-87755000D02*
X68107779Y-87755000D01*
X70957221Y-87755000D02*
X71282779Y-87755000D01*
X70957221Y-88775000D02*
X71282779Y-88775000D01*
X64650000Y-59750000D02*
X57350000Y-59750000D01*
X64650000Y-54250000D02*
X57350000Y-54250000D01*
X57350000Y-54250000D02*
X57350000Y-55400000D01*
X72650000Y-56750000D02*
X65350000Y-56750000D01*
X72650000Y-51250000D02*
X65350000Y-51250000D01*
X65350000Y-51250000D02*
X65350000Y-52400000D01*
X72650000Y-62750000D02*
X72650000Y-61600000D01*
X65350000Y-62750000D02*
X72650000Y-62750000D01*
X65350000Y-57250000D02*
X72650000Y-57250000D01*
X57350000Y-60250000D02*
X64650000Y-60250000D01*
X57350000Y-65750000D02*
X64650000Y-65750000D01*
X64650000Y-65750000D02*
X64650000Y-64600000D01*
X57350000Y-66250000D02*
X57350000Y-67400000D01*
X64650000Y-66250000D02*
X57350000Y-66250000D01*
X64650000Y-71750000D02*
X57350000Y-71750000D01*
X72650000Y-68750000D02*
X65350000Y-68750000D01*
X72650000Y-63250000D02*
X65350000Y-63250000D01*
X65350000Y-63250000D02*
X65350000Y-64400000D01*
X72650000Y-74750000D02*
X72650000Y-73600000D01*
X65350000Y-74750000D02*
X72650000Y-74750000D01*
X65350000Y-69250000D02*
X72650000Y-69250000D01*
X57350000Y-72250000D02*
X64650000Y-72250000D01*
X57350000Y-77750000D02*
X64650000Y-77750000D01*
X64650000Y-77750000D02*
X64650000Y-76600000D01*
X57350000Y-78250000D02*
X57350000Y-79400000D01*
X64650000Y-78250000D02*
X57350000Y-78250000D01*
X64650000Y-83750000D02*
X57350000Y-83750000D01*
X72650000Y-80750000D02*
X65350000Y-80750000D01*
X72650000Y-75250000D02*
X65350000Y-75250000D01*
X65350000Y-75250000D02*
X65350000Y-76400000D01*
X85650000Y-83750000D02*
X78350000Y-83750000D01*
X85650000Y-78250000D02*
X78350000Y-78250000D01*
X78350000Y-78250000D02*
X78350000Y-79400000D01*
X93650000Y-80750000D02*
X86350000Y-80750000D01*
X93650000Y-75250000D02*
X86350000Y-75250000D01*
X86350000Y-75250000D02*
X86350000Y-76400000D01*
X93650000Y-74750000D02*
X93650000Y-73600000D01*
X86350000Y-74750000D02*
X93650000Y-74750000D01*
X86350000Y-69250000D02*
X93650000Y-69250000D01*
X85650000Y-77750000D02*
X85650000Y-76600000D01*
X78350000Y-77750000D02*
X85650000Y-77750000D01*
X78350000Y-72250000D02*
X85650000Y-72250000D01*
X85650000Y-71750000D02*
X78350000Y-71750000D01*
X85650000Y-66250000D02*
X78350000Y-66250000D01*
X78350000Y-66250000D02*
X78350000Y-67400000D01*
X93650000Y-68750000D02*
X86350000Y-68750000D01*
X93650000Y-63250000D02*
X86350000Y-63250000D01*
X86350000Y-63250000D02*
X86350000Y-64400000D01*
X86350000Y-57250000D02*
X93650000Y-57250000D01*
X86350000Y-62750000D02*
X93650000Y-62750000D01*
X93650000Y-62750000D02*
X93650000Y-61600000D01*
X85650000Y-65750000D02*
X85650000Y-64600000D01*
X78350000Y-65750000D02*
X85650000Y-65750000D01*
X78350000Y-60250000D02*
X85650000Y-60250000D01*
X78350000Y-54250000D02*
X78350000Y-55400000D01*
X85650000Y-54250000D02*
X78350000Y-54250000D01*
X85650000Y-59750000D02*
X78350000Y-59750000D01*
X93650000Y-56750000D02*
X86350000Y-56750000D01*
X93650000Y-51250000D02*
X86350000Y-51250000D01*
X86350000Y-51250000D02*
X86350000Y-52400000D01*
X103350000Y-54250000D02*
X103350000Y-55400000D01*
X110650000Y-54250000D02*
X103350000Y-54250000D01*
X110650000Y-59750000D02*
X103350000Y-59750000D01*
X118650000Y-56750000D02*
X111350000Y-56750000D01*
X118650000Y-51250000D02*
X111350000Y-51250000D01*
X111350000Y-51250000D02*
X111350000Y-52400000D01*
X111350000Y-57250000D02*
X118650000Y-57250000D01*
X111350000Y-62750000D02*
X118650000Y-62750000D01*
X118650000Y-62750000D02*
X118650000Y-61600000D01*
X103350000Y-60250000D02*
X110650000Y-60250000D01*
X103350000Y-65750000D02*
X110650000Y-65750000D01*
X110650000Y-65750000D02*
X110650000Y-64600000D01*
X110650000Y-71750000D02*
X103350000Y-71750000D01*
X110650000Y-66250000D02*
X103350000Y-66250000D01*
X103350000Y-66250000D02*
X103350000Y-67400000D01*
X118650000Y-68750000D02*
X111350000Y-68750000D01*
X118650000Y-63250000D02*
X111350000Y-63250000D01*
X111350000Y-63250000D02*
X111350000Y-64400000D01*
X111350000Y-69250000D02*
X118650000Y-69250000D01*
X111350000Y-74750000D02*
X118650000Y-74750000D01*
X118650000Y-74750000D02*
X118650000Y-73600000D01*
X110650000Y-77750000D02*
X110650000Y-76600000D01*
X103350000Y-77750000D02*
X110650000Y-77750000D01*
X103350000Y-72250000D02*
X110650000Y-72250000D01*
X110650000Y-83750000D02*
X103350000Y-83750000D01*
X110650000Y-78250000D02*
X103350000Y-78250000D01*
X103350000Y-78250000D02*
X103350000Y-79400000D01*
X118650000Y-80750000D02*
X111350000Y-80750000D01*
X118650000Y-75250000D02*
X111350000Y-75250000D01*
X111350000Y-75250000D02*
X111350000Y-76400000D01*
X131650000Y-83750000D02*
X124350000Y-83750000D01*
X131650000Y-78250000D02*
X124350000Y-78250000D01*
X124350000Y-78250000D02*
X124350000Y-79400000D01*
X132350000Y-75250000D02*
X132350000Y-76400000D01*
X139650000Y-75250000D02*
X132350000Y-75250000D01*
X139650000Y-80750000D02*
X132350000Y-80750000D01*
X139650000Y-74750000D02*
X139650000Y-73600000D01*
X132350000Y-74750000D02*
X139650000Y-74750000D01*
X132350000Y-69250000D02*
X139650000Y-69250000D01*
X124350000Y-72250000D02*
X131650000Y-72250000D01*
X124350000Y-77750000D02*
X131650000Y-77750000D01*
X131650000Y-77750000D02*
X131650000Y-76600000D01*
X124350000Y-66250000D02*
X124350000Y-67400000D01*
X131650000Y-66250000D02*
X124350000Y-66250000D01*
X131650000Y-71750000D02*
X124350000Y-71750000D01*
X139650000Y-68750000D02*
X132350000Y-68750000D01*
X139650000Y-63250000D02*
X132350000Y-63250000D01*
X132350000Y-63250000D02*
X132350000Y-64400000D01*
X139650000Y-62750000D02*
X139650000Y-61600000D01*
X132350000Y-62750000D02*
X139650000Y-62750000D01*
X132350000Y-57250000D02*
X139650000Y-57250000D01*
X131650000Y-65750000D02*
X131650000Y-64600000D01*
X124350000Y-65750000D02*
X131650000Y-65750000D01*
X124350000Y-60250000D02*
X131650000Y-60250000D01*
X124350000Y-54250000D02*
X124350000Y-55400000D01*
X131650000Y-54250000D02*
X124350000Y-54250000D01*
X131650000Y-59750000D02*
X124350000Y-59750000D01*
X139650000Y-56750000D02*
X132350000Y-56750000D01*
X139650000Y-51250000D02*
X132350000Y-51250000D01*
X132350000Y-51250000D02*
X132350000Y-52400000D01*
X156650000Y-59750000D02*
X149350000Y-59750000D01*
X156650000Y-54250000D02*
X149350000Y-54250000D01*
X149350000Y-54250000D02*
X149350000Y-55400000D01*
X157350000Y-51250000D02*
X157350000Y-52400000D01*
X164650000Y-51250000D02*
X157350000Y-51250000D01*
X164650000Y-56750000D02*
X157350000Y-56750000D01*
X164650000Y-62750000D02*
X164650000Y-61600000D01*
X157350000Y-62750000D02*
X164650000Y-62750000D01*
X157350000Y-57250000D02*
X164650000Y-57250000D01*
X149350000Y-60250000D02*
X156650000Y-60250000D01*
X149350000Y-65750000D02*
X156650000Y-65750000D01*
X156650000Y-65750000D02*
X156650000Y-64600000D01*
X149350000Y-66250000D02*
X149350000Y-67400000D01*
X156650000Y-66250000D02*
X149350000Y-66250000D01*
X156650000Y-71750000D02*
X149350000Y-71750000D01*
X157350000Y-63250000D02*
X157350000Y-64400000D01*
X164650000Y-63250000D02*
X157350000Y-63250000D01*
X164650000Y-68750000D02*
X157350000Y-68750000D01*
X164650000Y-74750000D02*
X164650000Y-73600000D01*
X157350000Y-74750000D02*
X164650000Y-74750000D01*
X157350000Y-69250000D02*
X164650000Y-69250000D01*
X149350000Y-72250000D02*
X156650000Y-72250000D01*
X149350000Y-77750000D02*
X156650000Y-77750000D01*
X156650000Y-77750000D02*
X156650000Y-76600000D01*
X149350000Y-78250000D02*
X149350000Y-79400000D01*
X156650000Y-78250000D02*
X149350000Y-78250000D01*
X156650000Y-83750000D02*
X149350000Y-83750000D01*
X157350000Y-75250000D02*
X157350000Y-76400000D01*
X164650000Y-75250000D02*
X157350000Y-75250000D01*
X164650000Y-80750000D02*
X157350000Y-80750000D01*
X177650000Y-83750000D02*
X170350000Y-83750000D01*
X177650000Y-78250000D02*
X170350000Y-78250000D01*
X170350000Y-78250000D02*
X170350000Y-79400000D01*
X178350000Y-75250000D02*
X178350000Y-76400000D01*
X185650000Y-75250000D02*
X178350000Y-75250000D01*
X185650000Y-80750000D02*
X178350000Y-80750000D01*
X185650000Y-74750000D02*
X185650000Y-73600000D01*
X178350000Y-74750000D02*
X185650000Y-74750000D01*
X178350000Y-69250000D02*
X185650000Y-69250000D01*
X170350000Y-72250000D02*
X177650000Y-72250000D01*
X170350000Y-77750000D02*
X177650000Y-77750000D01*
X177650000Y-77750000D02*
X177650000Y-76600000D01*
X177650000Y-71750000D02*
X170350000Y-71750000D01*
X177650000Y-66250000D02*
X170350000Y-66250000D01*
X170350000Y-66250000D02*
X170350000Y-67400000D01*
X178350000Y-63250000D02*
X178350000Y-64400000D01*
X185650000Y-63250000D02*
X178350000Y-63250000D01*
X185650000Y-68750000D02*
X178350000Y-68750000D01*
X185650000Y-62750000D02*
X185650000Y-61600000D01*
X178350000Y-62750000D02*
X185650000Y-62750000D01*
X178350000Y-57250000D02*
X185650000Y-57250000D01*
X170350000Y-60250000D02*
X177650000Y-60250000D01*
X170350000Y-65750000D02*
X177650000Y-65750000D01*
X177650000Y-65750000D02*
X177650000Y-64600000D01*
X177650000Y-59750000D02*
X170350000Y-59750000D01*
X177650000Y-54250000D02*
X170350000Y-54250000D01*
X170350000Y-54250000D02*
X170350000Y-55400000D01*
X185650000Y-56750000D02*
X178350000Y-56750000D01*
X185650000Y-51250000D02*
X178350000Y-51250000D01*
X178350000Y-51250000D02*
X178350000Y-52400000D01*
X55065000Y-88432500D02*
X57665000Y-88432500D01*
X57665000Y-96352500D02*
X55065000Y-96352500D01*
X59975000Y-89192500D02*
X59975000Y-90342500D01*
X59975000Y-90342500D02*
X60565000Y-90342500D01*
X60565000Y-90342500D02*
X60565000Y-91042500D01*
X59975000Y-94442500D02*
X59975000Y-95592500D01*
X52165000Y-88432500D02*
X50505000Y-88432500D01*
X50505000Y-88432500D02*
X50505000Y-96352500D01*
X50505000Y-96352500D02*
X52165000Y-96352500D01*
X107942500Y-85917500D02*
X107012500Y-85917500D01*
X104782500Y-85917500D02*
X105712500Y-85917500D01*
X104782500Y-85917500D02*
X104782500Y-88077500D01*
X107942500Y-85917500D02*
X107942500Y-87377500D01*
X106525279Y-89727500D02*
X106199721Y-89727500D01*
X106525279Y-88707500D02*
X106199721Y-88707500D01*
X66122500Y-95572500D02*
X67382500Y-95572500D01*
X72942500Y-95572500D02*
X71682500Y-95572500D01*
X66122500Y-91812500D02*
X66122500Y-95572500D01*
X72942500Y-89562500D02*
X72942500Y-95572500D01*
X122408767Y-92517500D02*
X122066233Y-92517500D01*
X122408767Y-93537500D02*
X122066233Y-93537500D01*
X122408767Y-91950000D02*
X122066233Y-91950000D01*
X122408767Y-90930000D02*
X122066233Y-90930000D01*
X122408767Y-89342500D02*
X122066233Y-89342500D01*
X122408767Y-90362500D02*
X122066233Y-90362500D01*
X122408767Y-88775000D02*
X122066233Y-88775000D01*
X122408767Y-87755000D02*
X122066233Y-87755000D01*
X99570000Y-93833767D02*
X99570000Y-93491233D01*
X98550000Y-93833767D02*
X98550000Y-93491233D01*
X96962500Y-93833767D02*
X96962500Y-93491233D01*
X97982500Y-93833767D02*
X97982500Y-93491233D01*
X155022500Y-95075000D02*
X155022500Y-93575000D01*
X153772500Y-91075000D02*
X149272500Y-91075000D01*
X148022500Y-93575000D02*
X148022500Y-95075000D01*
X149272500Y-97575000D02*
X153772500Y-97575000D01*
X159115000Y-97575000D02*
X163615000Y-97575000D01*
X157865000Y-93575000D02*
X157865000Y-95075000D01*
X163615000Y-91075000D02*
X159115000Y-91075000D01*
X164865000Y-95075000D02*
X164865000Y-93575000D01*
X174707500Y-95075000D02*
X174707500Y-93575000D01*
X173457500Y-91075000D02*
X168957500Y-91075000D01*
X167707500Y-93575000D02*
X167707500Y-95075000D01*
X168957500Y-97575000D02*
X173457500Y-97575000D01*
X178800000Y-97575000D02*
X183300000Y-97575000D01*
X177550000Y-93575000D02*
X177550000Y-95075000D01*
X183300000Y-91075000D02*
X178800000Y-91075000D01*
X184550000Y-95075000D02*
X184550000Y-93575000D01*
D11*
X110992500Y-89402500D02*
X110992500Y-89627500D01*
X118242500Y-89402500D02*
X118242500Y-89727500D01*
X118242500Y-96652500D02*
X118242500Y-96327500D01*
X110992500Y-96652500D02*
X110992500Y-96327500D01*
X110992500Y-89402500D02*
X111317500Y-89402500D01*
X110992500Y-96652500D02*
X111317500Y-96652500D01*
X118242500Y-96652500D02*
X117917500Y-96652500D01*
X118242500Y-89402500D02*
X117917500Y-89402500D01*
X110992500Y-89627500D02*
X109567500Y-89627500D01*
D10*
X106199721Y-90295000D02*
X106525279Y-90295000D01*
X106199721Y-91315000D02*
X106525279Y-91315000D01*
X106199721Y-91882500D02*
X106525279Y-91882500D01*
X106199721Y-92902500D02*
X106525279Y-92902500D01*
X106199721Y-94490000D02*
X106525279Y-94490000D01*
X106199721Y-93470000D02*
X106525279Y-93470000D01*
X98790000Y-87335000D02*
X98790000Y-91185000D01*
X96790000Y-87335000D02*
X96790000Y-91185000D01*
X98790000Y-87335000D02*
X96790000Y-87335000D01*
X101012500Y-87335000D02*
X99012500Y-87335000D01*
X99012500Y-87335000D02*
X99012500Y-91185000D01*
X101012500Y-87335000D02*
X101012500Y-91185000D01*
X92499999Y-87479999D02*
X90549999Y-87479999D01*
X92499999Y-87479999D02*
X94449999Y-87479999D01*
X92499999Y-96349999D02*
X90549999Y-96349999D01*
X92499999Y-96349999D02*
X95949999Y-96349999D01*
X107875000Y-98170000D02*
X107875000Y-94870000D01*
X107875000Y-94870000D02*
X103875000Y-94870000D01*
D11*
X67778333Y-87034642D02*
X67730714Y-87082261D01*
X67587857Y-87129880D01*
X67492619Y-87129880D01*
X67349761Y-87082261D01*
X67254523Y-86987023D01*
X67206904Y-86891785D01*
X67159285Y-86701309D01*
X67159285Y-86558452D01*
X67206904Y-86367976D01*
X67254523Y-86272738D01*
X67349761Y-86177500D01*
X67492619Y-86129880D01*
X67587857Y-86129880D01*
X67730714Y-86177500D01*
X67778333Y-86225119D01*
X68730714Y-87129880D02*
X68159285Y-87129880D01*
X68445000Y-87129880D02*
X68445000Y-86129880D01*
X68349761Y-86272738D01*
X68254523Y-86367976D01*
X68159285Y-86415595D01*
X70953333Y-87034642D02*
X70905714Y-87082261D01*
X70762857Y-87129880D01*
X70667619Y-87129880D01*
X70524761Y-87082261D01*
X70429523Y-86987023D01*
X70381904Y-86891785D01*
X70334285Y-86701309D01*
X70334285Y-86558452D01*
X70381904Y-86367976D01*
X70429523Y-86272738D01*
X70524761Y-86177500D01*
X70667619Y-86129880D01*
X70762857Y-86129880D01*
X70905714Y-86177500D01*
X70953333Y-86225119D01*
X71334285Y-86225119D02*
X71381904Y-86177500D01*
X71477142Y-86129880D01*
X71715238Y-86129880D01*
X71810476Y-86177500D01*
X71858095Y-86225119D01*
X71905714Y-86320357D01*
X71905714Y-86415595D01*
X71858095Y-86558452D01*
X71286666Y-87129880D01*
X71905714Y-87129880D01*
X59785714Y-60952380D02*
X59785714Y-59952380D01*
X60023809Y-59952380D01*
X60166666Y-60000000D01*
X60261904Y-60095238D01*
X60309523Y-60190476D01*
X60357142Y-60380952D01*
X60357142Y-60523809D01*
X60309523Y-60714285D01*
X60261904Y-60809523D01*
X60166666Y-60904761D01*
X60023809Y-60952380D01*
X59785714Y-60952380D01*
X61261904Y-59952380D02*
X60785714Y-59952380D01*
X60738095Y-60428571D01*
X60785714Y-60380952D01*
X60880952Y-60333333D01*
X61119047Y-60333333D01*
X61214285Y-60380952D01*
X61261904Y-60428571D01*
X61309523Y-60523809D01*
X61309523Y-60761904D01*
X61261904Y-60857142D01*
X61214285Y-60904761D01*
X61119047Y-60952380D01*
X60880952Y-60952380D01*
X60785714Y-60904761D01*
X60738095Y-60857142D01*
X61642857Y-59952380D02*
X62261904Y-59952380D01*
X61928571Y-60333333D01*
X62071428Y-60333333D01*
X62166666Y-60380952D01*
X62214285Y-60428571D01*
X62261904Y-60523809D01*
X62261904Y-60761904D01*
X62214285Y-60857142D01*
X62166666Y-60904761D01*
X62071428Y-60952380D01*
X61785714Y-60952380D01*
X61690476Y-60904761D01*
X61642857Y-60857142D01*
X65435714Y-59052380D02*
X64864285Y-59052380D01*
X65150000Y-59052380D02*
X65150000Y-58052380D01*
X65054761Y-58195238D01*
X64959523Y-58290476D01*
X64864285Y-58338095D01*
X67785714Y-57952380D02*
X67785714Y-56952380D01*
X68023809Y-56952380D01*
X68166666Y-57000000D01*
X68261904Y-57095238D01*
X68309523Y-57190476D01*
X68357142Y-57380952D01*
X68357142Y-57523809D01*
X68309523Y-57714285D01*
X68261904Y-57809523D01*
X68166666Y-57904761D01*
X68023809Y-57952380D01*
X67785714Y-57952380D01*
X69261904Y-56952380D02*
X68785714Y-56952380D01*
X68738095Y-57428571D01*
X68785714Y-57380952D01*
X68880952Y-57333333D01*
X69119047Y-57333333D01*
X69214285Y-57380952D01*
X69261904Y-57428571D01*
X69309523Y-57523809D01*
X69309523Y-57761904D01*
X69261904Y-57857142D01*
X69214285Y-57904761D01*
X69119047Y-57952380D01*
X68880952Y-57952380D01*
X68785714Y-57904761D01*
X68738095Y-57857142D01*
X70166666Y-57285714D02*
X70166666Y-57952380D01*
X69928571Y-56904761D02*
X69690476Y-57619047D01*
X70309523Y-57619047D01*
X73435714Y-56052380D02*
X72864285Y-56052380D01*
X73150000Y-56052380D02*
X73150000Y-55052380D01*
X73054761Y-55195238D01*
X72959523Y-55290476D01*
X72864285Y-55338095D01*
X67785714Y-56952380D02*
X67785714Y-55952380D01*
X68023809Y-55952380D01*
X68166666Y-56000000D01*
X68261904Y-56095238D01*
X68309523Y-56190476D01*
X68357142Y-56380952D01*
X68357142Y-56523809D01*
X68309523Y-56714285D01*
X68261904Y-56809523D01*
X68166666Y-56904761D01*
X68023809Y-56952380D01*
X67785714Y-56952380D01*
X69261904Y-55952380D02*
X68785714Y-55952380D01*
X68738095Y-56428571D01*
X68785714Y-56380952D01*
X68880952Y-56333333D01*
X69119047Y-56333333D01*
X69214285Y-56380952D01*
X69261904Y-56428571D01*
X69309523Y-56523809D01*
X69309523Y-56761904D01*
X69261904Y-56857142D01*
X69214285Y-56904761D01*
X69119047Y-56952380D01*
X68880952Y-56952380D01*
X68785714Y-56904761D01*
X68738095Y-56857142D01*
X70214285Y-55952380D02*
X69738095Y-55952380D01*
X69690476Y-56428571D01*
X69738095Y-56380952D01*
X69833333Y-56333333D01*
X70071428Y-56333333D01*
X70166666Y-56380952D01*
X70214285Y-56428571D01*
X70261904Y-56523809D01*
X70261904Y-56761904D01*
X70214285Y-56857142D01*
X70166666Y-56904761D01*
X70071428Y-56952380D01*
X69833333Y-56952380D01*
X69738095Y-56904761D01*
X69690476Y-56857142D01*
X65135714Y-58852380D02*
X64564285Y-58852380D01*
X64850000Y-58852380D02*
X64850000Y-57852380D01*
X64754761Y-57995238D01*
X64659523Y-58090476D01*
X64564285Y-58138095D01*
X59785714Y-59952380D02*
X59785714Y-58952380D01*
X60023809Y-58952380D01*
X60166666Y-59000000D01*
X60261904Y-59095238D01*
X60309523Y-59190476D01*
X60357142Y-59380952D01*
X60357142Y-59523809D01*
X60309523Y-59714285D01*
X60261904Y-59809523D01*
X60166666Y-59904761D01*
X60023809Y-59952380D01*
X59785714Y-59952380D01*
X61261904Y-58952380D02*
X60785714Y-58952380D01*
X60738095Y-59428571D01*
X60785714Y-59380952D01*
X60880952Y-59333333D01*
X61119047Y-59333333D01*
X61214285Y-59380952D01*
X61261904Y-59428571D01*
X61309523Y-59523809D01*
X61309523Y-59761904D01*
X61261904Y-59857142D01*
X61214285Y-59904761D01*
X61119047Y-59952380D01*
X60880952Y-59952380D01*
X60785714Y-59904761D01*
X60738095Y-59857142D01*
X62166666Y-58952380D02*
X61976190Y-58952380D01*
X61880952Y-59000000D01*
X61833333Y-59047619D01*
X61738095Y-59190476D01*
X61690476Y-59380952D01*
X61690476Y-59761904D01*
X61738095Y-59857142D01*
X61785714Y-59904761D01*
X61880952Y-59952380D01*
X62071428Y-59952380D01*
X62166666Y-59904761D01*
X62214285Y-59857142D01*
X62261904Y-59761904D01*
X62261904Y-59523809D01*
X62214285Y-59428571D01*
X62166666Y-59380952D01*
X62071428Y-59333333D01*
X61880952Y-59333333D01*
X61785714Y-59380952D01*
X61738095Y-59428571D01*
X61690476Y-59523809D01*
X57135714Y-61852380D02*
X56564285Y-61852380D01*
X56850000Y-61852380D02*
X56850000Y-60852380D01*
X56754761Y-60995238D01*
X56659523Y-61090476D01*
X56564285Y-61138095D01*
X59785714Y-72952380D02*
X59785714Y-71952380D01*
X60023809Y-71952380D01*
X60166666Y-72000000D01*
X60261904Y-72095238D01*
X60309523Y-72190476D01*
X60357142Y-72380952D01*
X60357142Y-72523809D01*
X60309523Y-72714285D01*
X60261904Y-72809523D01*
X60166666Y-72904761D01*
X60023809Y-72952380D01*
X59785714Y-72952380D01*
X61261904Y-71952380D02*
X60785714Y-71952380D01*
X60738095Y-72428571D01*
X60785714Y-72380952D01*
X60880952Y-72333333D01*
X61119047Y-72333333D01*
X61214285Y-72380952D01*
X61261904Y-72428571D01*
X61309523Y-72523809D01*
X61309523Y-72761904D01*
X61261904Y-72857142D01*
X61214285Y-72904761D01*
X61119047Y-72952380D01*
X60880952Y-72952380D01*
X60785714Y-72904761D01*
X60738095Y-72857142D01*
X61642857Y-71952380D02*
X62309523Y-71952380D01*
X61880952Y-72952380D01*
X65435714Y-71052380D02*
X64864285Y-71052380D01*
X65150000Y-71052380D02*
X65150000Y-70052380D01*
X65054761Y-70195238D01*
X64959523Y-70290476D01*
X64864285Y-70338095D01*
X67785714Y-69952380D02*
X67785714Y-68952380D01*
X68023809Y-68952380D01*
X68166666Y-69000000D01*
X68261904Y-69095238D01*
X68309523Y-69190476D01*
X68357142Y-69380952D01*
X68357142Y-69523809D01*
X68309523Y-69714285D01*
X68261904Y-69809523D01*
X68166666Y-69904761D01*
X68023809Y-69952380D01*
X67785714Y-69952380D01*
X69261904Y-68952380D02*
X68785714Y-68952380D01*
X68738095Y-69428571D01*
X68785714Y-69380952D01*
X68880952Y-69333333D01*
X69119047Y-69333333D01*
X69214285Y-69380952D01*
X69261904Y-69428571D01*
X69309523Y-69523809D01*
X69309523Y-69761904D01*
X69261904Y-69857142D01*
X69214285Y-69904761D01*
X69119047Y-69952380D01*
X68880952Y-69952380D01*
X68785714Y-69904761D01*
X68738095Y-69857142D01*
X69880952Y-69380952D02*
X69785714Y-69333333D01*
X69738095Y-69285714D01*
X69690476Y-69190476D01*
X69690476Y-69142857D01*
X69738095Y-69047619D01*
X69785714Y-69000000D01*
X69880952Y-68952380D01*
X70071428Y-68952380D01*
X70166666Y-69000000D01*
X70214285Y-69047619D01*
X70261904Y-69142857D01*
X70261904Y-69190476D01*
X70214285Y-69285714D01*
X70166666Y-69333333D01*
X70071428Y-69380952D01*
X69880952Y-69380952D01*
X69785714Y-69428571D01*
X69738095Y-69476190D01*
X69690476Y-69571428D01*
X69690476Y-69761904D01*
X69738095Y-69857142D01*
X69785714Y-69904761D01*
X69880952Y-69952380D01*
X70071428Y-69952380D01*
X70166666Y-69904761D01*
X70214285Y-69857142D01*
X70261904Y-69761904D01*
X70261904Y-69571428D01*
X70214285Y-69476190D01*
X70166666Y-69428571D01*
X70071428Y-69380952D01*
X73435714Y-68052380D02*
X72864285Y-68052380D01*
X73150000Y-68052380D02*
X73150000Y-67052380D01*
X73054761Y-67195238D01*
X72959523Y-67290476D01*
X72864285Y-67338095D01*
X67785714Y-68952380D02*
X67785714Y-67952380D01*
X68023809Y-67952380D01*
X68166666Y-68000000D01*
X68261904Y-68095238D01*
X68309523Y-68190476D01*
X68357142Y-68380952D01*
X68357142Y-68523809D01*
X68309523Y-68714285D01*
X68261904Y-68809523D01*
X68166666Y-68904761D01*
X68023809Y-68952380D01*
X67785714Y-68952380D01*
X69261904Y-67952380D02*
X68785714Y-67952380D01*
X68738095Y-68428571D01*
X68785714Y-68380952D01*
X68880952Y-68333333D01*
X69119047Y-68333333D01*
X69214285Y-68380952D01*
X69261904Y-68428571D01*
X69309523Y-68523809D01*
X69309523Y-68761904D01*
X69261904Y-68857142D01*
X69214285Y-68904761D01*
X69119047Y-68952380D01*
X68880952Y-68952380D01*
X68785714Y-68904761D01*
X68738095Y-68857142D01*
X69785714Y-68952380D02*
X69976190Y-68952380D01*
X70071428Y-68904761D01*
X70119047Y-68857142D01*
X70214285Y-68714285D01*
X70261904Y-68523809D01*
X70261904Y-68142857D01*
X70214285Y-68047619D01*
X70166666Y-68000000D01*
X70071428Y-67952380D01*
X69880952Y-67952380D01*
X69785714Y-68000000D01*
X69738095Y-68047619D01*
X69690476Y-68142857D01*
X69690476Y-68380952D01*
X69738095Y-68476190D01*
X69785714Y-68523809D01*
X69880952Y-68571428D01*
X70071428Y-68571428D01*
X70166666Y-68523809D01*
X70214285Y-68476190D01*
X70261904Y-68380952D01*
X65135714Y-70852380D02*
X64564285Y-70852380D01*
X64850000Y-70852380D02*
X64850000Y-69852380D01*
X64754761Y-69995238D01*
X64659523Y-70090476D01*
X64564285Y-70138095D01*
X59785714Y-71952380D02*
X59785714Y-70952380D01*
X60023809Y-70952380D01*
X60166666Y-71000000D01*
X60261904Y-71095238D01*
X60309523Y-71190476D01*
X60357142Y-71380952D01*
X60357142Y-71523809D01*
X60309523Y-71714285D01*
X60261904Y-71809523D01*
X60166666Y-71904761D01*
X60023809Y-71952380D01*
X59785714Y-71952380D01*
X61214285Y-70952380D02*
X61023809Y-70952380D01*
X60928571Y-71000000D01*
X60880952Y-71047619D01*
X60785714Y-71190476D01*
X60738095Y-71380952D01*
X60738095Y-71761904D01*
X60785714Y-71857142D01*
X60833333Y-71904761D01*
X60928571Y-71952380D01*
X61119047Y-71952380D01*
X61214285Y-71904761D01*
X61261904Y-71857142D01*
X61309523Y-71761904D01*
X61309523Y-71523809D01*
X61261904Y-71428571D01*
X61214285Y-71380952D01*
X61119047Y-71333333D01*
X60928571Y-71333333D01*
X60833333Y-71380952D01*
X60785714Y-71428571D01*
X60738095Y-71523809D01*
X61928571Y-70952380D02*
X62023809Y-70952380D01*
X62119047Y-71000000D01*
X62166666Y-71047619D01*
X62214285Y-71142857D01*
X62261904Y-71333333D01*
X62261904Y-71571428D01*
X62214285Y-71761904D01*
X62166666Y-71857142D01*
X62119047Y-71904761D01*
X62023809Y-71952380D01*
X61928571Y-71952380D01*
X61833333Y-71904761D01*
X61785714Y-71857142D01*
X61738095Y-71761904D01*
X61690476Y-71571428D01*
X61690476Y-71333333D01*
X61738095Y-71142857D01*
X61785714Y-71047619D01*
X61833333Y-71000000D01*
X61928571Y-70952380D01*
X57135714Y-73852380D02*
X56564285Y-73852380D01*
X56850000Y-73852380D02*
X56850000Y-72852380D01*
X56754761Y-72995238D01*
X56659523Y-73090476D01*
X56564285Y-73138095D01*
X59785714Y-84952380D02*
X59785714Y-83952380D01*
X60023809Y-83952380D01*
X60166666Y-84000000D01*
X60261904Y-84095238D01*
X60309523Y-84190476D01*
X60357142Y-84380952D01*
X60357142Y-84523809D01*
X60309523Y-84714285D01*
X60261904Y-84809523D01*
X60166666Y-84904761D01*
X60023809Y-84952380D01*
X59785714Y-84952380D01*
X61214285Y-83952380D02*
X61023809Y-83952380D01*
X60928571Y-84000000D01*
X60880952Y-84047619D01*
X60785714Y-84190476D01*
X60738095Y-84380952D01*
X60738095Y-84761904D01*
X60785714Y-84857142D01*
X60833333Y-84904761D01*
X60928571Y-84952380D01*
X61119047Y-84952380D01*
X61214285Y-84904761D01*
X61261904Y-84857142D01*
X61309523Y-84761904D01*
X61309523Y-84523809D01*
X61261904Y-84428571D01*
X61214285Y-84380952D01*
X61119047Y-84333333D01*
X60928571Y-84333333D01*
X60833333Y-84380952D01*
X60785714Y-84428571D01*
X60738095Y-84523809D01*
X62261904Y-84952380D02*
X61690476Y-84952380D01*
X61976190Y-84952380D02*
X61976190Y-83952380D01*
X61880952Y-84095238D01*
X61785714Y-84190476D01*
X61690476Y-84238095D01*
X65435714Y-83052380D02*
X64864285Y-83052380D01*
X65150000Y-83052380D02*
X65150000Y-82052380D01*
X65054761Y-82195238D01*
X64959523Y-82290476D01*
X64864285Y-82338095D01*
X67785714Y-81952380D02*
X67785714Y-80952380D01*
X68023809Y-80952380D01*
X68166666Y-81000000D01*
X68261904Y-81095238D01*
X68309523Y-81190476D01*
X68357142Y-81380952D01*
X68357142Y-81523809D01*
X68309523Y-81714285D01*
X68261904Y-81809523D01*
X68166666Y-81904761D01*
X68023809Y-81952380D01*
X67785714Y-81952380D01*
X69214285Y-80952380D02*
X69023809Y-80952380D01*
X68928571Y-81000000D01*
X68880952Y-81047619D01*
X68785714Y-81190476D01*
X68738095Y-81380952D01*
X68738095Y-81761904D01*
X68785714Y-81857142D01*
X68833333Y-81904761D01*
X68928571Y-81952380D01*
X69119047Y-81952380D01*
X69214285Y-81904761D01*
X69261904Y-81857142D01*
X69309523Y-81761904D01*
X69309523Y-81523809D01*
X69261904Y-81428571D01*
X69214285Y-81380952D01*
X69119047Y-81333333D01*
X68928571Y-81333333D01*
X68833333Y-81380952D01*
X68785714Y-81428571D01*
X68738095Y-81523809D01*
X69690476Y-81047619D02*
X69738095Y-81000000D01*
X69833333Y-80952380D01*
X70071428Y-80952380D01*
X70166666Y-81000000D01*
X70214285Y-81047619D01*
X70261904Y-81142857D01*
X70261904Y-81238095D01*
X70214285Y-81380952D01*
X69642857Y-81952380D01*
X70261904Y-81952380D01*
X73435714Y-80052380D02*
X72864285Y-80052380D01*
X73150000Y-80052380D02*
X73150000Y-79052380D01*
X73054761Y-79195238D01*
X72959523Y-79290476D01*
X72864285Y-79338095D01*
X80785714Y-84952380D02*
X80785714Y-83952380D01*
X81023809Y-83952380D01*
X81166666Y-84000000D01*
X81261904Y-84095238D01*
X81309523Y-84190476D01*
X81357142Y-84380952D01*
X81357142Y-84523809D01*
X81309523Y-84714285D01*
X81261904Y-84809523D01*
X81166666Y-84904761D01*
X81023809Y-84952380D01*
X80785714Y-84952380D01*
X82214285Y-84285714D02*
X82214285Y-84952380D01*
X81976190Y-83904761D02*
X81738095Y-84619047D01*
X82357142Y-84619047D01*
X82642857Y-83952380D02*
X83261904Y-83952380D01*
X82928571Y-84333333D01*
X83071428Y-84333333D01*
X83166666Y-84380952D01*
X83214285Y-84428571D01*
X83261904Y-84523809D01*
X83261904Y-84761904D01*
X83214285Y-84857142D01*
X83166666Y-84904761D01*
X83071428Y-84952380D01*
X82785714Y-84952380D01*
X82690476Y-84904761D01*
X82642857Y-84857142D01*
X86435714Y-83052380D02*
X85864285Y-83052380D01*
X86150000Y-83052380D02*
X86150000Y-82052380D01*
X86054761Y-82195238D01*
X85959523Y-82290476D01*
X85864285Y-82338095D01*
X88785714Y-81952380D02*
X88785714Y-80952380D01*
X89023809Y-80952380D01*
X89166666Y-81000000D01*
X89261904Y-81095238D01*
X89309523Y-81190476D01*
X89357142Y-81380952D01*
X89357142Y-81523809D01*
X89309523Y-81714285D01*
X89261904Y-81809523D01*
X89166666Y-81904761D01*
X89023809Y-81952380D01*
X88785714Y-81952380D01*
X90214285Y-81285714D02*
X90214285Y-81952380D01*
X89976190Y-80904761D02*
X89738095Y-81619047D01*
X90357142Y-81619047D01*
X91166666Y-81285714D02*
X91166666Y-81952380D01*
X90928571Y-80904761D02*
X90690476Y-81619047D01*
X91309523Y-81619047D01*
X94435714Y-80052380D02*
X93864285Y-80052380D01*
X94150000Y-80052380D02*
X94150000Y-79052380D01*
X94054761Y-79195238D01*
X93959523Y-79290476D01*
X93864285Y-79338095D01*
X88785714Y-68952380D02*
X88785714Y-67952380D01*
X89023809Y-67952380D01*
X89166666Y-68000000D01*
X89261904Y-68095238D01*
X89309523Y-68190476D01*
X89357142Y-68380952D01*
X89357142Y-68523809D01*
X89309523Y-68714285D01*
X89261904Y-68809523D01*
X89166666Y-68904761D01*
X89023809Y-68952380D01*
X88785714Y-68952380D01*
X90214285Y-68285714D02*
X90214285Y-68952380D01*
X89976190Y-67904761D02*
X89738095Y-68619047D01*
X90357142Y-68619047D01*
X91214285Y-67952380D02*
X90738095Y-67952380D01*
X90690476Y-68428571D01*
X90738095Y-68380952D01*
X90833333Y-68333333D01*
X91071428Y-68333333D01*
X91166666Y-68380952D01*
X91214285Y-68428571D01*
X91261904Y-68523809D01*
X91261904Y-68761904D01*
X91214285Y-68857142D01*
X91166666Y-68904761D01*
X91071428Y-68952380D01*
X90833333Y-68952380D01*
X90738095Y-68904761D01*
X90690476Y-68857142D01*
X86135714Y-70852380D02*
X85564285Y-70852380D01*
X85850000Y-70852380D02*
X85850000Y-69852380D01*
X85754761Y-69995238D01*
X85659523Y-70090476D01*
X85564285Y-70138095D01*
X80785714Y-71952380D02*
X80785714Y-70952380D01*
X81023809Y-70952380D01*
X81166666Y-71000000D01*
X81261904Y-71095238D01*
X81309523Y-71190476D01*
X81357142Y-71380952D01*
X81357142Y-71523809D01*
X81309523Y-71714285D01*
X81261904Y-71809523D01*
X81166666Y-71904761D01*
X81023809Y-71952380D01*
X80785714Y-71952380D01*
X82214285Y-71285714D02*
X82214285Y-71952380D01*
X81976190Y-70904761D02*
X81738095Y-71619047D01*
X82357142Y-71619047D01*
X83166666Y-70952380D02*
X82976190Y-70952380D01*
X82880952Y-71000000D01*
X82833333Y-71047619D01*
X82738095Y-71190476D01*
X82690476Y-71380952D01*
X82690476Y-71761904D01*
X82738095Y-71857142D01*
X82785714Y-71904761D01*
X82880952Y-71952380D01*
X83071428Y-71952380D01*
X83166666Y-71904761D01*
X83214285Y-71857142D01*
X83261904Y-71761904D01*
X83261904Y-71523809D01*
X83214285Y-71428571D01*
X83166666Y-71380952D01*
X83071428Y-71333333D01*
X82880952Y-71333333D01*
X82785714Y-71380952D01*
X82738095Y-71428571D01*
X82690476Y-71523809D01*
X78135714Y-73852380D02*
X77564285Y-73852380D01*
X77850000Y-73852380D02*
X77850000Y-72852380D01*
X77754761Y-72995238D01*
X77659523Y-73090476D01*
X77564285Y-73138095D01*
X80785714Y-72952380D02*
X80785714Y-71952380D01*
X81023809Y-71952380D01*
X81166666Y-72000000D01*
X81261904Y-72095238D01*
X81309523Y-72190476D01*
X81357142Y-72380952D01*
X81357142Y-72523809D01*
X81309523Y-72714285D01*
X81261904Y-72809523D01*
X81166666Y-72904761D01*
X81023809Y-72952380D01*
X80785714Y-72952380D01*
X82214285Y-72285714D02*
X82214285Y-72952380D01*
X81976190Y-71904761D02*
X81738095Y-72619047D01*
X82357142Y-72619047D01*
X82642857Y-71952380D02*
X83309523Y-71952380D01*
X82880952Y-72952380D01*
X86435714Y-71052380D02*
X85864285Y-71052380D01*
X86150000Y-71052380D02*
X86150000Y-70052380D01*
X86054761Y-70195238D01*
X85959523Y-70290476D01*
X85864285Y-70338095D01*
X88785714Y-69952380D02*
X88785714Y-68952380D01*
X89023809Y-68952380D01*
X89166666Y-69000000D01*
X89261904Y-69095238D01*
X89309523Y-69190476D01*
X89357142Y-69380952D01*
X89357142Y-69523809D01*
X89309523Y-69714285D01*
X89261904Y-69809523D01*
X89166666Y-69904761D01*
X89023809Y-69952380D01*
X88785714Y-69952380D01*
X90214285Y-69285714D02*
X90214285Y-69952380D01*
X89976190Y-68904761D02*
X89738095Y-69619047D01*
X90357142Y-69619047D01*
X90880952Y-69380952D02*
X90785714Y-69333333D01*
X90738095Y-69285714D01*
X90690476Y-69190476D01*
X90690476Y-69142857D01*
X90738095Y-69047619D01*
X90785714Y-69000000D01*
X90880952Y-68952380D01*
X91071428Y-68952380D01*
X91166666Y-69000000D01*
X91214285Y-69047619D01*
X91261904Y-69142857D01*
X91261904Y-69190476D01*
X91214285Y-69285714D01*
X91166666Y-69333333D01*
X91071428Y-69380952D01*
X90880952Y-69380952D01*
X90785714Y-69428571D01*
X90738095Y-69476190D01*
X90690476Y-69571428D01*
X90690476Y-69761904D01*
X90738095Y-69857142D01*
X90785714Y-69904761D01*
X90880952Y-69952380D01*
X91071428Y-69952380D01*
X91166666Y-69904761D01*
X91214285Y-69857142D01*
X91261904Y-69761904D01*
X91261904Y-69571428D01*
X91214285Y-69476190D01*
X91166666Y-69428571D01*
X91071428Y-69380952D01*
X94435714Y-68052380D02*
X93864285Y-68052380D01*
X94150000Y-68052380D02*
X94150000Y-67052380D01*
X94054761Y-67195238D01*
X93959523Y-67290476D01*
X93864285Y-67338095D01*
X88785714Y-56952380D02*
X88785714Y-55952380D01*
X89023809Y-55952380D01*
X89166666Y-56000000D01*
X89261904Y-56095238D01*
X89309523Y-56190476D01*
X89357142Y-56380952D01*
X89357142Y-56523809D01*
X89309523Y-56714285D01*
X89261904Y-56809523D01*
X89166666Y-56904761D01*
X89023809Y-56952380D01*
X88785714Y-56952380D01*
X90214285Y-56285714D02*
X90214285Y-56952380D01*
X89976190Y-55904761D02*
X89738095Y-56619047D01*
X90357142Y-56619047D01*
X90785714Y-56952380D02*
X90976190Y-56952380D01*
X91071428Y-56904761D01*
X91119047Y-56857142D01*
X91214285Y-56714285D01*
X91261904Y-56523809D01*
X91261904Y-56142857D01*
X91214285Y-56047619D01*
X91166666Y-56000000D01*
X91071428Y-55952380D01*
X90880952Y-55952380D01*
X90785714Y-56000000D01*
X90738095Y-56047619D01*
X90690476Y-56142857D01*
X90690476Y-56380952D01*
X90738095Y-56476190D01*
X90785714Y-56523809D01*
X90880952Y-56571428D01*
X91071428Y-56571428D01*
X91166666Y-56523809D01*
X91214285Y-56476190D01*
X91261904Y-56380952D01*
X86135714Y-58852380D02*
X85564285Y-58852380D01*
X85850000Y-58852380D02*
X85850000Y-57852380D01*
X85754761Y-57995238D01*
X85659523Y-58090476D01*
X85564285Y-58138095D01*
X80785714Y-59952380D02*
X80785714Y-58952380D01*
X81023809Y-58952380D01*
X81166666Y-59000000D01*
X81261904Y-59095238D01*
X81309523Y-59190476D01*
X81357142Y-59380952D01*
X81357142Y-59523809D01*
X81309523Y-59714285D01*
X81261904Y-59809523D01*
X81166666Y-59904761D01*
X81023809Y-59952380D01*
X80785714Y-59952380D01*
X82261904Y-58952380D02*
X81785714Y-58952380D01*
X81738095Y-59428571D01*
X81785714Y-59380952D01*
X81880952Y-59333333D01*
X82119047Y-59333333D01*
X82214285Y-59380952D01*
X82261904Y-59428571D01*
X82309523Y-59523809D01*
X82309523Y-59761904D01*
X82261904Y-59857142D01*
X82214285Y-59904761D01*
X82119047Y-59952380D01*
X81880952Y-59952380D01*
X81785714Y-59904761D01*
X81738095Y-59857142D01*
X82928571Y-58952380D02*
X83023809Y-58952380D01*
X83119047Y-59000000D01*
X83166666Y-59047619D01*
X83214285Y-59142857D01*
X83261904Y-59333333D01*
X83261904Y-59571428D01*
X83214285Y-59761904D01*
X83166666Y-59857142D01*
X83119047Y-59904761D01*
X83023809Y-59952380D01*
X82928571Y-59952380D01*
X82833333Y-59904761D01*
X82785714Y-59857142D01*
X82738095Y-59761904D01*
X82690476Y-59571428D01*
X82690476Y-59333333D01*
X82738095Y-59142857D01*
X82785714Y-59047619D01*
X82833333Y-59000000D01*
X82928571Y-58952380D01*
X78135714Y-61852380D02*
X77564285Y-61852380D01*
X77850000Y-61852380D02*
X77850000Y-60852380D01*
X77754761Y-60995238D01*
X77659523Y-61090476D01*
X77564285Y-61138095D01*
X80785714Y-60952380D02*
X80785714Y-59952380D01*
X81023809Y-59952380D01*
X81166666Y-60000000D01*
X81261904Y-60095238D01*
X81309523Y-60190476D01*
X81357142Y-60380952D01*
X81357142Y-60523809D01*
X81309523Y-60714285D01*
X81261904Y-60809523D01*
X81166666Y-60904761D01*
X81023809Y-60952380D01*
X80785714Y-60952380D01*
X82261904Y-59952380D02*
X81785714Y-59952380D01*
X81738095Y-60428571D01*
X81785714Y-60380952D01*
X81880952Y-60333333D01*
X82119047Y-60333333D01*
X82214285Y-60380952D01*
X82261904Y-60428571D01*
X82309523Y-60523809D01*
X82309523Y-60761904D01*
X82261904Y-60857142D01*
X82214285Y-60904761D01*
X82119047Y-60952380D01*
X81880952Y-60952380D01*
X81785714Y-60904761D01*
X81738095Y-60857142D01*
X83261904Y-60952380D02*
X82690476Y-60952380D01*
X82976190Y-60952380D02*
X82976190Y-59952380D01*
X82880952Y-60095238D01*
X82785714Y-60190476D01*
X82690476Y-60238095D01*
X86435714Y-59052380D02*
X85864285Y-59052380D01*
X86150000Y-59052380D02*
X86150000Y-58052380D01*
X86054761Y-58195238D01*
X85959523Y-58290476D01*
X85864285Y-58338095D01*
X88785714Y-57952380D02*
X88785714Y-56952380D01*
X89023809Y-56952380D01*
X89166666Y-57000000D01*
X89261904Y-57095238D01*
X89309523Y-57190476D01*
X89357142Y-57380952D01*
X89357142Y-57523809D01*
X89309523Y-57714285D01*
X89261904Y-57809523D01*
X89166666Y-57904761D01*
X89023809Y-57952380D01*
X88785714Y-57952380D01*
X90261904Y-56952380D02*
X89785714Y-56952380D01*
X89738095Y-57428571D01*
X89785714Y-57380952D01*
X89880952Y-57333333D01*
X90119047Y-57333333D01*
X90214285Y-57380952D01*
X90261904Y-57428571D01*
X90309523Y-57523809D01*
X90309523Y-57761904D01*
X90261904Y-57857142D01*
X90214285Y-57904761D01*
X90119047Y-57952380D01*
X89880952Y-57952380D01*
X89785714Y-57904761D01*
X89738095Y-57857142D01*
X90690476Y-57047619D02*
X90738095Y-57000000D01*
X90833333Y-56952380D01*
X91071428Y-56952380D01*
X91166666Y-57000000D01*
X91214285Y-57047619D01*
X91261904Y-57142857D01*
X91261904Y-57238095D01*
X91214285Y-57380952D01*
X90642857Y-57952380D01*
X91261904Y-57952380D01*
X94435714Y-56052380D02*
X93864285Y-56052380D01*
X94150000Y-56052380D02*
X94150000Y-55052380D01*
X94054761Y-55195238D01*
X93959523Y-55290476D01*
X93864285Y-55338095D01*
X105785714Y-60952380D02*
X105785714Y-59952380D01*
X106023809Y-59952380D01*
X106166666Y-60000000D01*
X106261904Y-60095238D01*
X106309523Y-60190476D01*
X106357142Y-60380952D01*
X106357142Y-60523809D01*
X106309523Y-60714285D01*
X106261904Y-60809523D01*
X106166666Y-60904761D01*
X106023809Y-60952380D01*
X105785714Y-60952380D01*
X106690476Y-59952380D02*
X107309523Y-59952380D01*
X106976190Y-60333333D01*
X107119047Y-60333333D01*
X107214285Y-60380952D01*
X107261904Y-60428571D01*
X107309523Y-60523809D01*
X107309523Y-60761904D01*
X107261904Y-60857142D01*
X107214285Y-60904761D01*
X107119047Y-60952380D01*
X106833333Y-60952380D01*
X106738095Y-60904761D01*
X106690476Y-60857142D01*
X107642857Y-59952380D02*
X108261904Y-59952380D01*
X107928571Y-60333333D01*
X108071428Y-60333333D01*
X108166666Y-60380952D01*
X108214285Y-60428571D01*
X108261904Y-60523809D01*
X108261904Y-60761904D01*
X108214285Y-60857142D01*
X108166666Y-60904761D01*
X108071428Y-60952380D01*
X107785714Y-60952380D01*
X107690476Y-60904761D01*
X107642857Y-60857142D01*
X111435714Y-59052380D02*
X110864285Y-59052380D01*
X111150000Y-59052380D02*
X111150000Y-58052380D01*
X111054761Y-58195238D01*
X110959523Y-58290476D01*
X110864285Y-58338095D01*
X113785714Y-57952380D02*
X113785714Y-56952380D01*
X114023809Y-56952380D01*
X114166666Y-57000000D01*
X114261904Y-57095238D01*
X114309523Y-57190476D01*
X114357142Y-57380952D01*
X114357142Y-57523809D01*
X114309523Y-57714285D01*
X114261904Y-57809523D01*
X114166666Y-57904761D01*
X114023809Y-57952380D01*
X113785714Y-57952380D01*
X114690476Y-56952380D02*
X115309523Y-56952380D01*
X114976190Y-57333333D01*
X115119047Y-57333333D01*
X115214285Y-57380952D01*
X115261904Y-57428571D01*
X115309523Y-57523809D01*
X115309523Y-57761904D01*
X115261904Y-57857142D01*
X115214285Y-57904761D01*
X115119047Y-57952380D01*
X114833333Y-57952380D01*
X114738095Y-57904761D01*
X114690476Y-57857142D01*
X116166666Y-57285714D02*
X116166666Y-57952380D01*
X115928571Y-56904761D02*
X115690476Y-57619047D01*
X116309523Y-57619047D01*
X119435714Y-56052380D02*
X118864285Y-56052380D01*
X119150000Y-56052380D02*
X119150000Y-55052380D01*
X119054761Y-55195238D01*
X118959523Y-55290476D01*
X118864285Y-55338095D01*
X113785714Y-56952380D02*
X113785714Y-55952380D01*
X114023809Y-55952380D01*
X114166666Y-56000000D01*
X114261904Y-56095238D01*
X114309523Y-56190476D01*
X114357142Y-56380952D01*
X114357142Y-56523809D01*
X114309523Y-56714285D01*
X114261904Y-56809523D01*
X114166666Y-56904761D01*
X114023809Y-56952380D01*
X113785714Y-56952380D01*
X114690476Y-55952380D02*
X115309523Y-55952380D01*
X114976190Y-56333333D01*
X115119047Y-56333333D01*
X115214285Y-56380952D01*
X115261904Y-56428571D01*
X115309523Y-56523809D01*
X115309523Y-56761904D01*
X115261904Y-56857142D01*
X115214285Y-56904761D01*
X115119047Y-56952380D01*
X114833333Y-56952380D01*
X114738095Y-56904761D01*
X114690476Y-56857142D01*
X116214285Y-55952380D02*
X115738095Y-55952380D01*
X115690476Y-56428571D01*
X115738095Y-56380952D01*
X115833333Y-56333333D01*
X116071428Y-56333333D01*
X116166666Y-56380952D01*
X116214285Y-56428571D01*
X116261904Y-56523809D01*
X116261904Y-56761904D01*
X116214285Y-56857142D01*
X116166666Y-56904761D01*
X116071428Y-56952380D01*
X115833333Y-56952380D01*
X115738095Y-56904761D01*
X115690476Y-56857142D01*
X111135714Y-58852380D02*
X110564285Y-58852380D01*
X110850000Y-58852380D02*
X110850000Y-57852380D01*
X110754761Y-57995238D01*
X110659523Y-58090476D01*
X110564285Y-58138095D01*
X105785714Y-59952380D02*
X105785714Y-58952380D01*
X106023809Y-58952380D01*
X106166666Y-59000000D01*
X106261904Y-59095238D01*
X106309523Y-59190476D01*
X106357142Y-59380952D01*
X106357142Y-59523809D01*
X106309523Y-59714285D01*
X106261904Y-59809523D01*
X106166666Y-59904761D01*
X106023809Y-59952380D01*
X105785714Y-59952380D01*
X106690476Y-58952380D02*
X107309523Y-58952380D01*
X106976190Y-59333333D01*
X107119047Y-59333333D01*
X107214285Y-59380952D01*
X107261904Y-59428571D01*
X107309523Y-59523809D01*
X107309523Y-59761904D01*
X107261904Y-59857142D01*
X107214285Y-59904761D01*
X107119047Y-59952380D01*
X106833333Y-59952380D01*
X106738095Y-59904761D01*
X106690476Y-59857142D01*
X108166666Y-58952380D02*
X107976190Y-58952380D01*
X107880952Y-59000000D01*
X107833333Y-59047619D01*
X107738095Y-59190476D01*
X107690476Y-59380952D01*
X107690476Y-59761904D01*
X107738095Y-59857142D01*
X107785714Y-59904761D01*
X107880952Y-59952380D01*
X108071428Y-59952380D01*
X108166666Y-59904761D01*
X108214285Y-59857142D01*
X108261904Y-59761904D01*
X108261904Y-59523809D01*
X108214285Y-59428571D01*
X108166666Y-59380952D01*
X108071428Y-59333333D01*
X107880952Y-59333333D01*
X107785714Y-59380952D01*
X107738095Y-59428571D01*
X107690476Y-59523809D01*
X103135714Y-61852380D02*
X102564285Y-61852380D01*
X102850000Y-61852380D02*
X102850000Y-60852380D01*
X102754761Y-60995238D01*
X102659523Y-61090476D01*
X102564285Y-61138095D01*
X105785714Y-72952380D02*
X105785714Y-71952380D01*
X106023809Y-71952380D01*
X106166666Y-72000000D01*
X106261904Y-72095238D01*
X106309523Y-72190476D01*
X106357142Y-72380952D01*
X106357142Y-72523809D01*
X106309523Y-72714285D01*
X106261904Y-72809523D01*
X106166666Y-72904761D01*
X106023809Y-72952380D01*
X105785714Y-72952380D01*
X106690476Y-71952380D02*
X107309523Y-71952380D01*
X106976190Y-72333333D01*
X107119047Y-72333333D01*
X107214285Y-72380952D01*
X107261904Y-72428571D01*
X107309523Y-72523809D01*
X107309523Y-72761904D01*
X107261904Y-72857142D01*
X107214285Y-72904761D01*
X107119047Y-72952380D01*
X106833333Y-72952380D01*
X106738095Y-72904761D01*
X106690476Y-72857142D01*
X107642857Y-71952380D02*
X108309523Y-71952380D01*
X107880952Y-72952380D01*
X111435714Y-71052380D02*
X110864285Y-71052380D01*
X111150000Y-71052380D02*
X111150000Y-70052380D01*
X111054761Y-70195238D01*
X110959523Y-70290476D01*
X110864285Y-70338095D01*
X113785714Y-69952380D02*
X113785714Y-68952380D01*
X114023809Y-68952380D01*
X114166666Y-69000000D01*
X114261904Y-69095238D01*
X114309523Y-69190476D01*
X114357142Y-69380952D01*
X114357142Y-69523809D01*
X114309523Y-69714285D01*
X114261904Y-69809523D01*
X114166666Y-69904761D01*
X114023809Y-69952380D01*
X113785714Y-69952380D01*
X114690476Y-68952380D02*
X115309523Y-68952380D01*
X114976190Y-69333333D01*
X115119047Y-69333333D01*
X115214285Y-69380952D01*
X115261904Y-69428571D01*
X115309523Y-69523809D01*
X115309523Y-69761904D01*
X115261904Y-69857142D01*
X115214285Y-69904761D01*
X115119047Y-69952380D01*
X114833333Y-69952380D01*
X114738095Y-69904761D01*
X114690476Y-69857142D01*
X115880952Y-69380952D02*
X115785714Y-69333333D01*
X115738095Y-69285714D01*
X115690476Y-69190476D01*
X115690476Y-69142857D01*
X115738095Y-69047619D01*
X115785714Y-69000000D01*
X115880952Y-68952380D01*
X116071428Y-68952380D01*
X116166666Y-69000000D01*
X116214285Y-69047619D01*
X116261904Y-69142857D01*
X116261904Y-69190476D01*
X116214285Y-69285714D01*
X116166666Y-69333333D01*
X116071428Y-69380952D01*
X115880952Y-69380952D01*
X115785714Y-69428571D01*
X115738095Y-69476190D01*
X115690476Y-69571428D01*
X115690476Y-69761904D01*
X115738095Y-69857142D01*
X115785714Y-69904761D01*
X115880952Y-69952380D01*
X116071428Y-69952380D01*
X116166666Y-69904761D01*
X116214285Y-69857142D01*
X116261904Y-69761904D01*
X116261904Y-69571428D01*
X116214285Y-69476190D01*
X116166666Y-69428571D01*
X116071428Y-69380952D01*
X119435714Y-68052380D02*
X118864285Y-68052380D01*
X119150000Y-68052380D02*
X119150000Y-67052380D01*
X119054761Y-67195238D01*
X118959523Y-67290476D01*
X118864285Y-67338095D01*
X113785714Y-68952380D02*
X113785714Y-67952380D01*
X114023809Y-67952380D01*
X114166666Y-68000000D01*
X114261904Y-68095238D01*
X114309523Y-68190476D01*
X114357142Y-68380952D01*
X114357142Y-68523809D01*
X114309523Y-68714285D01*
X114261904Y-68809523D01*
X114166666Y-68904761D01*
X114023809Y-68952380D01*
X113785714Y-68952380D01*
X114690476Y-67952380D02*
X115309523Y-67952380D01*
X114976190Y-68333333D01*
X115119047Y-68333333D01*
X115214285Y-68380952D01*
X115261904Y-68428571D01*
X115309523Y-68523809D01*
X115309523Y-68761904D01*
X115261904Y-68857142D01*
X115214285Y-68904761D01*
X115119047Y-68952380D01*
X114833333Y-68952380D01*
X114738095Y-68904761D01*
X114690476Y-68857142D01*
X115785714Y-68952380D02*
X115976190Y-68952380D01*
X116071428Y-68904761D01*
X116119047Y-68857142D01*
X116214285Y-68714285D01*
X116261904Y-68523809D01*
X116261904Y-68142857D01*
X116214285Y-68047619D01*
X116166666Y-68000000D01*
X116071428Y-67952380D01*
X115880952Y-67952380D01*
X115785714Y-68000000D01*
X115738095Y-68047619D01*
X115690476Y-68142857D01*
X115690476Y-68380952D01*
X115738095Y-68476190D01*
X115785714Y-68523809D01*
X115880952Y-68571428D01*
X116071428Y-68571428D01*
X116166666Y-68523809D01*
X116214285Y-68476190D01*
X116261904Y-68380952D01*
X111135714Y-70852380D02*
X110564285Y-70852380D01*
X110850000Y-70852380D02*
X110850000Y-69852380D01*
X110754761Y-69995238D01*
X110659523Y-70090476D01*
X110564285Y-70138095D01*
X105785714Y-71952380D02*
X105785714Y-70952380D01*
X106023809Y-70952380D01*
X106166666Y-71000000D01*
X106261904Y-71095238D01*
X106309523Y-71190476D01*
X106357142Y-71380952D01*
X106357142Y-71523809D01*
X106309523Y-71714285D01*
X106261904Y-71809523D01*
X106166666Y-71904761D01*
X106023809Y-71952380D01*
X105785714Y-71952380D01*
X107214285Y-71285714D02*
X107214285Y-71952380D01*
X106976190Y-70904761D02*
X106738095Y-71619047D01*
X107357142Y-71619047D01*
X107928571Y-70952380D02*
X108023809Y-70952380D01*
X108119047Y-71000000D01*
X108166666Y-71047619D01*
X108214285Y-71142857D01*
X108261904Y-71333333D01*
X108261904Y-71571428D01*
X108214285Y-71761904D01*
X108166666Y-71857142D01*
X108119047Y-71904761D01*
X108023809Y-71952380D01*
X107928571Y-71952380D01*
X107833333Y-71904761D01*
X107785714Y-71857142D01*
X107738095Y-71761904D01*
X107690476Y-71571428D01*
X107690476Y-71333333D01*
X107738095Y-71142857D01*
X107785714Y-71047619D01*
X107833333Y-71000000D01*
X107928571Y-70952380D01*
X103135714Y-73852380D02*
X102564285Y-73852380D01*
X102850000Y-73852380D02*
X102850000Y-72852380D01*
X102754761Y-72995238D01*
X102659523Y-73090476D01*
X102564285Y-73138095D01*
X99433214Y-81414880D02*
X99433214Y-80414880D01*
X99671309Y-80414880D01*
X99814166Y-80462500D01*
X99909404Y-80557738D01*
X99957023Y-80652976D01*
X100004642Y-80843452D01*
X100004642Y-80986309D01*
X99957023Y-81176785D01*
X99909404Y-81272023D01*
X99814166Y-81367261D01*
X99671309Y-81414880D01*
X99433214Y-81414880D01*
X100861785Y-80748214D02*
X100861785Y-81414880D01*
X100623690Y-80367261D02*
X100385595Y-81081547D01*
X101004642Y-81081547D01*
X101909404Y-81414880D02*
X101337976Y-81414880D01*
X101623690Y-81414880D02*
X101623690Y-80414880D01*
X101528452Y-80557738D01*
X101433214Y-80652976D01*
X101337976Y-80700595D01*
X111435714Y-83052380D02*
X110864285Y-83052380D01*
X111150000Y-83052380D02*
X111150000Y-82052380D01*
X111054761Y-82195238D01*
X110959523Y-82290476D01*
X110864285Y-82338095D01*
X113785714Y-81952380D02*
X113785714Y-80952380D01*
X114023809Y-80952380D01*
X114166666Y-81000000D01*
X114261904Y-81095238D01*
X114309523Y-81190476D01*
X114357142Y-81380952D01*
X114357142Y-81523809D01*
X114309523Y-81714285D01*
X114261904Y-81809523D01*
X114166666Y-81904761D01*
X114023809Y-81952380D01*
X113785714Y-81952380D01*
X115214285Y-81285714D02*
X115214285Y-81952380D01*
X114976190Y-80904761D02*
X114738095Y-81619047D01*
X115357142Y-81619047D01*
X115690476Y-81047619D02*
X115738095Y-81000000D01*
X115833333Y-80952380D01*
X116071428Y-80952380D01*
X116166666Y-81000000D01*
X116214285Y-81047619D01*
X116261904Y-81142857D01*
X116261904Y-81238095D01*
X116214285Y-81380952D01*
X115642857Y-81952380D01*
X116261904Y-81952380D01*
X119435714Y-80052380D02*
X118864285Y-80052380D01*
X119150000Y-80052380D02*
X119150000Y-79052380D01*
X119054761Y-79195238D01*
X118959523Y-79290476D01*
X118864285Y-79338095D01*
X126785714Y-84952380D02*
X126785714Y-83952380D01*
X127023809Y-83952380D01*
X127166666Y-84000000D01*
X127261904Y-84095238D01*
X127309523Y-84190476D01*
X127357142Y-84380952D01*
X127357142Y-84523809D01*
X127309523Y-84714285D01*
X127261904Y-84809523D01*
X127166666Y-84904761D01*
X127023809Y-84952380D01*
X126785714Y-84952380D01*
X127738095Y-84047619D02*
X127785714Y-84000000D01*
X127880952Y-83952380D01*
X128119047Y-83952380D01*
X128214285Y-84000000D01*
X128261904Y-84047619D01*
X128309523Y-84142857D01*
X128309523Y-84238095D01*
X128261904Y-84380952D01*
X127690476Y-84952380D01*
X128309523Y-84952380D01*
X128642857Y-83952380D02*
X129261904Y-83952380D01*
X128928571Y-84333333D01*
X129071428Y-84333333D01*
X129166666Y-84380952D01*
X129214285Y-84428571D01*
X129261904Y-84523809D01*
X129261904Y-84761904D01*
X129214285Y-84857142D01*
X129166666Y-84904761D01*
X129071428Y-84952380D01*
X128785714Y-84952380D01*
X128690476Y-84904761D01*
X128642857Y-84857142D01*
X132435714Y-83052380D02*
X131864285Y-83052380D01*
X132150000Y-83052380D02*
X132150000Y-82052380D01*
X132054761Y-82195238D01*
X131959523Y-82290476D01*
X131864285Y-82338095D01*
X134785714Y-81952380D02*
X134785714Y-80952380D01*
X135023809Y-80952380D01*
X135166666Y-81000000D01*
X135261904Y-81095238D01*
X135309523Y-81190476D01*
X135357142Y-81380952D01*
X135357142Y-81523809D01*
X135309523Y-81714285D01*
X135261904Y-81809523D01*
X135166666Y-81904761D01*
X135023809Y-81952380D01*
X134785714Y-81952380D01*
X135738095Y-81047619D02*
X135785714Y-81000000D01*
X135880952Y-80952380D01*
X136119047Y-80952380D01*
X136214285Y-81000000D01*
X136261904Y-81047619D01*
X136309523Y-81142857D01*
X136309523Y-81238095D01*
X136261904Y-81380952D01*
X135690476Y-81952380D01*
X136309523Y-81952380D01*
X137166666Y-81285714D02*
X137166666Y-81952380D01*
X136928571Y-80904761D02*
X136690476Y-81619047D01*
X137309523Y-81619047D01*
X140435714Y-80052380D02*
X139864285Y-80052380D01*
X140150000Y-80052380D02*
X140150000Y-79052380D01*
X140054761Y-79195238D01*
X139959523Y-79290476D01*
X139864285Y-79338095D01*
X134785714Y-68952380D02*
X134785714Y-67952380D01*
X135023809Y-67952380D01*
X135166666Y-68000000D01*
X135261904Y-68095238D01*
X135309523Y-68190476D01*
X135357142Y-68380952D01*
X135357142Y-68523809D01*
X135309523Y-68714285D01*
X135261904Y-68809523D01*
X135166666Y-68904761D01*
X135023809Y-68952380D01*
X134785714Y-68952380D01*
X135738095Y-68047619D02*
X135785714Y-68000000D01*
X135880952Y-67952380D01*
X136119047Y-67952380D01*
X136214285Y-68000000D01*
X136261904Y-68047619D01*
X136309523Y-68142857D01*
X136309523Y-68238095D01*
X136261904Y-68380952D01*
X135690476Y-68952380D01*
X136309523Y-68952380D01*
X137214285Y-67952380D02*
X136738095Y-67952380D01*
X136690476Y-68428571D01*
X136738095Y-68380952D01*
X136833333Y-68333333D01*
X137071428Y-68333333D01*
X137166666Y-68380952D01*
X137214285Y-68428571D01*
X137261904Y-68523809D01*
X137261904Y-68761904D01*
X137214285Y-68857142D01*
X137166666Y-68904761D01*
X137071428Y-68952380D01*
X136833333Y-68952380D01*
X136738095Y-68904761D01*
X136690476Y-68857142D01*
X132135714Y-70852380D02*
X131564285Y-70852380D01*
X131850000Y-70852380D02*
X131850000Y-69852380D01*
X131754761Y-69995238D01*
X131659523Y-70090476D01*
X131564285Y-70138095D01*
X126785714Y-71952380D02*
X126785714Y-70952380D01*
X127023809Y-70952380D01*
X127166666Y-71000000D01*
X127261904Y-71095238D01*
X127309523Y-71190476D01*
X127357142Y-71380952D01*
X127357142Y-71523809D01*
X127309523Y-71714285D01*
X127261904Y-71809523D01*
X127166666Y-71904761D01*
X127023809Y-71952380D01*
X126785714Y-71952380D01*
X127738095Y-71047619D02*
X127785714Y-71000000D01*
X127880952Y-70952380D01*
X128119047Y-70952380D01*
X128214285Y-71000000D01*
X128261904Y-71047619D01*
X128309523Y-71142857D01*
X128309523Y-71238095D01*
X128261904Y-71380952D01*
X127690476Y-71952380D01*
X128309523Y-71952380D01*
X129166666Y-70952380D02*
X128976190Y-70952380D01*
X128880952Y-71000000D01*
X128833333Y-71047619D01*
X128738095Y-71190476D01*
X128690476Y-71380952D01*
X128690476Y-71761904D01*
X128738095Y-71857142D01*
X128785714Y-71904761D01*
X128880952Y-71952380D01*
X129071428Y-71952380D01*
X129166666Y-71904761D01*
X129214285Y-71857142D01*
X129261904Y-71761904D01*
X129261904Y-71523809D01*
X129214285Y-71428571D01*
X129166666Y-71380952D01*
X129071428Y-71333333D01*
X128880952Y-71333333D01*
X128785714Y-71380952D01*
X128738095Y-71428571D01*
X128690476Y-71523809D01*
X124135714Y-73852380D02*
X123564285Y-73852380D01*
X123850000Y-73852380D02*
X123850000Y-72852380D01*
X123754761Y-72995238D01*
X123659523Y-73090476D01*
X123564285Y-73138095D01*
X126785714Y-72952380D02*
X126785714Y-71952380D01*
X127023809Y-71952380D01*
X127166666Y-72000000D01*
X127261904Y-72095238D01*
X127309523Y-72190476D01*
X127357142Y-72380952D01*
X127357142Y-72523809D01*
X127309523Y-72714285D01*
X127261904Y-72809523D01*
X127166666Y-72904761D01*
X127023809Y-72952380D01*
X126785714Y-72952380D01*
X127738095Y-72047619D02*
X127785714Y-72000000D01*
X127880952Y-71952380D01*
X128119047Y-71952380D01*
X128214285Y-72000000D01*
X128261904Y-72047619D01*
X128309523Y-72142857D01*
X128309523Y-72238095D01*
X128261904Y-72380952D01*
X127690476Y-72952380D01*
X128309523Y-72952380D01*
X128642857Y-71952380D02*
X129309523Y-71952380D01*
X128880952Y-72952380D01*
X132435714Y-71052380D02*
X131864285Y-71052380D01*
X132150000Y-71052380D02*
X132150000Y-70052380D01*
X132054761Y-70195238D01*
X131959523Y-70290476D01*
X131864285Y-70338095D01*
X134785714Y-69952380D02*
X134785714Y-68952380D01*
X135023809Y-68952380D01*
X135166666Y-69000000D01*
X135261904Y-69095238D01*
X135309523Y-69190476D01*
X135357142Y-69380952D01*
X135357142Y-69523809D01*
X135309523Y-69714285D01*
X135261904Y-69809523D01*
X135166666Y-69904761D01*
X135023809Y-69952380D01*
X134785714Y-69952380D01*
X135738095Y-69047619D02*
X135785714Y-69000000D01*
X135880952Y-68952380D01*
X136119047Y-68952380D01*
X136214285Y-69000000D01*
X136261904Y-69047619D01*
X136309523Y-69142857D01*
X136309523Y-69238095D01*
X136261904Y-69380952D01*
X135690476Y-69952380D01*
X136309523Y-69952380D01*
X136880952Y-69380952D02*
X136785714Y-69333333D01*
X136738095Y-69285714D01*
X136690476Y-69190476D01*
X136690476Y-69142857D01*
X136738095Y-69047619D01*
X136785714Y-69000000D01*
X136880952Y-68952380D01*
X137071428Y-68952380D01*
X137166666Y-69000000D01*
X137214285Y-69047619D01*
X137261904Y-69142857D01*
X137261904Y-69190476D01*
X137214285Y-69285714D01*
X137166666Y-69333333D01*
X137071428Y-69380952D01*
X136880952Y-69380952D01*
X136785714Y-69428571D01*
X136738095Y-69476190D01*
X136690476Y-69571428D01*
X136690476Y-69761904D01*
X136738095Y-69857142D01*
X136785714Y-69904761D01*
X136880952Y-69952380D01*
X137071428Y-69952380D01*
X137166666Y-69904761D01*
X137214285Y-69857142D01*
X137261904Y-69761904D01*
X137261904Y-69571428D01*
X137214285Y-69476190D01*
X137166666Y-69428571D01*
X137071428Y-69380952D01*
X140435714Y-68052380D02*
X139864285Y-68052380D01*
X140150000Y-68052380D02*
X140150000Y-67052380D01*
X140054761Y-67195238D01*
X139959523Y-67290476D01*
X139864285Y-67338095D01*
X134785714Y-56952380D02*
X134785714Y-55952380D01*
X135023809Y-55952380D01*
X135166666Y-56000000D01*
X135261904Y-56095238D01*
X135309523Y-56190476D01*
X135357142Y-56380952D01*
X135357142Y-56523809D01*
X135309523Y-56714285D01*
X135261904Y-56809523D01*
X135166666Y-56904761D01*
X135023809Y-56952380D01*
X134785714Y-56952380D01*
X135738095Y-56047619D02*
X135785714Y-56000000D01*
X135880952Y-55952380D01*
X136119047Y-55952380D01*
X136214285Y-56000000D01*
X136261904Y-56047619D01*
X136309523Y-56142857D01*
X136309523Y-56238095D01*
X136261904Y-56380952D01*
X135690476Y-56952380D01*
X136309523Y-56952380D01*
X136785714Y-56952380D02*
X136976190Y-56952380D01*
X137071428Y-56904761D01*
X137119047Y-56857142D01*
X137214285Y-56714285D01*
X137261904Y-56523809D01*
X137261904Y-56142857D01*
X137214285Y-56047619D01*
X137166666Y-56000000D01*
X137071428Y-55952380D01*
X136880952Y-55952380D01*
X136785714Y-56000000D01*
X136738095Y-56047619D01*
X136690476Y-56142857D01*
X136690476Y-56380952D01*
X136738095Y-56476190D01*
X136785714Y-56523809D01*
X136880952Y-56571428D01*
X137071428Y-56571428D01*
X137166666Y-56523809D01*
X137214285Y-56476190D01*
X137261904Y-56380952D01*
X132135714Y-58852380D02*
X131564285Y-58852380D01*
X131850000Y-58852380D02*
X131850000Y-57852380D01*
X131754761Y-57995238D01*
X131659523Y-58090476D01*
X131564285Y-58138095D01*
X126785714Y-59952380D02*
X126785714Y-58952380D01*
X127023809Y-58952380D01*
X127166666Y-59000000D01*
X127261904Y-59095238D01*
X127309523Y-59190476D01*
X127357142Y-59380952D01*
X127357142Y-59523809D01*
X127309523Y-59714285D01*
X127261904Y-59809523D01*
X127166666Y-59904761D01*
X127023809Y-59952380D01*
X126785714Y-59952380D01*
X127690476Y-58952380D02*
X128309523Y-58952380D01*
X127976190Y-59333333D01*
X128119047Y-59333333D01*
X128214285Y-59380952D01*
X128261904Y-59428571D01*
X128309523Y-59523809D01*
X128309523Y-59761904D01*
X128261904Y-59857142D01*
X128214285Y-59904761D01*
X128119047Y-59952380D01*
X127833333Y-59952380D01*
X127738095Y-59904761D01*
X127690476Y-59857142D01*
X128928571Y-58952380D02*
X129023809Y-58952380D01*
X129119047Y-59000000D01*
X129166666Y-59047619D01*
X129214285Y-59142857D01*
X129261904Y-59333333D01*
X129261904Y-59571428D01*
X129214285Y-59761904D01*
X129166666Y-59857142D01*
X129119047Y-59904761D01*
X129023809Y-59952380D01*
X128928571Y-59952380D01*
X128833333Y-59904761D01*
X128785714Y-59857142D01*
X128738095Y-59761904D01*
X128690476Y-59571428D01*
X128690476Y-59333333D01*
X128738095Y-59142857D01*
X128785714Y-59047619D01*
X128833333Y-59000000D01*
X128928571Y-58952380D01*
X124135714Y-61852380D02*
X123564285Y-61852380D01*
X123850000Y-61852380D02*
X123850000Y-60852380D01*
X123754761Y-60995238D01*
X123659523Y-61090476D01*
X123564285Y-61138095D01*
X126785714Y-60952380D02*
X126785714Y-59952380D01*
X127023809Y-59952380D01*
X127166666Y-60000000D01*
X127261904Y-60095238D01*
X127309523Y-60190476D01*
X127357142Y-60380952D01*
X127357142Y-60523809D01*
X127309523Y-60714285D01*
X127261904Y-60809523D01*
X127166666Y-60904761D01*
X127023809Y-60952380D01*
X126785714Y-60952380D01*
X127690476Y-59952380D02*
X128309523Y-59952380D01*
X127976190Y-60333333D01*
X128119047Y-60333333D01*
X128214285Y-60380952D01*
X128261904Y-60428571D01*
X128309523Y-60523809D01*
X128309523Y-60761904D01*
X128261904Y-60857142D01*
X128214285Y-60904761D01*
X128119047Y-60952380D01*
X127833333Y-60952380D01*
X127738095Y-60904761D01*
X127690476Y-60857142D01*
X129261904Y-60952380D02*
X128690476Y-60952380D01*
X128976190Y-60952380D02*
X128976190Y-59952380D01*
X128880952Y-60095238D01*
X128785714Y-60190476D01*
X128690476Y-60238095D01*
X132435714Y-59052380D02*
X131864285Y-59052380D01*
X132150000Y-59052380D02*
X132150000Y-58052380D01*
X132054761Y-58195238D01*
X131959523Y-58290476D01*
X131864285Y-58338095D01*
X134785714Y-57952380D02*
X134785714Y-56952380D01*
X135023809Y-56952380D01*
X135166666Y-57000000D01*
X135261904Y-57095238D01*
X135309523Y-57190476D01*
X135357142Y-57380952D01*
X135357142Y-57523809D01*
X135309523Y-57714285D01*
X135261904Y-57809523D01*
X135166666Y-57904761D01*
X135023809Y-57952380D01*
X134785714Y-57952380D01*
X135690476Y-56952380D02*
X136309523Y-56952380D01*
X135976190Y-57333333D01*
X136119047Y-57333333D01*
X136214285Y-57380952D01*
X136261904Y-57428571D01*
X136309523Y-57523809D01*
X136309523Y-57761904D01*
X136261904Y-57857142D01*
X136214285Y-57904761D01*
X136119047Y-57952380D01*
X135833333Y-57952380D01*
X135738095Y-57904761D01*
X135690476Y-57857142D01*
X136690476Y-57047619D02*
X136738095Y-57000000D01*
X136833333Y-56952380D01*
X137071428Y-56952380D01*
X137166666Y-57000000D01*
X137214285Y-57047619D01*
X137261904Y-57142857D01*
X137261904Y-57238095D01*
X137214285Y-57380952D01*
X136642857Y-57952380D01*
X137261904Y-57952380D01*
X140435714Y-56052380D02*
X139864285Y-56052380D01*
X140150000Y-56052380D02*
X140150000Y-55052380D01*
X140054761Y-55195238D01*
X139959523Y-55290476D01*
X139864285Y-55338095D01*
X151785714Y-60952380D02*
X151785714Y-59952380D01*
X152023809Y-59952380D01*
X152166666Y-60000000D01*
X152261904Y-60095238D01*
X152309523Y-60190476D01*
X152357142Y-60380952D01*
X152357142Y-60523809D01*
X152309523Y-60714285D01*
X152261904Y-60809523D01*
X152166666Y-60904761D01*
X152023809Y-60952380D01*
X151785714Y-60952380D01*
X153309523Y-60952380D02*
X152738095Y-60952380D01*
X153023809Y-60952380D02*
X153023809Y-59952380D01*
X152928571Y-60095238D01*
X152833333Y-60190476D01*
X152738095Y-60238095D01*
X153642857Y-59952380D02*
X154261904Y-59952380D01*
X153928571Y-60333333D01*
X154071428Y-60333333D01*
X154166666Y-60380952D01*
X154214285Y-60428571D01*
X154261904Y-60523809D01*
X154261904Y-60761904D01*
X154214285Y-60857142D01*
X154166666Y-60904761D01*
X154071428Y-60952380D01*
X153785714Y-60952380D01*
X153690476Y-60904761D01*
X153642857Y-60857142D01*
X157435714Y-59052380D02*
X156864285Y-59052380D01*
X157150000Y-59052380D02*
X157150000Y-58052380D01*
X157054761Y-58195238D01*
X156959523Y-58290476D01*
X156864285Y-58338095D01*
X159785714Y-57952380D02*
X159785714Y-56952380D01*
X160023809Y-56952380D01*
X160166666Y-57000000D01*
X160261904Y-57095238D01*
X160309523Y-57190476D01*
X160357142Y-57380952D01*
X160357142Y-57523809D01*
X160309523Y-57714285D01*
X160261904Y-57809523D01*
X160166666Y-57904761D01*
X160023809Y-57952380D01*
X159785714Y-57952380D01*
X161309523Y-57952380D02*
X160738095Y-57952380D01*
X161023809Y-57952380D02*
X161023809Y-56952380D01*
X160928571Y-57095238D01*
X160833333Y-57190476D01*
X160738095Y-57238095D01*
X162166666Y-57285714D02*
X162166666Y-57952380D01*
X161928571Y-56904761D02*
X161690476Y-57619047D01*
X162309523Y-57619047D01*
X165435714Y-56052380D02*
X164864285Y-56052380D01*
X165150000Y-56052380D02*
X165150000Y-55052380D01*
X165054761Y-55195238D01*
X164959523Y-55290476D01*
X164864285Y-55338095D01*
X159785714Y-56952380D02*
X159785714Y-55952380D01*
X160023809Y-55952380D01*
X160166666Y-56000000D01*
X160261904Y-56095238D01*
X160309523Y-56190476D01*
X160357142Y-56380952D01*
X160357142Y-56523809D01*
X160309523Y-56714285D01*
X160261904Y-56809523D01*
X160166666Y-56904761D01*
X160023809Y-56952380D01*
X159785714Y-56952380D01*
X161309523Y-56952380D02*
X160738095Y-56952380D01*
X161023809Y-56952380D02*
X161023809Y-55952380D01*
X160928571Y-56095238D01*
X160833333Y-56190476D01*
X160738095Y-56238095D01*
X162214285Y-55952380D02*
X161738095Y-55952380D01*
X161690476Y-56428571D01*
X161738095Y-56380952D01*
X161833333Y-56333333D01*
X162071428Y-56333333D01*
X162166666Y-56380952D01*
X162214285Y-56428571D01*
X162261904Y-56523809D01*
X162261904Y-56761904D01*
X162214285Y-56857142D01*
X162166666Y-56904761D01*
X162071428Y-56952380D01*
X161833333Y-56952380D01*
X161738095Y-56904761D01*
X161690476Y-56857142D01*
X157135714Y-58852380D02*
X156564285Y-58852380D01*
X156850000Y-58852380D02*
X156850000Y-57852380D01*
X156754761Y-57995238D01*
X156659523Y-58090476D01*
X156564285Y-58138095D01*
X151785714Y-59952380D02*
X151785714Y-58952380D01*
X152023809Y-58952380D01*
X152166666Y-59000000D01*
X152261904Y-59095238D01*
X152309523Y-59190476D01*
X152357142Y-59380952D01*
X152357142Y-59523809D01*
X152309523Y-59714285D01*
X152261904Y-59809523D01*
X152166666Y-59904761D01*
X152023809Y-59952380D01*
X151785714Y-59952380D01*
X153309523Y-59952380D02*
X152738095Y-59952380D01*
X153023809Y-59952380D02*
X153023809Y-58952380D01*
X152928571Y-59095238D01*
X152833333Y-59190476D01*
X152738095Y-59238095D01*
X154166666Y-58952380D02*
X153976190Y-58952380D01*
X153880952Y-59000000D01*
X153833333Y-59047619D01*
X153738095Y-59190476D01*
X153690476Y-59380952D01*
X153690476Y-59761904D01*
X153738095Y-59857142D01*
X153785714Y-59904761D01*
X153880952Y-59952380D01*
X154071428Y-59952380D01*
X154166666Y-59904761D01*
X154214285Y-59857142D01*
X154261904Y-59761904D01*
X154261904Y-59523809D01*
X154214285Y-59428571D01*
X154166666Y-59380952D01*
X154071428Y-59333333D01*
X153880952Y-59333333D01*
X153785714Y-59380952D01*
X153738095Y-59428571D01*
X153690476Y-59523809D01*
X149135714Y-61852380D02*
X148564285Y-61852380D01*
X148850000Y-61852380D02*
X148850000Y-60852380D01*
X148754761Y-60995238D01*
X148659523Y-61090476D01*
X148564285Y-61138095D01*
X151785714Y-72952380D02*
X151785714Y-71952380D01*
X152023809Y-71952380D01*
X152166666Y-72000000D01*
X152261904Y-72095238D01*
X152309523Y-72190476D01*
X152357142Y-72380952D01*
X152357142Y-72523809D01*
X152309523Y-72714285D01*
X152261904Y-72809523D01*
X152166666Y-72904761D01*
X152023809Y-72952380D01*
X151785714Y-72952380D01*
X153309523Y-72952380D02*
X152738095Y-72952380D01*
X153023809Y-72952380D02*
X153023809Y-71952380D01*
X152928571Y-72095238D01*
X152833333Y-72190476D01*
X152738095Y-72238095D01*
X153642857Y-71952380D02*
X154309523Y-71952380D01*
X153880952Y-72952380D01*
X157435714Y-71052380D02*
X156864285Y-71052380D01*
X157150000Y-71052380D02*
X157150000Y-70052380D01*
X157054761Y-70195238D01*
X156959523Y-70290476D01*
X156864285Y-70338095D01*
X159785714Y-69952380D02*
X159785714Y-68952380D01*
X160023809Y-68952380D01*
X160166666Y-69000000D01*
X160261904Y-69095238D01*
X160309523Y-69190476D01*
X160357142Y-69380952D01*
X160357142Y-69523809D01*
X160309523Y-69714285D01*
X160261904Y-69809523D01*
X160166666Y-69904761D01*
X160023809Y-69952380D01*
X159785714Y-69952380D01*
X161309523Y-69952380D02*
X160738095Y-69952380D01*
X161023809Y-69952380D02*
X161023809Y-68952380D01*
X160928571Y-69095238D01*
X160833333Y-69190476D01*
X160738095Y-69238095D01*
X161880952Y-69380952D02*
X161785714Y-69333333D01*
X161738095Y-69285714D01*
X161690476Y-69190476D01*
X161690476Y-69142857D01*
X161738095Y-69047619D01*
X161785714Y-69000000D01*
X161880952Y-68952380D01*
X162071428Y-68952380D01*
X162166666Y-69000000D01*
X162214285Y-69047619D01*
X162261904Y-69142857D01*
X162261904Y-69190476D01*
X162214285Y-69285714D01*
X162166666Y-69333333D01*
X162071428Y-69380952D01*
X161880952Y-69380952D01*
X161785714Y-69428571D01*
X161738095Y-69476190D01*
X161690476Y-69571428D01*
X161690476Y-69761904D01*
X161738095Y-69857142D01*
X161785714Y-69904761D01*
X161880952Y-69952380D01*
X162071428Y-69952380D01*
X162166666Y-69904761D01*
X162214285Y-69857142D01*
X162261904Y-69761904D01*
X162261904Y-69571428D01*
X162214285Y-69476190D01*
X162166666Y-69428571D01*
X162071428Y-69380952D01*
X165435714Y-68052380D02*
X164864285Y-68052380D01*
X165150000Y-68052380D02*
X165150000Y-67052380D01*
X165054761Y-67195238D01*
X164959523Y-67290476D01*
X164864285Y-67338095D01*
X159785714Y-68952380D02*
X159785714Y-67952380D01*
X160023809Y-67952380D01*
X160166666Y-68000000D01*
X160261904Y-68095238D01*
X160309523Y-68190476D01*
X160357142Y-68380952D01*
X160357142Y-68523809D01*
X160309523Y-68714285D01*
X160261904Y-68809523D01*
X160166666Y-68904761D01*
X160023809Y-68952380D01*
X159785714Y-68952380D01*
X161309523Y-68952380D02*
X160738095Y-68952380D01*
X161023809Y-68952380D02*
X161023809Y-67952380D01*
X160928571Y-68095238D01*
X160833333Y-68190476D01*
X160738095Y-68238095D01*
X161785714Y-68952380D02*
X161976190Y-68952380D01*
X162071428Y-68904761D01*
X162119047Y-68857142D01*
X162214285Y-68714285D01*
X162261904Y-68523809D01*
X162261904Y-68142857D01*
X162214285Y-68047619D01*
X162166666Y-68000000D01*
X162071428Y-67952380D01*
X161880952Y-67952380D01*
X161785714Y-68000000D01*
X161738095Y-68047619D01*
X161690476Y-68142857D01*
X161690476Y-68380952D01*
X161738095Y-68476190D01*
X161785714Y-68523809D01*
X161880952Y-68571428D01*
X162071428Y-68571428D01*
X162166666Y-68523809D01*
X162214285Y-68476190D01*
X162261904Y-68380952D01*
X157135714Y-70852380D02*
X156564285Y-70852380D01*
X156850000Y-70852380D02*
X156850000Y-69852380D01*
X156754761Y-69995238D01*
X156659523Y-70090476D01*
X156564285Y-70138095D01*
X151785714Y-71952380D02*
X151785714Y-70952380D01*
X152023809Y-70952380D01*
X152166666Y-71000000D01*
X152261904Y-71095238D01*
X152309523Y-71190476D01*
X152357142Y-71380952D01*
X152357142Y-71523809D01*
X152309523Y-71714285D01*
X152261904Y-71809523D01*
X152166666Y-71904761D01*
X152023809Y-71952380D01*
X151785714Y-71952380D01*
X152738095Y-71047619D02*
X152785714Y-71000000D01*
X152880952Y-70952380D01*
X153119047Y-70952380D01*
X153214285Y-71000000D01*
X153261904Y-71047619D01*
X153309523Y-71142857D01*
X153309523Y-71238095D01*
X153261904Y-71380952D01*
X152690476Y-71952380D01*
X153309523Y-71952380D01*
X153928571Y-70952380D02*
X154023809Y-70952380D01*
X154119047Y-71000000D01*
X154166666Y-71047619D01*
X154214285Y-71142857D01*
X154261904Y-71333333D01*
X154261904Y-71571428D01*
X154214285Y-71761904D01*
X154166666Y-71857142D01*
X154119047Y-71904761D01*
X154023809Y-71952380D01*
X153928571Y-71952380D01*
X153833333Y-71904761D01*
X153785714Y-71857142D01*
X153738095Y-71761904D01*
X153690476Y-71571428D01*
X153690476Y-71333333D01*
X153738095Y-71142857D01*
X153785714Y-71047619D01*
X153833333Y-71000000D01*
X153928571Y-70952380D01*
X149135714Y-73852380D02*
X148564285Y-73852380D01*
X148850000Y-73852380D02*
X148850000Y-72852380D01*
X148754761Y-72995238D01*
X148659523Y-73090476D01*
X148564285Y-73138095D01*
X151785714Y-84952380D02*
X151785714Y-83952380D01*
X152023809Y-83952380D01*
X152166666Y-84000000D01*
X152261904Y-84095238D01*
X152309523Y-84190476D01*
X152357142Y-84380952D01*
X152357142Y-84523809D01*
X152309523Y-84714285D01*
X152261904Y-84809523D01*
X152166666Y-84904761D01*
X152023809Y-84952380D01*
X151785714Y-84952380D01*
X152738095Y-84047619D02*
X152785714Y-84000000D01*
X152880952Y-83952380D01*
X153119047Y-83952380D01*
X153214285Y-84000000D01*
X153261904Y-84047619D01*
X153309523Y-84142857D01*
X153309523Y-84238095D01*
X153261904Y-84380952D01*
X152690476Y-84952380D01*
X153309523Y-84952380D01*
X154261904Y-84952380D02*
X153690476Y-84952380D01*
X153976190Y-84952380D02*
X153976190Y-83952380D01*
X153880952Y-84095238D01*
X153785714Y-84190476D01*
X153690476Y-84238095D01*
X157435714Y-83052380D02*
X156864285Y-83052380D01*
X157150000Y-83052380D02*
X157150000Y-82052380D01*
X157054761Y-82195238D01*
X156959523Y-82290476D01*
X156864285Y-82338095D01*
X159785714Y-81952380D02*
X159785714Y-80952380D01*
X160023809Y-80952380D01*
X160166666Y-81000000D01*
X160261904Y-81095238D01*
X160309523Y-81190476D01*
X160357142Y-81380952D01*
X160357142Y-81523809D01*
X160309523Y-81714285D01*
X160261904Y-81809523D01*
X160166666Y-81904761D01*
X160023809Y-81952380D01*
X159785714Y-81952380D01*
X160738095Y-81047619D02*
X160785714Y-81000000D01*
X160880952Y-80952380D01*
X161119047Y-80952380D01*
X161214285Y-81000000D01*
X161261904Y-81047619D01*
X161309523Y-81142857D01*
X161309523Y-81238095D01*
X161261904Y-81380952D01*
X160690476Y-81952380D01*
X161309523Y-81952380D01*
X161690476Y-81047619D02*
X161738095Y-81000000D01*
X161833333Y-80952380D01*
X162071428Y-80952380D01*
X162166666Y-81000000D01*
X162214285Y-81047619D01*
X162261904Y-81142857D01*
X162261904Y-81238095D01*
X162214285Y-81380952D01*
X161642857Y-81952380D01*
X162261904Y-81952380D01*
X165435714Y-80052380D02*
X164864285Y-80052380D01*
X165150000Y-80052380D02*
X165150000Y-79052380D01*
X165054761Y-79195238D01*
X164959523Y-79290476D01*
X164864285Y-79338095D01*
X173261904Y-84952380D02*
X173261904Y-83952380D01*
X173500000Y-83952380D01*
X173642857Y-84000000D01*
X173738095Y-84095238D01*
X173785714Y-84190476D01*
X173833333Y-84380952D01*
X173833333Y-84523809D01*
X173785714Y-84714285D01*
X173738095Y-84809523D01*
X173642857Y-84904761D01*
X173500000Y-84952380D01*
X173261904Y-84952380D01*
X174166666Y-83952380D02*
X174785714Y-83952380D01*
X174452380Y-84333333D01*
X174595238Y-84333333D01*
X174690476Y-84380952D01*
X174738095Y-84428571D01*
X174785714Y-84523809D01*
X174785714Y-84761904D01*
X174738095Y-84857142D01*
X174690476Y-84904761D01*
X174595238Y-84952380D01*
X174309523Y-84952380D01*
X174214285Y-84904761D01*
X174166666Y-84857142D01*
X178435714Y-83052380D02*
X177864285Y-83052380D01*
X178150000Y-83052380D02*
X178150000Y-82052380D01*
X178054761Y-82195238D01*
X177959523Y-82290476D01*
X177864285Y-82338095D01*
X181261904Y-81952380D02*
X181261904Y-80952380D01*
X181500000Y-80952380D01*
X181642857Y-81000000D01*
X181738095Y-81095238D01*
X181785714Y-81190476D01*
X181833333Y-81380952D01*
X181833333Y-81523809D01*
X181785714Y-81714285D01*
X181738095Y-81809523D01*
X181642857Y-81904761D01*
X181500000Y-81952380D01*
X181261904Y-81952380D01*
X182690476Y-81285714D02*
X182690476Y-81952380D01*
X182452380Y-80904761D02*
X182214285Y-81619047D01*
X182833333Y-81619047D01*
X186435714Y-80052380D02*
X185864285Y-80052380D01*
X186150000Y-80052380D02*
X186150000Y-79052380D01*
X186054761Y-79195238D01*
X185959523Y-79290476D01*
X185864285Y-79338095D01*
X181261904Y-68952380D02*
X181261904Y-67952380D01*
X181500000Y-67952380D01*
X181642857Y-68000000D01*
X181738095Y-68095238D01*
X181785714Y-68190476D01*
X181833333Y-68380952D01*
X181833333Y-68523809D01*
X181785714Y-68714285D01*
X181738095Y-68809523D01*
X181642857Y-68904761D01*
X181500000Y-68952380D01*
X181261904Y-68952380D01*
X182738095Y-67952380D02*
X182261904Y-67952380D01*
X182214285Y-68428571D01*
X182261904Y-68380952D01*
X182357142Y-68333333D01*
X182595238Y-68333333D01*
X182690476Y-68380952D01*
X182738095Y-68428571D01*
X182785714Y-68523809D01*
X182785714Y-68761904D01*
X182738095Y-68857142D01*
X182690476Y-68904761D01*
X182595238Y-68952380D01*
X182357142Y-68952380D01*
X182261904Y-68904761D01*
X182214285Y-68857142D01*
X178135714Y-70852380D02*
X177564285Y-70852380D01*
X177850000Y-70852380D02*
X177850000Y-69852380D01*
X177754761Y-69995238D01*
X177659523Y-70090476D01*
X177564285Y-70138095D01*
X173261904Y-71952380D02*
X173261904Y-70952380D01*
X173500000Y-70952380D01*
X173642857Y-71000000D01*
X173738095Y-71095238D01*
X173785714Y-71190476D01*
X173833333Y-71380952D01*
X173833333Y-71523809D01*
X173785714Y-71714285D01*
X173738095Y-71809523D01*
X173642857Y-71904761D01*
X173500000Y-71952380D01*
X173261904Y-71952380D01*
X174690476Y-70952380D02*
X174500000Y-70952380D01*
X174404761Y-71000000D01*
X174357142Y-71047619D01*
X174261904Y-71190476D01*
X174214285Y-71380952D01*
X174214285Y-71761904D01*
X174261904Y-71857142D01*
X174309523Y-71904761D01*
X174404761Y-71952380D01*
X174595238Y-71952380D01*
X174690476Y-71904761D01*
X174738095Y-71857142D01*
X174785714Y-71761904D01*
X174785714Y-71523809D01*
X174738095Y-71428571D01*
X174690476Y-71380952D01*
X174595238Y-71333333D01*
X174404761Y-71333333D01*
X174309523Y-71380952D01*
X174261904Y-71428571D01*
X174214285Y-71523809D01*
X170135714Y-73852380D02*
X169564285Y-73852380D01*
X169850000Y-73852380D02*
X169850000Y-72852380D01*
X169754761Y-72995238D01*
X169659523Y-73090476D01*
X169564285Y-73138095D01*
X173261904Y-72952380D02*
X173261904Y-71952380D01*
X173500000Y-71952380D01*
X173642857Y-72000000D01*
X173738095Y-72095238D01*
X173785714Y-72190476D01*
X173833333Y-72380952D01*
X173833333Y-72523809D01*
X173785714Y-72714285D01*
X173738095Y-72809523D01*
X173642857Y-72904761D01*
X173500000Y-72952380D01*
X173261904Y-72952380D01*
X174166666Y-71952380D02*
X174833333Y-71952380D01*
X174404761Y-72952380D01*
X178435714Y-71052380D02*
X177864285Y-71052380D01*
X178150000Y-71052380D02*
X178150000Y-70052380D01*
X178054761Y-70195238D01*
X177959523Y-70290476D01*
X177864285Y-70338095D01*
X181261904Y-69952380D02*
X181261904Y-68952380D01*
X181500000Y-68952380D01*
X181642857Y-69000000D01*
X181738095Y-69095238D01*
X181785714Y-69190476D01*
X181833333Y-69380952D01*
X181833333Y-69523809D01*
X181785714Y-69714285D01*
X181738095Y-69809523D01*
X181642857Y-69904761D01*
X181500000Y-69952380D01*
X181261904Y-69952380D01*
X182404761Y-69380952D02*
X182309523Y-69333333D01*
X182261904Y-69285714D01*
X182214285Y-69190476D01*
X182214285Y-69142857D01*
X182261904Y-69047619D01*
X182309523Y-69000000D01*
X182404761Y-68952380D01*
X182595238Y-68952380D01*
X182690476Y-69000000D01*
X182738095Y-69047619D01*
X182785714Y-69142857D01*
X182785714Y-69190476D01*
X182738095Y-69285714D01*
X182690476Y-69333333D01*
X182595238Y-69380952D01*
X182404761Y-69380952D01*
X182309523Y-69428571D01*
X182261904Y-69476190D01*
X182214285Y-69571428D01*
X182214285Y-69761904D01*
X182261904Y-69857142D01*
X182309523Y-69904761D01*
X182404761Y-69952380D01*
X182595238Y-69952380D01*
X182690476Y-69904761D01*
X182738095Y-69857142D01*
X182785714Y-69761904D01*
X182785714Y-69571428D01*
X182738095Y-69476190D01*
X182690476Y-69428571D01*
X182595238Y-69380952D01*
X186435714Y-68052380D02*
X185864285Y-68052380D01*
X186150000Y-68052380D02*
X186150000Y-67052380D01*
X186054761Y-67195238D01*
X185959523Y-67290476D01*
X185864285Y-67338095D01*
X181261904Y-56952380D02*
X181261904Y-55952380D01*
X181500000Y-55952380D01*
X181642857Y-56000000D01*
X181738095Y-56095238D01*
X181785714Y-56190476D01*
X181833333Y-56380952D01*
X181833333Y-56523809D01*
X181785714Y-56714285D01*
X181738095Y-56809523D01*
X181642857Y-56904761D01*
X181500000Y-56952380D01*
X181261904Y-56952380D01*
X182309523Y-56952380D02*
X182500000Y-56952380D01*
X182595238Y-56904761D01*
X182642857Y-56857142D01*
X182738095Y-56714285D01*
X182785714Y-56523809D01*
X182785714Y-56142857D01*
X182738095Y-56047619D01*
X182690476Y-56000000D01*
X182595238Y-55952380D01*
X182404761Y-55952380D01*
X182309523Y-56000000D01*
X182261904Y-56047619D01*
X182214285Y-56142857D01*
X182214285Y-56380952D01*
X182261904Y-56476190D01*
X182309523Y-56523809D01*
X182404761Y-56571428D01*
X182595238Y-56571428D01*
X182690476Y-56523809D01*
X182738095Y-56476190D01*
X182785714Y-56380952D01*
X178135714Y-58852380D02*
X177564285Y-58852380D01*
X177850000Y-58852380D02*
X177850000Y-57852380D01*
X177754761Y-57995238D01*
X177659523Y-58090476D01*
X177564285Y-58138095D01*
X172785714Y-59952380D02*
X172785714Y-58952380D01*
X173023809Y-58952380D01*
X173166666Y-59000000D01*
X173261904Y-59095238D01*
X173309523Y-59190476D01*
X173357142Y-59380952D01*
X173357142Y-59523809D01*
X173309523Y-59714285D01*
X173261904Y-59809523D01*
X173166666Y-59904761D01*
X173023809Y-59952380D01*
X172785714Y-59952380D01*
X174309523Y-59952380D02*
X173738095Y-59952380D01*
X174023809Y-59952380D02*
X174023809Y-58952380D01*
X173928571Y-59095238D01*
X173833333Y-59190476D01*
X173738095Y-59238095D01*
X174928571Y-58952380D02*
X175023809Y-58952380D01*
X175119047Y-59000000D01*
X175166666Y-59047619D01*
X175214285Y-59142857D01*
X175261904Y-59333333D01*
X175261904Y-59571428D01*
X175214285Y-59761904D01*
X175166666Y-59857142D01*
X175119047Y-59904761D01*
X175023809Y-59952380D01*
X174928571Y-59952380D01*
X174833333Y-59904761D01*
X174785714Y-59857142D01*
X174738095Y-59761904D01*
X174690476Y-59571428D01*
X174690476Y-59333333D01*
X174738095Y-59142857D01*
X174785714Y-59047619D01*
X174833333Y-59000000D01*
X174928571Y-58952380D01*
X170135714Y-61852380D02*
X169564285Y-61852380D01*
X169850000Y-61852380D02*
X169850000Y-60852380D01*
X169754761Y-60995238D01*
X169659523Y-61090476D01*
X169564285Y-61138095D01*
X172785714Y-60952380D02*
X172785714Y-59952380D01*
X173023809Y-59952380D01*
X173166666Y-60000000D01*
X173261904Y-60095238D01*
X173309523Y-60190476D01*
X173357142Y-60380952D01*
X173357142Y-60523809D01*
X173309523Y-60714285D01*
X173261904Y-60809523D01*
X173166666Y-60904761D01*
X173023809Y-60952380D01*
X172785714Y-60952380D01*
X174309523Y-60952380D02*
X173738095Y-60952380D01*
X174023809Y-60952380D02*
X174023809Y-59952380D01*
X173928571Y-60095238D01*
X173833333Y-60190476D01*
X173738095Y-60238095D01*
X175261904Y-60952380D02*
X174690476Y-60952380D01*
X174976190Y-60952380D02*
X174976190Y-59952380D01*
X174880952Y-60095238D01*
X174785714Y-60190476D01*
X174690476Y-60238095D01*
X178435714Y-59052380D02*
X177864285Y-59052380D01*
X178150000Y-59052380D02*
X178150000Y-58052380D01*
X178054761Y-58195238D01*
X177959523Y-58290476D01*
X177864285Y-58338095D01*
X180785714Y-57952380D02*
X180785714Y-56952380D01*
X181023809Y-56952380D01*
X181166666Y-57000000D01*
X181261904Y-57095238D01*
X181309523Y-57190476D01*
X181357142Y-57380952D01*
X181357142Y-57523809D01*
X181309523Y-57714285D01*
X181261904Y-57809523D01*
X181166666Y-57904761D01*
X181023809Y-57952380D01*
X180785714Y-57952380D01*
X182309523Y-57952380D02*
X181738095Y-57952380D01*
X182023809Y-57952380D02*
X182023809Y-56952380D01*
X181928571Y-57095238D01*
X181833333Y-57190476D01*
X181738095Y-57238095D01*
X182690476Y-57047619D02*
X182738095Y-57000000D01*
X182833333Y-56952380D01*
X183071428Y-56952380D01*
X183166666Y-57000000D01*
X183214285Y-57047619D01*
X183261904Y-57142857D01*
X183261904Y-57238095D01*
X183214285Y-57380952D01*
X182642857Y-57952380D01*
X183261904Y-57952380D01*
X186435714Y-56052380D02*
X185864285Y-56052380D01*
X186150000Y-56052380D02*
X186150000Y-55052380D01*
X186054761Y-55195238D01*
X185959523Y-55290476D01*
X185864285Y-55338095D01*
X61217380Y-92725833D02*
X61931666Y-92725833D01*
X62074523Y-92773452D01*
X62169761Y-92868690D01*
X62217380Y-93011547D01*
X62217380Y-93106785D01*
X62217380Y-91725833D02*
X62217380Y-92297261D01*
X62217380Y-92011547D02*
X61217380Y-92011547D01*
X61360238Y-92106785D01*
X61455476Y-92202023D01*
X61503095Y-92297261D01*
X104410119Y-86772738D02*
X104362500Y-86867976D01*
X104267261Y-86963214D01*
X104124404Y-87106071D01*
X104076785Y-87201309D01*
X104076785Y-87296547D01*
X104314880Y-87248928D02*
X104267261Y-87344166D01*
X104172023Y-87439404D01*
X103981547Y-87487023D01*
X103648214Y-87487023D01*
X103457738Y-87439404D01*
X103362500Y-87344166D01*
X103314880Y-87248928D01*
X103314880Y-87058452D01*
X103362500Y-86963214D01*
X103457738Y-86867976D01*
X103648214Y-86820357D01*
X103981547Y-86820357D01*
X104172023Y-86867976D01*
X104267261Y-86963214D01*
X104314880Y-87058452D01*
X104314880Y-87248928D01*
X104314880Y-85867976D02*
X104314880Y-86439404D01*
X104314880Y-86153690D02*
X103314880Y-86153690D01*
X103457738Y-86248928D01*
X103552976Y-86344166D01*
X103600595Y-86439404D01*
X103655833Y-89669880D02*
X103322500Y-89193690D01*
X103084404Y-89669880D02*
X103084404Y-88669880D01*
X103465357Y-88669880D01*
X103560595Y-88717500D01*
X103608214Y-88765119D01*
X103655833Y-88860357D01*
X103655833Y-89003214D01*
X103608214Y-89098452D01*
X103560595Y-89146071D01*
X103465357Y-89193690D01*
X103084404Y-89193690D01*
X104512976Y-88669880D02*
X104322500Y-88669880D01*
X104227261Y-88717500D01*
X104179642Y-88765119D01*
X104084404Y-88907976D01*
X104036785Y-89098452D01*
X104036785Y-89479404D01*
X104084404Y-89574642D01*
X104132023Y-89622261D01*
X104227261Y-89669880D01*
X104417738Y-89669880D01*
X104512976Y-89622261D01*
X104560595Y-89574642D01*
X104608214Y-89479404D01*
X104608214Y-89241309D01*
X104560595Y-89146071D01*
X104512976Y-89098452D01*
X104417738Y-89050833D01*
X104227261Y-89050833D01*
X104132023Y-89098452D01*
X104084404Y-89146071D01*
X104036785Y-89241309D01*
X73484880Y-94424404D02*
X74294404Y-94424404D01*
X74389642Y-94376785D01*
X74437261Y-94329166D01*
X74484880Y-94233928D01*
X74484880Y-94043452D01*
X74437261Y-93948214D01*
X74389642Y-93900595D01*
X74294404Y-93852976D01*
X73484880Y-93852976D01*
X73580119Y-93424404D02*
X73532500Y-93376785D01*
X73484880Y-93281547D01*
X73484880Y-93043452D01*
X73532500Y-92948214D01*
X73580119Y-92900595D01*
X73675357Y-92852976D01*
X73770595Y-92852976D01*
X73913452Y-92900595D01*
X74484880Y-93472023D01*
X74484880Y-92852976D01*
X124850833Y-93479880D02*
X124517500Y-93003690D01*
X124279404Y-93479880D02*
X124279404Y-92479880D01*
X124660357Y-92479880D01*
X124755595Y-92527500D01*
X124803214Y-92575119D01*
X124850833Y-92670357D01*
X124850833Y-92813214D01*
X124803214Y-92908452D01*
X124755595Y-92956071D01*
X124660357Y-93003690D01*
X124279404Y-93003690D01*
X125231785Y-92575119D02*
X125279404Y-92527500D01*
X125374642Y-92479880D01*
X125612738Y-92479880D01*
X125707976Y-92527500D01*
X125755595Y-92575119D01*
X125803214Y-92670357D01*
X125803214Y-92765595D01*
X125755595Y-92908452D01*
X125184166Y-93479880D01*
X125803214Y-93479880D01*
X124850833Y-91892380D02*
X124517500Y-91416190D01*
X124279404Y-91892380D02*
X124279404Y-90892380D01*
X124660357Y-90892380D01*
X124755595Y-90940000D01*
X124803214Y-90987619D01*
X124850833Y-91082857D01*
X124850833Y-91225714D01*
X124803214Y-91320952D01*
X124755595Y-91368571D01*
X124660357Y-91416190D01*
X124279404Y-91416190D01*
X125707976Y-91225714D02*
X125707976Y-91892380D01*
X125469880Y-90844761D02*
X125231785Y-91559047D01*
X125850833Y-91559047D01*
X124688333Y-90304880D02*
X124355000Y-89828690D01*
X124116904Y-90304880D02*
X124116904Y-89304880D01*
X124497857Y-89304880D01*
X124593095Y-89352500D01*
X124640714Y-89400119D01*
X124688333Y-89495357D01*
X124688333Y-89638214D01*
X124640714Y-89733452D01*
X124593095Y-89781071D01*
X124497857Y-89828690D01*
X124116904Y-89828690D01*
X125593095Y-89304880D02*
X125116904Y-89304880D01*
X125069285Y-89781071D01*
X125116904Y-89733452D01*
X125212142Y-89685833D01*
X125450238Y-89685833D01*
X125545476Y-89733452D01*
X125593095Y-89781071D01*
X125640714Y-89876309D01*
X125640714Y-90114404D01*
X125593095Y-90209642D01*
X125545476Y-90257261D01*
X125450238Y-90304880D01*
X125212142Y-90304880D01*
X125116904Y-90257261D01*
X125069285Y-90209642D01*
X124610833Y-88717380D02*
X124277500Y-88241190D01*
X124039404Y-88717380D02*
X124039404Y-87717380D01*
X124420357Y-87717380D01*
X124515595Y-87765000D01*
X124563214Y-87812619D01*
X124610833Y-87907857D01*
X124610833Y-88050714D01*
X124563214Y-88145952D01*
X124515595Y-88193571D01*
X124420357Y-88241190D01*
X124039404Y-88241190D01*
X124944166Y-87717380D02*
X125610833Y-87717380D01*
X125182261Y-88717380D01*
X99512380Y-96686666D02*
X99036190Y-97020000D01*
X99512380Y-97258095D02*
X98512380Y-97258095D01*
X98512380Y-96877142D01*
X98560000Y-96781904D01*
X98607619Y-96734285D01*
X98702857Y-96686666D01*
X98845714Y-96686666D01*
X98940952Y-96734285D01*
X98988571Y-96781904D01*
X99036190Y-96877142D01*
X99036190Y-97258095D01*
X99512380Y-95734285D02*
X99512380Y-96305714D01*
X99512380Y-96020000D02*
X98512380Y-96020000D01*
X98655238Y-96115238D01*
X98750476Y-96210476D01*
X98798095Y-96305714D01*
X97924880Y-96686666D02*
X97448690Y-97020000D01*
X97924880Y-97258095D02*
X96924880Y-97258095D01*
X96924880Y-96877142D01*
X96972500Y-96781904D01*
X97020119Y-96734285D01*
X97115357Y-96686666D01*
X97258214Y-96686666D01*
X97353452Y-96734285D01*
X97401071Y-96781904D01*
X97448690Y-96877142D01*
X97448690Y-97258095D01*
X96924880Y-96353333D02*
X96924880Y-95734285D01*
X97305833Y-96067619D01*
X97305833Y-95924761D01*
X97353452Y-95829523D01*
X97401071Y-95781904D01*
X97496309Y-95734285D01*
X97734404Y-95734285D01*
X97829642Y-95781904D01*
X97877261Y-95829523D01*
X97924880Y-95924761D01*
X97924880Y-96210476D01*
X97877261Y-96305714D01*
X97829642Y-96353333D01*
X150189166Y-90479761D02*
X150332023Y-90527380D01*
X150570119Y-90527380D01*
X150665357Y-90479761D01*
X150712976Y-90432142D01*
X150760595Y-90336904D01*
X150760595Y-90241666D01*
X150712976Y-90146428D01*
X150665357Y-90098809D01*
X150570119Y-90051190D01*
X150379642Y-90003571D01*
X150284404Y-89955952D01*
X150236785Y-89908333D01*
X150189166Y-89813095D01*
X150189166Y-89717857D01*
X150236785Y-89622619D01*
X150284404Y-89575000D01*
X150379642Y-89527380D01*
X150617738Y-89527380D01*
X150760595Y-89575000D01*
X151093928Y-89527380D02*
X151332023Y-90527380D01*
X151522500Y-89813095D01*
X151712976Y-90527380D01*
X151951071Y-89527380D01*
X152855833Y-90527380D02*
X152284404Y-90527380D01*
X152570119Y-90527380D02*
X152570119Y-89527380D01*
X152474880Y-89670238D01*
X152379642Y-89765476D01*
X152284404Y-89813095D01*
X160031666Y-90479761D02*
X160174523Y-90527380D01*
X160412619Y-90527380D01*
X160507857Y-90479761D01*
X160555476Y-90432142D01*
X160603095Y-90336904D01*
X160603095Y-90241666D01*
X160555476Y-90146428D01*
X160507857Y-90098809D01*
X160412619Y-90051190D01*
X160222142Y-90003571D01*
X160126904Y-89955952D01*
X160079285Y-89908333D01*
X160031666Y-89813095D01*
X160031666Y-89717857D01*
X160079285Y-89622619D01*
X160126904Y-89575000D01*
X160222142Y-89527380D01*
X160460238Y-89527380D01*
X160603095Y-89575000D01*
X160936428Y-89527380D02*
X161174523Y-90527380D01*
X161365000Y-89813095D01*
X161555476Y-90527380D01*
X161793571Y-89527380D01*
X162126904Y-89622619D02*
X162174523Y-89575000D01*
X162269761Y-89527380D01*
X162507857Y-89527380D01*
X162603095Y-89575000D01*
X162650714Y-89622619D01*
X162698333Y-89717857D01*
X162698333Y-89813095D01*
X162650714Y-89955952D01*
X162079285Y-90527380D01*
X162698333Y-90527380D01*
X169874166Y-90479761D02*
X170017023Y-90527380D01*
X170255119Y-90527380D01*
X170350357Y-90479761D01*
X170397976Y-90432142D01*
X170445595Y-90336904D01*
X170445595Y-90241666D01*
X170397976Y-90146428D01*
X170350357Y-90098809D01*
X170255119Y-90051190D01*
X170064642Y-90003571D01*
X169969404Y-89955952D01*
X169921785Y-89908333D01*
X169874166Y-89813095D01*
X169874166Y-89717857D01*
X169921785Y-89622619D01*
X169969404Y-89575000D01*
X170064642Y-89527380D01*
X170302738Y-89527380D01*
X170445595Y-89575000D01*
X170778928Y-89527380D02*
X171017023Y-90527380D01*
X171207500Y-89813095D01*
X171397976Y-90527380D01*
X171636071Y-89527380D01*
X171921785Y-89527380D02*
X172540833Y-89527380D01*
X172207500Y-89908333D01*
X172350357Y-89908333D01*
X172445595Y-89955952D01*
X172493214Y-90003571D01*
X172540833Y-90098809D01*
X172540833Y-90336904D01*
X172493214Y-90432142D01*
X172445595Y-90479761D01*
X172350357Y-90527380D01*
X172064642Y-90527380D01*
X171969404Y-90479761D01*
X171921785Y-90432142D01*
X179716666Y-90479761D02*
X179859523Y-90527380D01*
X180097619Y-90527380D01*
X180192857Y-90479761D01*
X180240476Y-90432142D01*
X180288095Y-90336904D01*
X180288095Y-90241666D01*
X180240476Y-90146428D01*
X180192857Y-90098809D01*
X180097619Y-90051190D01*
X179907142Y-90003571D01*
X179811904Y-89955952D01*
X179764285Y-89908333D01*
X179716666Y-89813095D01*
X179716666Y-89717857D01*
X179764285Y-89622619D01*
X179811904Y-89575000D01*
X179907142Y-89527380D01*
X180145238Y-89527380D01*
X180288095Y-89575000D01*
X180621428Y-89527380D02*
X180859523Y-90527380D01*
X181050000Y-89813095D01*
X181240476Y-90527380D01*
X181478571Y-89527380D01*
X182288095Y-89860714D02*
X182288095Y-90527380D01*
X182050000Y-89479761D02*
X181811904Y-90194047D01*
X182430952Y-90194047D01*
X113855595Y-86429880D02*
X113855595Y-87239404D01*
X113903214Y-87334642D01*
X113950833Y-87382261D01*
X114046071Y-87429880D01*
X114236547Y-87429880D01*
X114331785Y-87382261D01*
X114379404Y-87334642D01*
X114427023Y-87239404D01*
X114427023Y-86429880D01*
X115427023Y-87429880D02*
X114855595Y-87429880D01*
X115141309Y-87429880D02*
X115141309Y-86429880D01*
X115046071Y-86572738D01*
X114950833Y-86667976D01*
X114855595Y-86715595D01*
X103655833Y-91162142D02*
X103608214Y-91209761D01*
X103465357Y-91257380D01*
X103370119Y-91257380D01*
X103227261Y-91209761D01*
X103132023Y-91114523D01*
X103084404Y-91019285D01*
X103036785Y-90828809D01*
X103036785Y-90685952D01*
X103084404Y-90495476D01*
X103132023Y-90400238D01*
X103227261Y-90305000D01*
X103370119Y-90257380D01*
X103465357Y-90257380D01*
X103608214Y-90305000D01*
X103655833Y-90352619D01*
X103989166Y-90257380D02*
X104608214Y-90257380D01*
X104274880Y-90638333D01*
X104417738Y-90638333D01*
X104512976Y-90685952D01*
X104560595Y-90733571D01*
X104608214Y-90828809D01*
X104608214Y-91066904D01*
X104560595Y-91162142D01*
X104512976Y-91209761D01*
X104417738Y-91257380D01*
X104132023Y-91257380D01*
X104036785Y-91209761D01*
X103989166Y-91162142D01*
X103503333Y-92749642D02*
X103455714Y-92797261D01*
X103312857Y-92844880D01*
X103217619Y-92844880D01*
X103074761Y-92797261D01*
X102979523Y-92702023D01*
X102931904Y-92606785D01*
X102884285Y-92416309D01*
X102884285Y-92273452D01*
X102931904Y-92082976D01*
X102979523Y-91987738D01*
X103074761Y-91892500D01*
X103217619Y-91844880D01*
X103312857Y-91844880D01*
X103455714Y-91892500D01*
X103503333Y-91940119D01*
X104360476Y-92178214D02*
X104360476Y-92844880D01*
X104122380Y-91797261D02*
X103884285Y-92511547D01*
X104503333Y-92511547D01*
X103655833Y-94337142D02*
X103608214Y-94384761D01*
X103465357Y-94432380D01*
X103370119Y-94432380D01*
X103227261Y-94384761D01*
X103132023Y-94289523D01*
X103084404Y-94194285D01*
X103036785Y-94003809D01*
X103036785Y-93860952D01*
X103084404Y-93670476D01*
X103132023Y-93575238D01*
X103227261Y-93480000D01*
X103370119Y-93432380D01*
X103465357Y-93432380D01*
X103608214Y-93480000D01*
X103655833Y-93527619D01*
X104560595Y-93432380D02*
X104084404Y-93432380D01*
X104036785Y-93908571D01*
X104084404Y-93860952D01*
X104179642Y-93813333D01*
X104417738Y-93813333D01*
X104512976Y-93860952D01*
X104560595Y-93908571D01*
X104608214Y-94003809D01*
X104608214Y-94241904D01*
X104560595Y-94337142D01*
X104512976Y-94384761D01*
X104417738Y-94432380D01*
X104179642Y-94432380D01*
X104084404Y-94384761D01*
X104036785Y-94337142D01*
X97051904Y-86812380D02*
X97051904Y-85812380D01*
X97290000Y-85812380D01*
X97432857Y-85860000D01*
X97528095Y-85955238D01*
X97575714Y-86050476D01*
X97623333Y-86240952D01*
X97623333Y-86383809D01*
X97575714Y-86574285D01*
X97528095Y-86669523D01*
X97432857Y-86764761D01*
X97290000Y-86812380D01*
X97051904Y-86812380D01*
X98575714Y-86812380D02*
X98004285Y-86812380D01*
X98290000Y-86812380D02*
X98290000Y-85812380D01*
X98194761Y-85955238D01*
X98099523Y-86050476D01*
X98004285Y-86098095D01*
X99274404Y-86812380D02*
X99274404Y-85812380D01*
X99512500Y-85812380D01*
X99655357Y-85860000D01*
X99750595Y-85955238D01*
X99798214Y-86050476D01*
X99845833Y-86240952D01*
X99845833Y-86383809D01*
X99798214Y-86574285D01*
X99750595Y-86669523D01*
X99655357Y-86764761D01*
X99512500Y-86812380D01*
X99274404Y-86812380D01*
X100226785Y-85907619D02*
X100274404Y-85860000D01*
X100369642Y-85812380D01*
X100607738Y-85812380D01*
X100702976Y-85860000D01*
X100750595Y-85907619D01*
X100798214Y-86002857D01*
X100798214Y-86098095D01*
X100750595Y-86240952D01*
X100179166Y-86812380D01*
X100798214Y-86812380D01*
X91738094Y-96647379D02*
X91738094Y-97456903D01*
X91785713Y-97552141D01*
X91833332Y-97599760D01*
X91928570Y-97647379D01*
X92119046Y-97647379D01*
X92214284Y-97599760D01*
X92261903Y-97552141D01*
X92309522Y-97456903D01*
X92309522Y-96647379D01*
X92690475Y-96647379D02*
X93309522Y-96647379D01*
X92976189Y-97028332D01*
X93119046Y-97028332D01*
X93214284Y-97075951D01*
X93261903Y-97123570D01*
X93309522Y-97218808D01*
X93309522Y-97456903D01*
X93261903Y-97552141D01*
X93214284Y-97599760D01*
X93119046Y-97647379D01*
X92833332Y-97647379D01*
X92738094Y-97599760D01*
X92690475Y-97552141D01*
X102223809Y-96496190D02*
X102223809Y-96972380D01*
X101890476Y-95972380D02*
X102223809Y-96496190D01*
X102557142Y-95972380D01*
X103414285Y-96972380D02*
X102842857Y-96972380D01*
X103128571Y-96972380D02*
X103128571Y-95972380D01*
X103033333Y-96115238D01*
X102938095Y-96210476D01*
X102842857Y-96258095D01*
M02*
