G04 #@! TF.GenerationSoftware,KiCad,Pcbnew,(5.1.5)-3*
G04 #@! TF.CreationDate,2020-09-12T22:58:36+09:00*
G04 #@! TF.ProjectId,acrylic_nixie_clock,61637279-6c69-4635-9f6e-697869655f63,rev?*
G04 #@! TF.SameCoordinates,Original*
G04 #@! TF.FileFunction,Legend,Bot*
G04 #@! TF.FilePolarity,Positive*
%FSLAX46Y46*%
G04 Gerber Fmt 4.6, Leading zero omitted, Abs format (unit mm)*
G04 Created by KiCad (PCBNEW (5.1.5)-3) date 2020-09-12 22:58:36*
%MOMM*%
%LPD*%
G04 APERTURE LIST*
%ADD10C,0.120000*%
%ADD11C,0.150000*%
G04 APERTURE END LIST*
D10*
X78820000Y-87927500D02*
X84790000Y-87927500D01*
X84790000Y-87927500D02*
X84790000Y-95547500D01*
X84790000Y-95547500D02*
X78820000Y-95547500D01*
X78820000Y-95547500D02*
X78820000Y-87927500D01*
X78830000Y-91237500D02*
X79580000Y-91237500D01*
X79580000Y-91237500D02*
X79580000Y-92237500D01*
X79580000Y-92237500D02*
X78830000Y-92237500D01*
X78830000Y-92237500D02*
X78830000Y-91237500D01*
X78830000Y-87937500D02*
X79580000Y-87937500D01*
X79580000Y-87937500D02*
X79580000Y-89737500D01*
X79580000Y-89737500D02*
X78830000Y-89737500D01*
X78830000Y-89737500D02*
X78830000Y-87937500D01*
X78830000Y-93737500D02*
X79580000Y-93737500D01*
X79580000Y-93737500D02*
X79580000Y-95537500D01*
X79580000Y-95537500D02*
X78830000Y-95537500D01*
X78830000Y-95537500D02*
X78830000Y-93737500D01*
X81080000Y-87937500D02*
X81080000Y-88687500D01*
X81080000Y-88687500D02*
X84030000Y-88687500D01*
X84030000Y-88687500D02*
X84030000Y-91737500D01*
X81080000Y-95537500D02*
X81080000Y-94787500D01*
X81080000Y-94787500D02*
X84030000Y-94787500D01*
X84030000Y-94787500D02*
X84030000Y-91737500D01*
X78530000Y-88887500D02*
X78530000Y-87637500D01*
X78530000Y-87637500D02*
X79780000Y-87637500D01*
X127682500Y-99925000D02*
X143462500Y-99925000D01*
X143462500Y-99925000D02*
X143462500Y-90575000D01*
X143462500Y-90575000D02*
X127682500Y-90575000D01*
X127682500Y-90575000D02*
X127682500Y-99925000D01*
X127432500Y-90325000D02*
X129972500Y-90325000D01*
X127432500Y-90325000D02*
X127432500Y-92865000D01*
X153762130Y-56340711D02*
G75*
G03X150915500Y-60842500I7845370J-8111789D01*
G01*
X169452870Y-72564289D02*
G75*
G03X172299500Y-68062500I-7845370J8111789D01*
G01*
X169452870Y-56340711D02*
G75*
G02X172299500Y-60842500I-7845370J-8111789D01*
G01*
X153762130Y-72564289D02*
G75*
G02X150915500Y-68062500I7845370J8111789D01*
G01*
X147297500Y-62552500D02*
X147297500Y-60842500D01*
X150915500Y-60842500D02*
X147297500Y-60842500D01*
X157747500Y-56342500D02*
X153760200Y-56342500D01*
X159947500Y-58542500D02*
X157747500Y-56342500D01*
X163267500Y-58542500D02*
X159947500Y-58542500D01*
X163267500Y-58542500D02*
X165467500Y-56342500D01*
X169454800Y-56342500D02*
X165467500Y-56342500D01*
X175917500Y-62552500D02*
X175917500Y-60842500D01*
X175917500Y-60842500D02*
X172299500Y-60842500D01*
X172299500Y-68062500D02*
X175917500Y-68062500D01*
X175917500Y-66352500D02*
X175917500Y-68062500D01*
X153760200Y-72562500D02*
X169454800Y-72562500D01*
X147297500Y-66352500D02*
X147297500Y-68062500D01*
X147297500Y-68062500D02*
X150915500Y-68062500D01*
D11*
X78182380Y-91094642D02*
X78182380Y-90618452D01*
X77182380Y-90618452D01*
X78134761Y-91380357D02*
X78182380Y-91523214D01*
X78182380Y-91761309D01*
X78134761Y-91856547D01*
X78087142Y-91904166D01*
X77991904Y-91951785D01*
X77896666Y-91951785D01*
X77801428Y-91904166D01*
X77753809Y-91856547D01*
X77706190Y-91761309D01*
X77658571Y-91570833D01*
X77610952Y-91475595D01*
X77563333Y-91427976D01*
X77468095Y-91380357D01*
X77372857Y-91380357D01*
X77277619Y-91427976D01*
X77230000Y-91475595D01*
X77182380Y-91570833D01*
X77182380Y-91808928D01*
X77230000Y-91951785D01*
X78182380Y-92904166D02*
X78182380Y-92332738D01*
X78182380Y-92618452D02*
X77182380Y-92618452D01*
X77325238Y-92523214D01*
X77420476Y-92427976D01*
X77468095Y-92332738D01*
X125880880Y-94916666D02*
X126595166Y-94916666D01*
X126738023Y-94869047D01*
X126833261Y-94773809D01*
X126880880Y-94630952D01*
X126880880Y-94535714D01*
X125976119Y-95345238D02*
X125928500Y-95392857D01*
X125880880Y-95488095D01*
X125880880Y-95726190D01*
X125928500Y-95821428D01*
X125976119Y-95869047D01*
X126071357Y-95916666D01*
X126166595Y-95916666D01*
X126309452Y-95869047D01*
X126880880Y-95297619D01*
X126880880Y-95916666D01*
X162393214Y-56761071D02*
X162250357Y-56808690D01*
X162202738Y-56856309D01*
X162155119Y-56951547D01*
X162155119Y-57094404D01*
X162202738Y-57189642D01*
X162250357Y-57237261D01*
X162345595Y-57284880D01*
X162726547Y-57284880D01*
X162726547Y-56284880D01*
X162393214Y-56284880D01*
X162297976Y-56332500D01*
X162250357Y-56380119D01*
X162202738Y-56475357D01*
X162202738Y-56570595D01*
X162250357Y-56665833D01*
X162297976Y-56713452D01*
X162393214Y-56761071D01*
X162726547Y-56761071D01*
X161869404Y-56284880D02*
X161297976Y-56284880D01*
X161583690Y-57284880D02*
X161583690Y-56284880D01*
X160440833Y-57284880D02*
X161012261Y-57284880D01*
X160726547Y-57284880D02*
X160726547Y-56284880D01*
X160821785Y-56427738D01*
X160917023Y-56522976D01*
X161012261Y-56570595D01*
M02*
