M48
; DRILL file {KiCad (5.1.5)-3} date 2020/09/12 22:58:59
; FORMAT={-:-/ absolute / inch / decimal}
; #@! TF.CreationDate,2020-09-12T22:58:59+09:00
; #@! TF.GenerationSoftware,Kicad,Pcbnew,(5.1.5)-3
; #@! TF.FileFunction,Plated,1,2,PTH
FMAT,2
INCH
T1C0.0394
T2C0.0400
T3C0.0433
%
G90
G05
T1
X3.2Y-3.5625
X3.2Y-3.6609
T2
X5.2375Y-3.7
X5.2375Y-3.8
X5.3375Y-3.7
X5.3375Y-3.8
X5.4375Y-3.7
X5.4375Y-3.8
T3
X7.0Y-3.625
X7.0Y-3.8022
X7.2559Y-3.625
X7.2559Y-3.8022
X5.8375Y-3.625
X5.8375Y-3.8022
X6.0934Y-3.625
X6.0934Y-3.8022
X6.6125Y-3.625
X6.6125Y-3.8022
X6.8684Y-3.625
X6.8684Y-3.8022
X6.225Y-3.625
X6.225Y-3.8022
X6.4809Y-3.625
X6.4809Y-3.8022
T0
M30
